<svg width="302" height="228" viewBox="0 0 302 228" fill="none" xmlns="http://www.w3.org/2000/svg">
<path d="M158.716 155.55L237.093 155.64C238.209 155.583 239.274 155.155 240.121 154.424C240.967 153.693 241.546 152.7 241.766 151.602L256.345 74.5073C256.474 74.0271 256.489 73.5235 256.391 73.0362C256.292 72.549 256.082 72.0912 255.777 71.6991C255.472 71.307 255.08 70.9911 254.632 70.7763C254.184 70.5615 253.693 70.4536 253.197 70.4612L174.82 70.3705C173.704 70.4276 172.639 70.8556 171.792 71.587C170.946 72.3183 170.367 73.3113 170.147 74.409L155.568 151.504C155.439 151.984 155.424 152.487 155.522 152.975C155.621 153.462 155.831 153.92 156.136 154.312C156.441 154.704 156.833 155.02 157.281 155.235C157.729 155.449 158.22 155.557 158.716 155.55Z" fill="white"/>
<path d="M237.07 156.019L158.694 155.928C158.166 155.938 157.643 155.829 157.162 155.611C156.681 155.392 156.255 155.069 155.915 154.665C155.556 154.218 155.301 153.695 155.17 153.136C155.04 152.577 155.036 151.996 155.16 151.436L169.777 74.3335C170.018 73.1522 170.644 72.0847 171.557 71.2989C172.47 70.5131 173.618 70.0535 174.82 69.9924L253.197 70.0832C253.719 70.0781 254.235 70.1879 254.71 70.4048C255.185 70.6217 255.607 70.9405 255.945 71.3386C256.304 71.7873 256.559 72.311 256.689 72.8712C256.82 73.4313 256.824 74.0137 256.7 74.5755L242.136 151.678C241.894 152.863 241.264 153.933 240.347 154.719C239.429 155.505 238.276 155.962 237.07 156.019ZM158.694 155.172L237.07 155.262C238.099 155.208 239.081 154.813 239.86 154.137C240.639 153.462 241.172 152.546 241.374 151.534L255.945 74.4393C256.049 73.9874 256.051 73.5178 255.951 73.065C255.85 72.6122 255.649 72.1877 255.364 71.8226C255.092 71.5072 254.754 71.2555 254.375 71.0856C253.995 70.9157 253.583 70.8316 253.167 70.8395L174.79 70.7487C173.761 70.8027 172.779 71.1986 172 71.8738C171.221 72.549 170.688 73.465 170.487 74.4771L155.938 151.572C155.834 152.024 155.833 152.493 155.933 152.946C156.034 153.399 156.234 153.823 156.519 154.188C156.791 154.504 157.128 154.756 157.508 154.925C157.888 155.095 158.3 155.179 158.716 155.172H158.694Z" fill="#271A8A"/>
<path d="M254.979 82.1306L168.78 82.0247C168.68 82.0247 168.584 81.9849 168.513 81.914C168.443 81.843 168.403 81.7469 168.403 81.6466C168.405 81.5469 168.445 81.4518 168.516 81.3813C168.586 81.3108 168.681 81.2704 168.78 81.2684L254.986 81.3743C255.086 81.3743 255.182 81.4141 255.253 81.4851C255.324 81.556 255.364 81.6522 255.364 81.7524C255.362 81.8534 255.32 81.9496 255.248 82.0203C255.176 82.091 255.08 82.1306 254.979 82.1306Z" fill="#271A8A"/>
<path d="M249.195 77.2573C250.021 76.379 250.106 75.1142 249.384 74.4323C248.662 73.7504 247.406 73.9097 246.58 74.788C245.753 75.6664 245.669 76.9312 246.391 77.6131C247.113 78.295 248.368 78.1357 249.195 77.2573Z" fill="#EDEBFF"/>
<path d="M242.33 77.2479C243.157 76.3696 243.241 75.1048 242.519 74.4229C241.797 73.741 240.542 73.9003 239.715 74.7786C238.888 75.657 238.804 76.9218 239.526 77.6037C240.248 78.2856 241.503 78.1263 242.33 77.2479Z" fill="#EDEBFF"/>
<path d="M235.465 77.2384C236.292 76.3601 236.376 75.0953 235.654 74.4134C234.932 73.7315 233.677 73.8908 232.85 74.7691C232.023 75.6475 231.939 76.9123 232.661 77.5942C233.383 78.276 234.639 78.1168 235.465 77.2384Z" fill="#EDEBFF"/>
<path d="M214.216 88.075L206.81 127.227L238.218 127.265L245.624 88.1128L214.216 88.075Z" fill="white"/>
<path d="M214.209 88.0749H245.624L238.225 127.227H206.81L214.209 88.0749ZM214.209 87.3186C214.031 87.3154 213.858 87.375 213.72 87.4871C213.582 87.5991 213.487 87.7564 213.454 87.9312L206.055 127.084C206.033 127.194 206.037 127.308 206.065 127.417C206.093 127.526 206.146 127.628 206.218 127.714C206.29 127.8 206.381 127.869 206.483 127.916C206.586 127.962 206.697 127.986 206.81 127.983H238.218C238.396 127.986 238.57 127.926 238.709 127.812C238.847 127.699 238.94 127.54 238.973 127.363L246.372 88.211C246.392 88.1023 246.389 87.9905 246.361 87.8833C246.334 87.7762 246.283 87.6763 246.213 87.5909C246.142 87.5055 246.053 87.4368 245.953 87.3898C245.852 87.3427 245.743 87.3184 245.632 87.3186H214.224H214.209Z" fill="#271A8A"/>
<path d="M236.549 98.3451C236.488 98.8543 236.539 99.3707 236.7 99.8577C236.843 100.142 237.015 100.41 237.213 100.659C237.836 101.612 238.195 102.713 238.255 103.851C238.339 104.62 238.235 105.399 237.953 106.12C237.727 106.649 237.364 107.118 237.153 107.632C236.901 108.257 236.862 108.948 237.04 109.598C237.213 110.211 237.561 110.877 237.244 111.421C237.119 111.599 236.949 111.74 236.751 111.829C236.553 111.918 236.334 111.952 236.119 111.928C235.688 111.873 235.265 111.769 234.858 111.618C232.555 110.952 229.656 111.27 227.24 111.103L218.18 110.468C216.949 110.377 215.424 110.067 215.1 108.872C214.828 107.867 215.809 106.188 216.202 105.242C216.806 103.612 217.6 102.059 218.565 100.614C219.122 99.9537 219.597 99.2273 219.977 98.451C220.147 97.9368 220.29 97.4143 220.407 96.8855C220.925 95.3644 221.822 94.0005 223.012 92.9226C223.78 92.1273 224.664 91.4518 225.632 90.9185C228.916 89.2093 234.375 90.3664 235.87 94.0041C236.409 95.3843 236.641 96.8658 236.549 98.3451Z" fill="white"/>
<path d="M236.194 112.329H236.096C235.732 112.298 235.374 112.219 235.032 112.094L234.752 112.011C233.116 111.642 231.438 111.492 229.762 111.565C228.863 111.565 228.025 111.565 227.21 111.504L218.15 110.869C216.149 110.733 215.032 110.113 214.73 108.993C214.473 108.056 215.069 106.785 215.545 105.764C215.658 105.522 215.764 105.303 215.847 105.114C216.461 103.455 217.267 101.874 218.248 100.402C218.369 100.228 218.497 100.062 218.625 99.8955C219.024 99.4182 219.357 98.889 219.614 98.3225C219.725 98.0192 219.813 97.7083 219.879 97.3922C219.924 97.188 219.977 96.9914 220.03 96.7872C220.563 95.202 221.497 93.782 222.74 92.6655C223.531 91.8365 224.445 91.1349 225.451 90.5858C226.509 90.0925 227.656 89.8163 228.823 89.7735C229.99 89.7306 231.154 89.9219 232.246 90.3362C233.115 90.6157 233.916 91.0743 234.597 91.6826C235.278 92.2909 235.825 93.0353 236.202 93.868C236.753 95.3004 236.985 96.8362 236.881 98.3678V98.4359C236.813 98.7487 236.819 99.0733 236.899 99.3833C236.979 99.6934 237.131 99.9802 237.342 100.221L237.478 100.417C238.144 101.427 238.53 102.597 238.595 103.805C238.685 104.645 238.569 105.494 238.255 106.278C238.136 106.539 237.999 106.791 237.848 107.035C237.7 107.278 237.569 107.531 237.455 107.791C237.241 108.336 237.209 108.936 237.365 109.5C237.365 109.621 237.44 109.742 237.478 109.863C237.614 110.136 237.688 110.435 237.696 110.739C237.704 111.044 237.645 111.346 237.523 111.625C237.379 111.845 237.181 112.025 236.949 112.148C236.717 112.271 236.457 112.333 236.194 112.329ZM229.097 90.548C227.968 90.5377 226.853 90.7969 225.843 91.3042C224.906 91.8163 224.053 92.4693 223.314 93.2403C222.167 94.2614 221.305 95.5648 220.815 97.0217C220.755 97.2107 220.717 97.3998 220.671 97.5889C220.594 97.9407 220.493 98.2868 220.369 98.625C220.09 99.2589 219.721 99.8497 219.275 100.38L218.905 100.871C217.967 102.292 217.192 103.814 216.594 105.409C216.511 105.613 216.398 105.84 216.285 106.097C215.877 106.952 215.326 108.131 215.53 108.789C215.734 109.447 216.655 109.977 218.255 110.09L227.315 110.725C228.108 110.778 228.939 110.786 229.815 110.786C231.564 110.711 233.317 110.871 235.024 111.262L235.318 111.353C235.602 111.453 235.896 111.519 236.194 111.55C236.336 111.568 236.48 111.549 236.613 111.495C236.745 111.441 236.861 111.353 236.949 111.24C237.115 110.96 236.949 110.551 236.836 110.12C236.791 109.984 236.745 109.848 236.708 109.72C236.508 108.987 236.553 108.208 236.836 107.504C236.961 107.208 237.107 106.923 237.274 106.649C237.41 106.415 237.538 106.195 237.644 105.968C237.9 105.297 237.993 104.573 237.916 103.858C237.866 102.781 237.53 101.737 236.942 100.833L236.806 100.652C236.641 100.439 236.502 100.208 236.391 99.9636C236.211 99.4548 236.146 98.9123 236.202 98.3754L236.594 98.3225H236.209C236.31 96.9048 236.099 95.4823 235.59 94.1554C235.254 93.4212 234.768 92.7659 234.163 92.2318C233.559 91.6976 232.849 91.2966 232.08 91.0547C231.123 90.7111 230.113 90.5421 229.097 90.5555V90.548Z" fill="#271A8A"/>
<path d="M208.946 115.921L206.81 127.265H238.225L240.362 115.959C237.772 112.85 233.423 111.777 229.596 111.421C228.086 111.285 226.727 111.247 225.541 111.247H225.262C224.152 111.247 222.869 111.247 221.487 111.406H221.419C217.44 111.731 212.706 112.82 208.946 115.921Z" fill="#6D5DE7"/>
<path d="M220.913 113.577L221.872 124.164L222.159 127.25H222.869L224.318 124.157L229.263 113.629C227.391 112.971 223.035 112.971 220.913 113.577Z" fill="#271A8A"/>
<path d="M229.278 113.592C228.764 114.315 228.084 114.905 227.296 115.312C226.509 115.72 225.635 115.934 224.748 115.936C223.945 115.991 223.143 115.795 222.456 115.373C221.769 114.952 221.229 114.326 220.913 113.584L223.057 104.365H230.607L229.278 113.592Z" fill="white"/>
<path d="M224.756 116.322C223.871 116.373 222.992 116.15 222.239 115.681C221.486 115.213 220.897 114.523 220.551 113.705C220.528 113.636 220.528 113.562 220.551 113.493L222.695 104.282C222.715 104.197 222.763 104.12 222.832 104.066C222.9 104.011 222.985 103.98 223.072 103.979H230.622C230.678 103.979 230.734 103.991 230.785 104.014C230.836 104.038 230.881 104.072 230.917 104.116C230.954 104.157 230.981 104.207 230.997 104.26C231.013 104.314 231.016 104.37 231.007 104.426L229.671 113.645C229.665 113.698 229.647 113.75 229.618 113.796C229.07 114.577 228.341 115.214 227.495 115.653C226.649 116.093 225.709 116.322 224.756 116.322ZM221.321 113.554C221.628 114.191 222.118 114.721 222.729 115.076C223.341 115.431 224.044 115.593 224.748 115.543C225.555 115.54 226.351 115.35 227.071 114.986C227.792 114.622 228.418 114.096 228.901 113.448L230.154 104.766H223.359L221.321 113.554Z" fill="#271A8A"/>
<path d="M229.867 108.32C229.128 109.186 228.218 109.889 227.195 110.385C225.541 111.24 223.118 112.193 221.359 111.898L222.393 108.003C223.722 108.162 225.065 108.162 226.394 108.003C227.617 107.952 228.826 107.721 229.981 107.315C230.184 107.269 230.169 107.95 229.867 108.32Z" fill="#271A8A"/>
<path d="M222.038 112.336C221.785 112.336 221.533 112.316 221.283 112.276C221.231 112.268 221.181 112.249 221.137 112.22C221.092 112.192 221.055 112.154 221.026 112.109C220.997 112.065 220.977 112.016 220.97 111.963C220.962 111.911 220.966 111.857 220.981 111.807L222.015 107.912C222.039 107.823 222.094 107.746 222.171 107.696C222.247 107.645 222.34 107.625 222.431 107.64C223.729 107.801 225.043 107.801 226.342 107.64C227.53 107.594 228.706 107.372 229.83 106.982C229.922 106.944 230.024 106.939 230.12 106.966C230.216 106.993 230.3 107.052 230.358 107.133C230.453 107.363 230.484 107.615 230.447 107.862C230.41 108.109 230.306 108.34 230.147 108.532C229.378 109.442 228.426 110.179 227.353 110.695C226.13 111.353 223.918 112.336 222.038 112.336ZM221.834 111.58C223.654 111.648 226.032 110.559 227.021 110.067C228.001 109.604 228.871 108.936 229.573 108.109C229.62 108.038 229.658 107.962 229.686 107.882C228.622 108.196 227.525 108.384 226.417 108.441C225.162 108.58 223.897 108.58 222.642 108.441L221.834 111.58Z" fill="#271A8A"/>
<path d="M233.137 127.651H233.016C232.967 127.635 232.921 127.61 232.882 127.577C232.843 127.544 232.811 127.503 232.788 127.457C232.765 127.412 232.751 127.362 232.747 127.31C232.744 127.259 232.75 127.208 232.767 127.159L235.787 117.66C235.802 117.611 235.828 117.565 235.862 117.525C235.895 117.485 235.936 117.452 235.983 117.428C236.029 117.404 236.079 117.39 236.131 117.386C236.183 117.381 236.235 117.387 236.285 117.403C236.334 117.419 236.38 117.445 236.42 117.478C236.46 117.512 236.493 117.553 236.516 117.599C236.54 117.646 236.555 117.696 236.559 117.748C236.563 117.8 236.557 117.853 236.542 117.902L233.522 127.401C233.493 127.479 233.439 127.545 233.37 127.59C233.301 127.635 233.219 127.656 233.137 127.651Z" fill="#271A8A"/>
<path d="M211.891 127.613C211.788 127.607 211.692 127.561 211.622 127.485C211.553 127.408 211.517 127.308 211.521 127.205L212.095 117.698C212.123 117.617 212.176 117.547 212.248 117.499C212.319 117.452 212.404 117.429 212.489 117.434C212.575 117.439 212.656 117.472 212.722 117.528C212.787 117.584 212.832 117.66 212.85 117.744L212.276 127.25C212.27 127.348 212.227 127.441 212.155 127.508C212.084 127.576 211.989 127.613 211.891 127.613Z" fill="#271A8A"/>
<path d="M222.476 102.247C222.634 100.085 220.143 99.5476 219.796 102.096C219.639 102.901 219.72 103.734 220.03 104.494C220.093 104.644 220.187 104.779 220.306 104.89C220.425 105.002 220.566 105.086 220.72 105.139C220.874 105.192 221.037 105.212 221.199 105.197C221.361 105.182 221.519 105.133 221.66 105.053" fill="white"/>
<path d="M221.102 105.598C220.961 105.601 220.821 105.58 220.687 105.537C220.469 105.47 220.268 105.358 220.096 105.208C219.925 105.058 219.786 104.874 219.69 104.668C219.341 103.839 219.241 102.927 219.403 102.043C219.614 100.531 220.528 99.9333 221.343 100.016C221.843 100.119 222.282 100.414 222.565 100.839C222.848 101.264 222.951 101.784 222.853 102.285C222.824 102.366 222.769 102.436 222.697 102.482C222.624 102.529 222.539 102.551 222.453 102.544C222.367 102.537 222.286 102.502 222.222 102.444C222.158 102.387 222.114 102.31 222.098 102.225C222.159 101.355 221.728 100.848 221.268 100.803C220.807 100.758 220.332 101.083 220.188 102.157C220.041 102.881 220.109 103.633 220.385 104.32C220.437 104.43 220.51 104.529 220.601 104.611C220.692 104.693 220.798 104.756 220.913 104.796C221.007 104.824 221.107 104.832 221.204 104.819C221.302 104.806 221.396 104.773 221.479 104.721C221.571 104.671 221.678 104.659 221.778 104.687C221.878 104.716 221.963 104.782 222.015 104.872C222.064 104.963 222.074 105.07 222.045 105.169C222.015 105.268 221.947 105.352 221.857 105.401C221.627 105.532 221.366 105.6 221.102 105.598Z" fill="#271A8A"/>
<path d="M232.246 102.263C232.902 100.1 235.598 99.5702 234.986 102.119C234.803 102.996 234.412 103.815 233.846 104.509C233.28 105.129 232.51 105.424 231.996 105.068" fill="white"/>
<path d="M232.54 105.613C232.271 105.621 232.006 105.541 231.785 105.386C231.701 105.327 231.644 105.237 231.626 105.135C231.608 105.034 231.632 104.929 231.691 104.845C231.75 104.761 231.84 104.704 231.941 104.686C232.042 104.668 232.146 104.692 232.23 104.751C232.54 104.962 233.114 104.751 233.567 104.244C234.089 103.6 234.449 102.84 234.616 102.028C234.677 101.771 234.835 100.947 234.382 100.818C233.929 100.69 232.97 101.242 232.623 102.376C232.608 102.426 232.583 102.472 232.55 102.512C232.516 102.552 232.476 102.585 232.43 102.609C232.337 102.658 232.229 102.668 232.129 102.637C232.028 102.606 231.945 102.536 231.896 102.443C231.847 102.35 231.837 102.242 231.868 102.142C232.336 100.629 233.665 99.8198 234.571 100.069C234.858 100.145 235.764 100.531 235.326 102.21C235.131 103.15 234.709 104.028 234.095 104.766C233.906 105.004 233.671 105.202 233.404 105.348C233.136 105.493 232.843 105.584 232.54 105.613Z" fill="#271A8A"/>
<path d="M222.551 97.4981L221.366 103.768C220.8 106.793 222.702 109.213 225.617 109.22H226.228C227.733 109.143 229.17 108.568 230.313 107.583C231.455 106.599 232.239 105.262 232.54 103.783C232.827 102.27 233.869 99.9106 232.767 98.7762C231.007 96.9611 229.301 95.7511 228.327 93.2932C226.092 93.7621 222.551 94.3822 222.551 97.4981Z" fill="white"/>
<path d="M226.236 109.606H225.617C224.924 109.622 224.236 109.481 223.605 109.194C222.974 108.907 222.415 108.482 221.97 107.95C221.499 107.357 221.168 106.666 220.999 105.928C220.83 105.19 220.829 104.423 220.996 103.684L222.174 97.4603C222.174 94.1629 225.692 93.4369 228.01 92.9604L228.259 92.9075C228.348 92.8885 228.441 92.9017 228.521 92.9446C228.601 92.9875 228.663 93.0574 228.697 93.142C229.411 94.7727 230.5 96.211 231.876 97.3393C232.261 97.7099 232.631 98.0956 233.053 98.4964C234.065 99.5325 233.582 101.31 233.197 102.739C233.091 103.132 232.993 103.495 232.933 103.843C232.614 105.413 231.783 106.831 230.57 107.874C229.358 108.918 227.833 109.527 226.236 109.606ZM228.093 93.7243C225.896 94.1856 222.944 94.8284 222.944 97.5057C222.948 97.5307 222.948 97.5562 222.944 97.5813L221.759 103.843C221.614 104.469 221.612 105.119 221.752 105.746C221.892 106.373 222.17 106.961 222.567 107.466C222.941 107.909 223.41 108.263 223.939 108.5C224.469 108.737 225.045 108.851 225.624 108.835H226.243C227.657 108.76 229.006 108.217 230.078 107.29C231.15 106.363 231.883 105.105 232.163 103.715C232.231 103.367 232.336 102.958 232.449 102.55C232.797 101.249 233.204 99.7745 232.495 99.056C232.102 98.6476 231.74 98.2998 231.34 97.9216C229.971 96.7762 228.864 95.35 228.093 93.7394V93.7243Z" fill="#271A8A"/>
<path d="M226.779 104.675C226.499 104.674 226.219 104.656 225.941 104.622C225.886 104.623 225.831 104.613 225.78 104.59C225.729 104.568 225.684 104.536 225.646 104.494C225.609 104.453 225.582 104.404 225.565 104.351C225.549 104.298 225.544 104.242 225.551 104.187C225.558 104.132 225.577 104.079 225.607 104.032C225.636 103.985 225.675 103.945 225.722 103.914C225.768 103.884 225.821 103.863 225.875 103.855C225.93 103.847 225.986 103.85 226.039 103.866C226.494 103.912 226.952 103.912 227.406 103.866C227.547 102.655 227.476 101.429 227.195 100.243C227.177 100.141 227.2 100.036 227.26 99.951C227.319 99.866 227.41 99.808 227.512 99.7895C227.614 99.7739 227.717 99.7982 227.802 99.8574C227.886 99.9165 227.945 100.006 227.965 100.107C228.108 100.916 228.554 103.624 228.01 104.365C227.96 104.438 227.895 104.499 227.82 104.545C227.744 104.59 227.66 104.619 227.572 104.63C227.309 104.662 227.044 104.678 226.779 104.675Z" fill="#271A8A"/>
<path d="M205.972 96.2124H173.718C173.658 96.2204 173.597 96.2156 173.54 96.1982C173.482 96.1808 173.429 96.1512 173.383 96.1115C173.338 96.0717 173.301 96.0227 173.277 95.9677C173.252 95.9127 173.239 95.853 173.239 95.7927C173.239 95.7323 173.252 95.6726 173.277 95.6176C173.301 95.5626 173.338 95.5136 173.383 95.4738C173.429 95.4341 173.482 95.4045 173.54 95.3871C173.597 95.3697 173.658 95.3649 173.718 95.3729L205.972 95.4107C206.073 95.4244 206.166 95.4745 206.233 95.5517C206.301 95.6289 206.338 95.7279 206.338 95.8305C206.338 95.933 206.301 96.0321 206.233 96.1093C206.166 96.1864 206.073 96.2365 205.972 96.2502V96.2124Z" fill="#EDEBFF"/>
<path d="M204.877 101.975H172.631C172.571 101.983 172.51 101.978 172.453 101.961C172.395 101.944 172.341 101.914 172.296 101.874C172.251 101.835 172.214 101.786 172.189 101.731C172.165 101.676 172.152 101.616 172.152 101.555C172.152 101.495 172.165 101.435 172.189 101.38C172.214 101.325 172.251 101.276 172.296 101.237C172.341 101.197 172.395 101.167 172.453 101.15C172.51 101.133 172.571 101.128 172.631 101.136L204.884 101.174C204.986 101.187 205.079 101.237 205.146 101.314C205.214 101.392 205.251 101.491 205.251 101.593C205.251 101.696 205.214 101.795 205.146 101.872C205.079 101.949 204.986 101.999 204.884 102.013L204.877 101.975Z" fill="#EDEBFF"/>
<path d="M203.79 107.738L171.536 107.7C171.425 107.698 171.32 107.653 171.242 107.573C171.164 107.494 171.121 107.388 171.121 107.277C171.121 107.166 171.165 107.061 171.242 106.983C171.32 106.905 171.426 106.861 171.536 106.861L203.79 106.899C203.849 106.89 203.91 106.895 203.968 106.913C204.026 106.93 204.079 106.96 204.124 106.999C204.17 107.039 204.206 107.088 204.231 107.143C204.256 107.198 204.269 107.258 204.269 107.318C204.269 107.379 204.256 107.438 204.231 107.493C204.206 107.548 204.17 107.597 204.124 107.637C204.079 107.677 204.026 107.706 203.968 107.724C203.91 107.741 203.849 107.746 203.79 107.738Z" fill="#EDEBFF"/>
<path d="M202.702 113.501L170.449 113.455C170.394 113.456 170.34 113.446 170.289 113.426C170.238 113.405 170.192 113.375 170.153 113.336C170.114 113.297 170.084 113.251 170.063 113.2C170.043 113.149 170.033 113.094 170.034 113.039C170.033 112.984 170.043 112.929 170.063 112.878C170.083 112.827 170.114 112.78 170.153 112.74C170.191 112.701 170.237 112.67 170.288 112.648C170.339 112.627 170.394 112.616 170.449 112.616L202.702 112.654C202.815 112.654 202.922 112.698 203.001 112.778C203.081 112.857 203.125 112.965 203.125 113.077C203.123 113.189 203.078 113.296 202.999 113.375C202.92 113.454 202.814 113.499 202.702 113.501Z" fill="#EDEBFF"/>
<path d="M201.585 119.294H178.844C178.743 119.28 178.65 119.23 178.583 119.153C178.515 119.076 178.478 118.977 178.478 118.874C178.478 118.772 178.515 118.673 178.583 118.595C178.65 118.518 178.743 118.468 178.844 118.454H201.585C201.687 118.468 201.78 118.518 201.847 118.595C201.914 118.673 201.951 118.772 201.951 118.874C201.951 118.977 201.914 119.076 201.847 119.153C201.78 119.23 201.687 119.28 201.585 119.294Z" fill="#EDEBFF"/>
<path d="M234.224 150.241L163.782 150.157C163.72 150.159 163.659 150.146 163.602 150.119C163.546 150.093 163.497 150.055 163.458 150.006C163.417 149.959 163.388 149.903 163.373 149.843C163.357 149.782 163.355 149.719 163.367 149.658L166.568 132.74C166.587 132.646 166.638 132.56 166.712 132.498C166.786 132.436 166.879 132.402 166.976 132.4L237.417 132.483C237.479 132.483 237.541 132.496 237.597 132.522C237.653 132.548 237.703 132.587 237.742 132.635C237.781 132.683 237.809 132.739 237.825 132.799C237.84 132.859 237.843 132.921 237.833 132.982L234.631 149.9C234.612 149.995 234.562 150.081 234.488 150.143C234.413 150.204 234.32 150.239 234.224 150.241ZM164.288 149.318L233.876 149.401L236.896 133.323L167.301 133.24L164.288 149.318Z" fill="#EDEBFF"/>
<path d="M236.156 138.617L165.941 138.534C165.882 138.542 165.821 138.537 165.763 138.519C165.705 138.502 165.652 138.472 165.607 138.433C165.561 138.393 165.525 138.344 165.5 138.289C165.475 138.234 165.462 138.174 165.462 138.114C165.462 138.053 165.475 137.994 165.5 137.939C165.525 137.884 165.561 137.835 165.607 137.795C165.652 137.755 165.705 137.726 165.763 137.708C165.821 137.691 165.882 137.686 165.941 137.694L236.156 137.777C236.258 137.791 236.351 137.841 236.418 137.918C236.486 137.995 236.523 138.094 236.523 138.197C236.523 138.3 236.486 138.399 236.418 138.476C236.351 138.553 236.258 138.603 236.156 138.617Z" fill="#EDEBFF"/>
<path d="M215.175 150.218H215.1C214.991 150.196 214.895 150.132 214.833 150.04C214.771 149.948 214.747 149.836 214.767 149.726L217.961 132.808C217.983 132.7 218.047 132.604 218.138 132.542C218.23 132.479 218.343 132.456 218.452 132.476C218.561 132.498 218.657 132.561 218.721 132.653C218.784 132.745 218.809 132.857 218.791 132.967L215.59 149.885C215.57 149.98 215.517 150.065 215.441 150.125C215.366 150.186 215.272 150.218 215.175 150.218Z" fill="#EDEBFF"/>
<path d="M179.637 150.173H179.562C179.452 150.152 179.354 150.089 179.29 149.997C179.227 149.905 179.202 149.791 179.222 149.681L182.423 132.756C182.427 132.695 182.443 132.637 182.471 132.583C182.499 132.53 182.538 132.483 182.585 132.446C182.633 132.409 182.688 132.382 182.746 132.368C182.805 132.354 182.866 132.352 182.925 132.364C182.984 132.375 183.04 132.399 183.09 132.434C183.139 132.469 183.18 132.514 183.21 132.566C183.241 132.618 183.26 132.676 183.266 132.736C183.272 132.797 183.265 132.857 183.246 132.914L180.052 149.832C180.033 149.928 179.981 150.015 179.906 150.077C179.83 150.139 179.735 150.173 179.637 150.173Z" fill="#EDEBFF"/>
<path d="M120.407 124.837L198.784 124.928C199.9 124.874 200.966 124.448 201.813 123.718C202.659 122.987 203.238 121.995 203.457 120.897L218.036 43.8026C218.459 41.5338 217.047 39.7565 214.888 39.7565L136.512 39.6658C135.4 39.7183 134.337 40.14 133.491 40.8643C132.645 41.5887 132.063 42.5745 131.838 43.6665L117.259 120.806C116.836 123.022 118.248 124.837 120.407 124.837Z" fill="white"/>
<path d="M198.784 125.344L120.407 125.253C119.88 125.266 119.357 125.159 118.876 124.942C118.395 124.725 117.969 124.402 117.629 123.998C117.269 123.549 117.015 123.026 116.884 122.466C116.753 121.905 116.75 121.323 116.874 120.761L131.468 43.6665C131.707 42.484 132.333 41.4151 133.246 40.6288C134.16 39.8426 135.309 39.3839 136.512 39.3254L214.888 39.4162C215.413 39.3997 215.935 39.5012 216.416 39.7132C216.897 39.9252 217.324 40.2423 217.667 40.6414C218.026 41.0901 218.28 41.6138 218.411 42.1739C218.542 42.7341 218.545 43.3165 218.422 43.8782L203.85 120.965C203.618 122.158 202.992 123.239 202.073 124.033C201.155 124.827 199.996 125.289 198.784 125.344ZM120.407 124.497L198.784 124.588C199.822 124.534 200.812 124.132 201.594 123.446C202.376 122.76 202.905 121.83 203.095 120.806L217.667 43.727C217.77 43.2762 217.772 42.8079 217.671 42.3564C217.57 41.9049 217.37 41.4817 217.085 41.1178C216.816 40.799 216.479 40.5451 216.099 40.3749C215.718 40.2046 215.305 40.1225 214.888 40.1347L136.512 40.0439C135.483 40.0992 134.502 40.4955 133.723 41.1705C132.944 41.8454 132.411 42.7607 132.208 43.7723L117.629 120.867C117.527 121.318 117.526 121.786 117.627 122.237C117.728 122.688 117.927 123.111 118.21 123.476C118.48 123.794 118.817 124.048 119.197 124.218C119.578 124.388 119.991 124.471 120.407 124.459V124.497Z" fill="#271A8A"/>
<path d="M216.685 51.4183L130.487 51.32C130.387 51.32 130.291 51.2802 130.22 51.2092C130.149 51.1383 130.109 51.0421 130.109 50.9419C130.109 50.8416 130.149 50.7454 130.22 50.6745C130.291 50.6036 130.387 50.5637 130.487 50.5637L216.685 50.662C216.785 50.664 216.88 50.7044 216.95 50.7749C217.02 50.8454 217.061 50.9405 217.063 51.0402C217.063 51.1405 217.023 51.2366 216.952 51.3076C216.881 51.3785 216.785 51.4183 216.685 51.4183Z" fill="#271A8A"/>
<path d="M210.888 46.5539C211.715 45.6755 211.799 44.4107 211.077 43.7288C210.355 43.0469 209.1 43.2062 208.273 44.0846C207.446 44.9629 207.362 46.2277 208.084 46.9096C208.806 47.5915 210.061 47.4322 210.888 46.5539Z" fill="#EDEBFF"/>
<path d="M204.023 46.5445C204.85 45.6661 204.934 44.4013 204.212 43.7194C203.49 43.0375 202.235 43.1968 201.408 44.0752C200.581 44.9535 200.497 46.2183 201.219 46.9002C201.941 47.5821 203.197 47.4228 204.023 46.5445Z" fill="#EDEBFF"/>
<path d="M197.158 46.5351C197.985 45.6567 198.07 44.3919 197.347 43.71C196.625 43.0281 195.37 43.1874 194.543 44.0658C193.717 44.9441 193.632 46.2089 194.354 46.8908C195.076 47.5727 196.332 47.4134 197.158 46.5351Z" fill="#EDEBFF"/>
<path d="M175.908 57.3701L168.501 96.5224L199.917 96.5527L207.316 57.4079L175.908 57.3701Z" fill="white"/>
<path d="M175.915 57.3702H207.323L199.924 96.5225L168.508 96.4847L175.915 57.3702ZM175.915 56.6139C175.737 56.6107 175.564 56.6703 175.426 56.7824C175.288 56.8944 175.194 57.0517 175.16 57.2265L167.761 96.3788C167.741 96.4875 167.744 96.5994 167.772 96.7065C167.799 96.8137 167.849 96.9135 167.92 96.9989C167.991 97.0843 168.079 97.153 168.18 97.2C168.28 97.2471 168.39 97.2714 168.501 97.2712L199.916 97.309C200.094 97.3123 200.267 97.2526 200.405 97.1405C200.543 97.0285 200.638 96.8712 200.671 96.6964L208.07 57.5441C208.091 57.4354 208.087 57.3236 208.06 57.2164C208.033 57.1093 207.982 57.0094 207.912 56.924C207.842 56.8372 207.753 56.7671 207.653 56.7187C207.552 56.6704 207.442 56.6449 207.331 56.6441H175.923L175.915 56.6139Z" fill="#271A8A"/>
<path d="M170.63 85.2086L168.493 96.5149L199.909 96.5527L202.053 85.2615C199.464 82.1457 195.115 81.0793 191.287 80.7239C189.777 80.5877 188.418 80.5499 187.233 80.5499H186.953C185.843 80.5499 184.56 80.5499 183.178 80.7087H183.11C179.146 81.0491 174.405 82.1154 170.63 85.2086Z" fill="#6D5DE7"/>
<path d="M182.604 82.8718L183.571 93.4596L183.85 96.5452H184.56L186.009 93.4521L190.955 82.9247C188.208 82.2966 185.358 82.2785 182.604 82.8718Z" fill="#271A8A"/>
<path d="M190.97 82.8868C190.455 83.6096 189.775 84.1987 188.988 84.6052C188.2 85.0117 187.326 85.2237 186.44 85.2237C185.636 85.2802 184.834 85.084 184.146 84.6624C183.459 84.2408 182.92 83.6148 182.604 82.8717L184.756 73.6603H192.306L190.97 82.8868Z" fill="white"/>
<path d="M186.485 85.617C185.601 85.6653 184.723 85.4402 183.971 84.9721C183.219 84.5041 182.628 83.8157 182.28 83.0002C182.261 82.9309 182.261 82.8578 182.28 82.7885L184.424 73.5695C184.446 73.4835 184.495 73.4072 184.565 73.3524C184.635 73.2977 184.72 73.2676 184.809 73.267H192.359C192.414 73.2664 192.469 73.2776 192.52 73.2997C192.571 73.3219 192.616 73.3545 192.653 73.3956C192.69 73.4393 192.717 73.4901 192.732 73.5448C192.748 73.5995 192.752 73.6568 192.744 73.7132L191.408 82.9246C191.402 82.9783 191.383 83.03 191.355 83.0759C190.808 83.8619 190.08 84.5037 189.232 84.9462C188.384 85.3888 187.441 85.6189 186.485 85.617ZM183.05 82.8414C183.355 83.4801 183.846 84.012 184.457 84.3681C185.068 84.7241 185.772 84.8878 186.478 84.838C187.285 84.8389 188.082 84.6498 188.803 84.2859C189.524 83.9221 190.15 83.3936 190.63 82.7431L191.891 74.0611H185.096L183.05 82.8414Z" fill="#271A8A"/>
<path d="M191.559 77.6156C190.821 78.4809 189.911 79.1817 188.886 79.6727C187.233 80.5272 184.809 81.4877 183.05 81.1852L184.084 77.2828C185.413 77.4463 186.757 77.4463 188.086 77.2828C189.308 77.2325 190.517 77.0006 191.672 76.5946C191.876 76.5644 191.868 77.2374 191.559 77.6156Z" fill="#271A8A"/>
<path d="M183.729 81.6239C183.477 81.6261 183.224 81.6084 182.974 81.571C182.87 81.5517 182.778 81.4919 182.718 81.4046C182.69 81.3597 182.672 81.3099 182.664 81.2579C182.657 81.2059 182.659 81.153 182.672 81.1021L183.707 77.2072C183.73 77.1164 183.786 77.0374 183.864 76.9857C183.942 76.934 184.037 76.9132 184.129 76.9274C185.428 77.086 186.742 77.086 188.04 76.9274C189.226 76.8768 190.398 76.6552 191.521 76.2695C191.612 76.2297 191.714 76.2222 191.81 76.2483C191.906 76.2745 191.991 76.3326 192.049 76.4132C192.145 76.6448 192.175 76.8981 192.138 77.1458C192.101 77.3935 191.997 77.6265 191.838 77.8198C191.071 78.7313 190.118 79.4687 189.044 79.9828C187.41 80.9033 185.598 81.4629 183.729 81.6239ZM183.525 80.8676C185.345 80.9508 187.731 79.8466 188.72 79.3551C189.696 78.8891 190.563 78.2216 191.264 77.3963C191.317 77.3318 191.355 77.2571 191.377 77.177C190.312 77.4855 189.215 77.6707 188.108 77.7291C186.854 77.8632 185.588 77.8632 184.333 77.7291L183.525 80.8676Z" fill="#271A8A"/>
<path d="M194.828 96.9384H194.715C194.665 96.9238 194.619 96.8993 194.579 96.8665C194.539 96.8336 194.506 96.7931 194.482 96.7472C194.458 96.7013 194.444 96.6511 194.439 96.5995C194.435 96.5479 194.442 96.496 194.458 96.4468L197.478 86.948C197.493 86.8991 197.518 86.8536 197.551 86.8145C197.585 86.7753 197.625 86.7431 197.671 86.7199C197.717 86.6966 197.766 86.6828 197.818 86.6791C197.869 86.6754 197.92 86.682 197.969 86.6985C198.017 86.713 198.062 86.7373 198.101 86.7697C198.14 86.8022 198.173 86.8422 198.196 86.8874C198.219 86.9326 198.233 86.982 198.237 87.0327C198.241 87.0834 198.234 87.1343 198.218 87.1825L195.198 96.6813C195.171 96.7576 195.121 96.8235 195.054 96.8697C194.988 96.9158 194.909 96.9399 194.828 96.9384Z" fill="#271A8A"/>
<path d="M173.582 96.9158C173.53 96.9129 173.48 96.8998 173.433 96.8773C173.387 96.8548 173.345 96.8234 173.311 96.7847C173.277 96.7461 173.25 96.701 173.233 96.6521C173.216 96.6033 173.209 96.5515 173.212 96.4998L173.786 87.001C173.773 86.9417 173.774 86.8803 173.789 86.8215C173.804 86.7627 173.832 86.7082 173.872 86.6621C173.911 86.6161 173.961 86.5798 174.017 86.5562C174.072 86.5325 174.133 86.5221 174.193 86.5257C174.254 86.5294 174.312 86.547 174.365 86.5771C174.418 86.6073 174.462 86.6492 174.496 86.6996C174.53 86.7501 174.551 86.8076 174.559 86.8678C174.567 86.9279 174.561 86.989 174.541 87.0464L173.967 96.5452C173.963 96.6449 173.921 96.7391 173.849 96.8082C173.777 96.8773 173.682 96.9159 173.582 96.9158Z" fill="#271A8A"/>
<path d="M184.175 71.5427C184.333 69.3798 181.842 68.8428 181.487 71.3915C181.33 72.1939 181.411 73.0249 181.721 73.7813C181.784 73.9325 181.879 74.0686 181.998 74.1807C182.117 74.2928 182.259 74.3784 182.414 74.4319C182.568 74.4855 182.732 74.5057 182.895 74.4914C183.058 74.477 183.216 74.4283 183.359 74.3485" fill="white"/>
<path d="M182.793 74.8931C182.653 74.8924 182.513 74.872 182.378 74.8326C182.162 74.7617 181.963 74.6482 181.792 74.4988C181.62 74.3494 181.481 74.1672 181.381 73.9629C181.031 73.1351 180.933 72.2217 181.102 71.3386C181.313 69.826 182.219 69.2286 183.035 69.3118C183.534 69.414 183.973 69.7098 184.256 70.1347C184.539 70.5597 184.643 71.0794 184.545 71.5806C184.557 71.64 184.555 71.7013 184.539 71.7599C184.524 71.8184 184.495 71.8725 184.455 71.9181C184.415 71.9636 184.365 71.9993 184.309 72.0223C184.253 72.0453 184.193 72.0551 184.132 72.0509C184.072 72.0467 184.014 72.0285 183.961 71.9979C183.909 71.9673 183.865 71.925 183.832 71.8744C183.798 71.8237 183.777 71.7661 183.77 71.7059C183.763 71.6458 183.77 71.5848 183.79 71.5277C183.858 70.6579 183.42 70.1512 182.959 70.0983C182.499 70.0454 182.031 70.3857 181.88 71.4596C181.734 72.1819 181.802 72.931 182.076 73.615C182.181 73.8401 182.371 74.0142 182.604 74.099C182.7 74.1248 182.8 74.1314 182.899 74.1184C182.997 74.1055 183.092 74.0731 183.178 74.0234C183.223 73.998 183.272 73.9819 183.323 73.9758C183.373 73.9697 183.425 73.9738 183.474 73.9879C183.523 74.002 183.569 74.0257 183.609 74.0578C183.649 74.0899 183.682 74.1296 183.707 74.1746C183.756 74.2651 183.767 74.3712 183.739 74.4702C183.711 74.5692 183.645 74.6531 183.556 74.704C183.321 74.8304 183.059 74.8955 182.793 74.8931Z" fill="#271A8A"/>
<path d="M193.937 71.5503C194.601 69.3873 197.289 68.8579 196.678 71.4066C196.503 72.2847 196.114 73.1058 195.545 73.7964C194.986 74.4241 194.209 74.7191 193.703 74.3636" fill="white"/>
<path d="M194.201 74.9082C193.932 74.9148 193.667 74.8353 193.446 74.6813C193.398 74.6547 193.356 74.6182 193.323 74.5744C193.29 74.5305 193.267 74.4802 193.254 74.4266C193.242 74.3731 193.24 74.3175 193.251 74.2635C193.261 74.2095 193.283 74.1582 193.314 74.113C193.345 74.0679 193.386 74.0298 193.432 74.0012C193.479 73.9727 193.532 73.9543 193.586 73.9472C193.641 73.9402 193.696 73.9447 193.749 73.9604C193.801 73.9761 193.85 74.0027 193.892 74.0385C194.201 74.2578 194.775 74.0385 195.228 73.5393C195.755 72.8932 196.123 72.1313 196.3 71.3159C196.36 71.0663 196.527 70.2344 196.066 70.1134C195.605 69.9924 194.654 70.5369 194.314 71.626C194.3 71.6756 194.275 71.7219 194.242 71.762C194.21 71.8022 194.169 71.8355 194.124 71.8601C194.078 71.8847 194.028 71.9 193.977 71.9053C193.925 71.9105 193.873 71.9056 193.824 71.8907C193.774 71.8758 193.728 71.8512 193.688 71.8185C193.648 71.7857 193.614 71.7453 193.59 71.6997C193.565 71.654 193.55 71.604 193.545 71.5524C193.54 71.5008 193.545 71.4487 193.559 71.3991C194.028 69.8865 195.356 69.0698 196.27 69.3193C196.549 69.4025 197.455 69.7882 197.025 71.4596C196.822 72.4007 196.397 73.2796 195.787 74.0234C195.598 74.2724 195.359 74.4795 195.086 74.6318C194.813 74.7841 194.512 74.8782 194.201 74.9082Z" fill="#271A8A"/>
<path d="M184.22 66.7934L183.035 73.0553C182.461 76.0804 184.364 78.5081 187.278 78.5081H187.897C189.401 78.4295 190.836 77.8528 191.977 76.8686C193.118 75.8844 193.9 74.5484 194.201 73.0704L195.356 67.111C195.356 67.111 196.345 61.0608 190.721 61.6658C185.096 62.2708 184.22 66.7934 184.22 66.7934Z" fill="white"/>
<path d="M187.927 78.9013H187.308C186.615 78.9173 185.927 78.7775 185.294 78.4922C184.662 78.2069 184.101 77.7834 183.654 77.2526C183.188 76.6575 182.862 75.9654 182.699 75.2272C182.535 74.4891 182.539 73.7237 182.71 72.9873L183.895 66.7177C183.895 66.6724 184.862 61.9381 190.69 61.2877C191.385 61.1515 192.102 61.1826 192.782 61.3785C193.462 61.5744 194.085 61.9296 194.601 62.4145C196.225 64.1313 195.764 67.0656 195.749 67.1942L194.616 73.1612C194.294 74.7251 193.462 76.1375 192.251 77.1764C191.04 78.2153 189.519 78.8221 187.927 78.9013ZM184.628 66.869L183.465 73.1612C183.324 73.7873 183.323 74.4369 183.463 75.0633C183.603 75.6897 183.879 76.2773 184.273 76.7838C184.649 77.2249 185.119 77.5766 185.648 77.8134C186.177 78.0502 186.752 78.166 187.331 78.1526H187.95C189.364 78.0794 190.714 77.5364 191.786 76.6092C192.858 75.682 193.591 74.4236 193.869 73.0326L194.994 67.0883C194.994 67.0883 195.409 64.4187 194.043 62.9817C193.608 62.5876 193.087 62.302 192.522 62.1482C191.956 61.9944 191.362 61.9768 190.789 62.0969C185.511 62.649 184.666 66.6875 184.628 66.869Z" fill="#271A8A"/>
<path d="M188.471 73.9628C188.191 73.962 187.911 73.9468 187.633 73.9174C187.531 73.9024 187.439 73.8481 187.377 73.766C187.315 73.684 187.288 73.5809 187.3 73.4788C187.314 73.377 187.366 73.2845 187.447 73.2209C187.527 73.1573 187.629 73.1277 187.731 73.1385C188.185 73.1913 188.643 73.1913 189.097 73.1385C189.279 72.7754 189.18 71.1343 188.886 69.5159C188.868 69.4137 188.892 69.3086 188.951 69.2236C189.011 69.1386 189.101 69.0806 189.203 69.0621C189.253 69.0523 189.305 69.0525 189.355 69.0628C189.405 69.0732 189.452 69.0933 189.494 69.1222C189.537 69.151 189.573 69.188 189.6 69.2309C189.628 69.2738 189.647 69.3219 189.656 69.3722C189.8 70.189 190.245 72.8964 189.701 73.63C189.651 73.7036 189.587 73.7658 189.511 73.8127C189.436 73.8596 189.351 73.8901 189.263 73.9023C189.001 73.9403 188.736 73.9605 188.471 73.9628Z" fill="#271A8A"/>
<path d="M167.663 65.5077H135.409C135.308 65.494 135.215 65.4439 135.147 65.3667C135.08 65.2895 135.043 65.1905 135.043 65.0879C135.043 64.9854 135.08 64.8863 135.147 64.8092C135.215 64.732 135.308 64.6819 135.409 64.6682H167.663C167.764 64.6819 167.857 64.732 167.925 64.8092C167.992 64.8863 168.029 64.9854 168.029 65.0879C168.029 65.1905 167.992 65.2895 167.925 65.3667C167.857 65.4439 167.764 65.494 167.663 65.5077Z" fill="#EDEBFF"/>
<path d="M166.576 71.2705H134.322C134.21 71.2705 134.102 71.2259 134.023 71.1464C133.944 71.067 133.899 70.9593 133.899 70.847C133.899 70.7347 133.944 70.6269 134.023 70.5475C134.102 70.4681 134.21 70.4235 134.322 70.4235L166.576 70.4688C166.686 70.4688 166.791 70.5127 166.869 70.5907C166.947 70.6687 166.991 70.7745 166.991 70.8848C166.982 70.9891 166.934 71.0863 166.857 71.1576C166.781 71.2288 166.68 71.269 166.576 71.2705Z" fill="#EDEBFF"/>
<path d="M165.481 77.0257H133.235C133.175 77.0338 133.114 77.029 133.057 77.0115C132.999 76.9941 132.946 76.9646 132.9 76.9248C132.855 76.8851 132.818 76.8361 132.794 76.7811C132.769 76.7261 132.756 76.6664 132.756 76.606C132.756 76.5456 132.769 76.4859 132.794 76.431C132.818 76.376 132.855 76.3269 132.9 76.2872C132.946 76.2474 132.999 76.2179 133.057 76.2005C133.114 76.1831 133.175 76.1782 133.235 76.1863H165.481C165.593 76.1863 165.701 76.2309 165.78 76.3103C165.859 76.3897 165.904 76.4975 165.904 76.6098C165.904 76.6651 165.893 76.7198 165.871 76.7707C165.85 76.8217 165.819 76.8679 165.779 76.9066C165.74 76.9453 165.693 76.9758 165.642 76.9963C165.591 77.0167 165.536 77.0267 165.481 77.0257Z" fill="#EDEBFF"/>
<path d="M164.394 82.7886H132.14C132.039 82.7749 131.946 82.7248 131.878 82.6476C131.811 82.5704 131.774 82.4714 131.774 82.3688C131.774 82.2663 131.811 82.1672 131.878 82.09C131.946 82.0128 132.039 81.9628 132.14 81.9491L164.394 81.9869C164.453 81.9789 164.514 81.9837 164.572 82.0011C164.63 82.0185 164.683 82.0481 164.728 82.0878C164.774 82.1276 164.81 82.1766 164.835 82.2316C164.86 82.2866 164.873 82.3463 164.873 82.4066C164.873 82.467 164.86 82.5267 164.835 82.5817C164.81 82.6367 164.774 82.6857 164.728 82.7255C164.683 82.7652 164.63 82.7948 164.572 82.8122C164.514 82.8296 164.453 82.8344 164.394 82.8264V82.7886Z" fill="#EDEBFF"/>
<path d="M163.306 88.5514H140.566C140.464 88.5377 140.371 88.4876 140.304 88.4104C140.237 88.3332 140.199 88.2342 140.199 88.1316C140.199 88.0291 140.237 87.93 140.304 87.8529C140.371 87.7757 140.464 87.7256 140.566 87.7119H163.306C163.417 87.7119 163.522 87.7557 163.6 87.8337C163.678 87.9118 163.722 88.0176 163.722 88.1279C163.722 88.2389 163.678 88.3455 163.601 88.4247C163.523 88.5039 163.417 88.5494 163.306 88.5514Z" fill="#EDEBFF"/>
<path d="M195.915 119.536L125.474 119.453C125.412 119.451 125.352 119.437 125.296 119.41C125.241 119.383 125.192 119.345 125.153 119.298C125.113 119.25 125.084 119.195 125.068 119.136C125.052 119.077 125.049 119.014 125.058 118.954L128.259 102.036C128.277 101.938 128.328 101.85 128.404 101.787C128.48 101.723 128.576 101.688 128.675 101.688L199.116 101.771C199.179 101.772 199.24 101.787 199.296 101.814C199.352 101.841 199.402 101.881 199.441 101.93C199.481 101.976 199.511 102.03 199.526 102.089C199.542 102.148 199.544 102.21 199.531 102.27L196.3 119.188C196.284 119.281 196.237 119.365 196.167 119.428C196.097 119.491 196.009 119.529 195.915 119.536ZM125.979 118.613L195.568 118.696L198.588 102.611L128.999 102.527L125.979 118.613Z" fill="#EDEBFF"/>
<path d="M197.848 107.95L127.633 107.867C127.521 107.867 127.413 107.822 127.334 107.743C127.255 107.663 127.21 107.555 127.21 107.443C127.21 107.388 127.221 107.333 127.242 107.282C127.264 107.231 127.295 107.185 127.334 107.146C127.374 107.108 127.42 107.077 127.472 107.057C127.523 107.036 127.578 107.026 127.633 107.027L197.848 107.11C197.949 107.124 198.042 107.174 198.11 107.251C198.177 107.328 198.214 107.428 198.214 107.53C198.214 107.633 198.177 107.732 198.11 107.809C198.042 107.886 197.949 107.936 197.848 107.95Z" fill="#EDEBFF"/>
<path d="M176.844 119.513H176.768C176.66 119.491 176.564 119.427 176.502 119.335C176.44 119.244 176.416 119.131 176.436 119.022L179.637 102.104C179.646 102.049 179.666 101.998 179.695 101.951C179.725 101.904 179.763 101.864 179.808 101.833C179.853 101.801 179.904 101.778 179.957 101.767C180.011 101.755 180.066 101.754 180.12 101.763C180.23 101.784 180.328 101.847 180.392 101.939C180.455 102.031 180.48 102.145 180.46 102.255L177.259 119.173C177.24 119.269 177.188 119.355 177.112 119.417C177.036 119.48 176.942 119.513 176.844 119.513Z" fill="#EDEBFF"/>
<path d="M141.328 119.468H141.253C141.144 119.446 141.049 119.382 140.986 119.29C140.924 119.198 140.901 119.085 140.921 118.976L144.114 102.058C144.147 101.961 144.214 101.879 144.302 101.827C144.391 101.776 144.495 101.758 144.595 101.777C144.696 101.797 144.786 101.852 144.849 101.933C144.912 102.014 144.943 102.115 144.937 102.217L141.744 119.135C141.723 119.23 141.67 119.315 141.595 119.375C141.519 119.436 141.425 119.468 141.328 119.468Z" fill="#EDEBFF"/>
<path d="M67.7764 198.831L66.4929 175.258L124.719 164.58C124.786 165.207 127.293 184.719 129.105 198.816L67.7764 198.831Z" fill="#271A8A"/>
<path d="M129.105 199.209H67.7764C67.6801 199.21 67.5873 199.173 67.5172 199.107C67.447 199.041 67.4047 198.95 67.3989 198.854L66.1154 175.296C66.1118 175.204 66.1411 175.114 66.1978 175.042C66.2545 174.97 66.3351 174.921 66.425 174.903L124.651 164.224C124.702 164.216 124.755 164.218 124.806 164.231C124.856 164.244 124.904 164.267 124.945 164.3C124.986 164.33 125.021 164.369 125.047 164.413C125.073 164.457 125.09 164.506 125.096 164.557C125.164 165.23 128.184 188.758 129.483 198.786C129.491 198.892 129.459 198.998 129.392 199.081C129.356 199.121 129.311 199.153 129.262 199.175C129.213 199.197 129.159 199.209 129.105 199.209ZM68.1313 198.453H128.682C127.172 186.761 124.771 168.058 124.394 165.041L66.8855 175.583L68.1313 198.453Z" fill="#271A8A"/>
<path d="M160.188 127.726L170.471 118.742C170.471 118.742 174.246 109.334 175.756 107.541C177.266 105.749 188.591 100.206 188.72 101.446C188.848 102.686 186.145 104.365 185.39 104.985C184.25 105.915 183.065 106.778 181.895 107.662C184.265 108.646 186.636 111.361 187.685 113.713C188.173 114.73 188.386 115.857 188.302 116.983C188.219 118.108 187.842 119.192 187.21 120.126C186.858 120.649 186.339 121.036 185.738 121.222C185.436 121.304 185.116 121.29 184.822 121.181C184.529 121.073 184.276 120.876 184.099 120.617L183.948 120.806C182.74 122.437 181.298 123.88 179.667 125.087C178.339 125.979 176.685 126.078 175.598 127.182C174.012 128.778 172.759 130.963 171.4 132.733L163.835 142.738L160.188 127.726Z" fill="white"/>
<path d="M163.835 143.101H163.76C163.689 143.085 163.624 143.05 163.572 142.999C163.52 142.949 163.483 142.885 163.465 142.814L159.856 127.825C159.838 127.757 159.84 127.686 159.86 127.62C159.88 127.553 159.918 127.493 159.969 127.447L170.154 118.538C170.562 117.532 173.929 109.069 175.439 107.322C176.949 105.575 187.082 100.455 188.667 100.954C188.773 100.985 188.868 101.047 188.939 101.132C189.011 101.216 189.055 101.321 189.067 101.431C189.173 102.535 187.67 103.752 186.123 104.902L185.594 105.295C184.794 105.953 183.963 106.581 183.156 107.186L182.597 107.609C184.955 108.995 186.837 111.065 187.995 113.546C188.515 114.626 188.742 115.823 188.652 117.019C188.562 118.214 188.158 119.364 187.482 120.353C187.08 120.948 186.485 121.386 185.798 121.593C185.502 121.671 185.191 121.678 184.892 121.612C184.592 121.546 184.313 121.41 184.077 121.215C182.878 122.81 181.453 124.221 179.849 125.405C179.25 125.774 178.612 126.073 177.946 126.297C177.169 126.523 176.45 126.915 175.84 127.447C174.793 128.575 173.846 129.792 173.008 131.084C172.563 131.727 172.117 132.362 171.672 132.96L164.122 142.98C164.085 143.019 164.041 143.05 163.991 143.071C163.942 143.092 163.889 143.102 163.835 143.101ZM160.641 127.863L164.016 141.854L171.113 132.468C171.559 131.886 171.989 131.258 172.427 130.623C173.292 129.296 174.269 128.046 175.349 126.887C176.033 126.272 176.846 125.817 177.727 125.556C178.338 125.355 178.923 125.083 179.471 124.747C181.069 123.556 182.483 122.137 183.669 120.534L183.82 120.345C183.862 120.3 183.914 120.264 183.971 120.241C184.029 120.217 184.09 120.206 184.152 120.209C184.213 120.216 184.272 120.237 184.323 120.271C184.374 120.306 184.417 120.352 184.447 120.406C184.581 120.593 184.77 120.734 184.987 120.81C185.205 120.886 185.441 120.893 185.662 120.829C186.179 120.662 186.624 120.323 186.923 119.869C187.52 118.987 187.874 117.964 187.95 116.902C188.025 115.839 187.82 114.776 187.353 113.818C186.41 111.731 184.137 108.978 181.766 107.995C181.706 107.97 181.653 107.93 181.613 107.878C181.574 107.826 181.548 107.765 181.54 107.7C181.53 107.635 181.538 107.568 181.563 107.506C181.588 107.445 181.63 107.392 181.683 107.352L182.748 106.543C183.548 105.938 184.371 105.318 185.164 104.675C185.3 104.562 185.488 104.426 185.715 104.252C186.47 103.692 188.191 102.414 188.35 101.62C186.84 101.62 177.584 105.991 176.059 107.776C174.533 109.561 170.894 118.772 170.857 118.863C170.833 118.92 170.797 118.972 170.751 119.014L160.641 127.863Z" fill="#271A8A"/>
<path d="M64.1222 190.089C64.1222 190.089 64.8772 126.894 72.3894 114.25C79.9017 101.605 100.551 97.9972 110.804 104.94C121.057 111.882 129.105 184.757 129.105 184.757C129.105 184.757 96.8288 191.465 64.1222 190.089Z" fill="#6D5DE7"/>
<path d="M110.804 104.925C110.804 104.925 120.438 106.399 125.745 114.582C131.053 122.765 136.934 134.049 136.934 134.049L164.628 119.566L177.591 131.916C177.591 131.916 154.337 157.13 143.095 163.959C132.487 170.403 124.137 161.502 118.346 155.769C115.893 153.341 112.095 147.374 112.095 147.374L110.804 104.925Z" fill="#6D5DE7"/>
<path d="M112.352 79.6727C111.385 79.6745 110.45 79.3282 109.717 78.6971C109 78.0855 108.518 77.2441 108.351 76.3161C108.184 75.3881 108.344 74.4309 108.803 73.6076C109.262 72.7842 109.991 72.1457 110.867 71.8008C111.743 71.4558 112.712 71.4257 113.607 71.7157C114.503 72.0056 115.271 72.5977 115.78 73.3909C116.289 74.1842 116.507 75.1296 116.398 76.0662C116.289 77.0028 115.86 77.8726 115.182 78.5274C114.505 79.1823 113.622 79.5817 112.684 79.6576L112.352 79.6727ZM112.352 72.2537H112.08C111.201 72.326 110.386 72.7449 109.815 73.4183C109.535 73.7512 109.324 74.1367 109.194 74.5522C109.064 74.9677 109.019 75.405 109.06 75.8384C109.103 76.3838 109.281 76.9101 109.576 77.3706C109.871 77.831 110.275 78.2115 110.752 78.4782C111.229 78.745 111.764 78.8898 112.31 78.8998C112.856 78.9099 113.397 78.7849 113.883 78.5359C114.369 78.2869 114.787 77.9216 115.099 77.4723C115.411 77.023 115.607 76.5036 115.671 75.9602C115.734 75.4167 115.663 74.8659 115.463 74.3566C115.264 73.8473 114.942 73.3951 114.526 73.0402C113.925 72.5243 113.158 72.2448 112.367 72.2537H112.352Z" fill="#271A8A"/>
<path d="M110.827 78.5988C110.827 78.5988 115.689 85.3372 114.798 86.8119C113.907 88.2866 110.728 87.4699 110.728 87.4699" fill="white"/>
<path d="M112.555 88.0749C111.91 88.0683 111.266 87.9897 110.638 87.8405C110.59 87.8282 110.544 87.8064 110.505 87.7765C110.465 87.7467 110.432 87.7092 110.406 87.6664C110.381 87.6235 110.364 87.5761 110.358 87.5268C110.351 87.4775 110.354 87.4273 110.366 87.3792C110.377 87.3304 110.399 87.2845 110.428 87.2441C110.458 87.2038 110.495 87.1699 110.538 87.1445C110.581 87.119 110.629 87.1026 110.679 87.0961C110.728 87.0897 110.778 87.0933 110.827 87.1069C111.634 87.3111 113.847 87.6287 114.473 86.6229C114.949 85.8666 112.79 81.9642 110.517 78.8181C110.46 78.7375 110.437 78.6378 110.452 78.5403C110.468 78.4428 110.521 78.3552 110.6 78.2963C110.64 78.2659 110.685 78.2439 110.734 78.2316C110.782 78.2193 110.833 78.2169 110.882 78.2247C110.931 78.2325 110.979 78.2502 111.021 78.2768C111.063 78.3034 111.1 78.3383 111.129 78.3795C111.967 79.5366 116.089 85.3977 115.122 87.0086C114.617 87.8556 113.529 88.0749 112.555 88.0749Z" fill="#271A8A"/>
<path d="M109.475 69.4781C112.495 71.7469 111.846 76.8064 111.959 80.0659C112.12 84.6691 112.17 89.2773 112.11 93.8906C112.11 96.8098 104.56 97.188 103.171 96.3712L105.345 103.51L88.7352 102.421L88.9843 92.8696C88.9843 92.8696 86.8779 79.7558 89.5732 73.683C90.3596 71.9363 91.6173 70.4444 93.2048 69.3754C94.7922 68.3064 96.6462 67.7029 98.5577 67.6328C98.5577 67.6328 106.523 67.2773 109.475 69.4781Z" fill="white"/>
<path d="M105.338 103.904L88.7276 102.815C88.6301 102.809 88.5387 102.765 88.4726 102.693C88.4064 102.622 88.3706 102.527 88.3728 102.429L88.6219 92.8697C88.5389 92.4008 86.5306 79.65 89.241 73.5469C91.9515 67.4437 98.4671 67.2849 98.5804 67.2849C98.8899 67.2849 106.704 66.9143 109.724 69.1756C112.374 71.1646 112.359 75.1199 112.344 78.2509C112.344 78.8786 112.344 79.4836 112.344 80.0281C112.503 84.6187 112.555 89.2774 112.495 93.868C112.464 94.3255 112.306 94.7654 112.04 95.1382C111.773 95.5109 111.408 95.8017 110.985 95.978C109.045 97.067 105.489 97.3014 103.737 96.9384L105.7 103.412C105.717 103.471 105.72 103.534 105.708 103.594C105.696 103.655 105.67 103.712 105.632 103.76C105.597 103.805 105.553 103.841 105.502 103.866C105.451 103.891 105.394 103.904 105.338 103.904ZM89.1051 102.089L104.817 103.11L102.801 96.4998C102.78 96.4266 102.78 96.3488 102.803 96.2761C102.826 96.2034 102.87 96.1392 102.929 96.0914C102.992 96.0491 103.065 96.0265 103.141 96.0265C103.216 96.0265 103.29 96.0491 103.352 96.0914C104.25 96.6284 108.494 96.583 110.615 95.3881C111.37 94.9797 111.725 94.4881 111.725 93.9285C111.785 89.3454 111.725 84.7019 111.574 80.1264C111.574 79.5668 111.574 78.9542 111.574 78.319C111.574 75.2939 111.574 71.573 109.256 69.8109C106.455 67.716 98.6861 68.0639 98.5804 68.0714C96.7373 68.1281 94.9474 68.7037 93.4158 69.7323C91.8842 70.7609 90.6728 72.2008 89.9205 73.8872C87.2931 79.7786 89.3392 92.726 89.3618 92.8545L89.1051 102.089Z" fill="#271A8A"/>
<path d="M85.6775 104.925L86.8175 99.782L107.135 100.107L108.645 104.645C108.645 104.645 98.5351 110.498 85.6775 104.925Z" fill="white"/>
<path d="M96.9496 107.693C93.0169 107.684 89.1282 106.862 85.5265 105.28C85.4464 105.244 85.381 105.182 85.3412 105.103C85.3014 105.025 85.2895 104.935 85.3075 104.849L86.4476 99.7064C86.4652 99.6217 86.5118 99.5459 86.5794 99.492C86.647 99.4381 86.7312 99.4096 86.8175 99.4115L107.135 99.7442C107.211 99.7436 107.286 99.7674 107.349 99.8122C107.411 99.8571 107.458 99.9207 107.482 99.9938L108.992 104.531C109.023 104.613 109.023 104.704 108.992 104.786C108.962 104.868 108.903 104.936 108.826 104.978C105.139 106.817 101.068 107.747 96.9496 107.693ZM86.1154 104.705C89.6056 106.228 93.3783 106.992 97.1848 106.948C100.991 106.904 104.745 106.052 108.199 104.448L106.863 100.493L87.1195 100.175L86.1154 104.705Z" fill="#271A8A"/>
<path d="M64.3562 182.821C64.2619 182.821 64.1711 182.785 64.1023 182.721C64.0336 182.656 63.9921 182.567 63.9863 182.473C62.6877 166.591 67.1648 132.854 67.4064 131.863C67.4183 131.814 67.4399 131.767 67.4699 131.725C67.4998 131.684 67.5376 131.649 67.5811 131.622C67.6245 131.596 67.6728 131.578 67.7232 131.57C67.7735 131.562 67.825 131.564 67.8745 131.576C67.9241 131.588 67.9709 131.609 68.0121 131.639C68.0534 131.669 68.0883 131.707 68.1149 131.751C68.1416 131.794 68.1594 131.843 68.1674 131.893C68.1754 131.944 68.1733 131.995 68.1614 132.045C67.9198 133.035 63.4729 166.576 64.7564 182.413C64.7605 182.462 64.7548 182.512 64.7396 182.56C64.7243 182.607 64.6998 182.651 64.6676 182.689C64.6353 182.727 64.5958 182.758 64.5515 182.781C64.5071 182.804 64.4587 182.817 64.4091 182.821H64.3562Z" fill="#271A8A"/>
<path d="M96.0889 92.968C95.1074 98.9576 96.1569 104.002 90.2075 108.025C86.138 110.786 80.8681 111.368 76.0512 110.408C73.0312 109.803 69.8979 108.464 68.2671 105.825C66.289 102.626 67.044 98.4056 68.6673 95.0099C70.2905 91.6142 72.6914 88.6118 74.0655 85.1027C77.4253 76.5417 74.6544 66.8311 82.9217 60.7733C86.1632 58.4246 89.9444 56.934 93.9145 56.4399C95.0545 56.2962 104.983 57.5819 104.839 57.7558C106.719 55.5853 110.736 56.8937 112.012 59.4574C112.524 60.6207 112.795 61.8763 112.808 63.1478C112.821 64.4193 112.576 65.6802 112.087 66.8538C111.944 67.1487 109.332 70.4461 109.392 69.4705C109.226 72.0721 107.64 73.4334 105.715 75.2333C103.79 77.0332 101.502 78.4097 99.4034 80.0054C95.3113 83.0986 96.7231 86.9026 96.3003 91.3041C96.2474 91.8713 96.1795 92.4234 96.0889 92.968Z" fill="white"/>
<path d="M80.3547 111.217C78.8867 111.215 77.4224 111.068 75.9833 110.778C73.3332 110.249 69.7847 109.001 67.9501 106.029C65.4208 101.937 67.3687 96.8476 68.3276 94.8435C69.0373 93.331 69.9055 91.9243 70.7436 90.5403C71.8931 88.7727 72.886 86.9077 73.7107 84.9666C74.747 81.9936 75.4189 78.9056 75.7115 75.7703C76.4665 69.9621 77.2215 64.4791 82.7028 60.4708C85.9935 58.0802 89.8351 56.5633 93.8692 56.0618C93.9447 56.0618 102.552 56.7424 104.696 57.3474C105.13 56.9265 105.657 56.614 106.234 56.4353C106.811 56.2566 107.422 56.2167 108.018 56.3189C108.922 56.4375 109.785 56.7677 110.538 57.2827C111.291 57.7978 111.912 58.4832 112.352 59.2835C112.886 60.5009 113.168 61.8143 113.181 63.1441C113.194 64.4739 112.938 65.7925 112.427 67.0202C112.427 67.0202 110.706 69.5083 109.724 69.9545C109.415 72.3065 107.927 73.6905 106.229 75.2485L105.972 75.4905C104.654 76.6655 103.257 77.7471 101.789 78.7273C101.034 79.2416 100.332 79.7483 99.6299 80.2852C96.7156 82.486 96.7382 85.08 96.7684 88.0824C96.7936 89.1622 96.7633 90.2426 96.6778 91.3193C96.625 91.9016 96.5495 92.4688 96.4589 93.0058C96.2475 94.2839 96.1342 95.5242 96.021 96.7191C95.5982 101.196 95.266 105.038 90.4189 108.32C87.4252 110.264 83.922 111.273 80.3547 111.217ZM94.1863 56.8029H93.9598C90.0534 57.2883 86.3322 58.7527 83.1407 61.0607C77.9236 64.8421 77.2139 70.2041 76.4589 75.8459C76.1654 79.0567 75.4782 82.219 74.4129 85.2615C73.5726 87.2437 72.5622 89.1491 71.3929 90.9563C70.5271 92.3296 69.7309 93.7456 69.0071 95.199C68.1086 97.0821 66.2589 101.884 68.5918 105.651C70.283 108.396 73.6277 109.561 76.1418 110.06C81.2683 111.081 86.3268 110.234 90.0112 107.738C94.5412 104.675 94.8809 100.977 95.2962 96.6888C95.4094 95.4788 95.5302 94.2309 95.7416 92.9075C95.8322 92.3856 95.9002 91.8336 95.953 91.2663C96.0389 90.2175 96.0692 89.1648 96.0436 88.1127C96.0436 85.0346 95.9908 82.1381 99.1995 79.7029C99.9545 79.166 100.649 78.6517 101.381 78.1299C102.823 77.1708 104.195 76.1119 105.489 74.9611L105.745 74.7191C107.505 73.0779 108.894 71.7847 109.045 69.4251C109.054 69.3262 109.101 69.2345 109.175 69.1686C109.249 69.1027 109.346 69.0673 109.445 69.0697C109.517 69.074 109.585 69.1004 109.641 69.1453C110.415 68.3924 111.117 67.5696 111.74 66.6874C112.201 65.5653 112.432 64.362 112.42 63.1487C112.409 61.9355 112.154 60.7369 111.672 59.6238C111.287 58.9309 110.745 58.3384 110.089 57.8943C109.433 57.4502 108.682 57.167 107.897 57.0676C107.391 56.9754 106.87 57.0123 106.382 57.1748C105.893 57.3374 105.454 57.6204 105.104 57.9978C105.043 58.0685 104.959 58.1145 104.867 58.1271C104.776 58.1396 104.682 58.1179 104.605 58.0659C101.156 57.4668 97.6786 57.0452 94.1863 56.8029Z" fill="#271A8A"/>
<path d="M111.853 90.4723C111.853 90.4723 108.38 92.8168 106.327 89.2094L111.853 90.4723Z" fill="white"/>
<path d="M109.415 91.5991C109.133 91.6022 108.851 91.5717 108.577 91.5083C108.023 91.3581 107.508 91.0925 107.064 90.7289C106.621 90.3653 106.259 89.9118 106.002 89.3983C105.977 89.3551 105.961 89.3075 105.955 89.2581C105.948 89.2086 105.952 89.1584 105.965 89.1103C105.978 89.0622 106 89.0172 106.03 88.9777C106.061 88.9382 106.099 88.9051 106.142 88.8803C106.185 88.8555 106.232 88.8394 106.282 88.833C106.331 88.8266 106.381 88.83 106.429 88.843C106.477 88.856 106.522 88.8783 106.562 88.9087C106.601 88.9391 106.634 88.977 106.659 89.0202C106.863 89.4424 107.155 89.8163 107.514 90.1174C107.873 90.4186 108.292 90.64 108.743 90.7672C109.75 90.9222 110.78 90.7074 111.642 90.1622C111.682 90.1337 111.728 90.1137 111.776 90.1032C111.825 90.0927 111.875 90.0921 111.923 90.1012C111.972 90.1104 112.018 90.1292 112.059 90.1566C112.1 90.1839 112.136 90.2193 112.163 90.2605C112.191 90.3016 112.212 90.348 112.222 90.3969C112.233 90.4459 112.233 90.4965 112.224 90.5458C112.215 90.595 112.196 90.642 112.169 90.6839C112.142 90.7258 112.106 90.7618 112.065 90.7899C111.269 91.2909 110.354 91.5702 109.415 91.5991Z" fill="#271A8A"/>
<path d="M92.11 82.5541H92.0345C91.9859 82.5441 91.9398 82.5247 91.8987 82.4969C91.8576 82.4691 91.8223 82.4335 91.795 82.3921C91.7677 82.3506 91.7487 82.3042 91.7393 82.2554C91.7299 82.2067 91.7301 82.1565 91.7401 82.1079C92.2082 79.7785 92.6536 79.7029 92.8499 79.6802C93.2274 79.6122 108.139 76.5417 115.976 74.9233C116.076 74.9032 116.18 74.9238 116.265 74.9805C116.35 75.0373 116.409 75.1255 116.429 75.2258C116.449 75.3261 116.428 75.4302 116.371 75.5153C116.315 75.6004 116.227 75.6595 116.127 75.6795C115.221 75.861 94.5562 80.134 93.0462 80.4214C92.7742 81.0103 92.5837 81.6337 92.48 82.2743C92.457 82.3548 92.4085 82.4257 92.3417 82.4762C92.275 82.5267 92.1936 82.554 92.11 82.5541Z" fill="#271A8A"/>
<path d="M102.136 81.9188C101.958 80.7717 101.466 79.6962 100.717 78.8105C100.232 78.055 99.6396 77.3747 98.9579 76.7913C98.6144 76.5035 98.2113 76.2958 97.7778 76.1833C97.3442 76.0708 96.8911 76.0563 96.4513 76.1409C96.0705 76.2554 95.7182 76.4494 95.4176 76.7101C95.117 76.9708 94.8749 77.2923 94.7073 77.6534C94.3816 78.3646 94.2191 79.1399 94.2316 79.9222C94.2275 81.6571 94.6796 83.3624 95.5424 84.8666C96.4052 86.3708 97.6484 87.6208 99.1467 88.4908L98.9051 88.2866" fill="white"/>
<path d="M99.1467 88.8992C99.0811 88.8987 99.0166 88.8832 98.9579 88.8538C97.4083 87.9462 96.1222 86.6488 95.227 85.0902C94.3318 83.5316 93.8585 81.7658 93.8541 79.9676C93.8362 79.1166 94.0145 78.2729 94.3751 77.5021C94.563 77.0912 94.838 76.7262 95.1809 76.4323C95.5238 76.1385 95.9263 75.9229 96.3607 75.8005C96.859 75.7019 97.3731 75.7188 97.8639 75.8499C98.3546 75.981 98.8089 76.2228 99.192 76.5568C99.9045 77.1602 100.521 77.8692 101.019 78.6592C101.825 79.5924 102.349 80.7362 102.529 81.9566C102.532 82.0063 102.525 82.056 102.509 82.103C102.493 82.1501 102.467 82.1934 102.435 82.2306C102.402 82.2679 102.362 82.2982 102.317 82.32C102.272 82.3417 102.224 82.3545 102.174 82.3574C102.125 82.3604 102.075 82.3536 102.028 82.3373C101.981 82.3211 101.938 82.2957 101.901 82.2627C101.864 82.2297 101.833 82.1897 101.811 82.145C101.79 82.1002 101.777 82.0516 101.774 82.002C101.59 80.9283 101.124 79.9232 100.423 79.0903C99.9614 78.3664 99.3967 77.7141 98.7465 77.1543C98.4478 76.9002 98.0962 76.7161 97.7174 76.6154C97.3387 76.5146 96.9422 76.4998 96.557 76.5719C96.2273 76.6684 95.922 76.8343 95.6615 77.0587C95.4011 77.283 95.1916 77.5606 95.047 77.8727C94.7445 78.5475 94.5949 79.281 94.6091 80.0205C94.6118 81.5866 94.998 83.1282 95.7338 84.51C96.4697 85.8918 97.5326 87.0717 98.8296 87.9463C98.887 87.9389 98.9453 87.9446 99.0002 87.963C99.0551 87.9813 99.1052 88.0118 99.1467 88.0522L99.4109 88.3169C99.4763 88.3799 99.5163 88.4648 99.5233 88.5555C99.5302 88.6461 99.5037 88.7361 99.4487 88.8085C99.4076 88.8441 99.3594 88.8706 99.3074 88.8862C99.2553 88.9019 99.2006 88.9063 99.1467 88.8992Z" fill="#271A8A"/>
<path d="M109.48 76.7217C109.836 76.6872 110.055 75.9246 109.968 75.0182C109.881 74.1119 109.521 73.4051 109.164 73.4395C108.807 73.4739 108.588 74.2366 108.675 75.1429C108.763 76.0493 109.123 76.7561 109.48 76.7217Z" fill="#271A8A"/>
<path d="M128.35 163.914C128.298 163.925 128.244 163.925 128.192 163.914C110.275 155.482 101.329 124.217 101.238 123.907C101.212 123.81 101.226 123.707 101.275 123.619C101.324 123.531 101.406 123.467 101.502 123.438C101.55 123.425 101.6 123.421 101.649 123.427C101.698 123.433 101.746 123.448 101.788 123.473C101.831 123.498 101.869 123.531 101.899 123.57C101.929 123.61 101.951 123.655 101.963 123.703C102.053 124.013 110.91 154.945 128.516 163.226C128.593 163.263 128.655 163.326 128.692 163.403C128.729 163.48 128.739 163.568 128.719 163.652C128.7 163.735 128.653 163.81 128.586 163.863C128.519 163.916 128.436 163.945 128.35 163.944V163.914Z" fill="#271A8A"/>
<path d="M215.809 190.346H167.64L176.866 142.096H225.035L215.809 190.346Z" fill="white"/>
<path d="M215.809 190.724H167.61C167.554 190.723 167.499 190.711 167.448 190.687C167.398 190.664 167.353 190.63 167.316 190.588C167.282 190.545 167.257 190.495 167.244 190.441C167.231 190.388 167.23 190.332 167.24 190.278L176.466 142.02C176.482 141.934 176.528 141.856 176.596 141.801C176.664 141.746 176.749 141.716 176.836 141.717H225.005C225.061 141.717 225.117 141.729 225.168 141.752C225.219 141.776 225.264 141.81 225.3 141.854C225.334 141.897 225.359 141.947 225.372 142C225.385 142.054 225.386 142.11 225.375 142.164L216.179 190.384C216.172 190.477 216.129 190.563 216.061 190.626C215.992 190.69 215.902 190.724 215.809 190.724ZM168.093 189.968H215.5L224.56 142.474H177.176L168.093 189.968Z" fill="#271A8A"/>
<path d="M215.809 152.01H183.39C183.279 152.008 183.173 151.963 183.096 151.884C183.018 151.804 182.974 151.698 182.974 151.587C182.974 151.476 183.018 151.371 183.096 151.293C183.174 151.215 183.279 151.171 183.39 151.171H215.809C215.864 151.17 215.919 151.18 215.971 151.2C216.022 151.221 216.068 151.251 216.108 151.29C216.147 151.329 216.178 151.375 216.2 151.426C216.221 151.477 216.232 151.532 216.232 151.587C216.232 151.642 216.221 151.697 216.2 151.749C216.179 151.8 216.148 151.847 216.108 151.886C216.069 151.926 216.022 151.957 215.971 151.978C215.92 151.999 215.865 152.01 215.809 152.01Z" fill="#EDEBFF"/>
<path d="M214.367 159.566H181.955C181.9 159.567 181.845 159.557 181.794 159.536C181.743 159.516 181.696 159.485 181.657 159.446C181.617 159.408 181.586 159.361 181.565 159.311C181.543 159.26 181.532 159.205 181.532 159.15C181.532 159.037 181.577 158.93 181.656 158.85C181.735 158.771 181.843 158.726 181.955 158.726H214.375C214.486 158.728 214.591 158.774 214.669 158.853C214.746 158.932 214.79 159.039 214.79 159.15C214.79 159.205 214.779 159.26 214.758 159.311C214.736 159.361 214.705 159.408 214.666 159.446C214.626 159.485 214.58 159.516 214.528 159.536C214.477 159.557 214.422 159.567 214.367 159.566Z" fill="#EDEBFF"/>
<path d="M212.91 167.128H180.498C180.396 167.115 180.303 167.065 180.236 166.987C180.169 166.91 180.131 166.811 180.131 166.709C180.131 166.606 180.169 166.507 180.236 166.43C180.303 166.353 180.396 166.302 180.498 166.289H212.91C212.97 166.281 213.031 166.286 213.088 166.303C213.146 166.32 213.199 166.35 213.245 166.39C213.29 166.429 213.326 166.478 213.351 166.533C213.376 166.588 213.389 166.648 213.389 166.709C213.389 166.769 213.376 166.829 213.351 166.884C213.326 166.939 213.29 166.988 213.245 167.027C213.199 167.067 213.146 167.097 213.088 167.114C213.031 167.131 212.97 167.136 212.91 167.128Z" fill="#EDEBFF"/>
<path d="M211.476 174.691H179.056C178.996 174.699 178.935 174.694 178.878 174.677C178.82 174.659 178.767 174.63 178.721 174.59C178.676 174.55 178.639 174.501 178.614 174.446C178.59 174.391 178.577 174.332 178.577 174.271C178.577 174.211 178.59 174.151 178.614 174.096C178.639 174.041 178.676 173.992 178.721 173.952C178.767 173.913 178.82 173.883 178.878 173.866C178.935 173.848 178.996 173.844 179.056 173.852H211.476C211.577 173.865 211.67 173.915 211.737 173.992C211.805 174.07 211.842 174.169 211.842 174.271C211.842 174.374 211.805 174.473 211.737 174.55C211.67 174.627 211.577 174.677 211.476 174.691Z" fill="#EDEBFF"/>
<path d="M200.4 182.254H177.606C177.505 182.24 177.412 182.19 177.344 182.113C177.277 182.036 177.24 181.937 177.24 181.834C177.24 181.732 177.277 181.632 177.344 181.555C177.412 181.478 177.505 181.428 177.606 181.414H200.4C200.501 181.428 200.594 181.478 200.662 181.555C200.729 181.632 200.766 181.732 200.766 181.834C200.766 181.937 200.729 182.036 200.662 182.113C200.594 182.19 200.501 182.24 200.4 182.254Z" fill="#EDEBFF"/>
</svg>
