<svg width="32" height="32" viewBox="0 0 32 32" fill="none" xmlns="http://www.w3.org/2000/svg">
<g filter="url(#filter0_i_1348_271)">
<path d="M13.05 3.33002C14.582 1.60702 16.664 1.88202 17.996 3.33002L18.808 4.27102C19.09 4.57802 19.497 4.73602 19.911 4.70102L21.355 4.27102C23.324 3.84902 25.113 5.31802 25.113 7.59902V8.45902C25.155 8.92802 25.565 9.24602 25.988 9.45302L27.293 9.99802C29.18 10.92 29.653 13.108 28.277 14.943L27.887 15.459C27.537 15.932 27.608 16.554 27.957 17.029L28.347 17.576C29.769 19.326 28.967 21.726 26.959 22.566L25.836 23.035C25.413 23.212 25.246 23.515 25.168 23.967L25.09 25.435C24.816 27.451 23.026 28.361 21.59 28.158L19.879 27.701C19.468 27.643 18.957 27.779 18.683 28.209L18.066 29.053C16.535 30.779 14.468 30.492 13.426 29.483L12.287 28.103C11.989 27.815 11.613 27.568 11.163 27.738L9.44103 28.208C8.02003 28.41 6.34503 27.318 6.07803 25.907L5.87803 23.865C5.83842 23.6556 5.74957 23.4586 5.61882 23.2903C5.48806 23.122 5.31915 22.9872 5.12603 22.897L3.91803 22.482C2.10103 21.636 1.49303 19.586 2.53603 17.875L3.21603 16.933C3.34978 16.7135 3.41776 16.4602 3.41191 16.2032C3.40607 15.9462 3.32663 15.6963 3.18303 15.483L2.67603 14.763C1.23803 12.717 2.23203 10.429 4.36203 9.74302L4.83203 9.59202C5.35003 9.42502 5.85203 8.99402 5.89403 8.45102L6.00003 7.13302C6.17003 4.99302 8.12203 3.76502 10.176 4.39002L10.841 4.59202C11.481 4.84202 11.983 4.62902 12.333 4.24802L13.052 3.33102L13.05 3.33002Z" fill="url(#paint0_linear_1348_271)"/>
<path d="M13.05 3.33002C14.582 1.60702 16.664 1.88202 17.996 3.33002L18.808 4.27102C19.09 4.57802 19.497 4.73602 19.911 4.70102L21.355 4.27102C23.324 3.84902 25.113 5.31802 25.113 7.59902V8.45902C25.155 8.92802 25.565 9.24602 25.988 9.45302L27.293 9.99802C29.18 10.92 29.653 13.108 28.277 14.943L27.887 15.459C27.537 15.932 27.608 16.554 27.957 17.029L28.347 17.576C29.769 19.326 28.967 21.726 26.959 22.566L25.836 23.035C25.413 23.212 25.246 23.515 25.168 23.967L25.09 25.435C24.816 27.451 23.026 28.361 21.59 28.158L19.879 27.701C19.468 27.643 18.957 27.779 18.683 28.209L18.066 29.053C16.535 30.779 14.468 30.492 13.426 29.483L12.287 28.103C11.989 27.815 11.613 27.568 11.163 27.738L9.44103 28.208C8.02003 28.41 6.34503 27.318 6.07803 25.907L5.87803 23.865C5.83842 23.6556 5.74957 23.4586 5.61882 23.2903C5.48806 23.122 5.31915 22.9872 5.12603 22.897L3.91803 22.482C2.10103 21.636 1.49303 19.586 2.53603 17.875L3.21603 16.933C3.34978 16.7135 3.41776 16.4602 3.41191 16.2032C3.40607 15.9462 3.32663 15.6963 3.18303 15.483L2.67603 14.763C1.23803 12.717 2.23203 10.429 4.36203 9.74302L4.83203 9.59202C5.35003 9.42502 5.85203 8.99402 5.89403 8.45102L6.00003 7.13302C6.17003 4.99302 8.12203 3.76502 10.176 4.39002L10.841 4.59202C11.481 4.84202 11.983 4.62902 12.333 4.24802L13.052 3.33102L13.05 3.33002Z" fill="url(#paint1_radial_1348_271)"/>
<path d="M13.05 3.33002C14.582 1.60702 16.664 1.88202 17.996 3.33002L18.808 4.27102C19.09 4.57802 19.497 4.73602 19.911 4.70102L21.355 4.27102C23.324 3.84902 25.113 5.31802 25.113 7.59902V8.45902C25.155 8.92802 25.565 9.24602 25.988 9.45302L27.293 9.99802C29.18 10.92 29.653 13.108 28.277 14.943L27.887 15.459C27.537 15.932 27.608 16.554 27.957 17.029L28.347 17.576C29.769 19.326 28.967 21.726 26.959 22.566L25.836 23.035C25.413 23.212 25.246 23.515 25.168 23.967L25.09 25.435C24.816 27.451 23.026 28.361 21.59 28.158L19.879 27.701C19.468 27.643 18.957 27.779 18.683 28.209L18.066 29.053C16.535 30.779 14.468 30.492 13.426 29.483L12.287 28.103C11.989 27.815 11.613 27.568 11.163 27.738L9.44103 28.208C8.02003 28.41 6.34503 27.318 6.07803 25.907L5.87803 23.865C5.83842 23.6556 5.74957 23.4586 5.61882 23.2903C5.48806 23.122 5.31915 22.9872 5.12603 22.897L3.91803 22.482C2.10103 21.636 1.49303 19.586 2.53603 17.875L3.21603 16.933C3.34978 16.7135 3.41776 16.4602 3.41191 16.2032C3.40607 15.9462 3.32663 15.6963 3.18303 15.483L2.67603 14.763C1.23803 12.717 2.23203 10.429 4.36203 9.74302L4.83203 9.59202C5.35003 9.42502 5.85203 8.99402 5.89403 8.45102L6.00003 7.13302C6.17003 4.99302 8.12203 3.76502 10.176 4.39002L10.841 4.59202C11.481 4.84202 11.983 4.62902 12.333 4.24802L13.052 3.33102L13.05 3.33002Z" fill="url(#paint2_radial_1348_271)"/>
<path d="M13.05 3.33002C14.582 1.60702 16.664 1.88202 17.996 3.33002L18.808 4.27102C19.09 4.57802 19.497 4.73602 19.911 4.70102L21.355 4.27102C23.324 3.84902 25.113 5.31802 25.113 7.59902V8.45902C25.155 8.92802 25.565 9.24602 25.988 9.45302L27.293 9.99802C29.18 10.92 29.653 13.108 28.277 14.943L27.887 15.459C27.537 15.932 27.608 16.554 27.957 17.029L28.347 17.576C29.769 19.326 28.967 21.726 26.959 22.566L25.836 23.035C25.413 23.212 25.246 23.515 25.168 23.967L25.09 25.435C24.816 27.451 23.026 28.361 21.59 28.158L19.879 27.701C19.468 27.643 18.957 27.779 18.683 28.209L18.066 29.053C16.535 30.779 14.468 30.492 13.426 29.483L12.287 28.103C11.989 27.815 11.613 27.568 11.163 27.738L9.44103 28.208C8.02003 28.41 6.34503 27.318 6.07803 25.907L5.87803 23.865C5.83842 23.6556 5.74957 23.4586 5.61882 23.2903C5.48806 23.122 5.31915 22.9872 5.12603 22.897L3.91803 22.482C2.10103 21.636 1.49303 19.586 2.53603 17.875L3.21603 16.933C3.34978 16.7135 3.41776 16.4602 3.41191 16.2032C3.40607 15.9462 3.32663 15.6963 3.18303 15.483L2.67603 14.763C1.23803 12.717 2.23203 10.429 4.36203 9.74302L4.83203 9.59202C5.35003 9.42502 5.85203 8.99402 5.89403 8.45102L6.00003 7.13302C6.17003 4.99302 8.12203 3.76502 10.176 4.39002L10.841 4.59202C11.481 4.84202 11.983 4.62902 12.333 4.24802L13.052 3.33102L13.05 3.33002Z" fill="url(#paint3_radial_1348_271)"/>
<path d="M13.05 3.33002C14.582 1.60702 16.664 1.88202 17.996 3.33002L18.808 4.27102C19.09 4.57802 19.497 4.73602 19.911 4.70102L21.355 4.27102C23.324 3.84902 25.113 5.31802 25.113 7.59902V8.45902C25.155 8.92802 25.565 9.24602 25.988 9.45302L27.293 9.99802C29.18 10.92 29.653 13.108 28.277 14.943L27.887 15.459C27.537 15.932 27.608 16.554 27.957 17.029L28.347 17.576C29.769 19.326 28.967 21.726 26.959 22.566L25.836 23.035C25.413 23.212 25.246 23.515 25.168 23.967L25.09 25.435C24.816 27.451 23.026 28.361 21.59 28.158L19.879 27.701C19.468 27.643 18.957 27.779 18.683 28.209L18.066 29.053C16.535 30.779 14.468 30.492 13.426 29.483L12.287 28.103C11.989 27.815 11.613 27.568 11.163 27.738L9.44103 28.208C8.02003 28.41 6.34503 27.318 6.07803 25.907L5.87803 23.865C5.83842 23.6556 5.74957 23.4586 5.61882 23.2903C5.48806 23.122 5.31915 22.9872 5.12603 22.897L3.91803 22.482C2.10103 21.636 1.49303 19.586 2.53603 17.875L3.21603 16.933C3.34978 16.7135 3.41776 16.4602 3.41191 16.2032C3.40607 15.9462 3.32663 15.6963 3.18303 15.483L2.67603 14.763C1.23803 12.717 2.23203 10.429 4.36203 9.74302L4.83203 9.59202C5.35003 9.42502 5.85203 8.99402 5.89403 8.45102L6.00003 7.13302C6.17003 4.99302 8.12203 3.76502 10.176 4.39002L10.841 4.59202C11.481 4.84202 11.983 4.62902 12.333 4.24802L13.052 3.33102L13.05 3.33002Z" fill="url(#paint4_radial_1348_271)"/>
<path d="M13.05 3.33002C14.582 1.60702 16.664 1.88202 17.996 3.33002L18.808 4.27102C19.09 4.57802 19.497 4.73602 19.911 4.70102L21.355 4.27102C23.324 3.84902 25.113 5.31802 25.113 7.59902V8.45902C25.155 8.92802 25.565 9.24602 25.988 9.45302L27.293 9.99802C29.18 10.92 29.653 13.108 28.277 14.943L27.887 15.459C27.537 15.932 27.608 16.554 27.957 17.029L28.347 17.576C29.769 19.326 28.967 21.726 26.959 22.566L25.836 23.035C25.413 23.212 25.246 23.515 25.168 23.967L25.09 25.435C24.816 27.451 23.026 28.361 21.59 28.158L19.879 27.701C19.468 27.643 18.957 27.779 18.683 28.209L18.066 29.053C16.535 30.779 14.468 30.492 13.426 29.483L12.287 28.103C11.989 27.815 11.613 27.568 11.163 27.738L9.44103 28.208C8.02003 28.41 6.34503 27.318 6.07803 25.907L5.87803 23.865C5.83842 23.6556 5.74957 23.4586 5.61882 23.2903C5.48806 23.122 5.31915 22.9872 5.12603 22.897L3.91803 22.482C2.10103 21.636 1.49303 19.586 2.53603 17.875L3.21603 16.933C3.34978 16.7135 3.41776 16.4602 3.41191 16.2032C3.40607 15.9462 3.32663 15.6963 3.18303 15.483L2.67603 14.763C1.23803 12.717 2.23203 10.429 4.36203 9.74302L4.83203 9.59202C5.35003 9.42502 5.85203 8.99402 5.89403 8.45102L6.00003 7.13302C6.17003 4.99302 8.12203 3.76502 10.176 4.39002L10.841 4.59202C11.481 4.84202 11.983 4.62902 12.333 4.24802L13.052 3.33102L13.05 3.33002Z" fill="url(#paint5_radial_1348_271)"/>
<path d="M13.05 3.33002C14.582 1.60702 16.664 1.88202 17.996 3.33002L18.808 4.27102C19.09 4.57802 19.497 4.73602 19.911 4.70102L21.355 4.27102C23.324 3.84902 25.113 5.31802 25.113 7.59902V8.45902C25.155 8.92802 25.565 9.24602 25.988 9.45302L27.293 9.99802C29.18 10.92 29.653 13.108 28.277 14.943L27.887 15.459C27.537 15.932 27.608 16.554 27.957 17.029L28.347 17.576C29.769 19.326 28.967 21.726 26.959 22.566L25.836 23.035C25.413 23.212 25.246 23.515 25.168 23.967L25.09 25.435C24.816 27.451 23.026 28.361 21.59 28.158L19.879 27.701C19.468 27.643 18.957 27.779 18.683 28.209L18.066 29.053C16.535 30.779 14.468 30.492 13.426 29.483L12.287 28.103C11.989 27.815 11.613 27.568 11.163 27.738L9.44103 28.208C8.02003 28.41 6.34503 27.318 6.07803 25.907L5.87803 23.865C5.83842 23.6556 5.74957 23.4586 5.61882 23.2903C5.48806 23.122 5.31915 22.9872 5.12603 22.897L3.91803 22.482C2.10103 21.636 1.49303 19.586 2.53603 17.875L3.21603 16.933C3.34978 16.7135 3.41776 16.4602 3.41191 16.2032C3.40607 15.9462 3.32663 15.6963 3.18303 15.483L2.67603 14.763C1.23803 12.717 2.23203 10.429 4.36203 9.74302L4.83203 9.59202C5.35003 9.42502 5.85203 8.99402 5.89403 8.45102L6.00003 7.13302C6.17003 4.99302 8.12203 3.76502 10.176 4.39002L10.841 4.59202C11.481 4.84202 11.983 4.62902 12.333 4.24802L13.052 3.33102L13.05 3.33002Z" fill="url(#paint6_radial_1348_271)"/>
<path d="M13.05 3.33002C14.582 1.60702 16.664 1.88202 17.996 3.33002L18.808 4.27102C19.09 4.57802 19.497 4.73602 19.911 4.70102L21.355 4.27102C23.324 3.84902 25.113 5.31802 25.113 7.59902V8.45902C25.155 8.92802 25.565 9.24602 25.988 9.45302L27.293 9.99802C29.18 10.92 29.653 13.108 28.277 14.943L27.887 15.459C27.537 15.932 27.608 16.554 27.957 17.029L28.347 17.576C29.769 19.326 28.967 21.726 26.959 22.566L25.836 23.035C25.413 23.212 25.246 23.515 25.168 23.967L25.09 25.435C24.816 27.451 23.026 28.361 21.59 28.158L19.879 27.701C19.468 27.643 18.957 27.779 18.683 28.209L18.066 29.053C16.535 30.779 14.468 30.492 13.426 29.483L12.287 28.103C11.989 27.815 11.613 27.568 11.163 27.738L9.44103 28.208C8.02003 28.41 6.34503 27.318 6.07803 25.907L5.87803 23.865C5.83842 23.6556 5.74957 23.4586 5.61882 23.2903C5.48806 23.122 5.31915 22.9872 5.12603 22.897L3.91803 22.482C2.10103 21.636 1.49303 19.586 2.53603 17.875L3.21603 16.933C3.34978 16.7135 3.41776 16.4602 3.41191 16.2032C3.40607 15.9462 3.32663 15.6963 3.18303 15.483L2.67603 14.763C1.23803 12.717 2.23203 10.429 4.36203 9.74302L4.83203 9.59202C5.35003 9.42502 5.85203 8.99402 5.89403 8.45102L6.00003 7.13302C6.17003 4.99302 8.12203 3.76502 10.176 4.39002L10.841 4.59202C11.481 4.84202 11.983 4.62902 12.333 4.24802L13.052 3.33102L13.05 3.33002Z" fill="url(#paint7_radial_1348_271)"/>
<path d="M13.05 3.33002C14.582 1.60702 16.664 1.88202 17.996 3.33002L18.808 4.27102C19.09 4.57802 19.497 4.73602 19.911 4.70102L21.355 4.27102C23.324 3.84902 25.113 5.31802 25.113 7.59902V8.45902C25.155 8.92802 25.565 9.24602 25.988 9.45302L27.293 9.99802C29.18 10.92 29.653 13.108 28.277 14.943L27.887 15.459C27.537 15.932 27.608 16.554 27.957 17.029L28.347 17.576C29.769 19.326 28.967 21.726 26.959 22.566L25.836 23.035C25.413 23.212 25.246 23.515 25.168 23.967L25.09 25.435C24.816 27.451 23.026 28.361 21.59 28.158L19.879 27.701C19.468 27.643 18.957 27.779 18.683 28.209L18.066 29.053C16.535 30.779 14.468 30.492 13.426 29.483L12.287 28.103C11.989 27.815 11.613 27.568 11.163 27.738L9.44103 28.208C8.02003 28.41 6.34503 27.318 6.07803 25.907L5.87803 23.865C5.83842 23.6556 5.74957 23.4586 5.61882 23.2903C5.48806 23.122 5.31915 22.9872 5.12603 22.897L3.91803 22.482C2.10103 21.636 1.49303 19.586 2.53603 17.875L3.21603 16.933C3.34978 16.7135 3.41776 16.4602 3.41191 16.2032C3.40607 15.9462 3.32663 15.6963 3.18303 15.483L2.67603 14.763C1.23803 12.717 2.23203 10.429 4.36203 9.74302L4.83203 9.59202C5.35003 9.42502 5.85203 8.99402 5.89403 8.45102L6.00003 7.13302C6.17003 4.99302 8.12203 3.76502 10.176 4.39002L10.841 4.59202C11.481 4.84202 11.983 4.62902 12.333 4.24802L13.052 3.33102L13.05 3.33002Z" fill="url(#paint8_radial_1348_271)"/>
<path d="M13.05 3.33002C14.582 1.60702 16.664 1.88202 17.996 3.33002L18.808 4.27102C19.09 4.57802 19.497 4.73602 19.911 4.70102L21.355 4.27102C23.324 3.84902 25.113 5.31802 25.113 7.59902V8.45902C25.155 8.92802 25.565 9.24602 25.988 9.45302L27.293 9.99802C29.18 10.92 29.653 13.108 28.277 14.943L27.887 15.459C27.537 15.932 27.608 16.554 27.957 17.029L28.347 17.576C29.769 19.326 28.967 21.726 26.959 22.566L25.836 23.035C25.413 23.212 25.246 23.515 25.168 23.967L25.09 25.435C24.816 27.451 23.026 28.361 21.59 28.158L19.879 27.701C19.468 27.643 18.957 27.779 18.683 28.209L18.066 29.053C16.535 30.779 14.468 30.492 13.426 29.483L12.287 28.103C11.989 27.815 11.613 27.568 11.163 27.738L9.44103 28.208C8.02003 28.41 6.34503 27.318 6.07803 25.907L5.87803 23.865C5.83842 23.6556 5.74957 23.4586 5.61882 23.2903C5.48806 23.122 5.31915 22.9872 5.12603 22.897L3.91803 22.482C2.10103 21.636 1.49303 19.586 2.53603 17.875L3.21603 16.933C3.34978 16.7135 3.41776 16.4602 3.41191 16.2032C3.40607 15.9462 3.32663 15.6963 3.18303 15.483L2.67603 14.763C1.23803 12.717 2.23203 10.429 4.36203 9.74302L4.83203 9.59202C5.35003 9.42502 5.85203 8.99402 5.89403 8.45102L6.00003 7.13302C6.17003 4.99302 8.12203 3.76502 10.176 4.39002L10.841 4.59202C11.481 4.84202 11.983 4.62902 12.333 4.24802L13.052 3.33102L13.05 3.33002Z" fill="url(#paint9_radial_1348_271)"/>
</g>
<g filter="url(#filter1_i_1348_271)">
<path d="M15.534 26.934C21.468 26.934 26.277 22.124 26.277 16.191C26.277 10.258 21.467 5.448 15.534 5.448C9.60102 5.448 4.79102 10.258 4.79102 16.191C4.79102 22.124 9.60102 26.934 15.534 26.934Z" fill="url(#paint10_radial_1348_271)"/>
</g>
<defs>
<filter id="filter0_i_1348_271" x="2.00012" y="1.93867" width="27.269" height="28.3557" filterUnits="userSpaceOnUse" color-interpolation-filters="sRGB">
<feFlood flood-opacity="0" result="BackgroundImageFix"/>
<feBlend mode="normal" in="SourceGraphic" in2="BackgroundImageFix" result="shape"/>
<feColorMatrix in="SourceAlpha" type="matrix" values="0 0 0 0 0 0 0 0 0 0 0 0 0 0 0 0 0 0 127 0" result="hardAlpha"/>
<feOffset dx="0.2" dy="-0.2"/>
<feGaussianBlur stdDeviation="0.375"/>
<feComposite in2="hardAlpha" operator="arithmetic" k2="-1" k3="1"/>
<feColorMatrix type="matrix" values="0 0 0 0 0.839216 0 0 0 0 0.45098 0 0 0 0 0.211765 0 0 0 1 0"/>
<feBlend mode="normal" in2="shape" result="effect1_innerShadow_1348_271"/>
</filter>
<filter id="filter1_i_1348_271" x="4.49102" y="5.448" width="21.786" height="21.786" filterUnits="userSpaceOnUse" color-interpolation-filters="sRGB">
<feFlood flood-opacity="0" result="BackgroundImageFix"/>
<feBlend mode="normal" in="SourceGraphic" in2="BackgroundImageFix" result="shape"/>
<feColorMatrix in="SourceAlpha" type="matrix" values="0 0 0 0 0 0 0 0 0 0 0 0 0 0 0 0 0 0 127 0" result="hardAlpha"/>
<feOffset dx="-0.3" dy="0.3"/>
<feGaussianBlur stdDeviation="0.15"/>
<feComposite in2="hardAlpha" operator="arithmetic" k2="-1" k3="1"/>
<feColorMatrix type="matrix" values="0 0 0 0 0.921569 0 0 0 0 0.47451 0 0 0 0 0.133333 0 0 0 1 0"/>
<feBlend mode="normal" in2="shape" result="effect1_innerShadow_1348_271"/>
</filter>
<linearGradient id="paint0_linear_1348_271" x1="23.878" y1="6.86702" x2="8.52803" y2="26.451" gradientUnits="userSpaceOnUse">
<stop stop-color="#FC8B23"/>
<stop offset="1" stop-color="#E67639"/>
</linearGradient>
<radialGradient id="paint1_radial_1348_271" cx="0" cy="0" r="1" gradientUnits="userSpaceOnUse" gradientTransform="translate(18.1181 3.43724) rotate(138.155) scale(3.77864 3.33393)">
<stop offset="0.3" stop-color="#FFA13A"/>
<stop offset="1" stop-color="#FFA13A" stop-opacity="0"/>
</radialGradient>
<radialGradient id="paint2_radial_1348_271" cx="0" cy="0" r="1" gradientUnits="userSpaceOnUse" gradientTransform="translate(8.28803 2.24402) rotate(67.8105) scale(6.00715 5.30017)">
<stop offset="0.3" stop-color="#FF942A"/>
<stop offset="1" stop-color="#FF942A" stop-opacity="0"/>
</radialGradient>
<radialGradient id="paint3_radial_1348_271" cx="0" cy="0" r="1" gradientUnits="userSpaceOnUse" gradientTransform="translate(24.42 7.85002) rotate(-164.745) scale(2.39513 3.31637)">
<stop offset="0.3" stop-color="#FFA13D"/>
<stop offset="1" stop-color="#FFA13D" stop-opacity="0"/>
</radialGradient>
<radialGradient id="paint4_radial_1348_271" cx="0" cy="0" r="1" gradientUnits="userSpaceOnUse" gradientTransform="translate(29.252 11.336) rotate(154.195) scale(4.24668 3.13649)">
<stop offset="0.3" stop-color="#FFA13D"/>
<stop offset="1" stop-color="#FFA13D" stop-opacity="0"/>
</radialGradient>
<radialGradient id="paint5_radial_1348_271" cx="0" cy="0" r="1" gradientUnits="userSpaceOnUse" gradientTransform="translate(30.177 18.52) rotate(-173.379) scale(4.73709 2.66952)">
<stop offset="0.3" stop-color="#FFA13D"/>
<stop offset="1" stop-color="#FFA13D" stop-opacity="0"/>
</radialGradient>
<radialGradient id="paint6_radial_1348_271" cx="0" cy="0" r="1" gradientUnits="userSpaceOnUse" gradientTransform="translate(25.9328 24.024) rotate(-43.964) scale(4.29693 4.13959)">
<stop stop-color="#E0762A"/>
<stop offset="1" stop-color="#E0762A" stop-opacity="0"/>
</radialGradient>
<radialGradient id="paint7_radial_1348_271" cx="0" cy="0" r="1" gradientUnits="userSpaceOnUse" gradientTransform="translate(6.01903 23.015) rotate(-127.747) scale(3.29424 3.1736)">
<stop stop-color="#E0762A"/>
<stop offset="1" stop-color="#E0762A" stop-opacity="0"/>
</radialGradient>
<radialGradient id="paint8_radial_1348_271" cx="0" cy="0" r="1" gradientUnits="userSpaceOnUse" gradientTransform="translate(1.52303 11.882) rotate(25.2776) scale(3.34528 4.04325)">
<stop stop-color="#F0851D"/>
<stop offset="1" stop-color="#F0851D" stop-opacity="0"/>
</radialGradient>
<radialGradient id="paint9_radial_1348_271" cx="0" cy="0" r="1" gradientUnits="userSpaceOnUse" gradientTransform="translate(21.4921 28.7943) rotate(-142.487) scale(3.90025 3.67954)">
<stop offset="0.337" stop-color="#E3745B"/>
<stop offset="1" stop-color="#E3745B" stop-opacity="0"/>
</radialGradient>
<radialGradient id="paint10_radial_1348_271" cx="0" cy="0" r="1" gradientUnits="userSpaceOnUse" gradientTransform="translate(21.6318 9.96715) rotate(117.739) scale(19.1699 23.673)">
<stop offset="0.172" stop-color="#FFD13D"/>
<stop offset="1" stop-color="#D89A29"/>
</radialGradient>
</defs>
</svg>
