<svg fill="none" height="32" viewBox="0 0 32 32" width="32" xmlns="http://www.w3.org/2000/svg" xmlns:xlink="http://www.w3.org/1999/xlink"><filter id="a" color-interpolation-filters="sRGB" filterUnits="userSpaceOnUse" height="15.3701" width="22.3566" x="7.40381" y="8.29297"><feFlood flood-opacity="0" result="BackgroundImageFix"/><feBlend in="SourceGraphic" in2="BackgroundImageFix" mode="normal" result="shape"/><feColorMatrix in="SourceAlpha" result="hardAlpha" type="matrix" values="0 0 0 0 0 0 0 0 0 0 0 0 0 0 0 0 0 0 127 0"/><feOffset dy="-1"/><feGaussianBlur stdDeviation="1"/><feComposite in2="hardAlpha" k2="-1" k3="1" operator="arithmetic"/><feColorMatrix type="matrix" values="0 0 0 0 0.815686 0 0 0 0 0.784314 0 0 0 0 0.956863 0 0 0 1 0"/><feBlend in2="shape" mode="normal" result="effect1_innerShadow_1724_331"/></filter><filter id="b" color-interpolation-filters="sRGB" filterUnits="userSpaceOnUse" height="25.8143" width="19.8649" x=".512085" y="2.53235"><feFlood flood-opacity="0" result="BackgroundImageFix"/><feColorMatrix in="SourceAlpha" result="hardAlpha" type="matrix" values="0 0 0 0 0 0 0 0 0 0 0 0 0 0 0 0 0 0 127 0"/><feOffset dx=".5" dy="-.5"/><feGaussianBlur stdDeviation=".5"/><feComposite in2="hardAlpha" operator="out"/><feColorMatrix type="matrix" values="0 0 0 0 0.721569 0 0 0 0 0.372549 0 0 0 0 0.356863 0 0 0 1 0"/><feBlend in2="BackgroundImageFix" mode="normal" result="effect1_dropShadow_1724_331"/><feBlend in="SourceGraphic" in2="effect1_dropShadow_1724_331" mode="normal" result="shape"/></filter><filter id="c" color-interpolation-filters="sRGB" filterUnits="userSpaceOnUse" height="3.57559" width="3.57559" x="8.47209" y="21.9949"><feFlood flood-opacity="0" result="BackgroundImageFix"/><feBlend in="SourceGraphic" in2="BackgroundImageFix" mode="normal" result="shape"/><feGaussianBlur result="effect1_foregroundBlur_1724_331" stdDeviation=".15"/></filter><filter id="d" color-interpolation-filters="sRGB" filterUnits="userSpaceOnUse" height="5.07554" width="4.97554" x="7.92212" y="21.0449"><feFlood flood-opacity="0" result="BackgroundImageFix"/><feColorMatrix in="SourceAlpha" result="hardAlpha" type="matrix" values="0 0 0 0 0 0 0 0 0 0 0 0 0 0 0 0 0 0 127 0"/><feOffset dx="-.25" dy=".25"/><feGaussianBlur stdDeviation=".375"/><feComposite in2="hardAlpha" operator="out"/><feColorMatrix type="matrix" values="0 0 0 0 0.780392 0 0 0 0 0.462745 0 0 0 0 0.254902 0 0 0 1 0"/><feBlend in2="BackgroundImageFix" mode="normal" result="effect1_dropShadow_1724_331"/><feColorMatrix in="SourceAlpha" result="hardAlpha" type="matrix" values="0 0 0 0 0 0 0 0 0 0 0 0 0 0 0 0 0 0 127 0"/><feOffset dx=".3" dy="-.4"/><feGaussianBlur stdDeviation=".5"/><feComposite in2="hardAlpha" operator="out"/><feColorMatrix type="matrix" values="0 0 0 0 1 0 0 0 0 0.839216 0 0 0 0 0.513726 0 0 0 1 0"/><feBlend in2="effect1_dropShadow_1724_331" mode="normal" result="effect2_dropShadow_1724_331"/><feBlend in="SourceGraphic" in2="effect2_dropShadow_1724_331" mode="normal" result="shape"/></filter><filter id="e" color-interpolation-filters="sRGB" filterUnits="userSpaceOnUse" height="3.27561" width="3.27561" x="5.43757" y="6.92946"><feFlood flood-opacity="0" result="BackgroundImageFix"/><feBlend in="SourceGraphic" in2="BackgroundImageFix" mode="normal" result="shape"/><feGaussianBlur result="effect1_foregroundBlur_1724_331" stdDeviation=".1"/></filter><filter id="f" color-interpolation-filters="sRGB" filterUnits="userSpaceOnUse" height="3.92554" width="3.92554" x="5.08755" y="6.62949"><feFlood flood-opacity="0" result="BackgroundImageFix"/><feColorMatrix in="SourceAlpha" result="hardAlpha" type="matrix" values="0 0 0 0 0 0 0 0 0 0 0 0 0 0 0 0 0 0 127 0"/><feOffset dx="-.25" dy=".25"/><feGaussianBlur stdDeviation=".2"/><feComposite in2="hardAlpha" operator="out"/><feColorMatrix type="matrix" values="0 0 0 0 0.847059 0 0 0 0 0.552941 0 0 0 0 0.235294 0 0 0 1 0"/><feBlend in2="BackgroundImageFix" mode="normal" result="effect1_dropShadow_1724_331"/><feColorMatrix in="SourceAlpha" result="hardAlpha" type="matrix" values="0 0 0 0 0 0 0 0 0 0 0 0 0 0 0 0 0 0 127 0"/><feOffset dx=".3" dy="-.3"/><feGaussianBlur stdDeviation=".15"/><feComposite in2="hardAlpha" operator="out"/><feColorMatrix type="matrix" values="0 0 0 0 1 0 0 0 0 0.921569 0 0 0 0 0.682353 0 0 0 1 0"/><feBlend in2="effect1_dropShadow_1724_331" mode="normal" result="effect2_dropShadow_1724_331"/><feBlend in="SourceGraphic" in2="effect2_dropShadow_1724_331" mode="normal" result="shape"/></filter><filter id="g" color-interpolation-filters="sRGB" filterUnits="userSpaceOnUse" height="2.28715" width="2.28721" x="3.04207" y="11.0515"><feFlood flood-opacity="0" result="BackgroundImageFix"/><feBlend in="SourceGraphic" in2="BackgroundImageFix" mode="normal" result="shape"/><feGaussianBlur result="effect1_foregroundBlur_1724_331" stdDeviation=".1"/></filter><filter id="h" color-interpolation-filters="sRGB" filterUnits="userSpaceOnUse" height="2.43719" width="2.43713" x="2.99216" y="10.9514"><feFlood flood-opacity="0" result="BackgroundImageFix"/><feColorMatrix in="SourceAlpha" result="hardAlpha" type="matrix" values="0 0 0 0 0 0 0 0 0 0 0 0 0 0 0 0 0 0 127 0"/><feOffset dx="-.15" dy=".15"/><feGaussianBlur stdDeviation=".1"/><feComposite in2="hardAlpha" operator="out"/><feColorMatrix type="matrix" values="0 0 0 0 0.847059 0 0 0 0 0.552941 0 0 0 0 0.235294 0 0 0 1 0"/><feBlend in2="BackgroundImageFix" mode="normal" result="effect1_dropShadow_1724_331"/><feColorMatrix in="SourceAlpha" result="hardAlpha" type="matrix" values="0 0 0 0 0 0 0 0 0 0 0 0 0 0 0 0 0 0 127 0"/><feOffset dx=".2" dy="-.2"/><feGaussianBlur stdDeviation=".1"/><feComposite in2="hardAlpha" operator="out"/><feColorMatrix type="matrix" values="0 0 0 0 1 0 0 0 0 0.921569 0 0 0 0 0.682353 0 0 0 1 0"/><feBlend in2="effect1_dropShadow_1724_331" mode="normal" result="effect2_dropShadow_1724_331"/><feBlend in="SourceGraphic" in2="effect2_dropShadow_1724_331" mode="normal" result="shape"/></filter><filter id="i" color-interpolation-filters="sRGB" filterUnits="userSpaceOnUse" height="6.0126" width="6.0126" x="2.872" y="14.3757"><feFlood flood-opacity="0" result="BackgroundImageFix"/><feBlend in="SourceGraphic" in2="BackgroundImageFix" mode="normal" result="shape"/><feGaussianBlur result="effect1_foregroundBlur_1724_331" stdDeviation=".15"/></filter><filter id="j" color-interpolation-filters="sRGB" filterUnits="userSpaceOnUse" height="7.51255" width="7.41255" x="2.32202" y="13.4257"><feFlood flood-opacity="0" result="BackgroundImageFix"/><feColorMatrix in="SourceAlpha" result="hardAlpha" type="matrix" values="0 0 0 0 0 0 0 0 0 0 0 0 0 0 0 0 0 0 127 0"/><feOffset dx="-.25" dy=".25"/><feGaussianBlur stdDeviation=".375"/><feComposite in2="hardAlpha" operator="out"/><feColorMatrix type="matrix" values="0 0 0 0 0.8 0 0 0 0 0.537255 0 0 0 0 0.270588 0 0 0 1 0"/><feBlend in2="BackgroundImageFix" mode="normal" result="effect1_dropShadow_1724_331"/><feColorMatrix in="SourceAlpha" result="hardAlpha" type="matrix" values="0 0 0 0 0 0 0 0 0 0 0 0 0 0 0 0 0 0 127 0"/><feOffset dx=".3" dy="-.4"/><feGaussianBlur stdDeviation=".5"/><feComposite in2="hardAlpha" operator="out"/><feColorMatrix type="matrix" values="0 0 0 0 1 0 0 0 0 0.882353 0 0 0 0 0.611765 0 0 0 1 0"/><feBlend in2="effect1_dropShadow_1724_331" mode="normal" result="effect2_dropShadow_1724_331"/><feBlend in="SourceGraphic" in2="effect2_dropShadow_1724_331" mode="normal" result="shape"/></filter><radialGradient id="k" cx="0" cy="0" gradientTransform="matrix(4.38820709 -.58060156 .58060156 4.38820709 20.4045 13.3677)" gradientUnits="userSpaceOnUse" r="1"><stop offset=".309" stop-color="#e8e8e9"/><stop offset="1" stop-color="#d2d2d2"/></radialGradient><radialGradient id="l" cx="0" cy="0" gradientTransform="matrix(1.87382899 -1.50433698 1.37832292 1.71686364 21.2216 14.2921)" gradientUnits="userSpaceOnUse" r="1"><stop offset="0" stop-color="#cdcdce"/><stop offset="1" stop-color="#cdcdce" stop-opacity="0"/></radialGradient><linearGradient id="m" gradientUnits="userSpaceOnUse" x1="16.2967" x2="16.2967" y1="22.8904" y2="16.8929"><stop offset="0" stop-color="#ded7fa"/><stop offset="1" stop-color="#ded7fa" stop-opacity="0"/></linearGradient><radialGradient id="n" cx="0" cy="0" gradientTransform="matrix(6.45940074 6.12974243 -6.5753763 6.92900086 10.2979 14.1243)" gradientUnits="userSpaceOnUse" r="1"><stop offset=".179" stop-color="#fcfbfe"/><stop offset="1" stop-color="#fcfbfe" stop-opacity="0"/></radialGradient><radialGradient id="o" cx="0" cy="0" gradientTransform="matrix(4.44449981 3.17678963 -3.3287933 4.65716114 24.4422 17.5385)" gradientUnits="userSpaceOnUse" r="1"><stop offset="0" stop-color="#fcfbfe"/><stop offset="1" stop-color="#fcfbfe" stop-opacity="0"/></radialGradient><radialGradient id="p" cx="0" cy="0" gradientTransform="matrix(18.53251682 4.39661461 -3.4624878 14.59500525 11.225 16.0522)" gradientUnits="userSpaceOnUse" r="1"><stop offset=".815" stop-color="#ceccd7" stop-opacity="0"/><stop offset="1" stop-color="#ceccd7"/></radialGradient><radialGradient id="q" cx="0" cy="0" gradientTransform="matrix(-3.53302222 -3.76097089 5.19024406 -4.87566857 26.8478 24.4762)" gradientUnits="userSpaceOnUse" r="1"><stop offset="0" stop-color="#d0c9ee"/><stop offset="1" stop-color="#d0c9ee" stop-opacity="0"/></radialGradient><linearGradient id="r" gradientUnits="userSpaceOnUse" x1="6.08749" x2="10.3955" y1="6.51894" y2="27.8166"><stop offset="0" stop-color="#ffd874"/><stop offset="1" stop-color="#ffbc4c"/></linearGradient><radialGradient id="s" cx="0" cy="0" gradientTransform="matrix(-7.3645631 -11.20124812 11.74086395 -7.7193481 13.5205 16.9367)" gradientUnits="userSpaceOnUse" r="1"><stop offset=".769" stop-color="#ffecae" stop-opacity="0"/><stop offset=".984" stop-color="#ffecae"/></radialGradient><radialGradient id="t" cx="0" cy="0" gradientTransform="matrix(-3.46822164 -11.42529766 11.97579337 -3.6353281 10.9639 30.1268)" gradientUnits="userSpaceOnUse" r="1"><stop offset="0" stop-color="#ff984f"/><stop offset="1" stop-color="#ff984f" stop-opacity="0"/></radialGradient><radialGradient id="u" cx="0" cy="0" gradientTransform="matrix(-2.10913362 -.75272977 1.90630948 -5.34144072 10.5764 9.79768)" gradientUnits="userSpaceOnUse" r="1"><stop offset=".23" stop-color="#ba935b"/><stop offset=".979" stop-color="#ba935b" stop-opacity="0"/></radialGradient><linearGradient id="v" gradientUnits="userSpaceOnUse" x1="9.64907" x2="10.4837" y1="22.5748" y2="24.0722"><stop offset="0" stop-color="#d0883b"/><stop offset="1" stop-color="#ffca6d"/></linearGradient><radialGradient id="w" cx="0" cy="0" gradientTransform="matrix(-1.15037835 -1.72140269 1.72140269 -1.15037835 10.601 24.2995)" gradientUnits="userSpaceOnUse" r="1"><stop offset="0" stop-color="#ffba6a"/><stop offset="1" stop-color="#eb9e58"/></radialGradient><linearGradient id="x"><stop offset="0" stop-color="#e7ac47"/><stop offset="1" stop-color="#ffe9a7"/></linearGradient><linearGradient id="y" gradientUnits="userSpaceOnUse" x1="6.73897" x2="7.2587" xlink:href="#x" y1="6.98606" y2="10.0042"/><radialGradient id="z" cx="0" cy="0" gradientTransform="matrix(-1.30335793 -1.48823717 1.48823717 -1.30335793 7.41702 9.08429)" gradientUnits="userSpaceOnUse" r="1"><stop offset="0" stop-color="#ffd778"/><stop offset="1" stop-color="#ffc767"/></radialGradient><linearGradient id="A" gradientUnits="userSpaceOnUse" x1="3.97321" x2="4.30133" xlink:href="#x" y1="11.1986" y2="13.1015"/><radialGradient id="B" cx="0" cy="0" gradientTransform="matrix(-.82186235 -.93844221 .93844221 -.82186235 4.40171 12.5211)" gradientUnits="userSpaceOnUse" r="1"><stop offset="0" stop-color="#ffde8f"/><stop offset="1" stop-color="#ffc25b"/></radialGradient><linearGradient id="C" gradientUnits="userSpaceOnUse" x1="4.711" x2="6.30513" y1="15.0742" y2="17.9351"><stop offset="0" stop-color="#e2a842"/><stop offset="1" stop-color="#ffd778"/></linearGradient><radialGradient id="D" cx="0" cy="0" gradientTransform="matrix(-2.1981766 -3.28930663 3.28930663 -2.1981766 6.52968 18.3693)" gradientUnits="userSpaceOnUse" r="1"><stop offset="0" stop-color="#ffc75f"/><stop offset="1" stop-color="#fabc5a"/></radialGradient><clipPath id="E"><path d="m0 0h32v32h-32z"/></clipPath><clipPath id="F"><path d="m0 0h27.2669v27.2669h-27.2669z" transform="matrix(-.836117 -.54855 -.54855 .836117 31.7556 11.9573)"/></clipPath><g clip-path="url(#E)"><path d="m21.5674 17.7911c-.8554 0-1.6758-.3399-2.2807-.9447-.6049-.6049-.9447-1.4253-.9447-2.2808 0-.8554.3398-1.6758.9447-2.2807s1.4253-.9447 2.2807-.9447c.8555 0 1.6759.3398 2.2807.9447.6049.6049.9447 1.4253.9447 2.2807 0 .8555-.3398 1.6759-.9447 2.2808-.6048.6048-1.4252.9447-2.2807.9447z" fill="url(#k)"/><path d="m21.5674 17.7911c-.8554 0-1.6758-.3399-2.2807-.9447-.6049-.6049-.9447-1.4253-.9447-2.2808 0-.8554.3398-1.6758.9447-2.2807s1.4253-.9447 2.2807-.9447c.8555 0 1.6759.3398 2.2807.9447.6049.6049.9447 1.4253.9447 2.2807 0 .8555-.3398 1.6759-.9447 2.2808-.6048.6048-1.4252.9447-2.2807.9447z" fill="url(#l)"/><g filter="url(#a)"><path d="m9.56708 11.3359c2.83912-2.76675 7.38302-2.71993 10.15192.1203.6922.7065 1.2303 1.549 1.5803 2.4741.0159.0399.0403.0758.0717.1052.0313.0294.0687.0515.1095.0648s.0841.0175.1267.0122.0835-.0199.1199-.0428c.2262-.144.4639-.2689.7108-.3735 1.0566-.4856 2.2461-.6005 3.376-.3261 1.13.2744 2.1343.9221 2.8505 1.8381.7162.9161 1.1023 2.0471 1.0959 3.2098-.0064 1.1628-.405 2.2894-1.1312 3.1976-.4843.6375-1.1097 1.1541-1.8272 1.5093-.7174.3553-1.5075.5394-2.308.5381h-10.152c-1.0693.0009-2.1233-.2542-3.0738-.7441-.9505-.4898-1.76983-1.2002-2.38952-2.0716-2.17512-2.8477-1.94313-6.9436.6885-9.5114z" fill="#d5d4da"/><path d="m9.56708 11.3359c2.83912-2.76675 7.38302-2.71993 10.15192.1203.6922.7065 1.2303 1.549 1.5803 2.4741.0159.0399.0403.0758.0717.1052.0313.0294.0687.0515.1095.0648s.0841.0175.1267.0122.0835-.0199.1199-.0428c.2262-.144.4639-.2689.7108-.3735 1.0566-.4856 2.2461-.6005 3.376-.3261 1.13.2744 2.1343.9221 2.8505 1.8381.7162.9161 1.1023 2.0471 1.0959 3.2098-.0064 1.1628-.405 2.2894-1.1312 3.1976-.4843.6375-1.1097 1.1541-1.8272 1.5093-.7174.3553-1.5075.5394-2.308.5381h-10.152c-1.0693.0009-2.1233-.2542-3.0738-.7441-.9505-.4898-1.76983-1.2002-2.38952-2.0716-2.17512-2.8477-1.94313-6.9436.6885-9.5114z" fill="url(#m)"/></g><path d="m9.56708 11.3359c2.83912-2.76675 7.38302-2.71993 10.15192.1203.6922.7065 1.2303 1.549 1.5803 2.4741.0159.0399.0403.0758.0717.1052.0313.0294.0687.0515.1095.0648s.0841.0175.1267.0122.0835-.0199.1199-.0428c.2262-.144.4639-.2689.7108-.3735 1.0566-.4856 2.2461-.6005 3.376-.3261 1.13.2744 2.1343.9221 2.8505 1.8381.7162.9161 1.1023 2.0471 1.0959 3.2098-.0064 1.1628-.405 2.2894-1.1312 3.1976-.4843.6375-1.1097 1.1541-1.8272 1.5093-.7174.3553-1.5075.5394-2.308.5381h-10.152c-1.0693.0009-2.1233-.2542-3.0738-.7441-.9505-.4898-1.76983-1.2002-2.38952-2.0716-2.17512-2.8477-1.94313-6.9436.6885-9.5114z" fill="url(#n)"/><path d="m9.56708 11.3359c2.83912-2.76675 7.38302-2.71993 10.15192.1203.6922.7065 1.2303 1.549 1.5803 2.4741.0159.0399.0403.0758.0717.1052.0313.0294.0687.0515.1095.0648s.0841.0175.1267.0122.0835-.0199.1199-.0428c.2262-.144.4639-.2689.7108-.3735 1.0566-.4856 2.2461-.6005 3.376-.3261 1.13.2744 2.1343.9221 2.8505 1.8381.7162.9161 1.1023 2.0471 1.0959 3.2098-.0064 1.1628-.405 2.2894-1.1312 3.1976-.4843.6375-1.1097 1.1541-1.8272 1.5093-.7174.3553-1.5075.5394-2.308.5381h-10.152c-1.0693.0009-2.1233-.2542-3.0738-.7441-.9505-.4898-1.76983-1.2002-2.38952-2.0716-2.17512-2.8477-1.94313-6.9436.6885-9.5114z" fill="url(#o)"/><path d="m9.56708 11.3359c2.83912-2.76675 7.38302-2.71993 10.15192.1203.6922.7065 1.2303 1.549 1.5803 2.4741.0159.0399.0403.0758.0717.1052.0313.0294.0687.0515.1095.0648s.0841.0175.1267.0122.0835-.0199.1199-.0428c.2262-.144.4639-.2689.7108-.3735 1.0566-.4856 2.2461-.6005 3.376-.3261 1.13.2744 2.1343.9221 2.8505 1.8381.7162.9161 1.1023 2.0471 1.0959 3.2098-.0064 1.1628-.405 2.2894-1.1312 3.1976-.4843.6375-1.1097 1.1541-1.8272 1.5093-.7174.3553-1.5075.5394-2.308.5381h-10.152c-1.0693.0009-2.1233-.2542-3.0738-.7441-.9505-.4898-1.76983-1.2002-2.38952-2.0716-2.17512-2.8477-1.94313-6.9436.6885-9.5114z" fill="url(#p)"/><path d="m9.56708 11.3359c2.83912-2.76675 7.38302-2.71993 10.15192.1203.6922.7065 1.2303 1.549 1.5803 2.4741.0159.0399.0403.0758.0717.1052.0313.0294.0687.0515.1095.0648s.0841.0175.1267.0122.0835-.0199.1199-.0428c.2262-.144.4639-.2689.7108-.3735 1.0566-.4856 2.2461-.6005 3.376-.3261 1.13.2744 2.1343.9221 2.8505 1.8381.7162.9161 1.1023 2.0471 1.0959 3.2098-.0064 1.1628-.405 2.2894-1.1312 3.1976-.4843.6375-1.1097 1.1541-1.8272 1.5093-.7174.3553-1.5075.5394-2.308.5381h-10.152c-1.0693.0009-2.1233-.2542-3.0738-.7441-.9505-.4898-1.76983-1.2002-2.38952-2.0716-2.17512-2.8477-1.94313-6.9436.6885-9.5114z" fill="url(#q)"/><g clip-path="url(#F)"><g filter="url(#b)"><path d="m12.3735 4.98085c-1.3097 1.21968-2.39015 2.77328-3.08048 4.66431-1.59364 4.38634-.42691 9.41164 2.95268 12.61734 1.8255 1.7378 3.9859 2.7476 6.1937 3.126.5159.0836.5943.7873.1353 1.0365-4.169 2.2381-9.51729 1.9088-13.49175-1.5241-4.0506-3.5034-5.231251-9.455-2.84892-14.2513 1.99375-3.9709 5.74864-6.27685 9.72127-6.61573.5031-.0368.7891.59919.4182.94698z" fill="url(#r)"/><path d="m12.3735 4.98085c-1.3097 1.21968-2.39015 2.77328-3.08048 4.66431-1.59364 4.38634-.42691 9.41164 2.95268 12.61734 1.8255 1.7378 3.9859 2.7476 6.1937 3.126.5159.0836.5943.7873.1353 1.0365-4.169 2.2381-9.51729 1.9088-13.49175-1.5241-4.0506-3.5034-5.231251-9.455-2.84892-14.2513 1.99375-3.9709 5.74864-6.27685 9.72127-6.61573.5031-.0368.7891.59919.4182.94698z" fill="url(#s)"/><path d="m12.3735 4.98085c-1.3097 1.21968-2.39015 2.77328-3.08048 4.66431-1.59364 4.38634-.42691 9.41164 2.95268 12.61734 1.8255 1.7378 3.9859 2.7476 6.1937 3.126.5159.0836.5943.7873.1353 1.0365-4.169 2.2381-9.51729 1.9088-13.49175-1.5241-4.0506-3.5034-5.231251-9.455-2.84892-14.2513 1.99375-3.9709 5.74864-6.27685 9.72127-6.61573.5031-.0368.7891.59919.4182.94698z" fill="url(#t)"/></g><path d="m12.3735 4.98085c-1.3097 1.21968-2.39015 2.77328-3.08048 4.66431-1.59364 4.38634-.42691 9.41164 2.95268 12.61734 1.8255 1.7378 3.9859 2.7476 6.1937 3.126.5159.0836.5943.7873.1353 1.0365-4.169 2.2381-9.51729 1.9088-13.49175-1.5241-4.0506-3.5034-5.231251-9.455-2.84892-14.2513 1.99375-3.9709 5.74864-6.27685 9.72127-6.61573.5031-.0368.7891.59919.4182.94698z" fill="url(#u)"/><g filter="url(#c)"><path d="m9.52608 24.9012c-.29666-.1946-.50385-.4991-.576-.8465-.07214-.3474-.00333-.7092.19129-1.0059.19463-.2966.49913-.5038.84652-.576.34741-.0721.70921-.0033 1.00591.1913.2966.1946.5038.4991.576.8465.0721.3474.0033.7092-.1913 1.0059-.1947.2967-.4992.5038-.8466.576-.3473.0721-.70917.0033-1.00582-.1913z" stroke="url(#v)" stroke-width=".3"/></g><g filter="url(#d)"><path d="m9.52608 24.9012c-.29666-.1946-.50385-.4991-.576-.8465-.07214-.3474-.00333-.7092.19129-1.0059.19463-.2966.49913-.5038.84652-.576.34741-.0721.70921-.0033 1.00591.1913.2966.1946.5038.4991.576.8465.0721.3474.0033.7092-.1913 1.0059-.1947.2967-.4992.5038-.8466.576-.3473.0721-.70917.0033-1.00582-.1913z" fill="url(#w)"/></g><g filter="url(#e)"><path d="m6.34151 9.6858c-.29666-.19462-.50385-.49913-.576-.84652-.07214-.34739-.00333-.70921.19129-1.00586.19463-.29666.49913-.50385.84652-.576.34739-.07214.70921-.00333 1.00587.19129.29666.19463.50385.49913.57599.84652.07215.34739.00334.70921-.19129 1.00587s-.49913.50385-.84652.57599c-.34739.07215-.70921.00334-1.00586-.19129z" stroke="url(#y)" stroke-width=".2"/></g><g filter="url(#f)"><path d="m6.34151 9.6858c-.29666-.19462-.50385-.49913-.576-.84652-.07214-.34739-.00333-.70921.19129-1.00586.19463-.29666.49913-.50385.84652-.576.34739-.07214.70921-.00333 1.00587.19129.29666.19463.50385.49913.57599.84652.07215.34739.00334.70921-.19129 1.00587s-.49913.50385-.84652.57599c-.34739.07215-.70921.00334-1.00586-.19129z" fill="url(#z)"/></g><g filter="url(#g)"><path d="m3.72295 12.9004c-.18706-.1228-.31771-.3148-.3632-.5338-.0455-.2191-.00211-.4472.12062-.6343s.31474-.3177.53379-.3632c.21906-.0455.44721-.0021.63428.1206.18706.1227.31771.3147.3632.5338s.00211.4472-.12062.6343c-.12273.187-.31474.3177-.53379.3632-.21906.0455-.44721.0021-.63428-.1206z" stroke="url(#A)" stroke-width=".2"/></g><g filter="url(#h)"><path d="m3.72295 12.9004c-.18706-.1228-.31771-.3148-.3632-.5338-.0455-.2191-.00211-.4472.12062-.6343s.31474-.3177.53379-.3632c.21906-.0455.44721-.0021.63428.1206.18706.1227.31771.3147.3632.5338s.00211.4472-.12062.6343c-.12273.187-.31474.3177-.53379.3632-.21906.0455-.44721.0021-.63428-.1206z" fill="url(#B)"/></g><g filter="url(#i)"><path d="m4.47601 19.5193c-.28068-.1841-.52234-.4218-.71119-.6993-.18885-.2776-.32118-.5896-.38944-.9183-.06826-.3286-.07111-.6675-.00839-.9973.06271-.3298.18977-.644.37392-.9247.18414-.2807.42177-.5223.69931-.7112.27754-.1888.58956-.3212.91824-.3894.32868-.0683.66759-.0711.99737-.0084.32979.0627.64399.1898.92467.3739.56686.3719.96277.9538 1.10062 1.6176.13786.6638.00638 1.3551-.36552 1.922s-.95375.9628-1.61755 1.1006c-.6638.1379-1.35518.0064-1.92204-.3655z" stroke="url(#C)" stroke-width=".3"/></g><g filter="url(#j)"><path d="m4.47601 19.5193c-.28068-.1841-.52234-.4218-.71119-.6993-.18885-.2776-.32118-.5896-.38944-.9183-.06826-.3286-.07111-.6675-.00839-.9973.06271-.3298.18977-.644.37392-.9247.18414-.2807.42177-.5223.69931-.7112.27754-.1888.58956-.3212.91824-.3894.32868-.0683.66759-.0711.99737-.0084.32979.0627.64399.1898.92467.3739.56686.3719.96277.9538 1.10062 1.6176.13786.6638.00638 1.3551-.36552 1.922s-.95375.9628-1.61755 1.1006c-.6638.1379-1.35518.0064-1.92204-.3655z" fill="url(#D)"/></g></g></g></svg>