<svg width="251" height="194" viewBox="0 0 251 194" fill="none" xmlns="http://www.w3.org/2000/svg">
<path d="M195.585 23.8267C195.896 22.5916 196.196 21.3449 196.518 20.1098C196.68 19.4634 196.876 18.8285 197.083 18.2052C197.184 17.809 197.417 17.4595 197.745 17.2156C198.072 16.9717 198.473 16.8483 198.881 16.8662C199.872 16.8662 200.852 17.0162 201.832 17.0855C202.355 17.1544 202.883 17.1775 203.41 17.1548C203.799 17.1311 204.169 16.9765 204.459 16.7161C205.485 15.5618 206.465 14.4075 207.421 13.1377C207.58 12.9121 207.68 12.651 207.714 12.3773C207.749 12.1035 207.715 11.8256 207.617 11.5679C207.271 10.4136 206.879 9.25924 206.545 8.10493C206.388 7.65964 206.302 7.19204 206.292 6.71976C206.293 6.37057 206.429 6.03546 206.672 5.78476C208.368 4.46081 210.252 3.39861 212.262 2.63348C212.556 2.5086 212.883 2.48505 213.191 2.56654C213.5 2.64802 213.773 2.82993 213.967 3.08367C214.797 4.04175 215.662 4.97674 216.468 5.9579C216.732 6.33011 217.097 6.61837 217.52 6.78826C217.943 6.95815 218.406 7.00249 218.854 6.91599C220.133 6.70821 221.424 6.58123 222.703 6.40809C222.948 6.3833 223.183 6.29602 223.385 6.15456C223.586 6.0131 223.749 5.82219 223.856 5.60007C224.259 4.8844 224.628 4.14564 225.008 3.41842C225.389 2.6912 225.677 2.17176 226.034 1.55997C226.189 1.25205 226.447 1.00773 226.762 0.868777C227.077 0.729821 227.431 0.704847 227.763 0.798121C229.595 1.25985 231.439 1.73312 233.26 2.2641C233.613 2.35987 233.921 2.5761 234.132 2.87541C234.342 3.17472 234.442 3.53829 234.413 3.90323C234.413 4.90748 234.263 5.90019 234.194 6.90444C234.194 7.36617 234.125 7.83944 234.125 8.31271C234.115 8.61583 234.176 8.91703 234.304 9.19182C234.433 9.4666 234.624 9.70722 234.862 9.89412C235.876 10.7021 236.902 11.4986 237.893 12.3413C238.178 12.601 238.529 12.7771 238.907 12.8504C239.285 12.9237 239.676 12.8913 240.037 12.7568C241.282 12.3643 242.526 11.9488 243.771 11.6025C244.177 11.4215 244.637 11.4071 245.053 11.5626C245.469 11.718 245.807 12.0308 245.995 12.4336C246.86 13.888 247.689 15.3656 248.496 16.8546C248.643 17.053 248.749 17.2791 248.806 17.5192C248.864 17.7594 248.872 18.0088 248.832 18.2523C248.791 18.4959 248.701 18.7287 248.568 18.9368C248.435 19.1449 248.262 19.324 248.058 19.4634C247.447 20.0405 246.779 20.5484 246.145 21.1025C245.699 21.5104 245.262 21.9259 244.831 22.3492C244.655 22.5278 244.52 22.7441 244.438 22.9819C244.357 23.2198 244.329 23.473 244.359 23.7228C244.497 25.0618 244.635 26.4008 244.808 27.7283C244.852 28.0899 244.988 28.4344 245.201 28.7292C245.415 29.024 245.7 29.2595 246.03 29.4136C246.802 29.7829 247.574 30.1408 248.335 30.5679C248.814 30.798 249.28 31.0562 249.729 31.3413C250.05 31.5165 250.301 31.7969 250.439 32.1353C250.578 32.4737 250.596 32.8496 250.49 33.1997C250.041 34.8619 249.568 36.5241 249.096 38.1748C249.01 38.4285 248.898 38.6723 248.761 38.902C248.637 39.1707 248.433 39.3945 248.178 39.5432C247.922 39.6919 247.627 39.7582 247.332 39.7331L243.806 39.4445H243.54C243.046 39.3545 242.536 39.4166 242.077 39.6226C241.618 39.8287 241.232 40.169 240.97 40.5989C240.383 41.43 239.703 42.1918 239.069 42.9883C238.77 43.3373 238.572 43.7618 238.496 44.2157C238.421 44.6695 238.472 45.1353 238.642 45.5624C239.023 46.7167 239.391 47.7671 239.726 48.8753C239.828 49.0845 239.885 49.3126 239.895 49.5452C239.904 49.7779 239.866 50.01 239.781 50.2269C239.697 50.4438 239.568 50.6408 239.404 50.8055C239.24 50.9702 239.043 51.0991 238.827 51.1839C237.328 52.0727 235.796 52.9269 234.217 53.7465C233.876 53.9705 233.463 54.057 233.061 53.9884C232.659 53.9199 232.298 53.7015 232.05 53.3771C231.37 52.6499 230.725 51.8765 230.079 51.0685C228.685 49.4294 228.362 49.3024 226.23 49.591L223.741 49.9488C223.342 49.9869 222.96 50.1283 222.633 50.359C222.306 50.5897 222.044 50.9019 221.873 51.2647C221.436 52.1536 221.021 53.0539 220.56 53.9312C220.313 54.3814 220.024 54.8066 219.695 55.2009C219.558 55.4061 219.358 55.5618 219.126 55.6449C218.893 55.728 218.641 55.7342 218.404 55.6627L213.184 54.2082C212.947 54.1241 212.719 54.0158 212.504 53.885C212.231 53.7651 212.003 53.5623 211.852 53.3054C211.701 53.0485 211.635 52.7505 211.662 52.4537C211.755 51.2994 211.847 50.145 211.927 48.9907C211.927 48.6444 211.927 48.2866 211.927 47.9288C211.936 47.6397 211.876 47.3526 211.752 47.0915C211.628 46.8305 211.443 46.603 211.213 46.4281C210.222 45.6663 209.242 44.8929 208.262 44.1195C207.983 43.8865 207.646 43.7335 207.287 43.6766C206.928 43.6197 206.56 43.661 206.223 43.7963C205.128 44.1772 204.021 44.512 202.915 44.8698H202.788C201.336 45.2623 200.84 45.1122 200.08 43.8079C199.319 42.5035 198.455 40.8759 197.706 39.3753C197.586 39.2066 197.502 39.0152 197.458 38.8129C197.415 38.6106 197.413 38.4015 197.453 38.1984C197.493 37.9953 197.574 37.8025 197.69 37.6318C197.807 37.461 197.957 37.3159 198.132 37.2052C198.962 36.4433 199.826 35.7046 200.725 35.012C201.17 34.7142 201.517 34.2911 201.722 33.796C201.927 33.3008 201.981 32.756 201.878 32.2301C201.693 31.0758 201.566 29.8291 201.394 28.6286C201.364 28.3848 201.275 28.152 201.134 27.9507C200.993 27.7495 200.805 27.5859 200.587 27.4743C199.527 26.9202 198.466 26.3777 197.417 25.8121C196.683 25.5303 196.073 24.9937 195.7 24.2999L195.585 23.8267ZM234.39 27.2896C234.264 25.7801 233.84 24.3106 233.144 22.9659C232.447 21.6213 231.492 20.4283 230.332 19.4558C229.173 18.4833 227.832 17.7507 226.388 17.3003C224.944 16.8498 223.425 16.6905 221.92 16.8315C218.942 17.1778 216.213 18.6636 214.303 20.9783C212.394 23.2931 211.452 26.2576 211.674 29.252C211.944 32.2548 213.385 35.0299 215.685 36.9749C217.985 38.9199 220.959 39.8778 223.96 39.6408C225.46 39.5265 226.922 39.1134 228.261 38.4258C229.6 37.7381 230.788 36.7897 231.756 35.6362C232.725 34.4827 233.453 33.1472 233.899 31.708C234.346 30.2688 234.501 28.7549 234.355 27.255L234.39 27.2896Z" fill="#EDEBFF"/>
<path d="M218.635 56.2628C218.468 56.2626 218.301 56.2393 218.14 56.1936L216.918 55.8589L212.907 54.7045C212.669 54.6191 212.438 54.5148 212.216 54.3929C211.821 54.2252 211.489 53.938 211.266 53.5716C211.042 53.2051 210.939 52.7778 210.971 52.3497L211.098 50.8145L211.236 48.8752C211.253 48.5407 211.253 48.2055 211.236 47.871C211.248 47.6679 211.21 47.4649 211.126 47.2798C211.041 47.0946 210.913 46.933 210.752 46.809C209.795 46.0818 208.862 45.3315 207.917 44.5927L207.79 44.4889C207.586 44.3159 207.338 44.2028 207.073 44.1621C206.809 44.1213 206.539 44.1545 206.292 44.258C205.531 44.5235 204.759 44.7659 203.987 45.0198L202.961 45.3431H202.811C201.083 45.8163 200.333 45.5162 199.457 44.0156C198.582 42.515 197.683 40.7951 197.06 39.5599C196.759 39.1056 196.648 38.5507 196.751 38.0151C196.855 37.4795 197.165 37.0061 197.614 36.6972C198.593 35.8084 199.434 35.1043 200.241 34.4694C200.599 34.2298 200.877 33.8885 201.039 33.4894C201.201 33.0903 201.24 32.6517 201.152 32.23C201.036 31.4913 200.933 30.7294 200.841 29.9214L200.668 28.5709C200.654 28.4113 200.601 28.2577 200.512 28.1244C200.423 27.9912 200.303 27.8827 200.161 27.809L198.893 27.1511C198.259 26.8163 197.614 26.4931 196.98 26.1468C196.128 25.8092 195.428 25.1735 195.009 24.3576C194.997 24.2966 194.997 24.2339 195.009 24.1729V23.7343C194.997 23.6733 194.997 23.6106 195.009 23.5496L195.239 22.5915L195.931 19.8212C196.104 19.1748 196.3 18.5283 196.507 17.8819C196.638 17.374 196.937 16.9257 197.356 16.611C197.775 16.2963 198.289 16.1339 198.812 16.1505C199.481 16.1505 200.137 16.2197 200.794 16.289L201.786 16.3698H202.2C202.557 16.4037 202.916 16.4037 203.272 16.3698C203.517 16.3529 203.752 16.2691 203.952 16.1274C205.036 14.8922 206.05 13.6341 206.88 12.5721C206.985 12.4203 207.049 12.2442 207.068 12.0604C207.086 11.8765 207.057 11.6911 206.983 11.5217C206.834 11.0138 206.672 10.5059 206.499 9.98642C206.326 9.46698 206.096 8.70513 205.912 8.05871C205.738 7.56115 205.644 7.03899 205.635 6.51194C205.632 6.25082 205.686 5.99218 205.791 5.75331C205.896 5.51444 206.051 5.30083 206.246 5.12676C207.985 3.74987 209.93 2.65532 212.008 1.88314C212.408 1.72587 212.848 1.70157 213.263 1.81379C213.678 1.92602 214.046 2.16885 214.313 2.50647L215.189 3.49918C215.742 4.12251 216.342 4.73429 216.826 5.38071C217.024 5.67584 217.304 5.90568 217.633 6.04125C217.961 6.17683 218.322 6.21208 218.67 6.14256C219.511 6.00404 220.341 5.90015 221.182 5.79626L222.542 5.62311C222.689 5.60306 222.829 5.54594 222.948 5.45711C223.066 5.36827 223.161 5.25063 223.222 5.11522L223.914 3.79929L224.559 2.64498C224.836 2.12554 225.112 1.59456 225.423 1.0982C225.637 0.692145 225.979 0.369253 226.397 0.180976C226.815 -0.00729996 227.283 -0.0501285 227.728 0.0593205C229.953 0.624934 231.647 1.07512 233.237 1.53684C233.705 1.6749 234.112 1.96859 234.391 2.36942C234.669 2.77025 234.803 3.25427 234.77 3.74158C234.77 4.42263 234.701 5.10367 234.632 5.76163C234.632 6.09638 234.574 6.43114 234.54 6.76589C234.505 7.10064 234.482 7.67779 234.482 8.13952C234.468 8.35972 234.508 8.58007 234.598 8.7813C234.688 8.98253 234.827 9.1585 235.001 9.29383L235.715 9.85944C236.499 10.4828 237.283 11.1061 238.02 11.7525C238.233 11.9472 238.495 12.0784 238.778 12.1315C239.061 12.1845 239.354 12.1572 239.622 12.0526L241.443 11.4755L243.356 10.8637C243.895 10.659 244.491 10.664 245.027 10.8776C245.562 11.0913 245.998 11.4982 246.249 12.018C247.125 13.4955 247.966 14.9846 248.761 16.4506C249.119 16.9638 249.262 17.5971 249.159 18.2145C249.055 18.8319 248.714 19.3839 248.208 19.7519C247.839 20.0982 247.459 20.4214 247.056 20.7446L246.272 21.4141C245.834 21.795 245.408 22.2106 244.993 22.5684C244.872 22.6851 244.78 22.8281 244.724 22.9864C244.668 23.1446 244.65 23.3137 244.67 23.4803L244.751 24.2191C244.866 25.3042 244.993 26.3892 245.131 27.4627C245.159 27.731 245.257 27.9872 245.415 28.2059C245.573 28.4246 245.785 28.5981 246.03 28.7094L247.021 29.1827L248.347 29.8175C248.796 30.0484 249.303 30.3139 249.787 30.6256C250.214 30.8632 250.547 31.2405 250.729 31.6944C250.912 32.1482 250.933 32.6511 250.79 33.1189C250.344 34.7811 249.883 36.4433 249.407 38.1055C249.316 38.3753 249.196 38.6346 249.05 38.8789C248.869 39.2529 248.58 39.5634 248.22 39.7695C247.86 39.9756 247.446 40.0675 247.033 40.0332L243.506 39.7446C243.406 39.7538 243.306 39.7538 243.206 39.7446C242.816 39.6748 242.414 39.7258 242.054 39.8908C241.694 40.0558 241.392 40.327 241.19 40.6681C240.763 41.2683 240.302 41.8224 239.841 42.3765L239.265 43.0806C239.028 43.3532 238.871 43.6865 238.812 44.0432C238.753 44.3999 238.794 44.766 238.931 45.1006C239.357 46.3358 239.714 47.4093 240.026 48.4481C240.151 48.7203 240.221 49.015 240.231 49.3147C240.241 49.6145 240.191 49.9132 240.083 50.1931C239.976 50.473 239.813 50.7284 239.606 50.9442C239.398 51.1601 239.148 51.3318 238.873 51.4494C237.478 52.2689 235.98 53.1116 234.263 54.0235C233.813 54.3124 233.273 54.4228 232.746 54.3331C232.219 54.2435 231.745 53.9601 231.416 53.5387C230.852 52.9384 230.321 52.3151 229.791 51.6802L229.422 51.2531C228.155 49.7525 228.016 49.7064 226.092 49.9718L223.591 50.3297C223.285 50.3562 222.992 50.463 222.741 50.6393C222.491 50.8157 222.291 51.0553 222.162 51.3339L221.747 52.1997C221.463 52.8076 221.163 53.4079 220.848 54.0004C220.59 54.49 220.281 54.9505 219.926 55.374C219.794 55.6118 219.608 55.8157 219.384 55.9699C219.161 56.1241 218.904 56.2243 218.635 56.2628ZM206.914 43.0344C207.498 43.0399 208.063 43.2433 208.516 43.6116L208.643 43.7155C209.576 44.4542 210.522 45.2045 211.467 45.9317C211.763 46.1587 212.003 46.4525 212.165 46.7895C212.327 47.1265 212.408 47.497 212.4 47.871C212.4 48.2404 212.4 48.6213 212.4 49.0253C212.4 49.6717 212.308 50.3297 212.25 50.9761L212.135 52.5113C212.119 52.6964 212.164 52.8816 212.261 53.0396C212.359 53.1976 212.504 53.3199 212.677 53.3886H212.78C212.927 53.476 213.081 53.5494 213.241 53.6079L217.241 54.7623L218.451 55.097C218.579 55.1347 218.716 55.1291 218.841 55.0812C218.966 55.0332 219.072 54.9455 219.142 54.8315C219.447 54.473 219.717 54.0865 219.949 53.6772C220.249 53.1 220.537 52.5229 220.825 51.9226L221.251 51.0338C221.464 50.5874 221.788 50.2033 222.191 49.9183C222.595 49.6332 223.065 49.4569 223.556 49.4062L226.046 49.0484C228.351 48.7252 228.892 48.933 230.414 50.7222L230.782 51.1608C231.301 51.7726 231.82 52.3844 232.373 52.9615C232.449 53.0781 232.548 53.1778 232.664 53.2548C232.78 53.3317 232.911 53.3842 233.048 53.409C233.185 53.4338 233.325 53.4305 233.461 53.3992C233.596 53.3679 233.724 53.3093 233.837 53.227C235.531 52.3267 237.029 51.484 238.447 50.676C239.253 50.2027 239.357 49.9257 239.08 48.9907C238.804 48.0557 238.424 46.9245 238.009 45.7009C237.804 45.1813 237.744 44.6158 237.835 44.0649C237.927 43.5139 238.166 42.9981 238.527 42.5727L239.115 41.857C239.565 41.326 240.014 40.7835 240.406 40.2179C240.73 39.7017 241.2 39.2935 241.756 39.0449C242.312 38.7962 242.929 38.7184 243.529 38.8212H243.771L247.229 39.0982C247.416 39.1226 247.606 39.0821 247.768 38.9834C247.929 38.8847 248.052 38.7338 248.116 38.5557C248.236 38.372 248.333 38.1743 248.404 37.967C248.877 36.3048 249.338 34.6541 249.787 32.9919C249.868 32.7612 249.861 32.5088 249.767 32.283C249.674 32.0572 249.5 31.8739 249.28 31.7683C248.849 31.4962 248.403 31.2495 247.943 31.0296L246.641 30.3947L245.65 29.9214C245.23 29.7301 244.866 29.4326 244.596 29.0583C244.325 28.6839 244.156 28.2454 244.105 27.7859C243.956 26.7009 243.84 25.6043 243.725 24.5077L243.644 23.7805C243.603 23.4436 243.639 23.1017 243.751 22.7814C243.863 22.461 244.048 22.1709 244.29 21.9336C244.716 21.4949 245.166 21.0678 245.627 20.6638L246.433 19.9712C246.802 19.6711 247.171 19.3594 247.517 19.0247C248.243 18.3436 248.312 17.9743 247.851 17.1201C247.056 15.6656 246.226 14.1881 245.362 12.7106C245.299 12.5685 245.209 12.4404 245.097 12.3339C244.984 12.2275 244.851 12.1448 244.706 12.091C244.561 12.0371 244.406 12.0131 244.252 12.0204C244.097 12.0277 243.945 12.0661 243.806 12.1334L241.904 12.7452L240.06 13.3339C239.606 13.4935 239.117 13.5284 238.645 13.435C238.173 13.3416 237.734 13.1234 237.375 12.8029C236.626 12.1681 235.853 11.5563 235.07 10.9445L234.355 10.3673C234.048 10.1279 233.801 9.81914 233.634 9.46614C233.468 9.11315 233.387 8.72586 233.399 8.33575C233.399 7.85094 233.399 7.36613 233.468 6.88132C233.537 6.39651 233.525 6.18873 233.56 5.85398C233.56 5.18448 233.675 4.56115 233.687 3.91473C233.712 3.68355 233.656 3.45084 233.531 3.25546C233.405 3.06008 233.216 2.91387 232.995 2.84122C231.416 2.3795 229.722 1.92931 227.521 1.37524C227.308 1.314 227.08 1.33163 226.879 1.4249C226.678 1.51817 226.517 1.68084 226.426 1.88314C226.138 2.36795 225.861 2.87585 225.596 3.38375L224.962 4.53806C224.732 4.98825 224.49 5.42688 224.248 5.87706C224.1 6.16944 223.883 6.42117 223.616 6.6103C223.349 6.79943 223.039 6.92022 222.715 6.96212L221.343 7.13527C220.525 7.23916 219.695 7.34304 218.877 7.47001C218.33 7.57523 217.765 7.52259 217.246 7.31822C216.728 7.11385 216.278 6.76617 215.95 6.3157C215.443 5.69237 214.901 5.08059 214.359 4.48034C214.06 4.14559 213.76 3.81085 213.472 3.46455C213.352 3.29895 213.179 3.17981 212.982 3.12724C212.784 3.07467 212.575 3.09188 212.389 3.17597C210.441 3.93737 208.619 4.98802 206.983 6.29262C206.887 6.4362 206.835 6.60467 206.834 6.77743C206.851 7.19054 206.929 7.59888 207.064 7.98946C207.248 8.62048 207.444 9.25536 207.652 9.89408L208.136 11.4409C208.257 11.7895 208.293 12.1623 208.241 12.5278C208.189 12.8934 208.05 13.2411 207.836 13.5417C206.983 14.6152 205.969 15.8503 204.863 17.1432C204.475 17.5151 203.969 17.7396 203.434 17.778C203 17.8185 202.564 17.8185 202.131 17.778H201.751L200.737 17.6857C200.103 17.6857 199.469 17.5703 198.835 17.5587C198.553 17.5498 198.275 17.6375 198.049 17.8074C197.823 17.9774 197.661 18.2194 197.59 18.4937C197.395 19.117 197.199 19.7404 197.037 20.3637C196.795 21.2872 196.576 22.1991 196.346 23.111L196.138 23.9882V24.2307C196.474 24.7541 196.966 25.158 197.544 25.385L199.457 26.3892L200.725 27.0472C201.038 27.2007 201.307 27.43 201.508 27.7143C201.709 27.9985 201.836 28.3287 201.878 28.6748L202.051 30.0484C202.154 30.7872 202.247 31.5259 202.362 32.2647C202.48 32.89 202.415 33.536 202.176 34.1256C201.937 34.7151 201.533 35.2232 201.013 35.5891C200.23 36.2009 199.411 36.8935 198.455 37.7707C197.867 38.3017 197.809 38.5672 198.155 39.2483C198.778 40.4026 199.607 42.0648 200.529 43.6462C201.129 44.6966 201.348 44.8005 202.581 44.4427L203.733 44.0733L206.038 43.3345C206.324 43.1858 206.631 43.0845 206.949 43.0344H206.914ZM222.922 40.241C219.931 40.2292 217.053 39.0976 214.852 37.0686C212.651 35.0395 211.287 32.2597 211.029 29.275C210.891 27.7033 211.068 26.12 211.549 24.6176C212.03 23.1153 212.805 21.724 213.829 20.5253C215.338 18.687 217.361 17.3428 219.639 16.6657C221.916 15.9886 224.344 16.0095 226.61 16.7258C228.876 17.4421 230.876 18.821 232.352 20.685C233.829 22.5491 234.715 24.813 234.897 27.1857C235.068 28.6991 234.935 30.2316 234.506 31.6928C234.076 33.1539 233.359 34.5141 232.396 35.693C231.372 36.9871 230.092 38.0552 228.636 38.8299C227.18 39.6046 225.58 40.0694 223.937 40.1948C223.611 40.2261 223.284 40.2415 222.957 40.241H222.922ZM222.842 17.3394H221.897C219.085 17.656 216.506 19.055 214.705 21.241C213.323 22.8729 212.455 24.8789 212.211 27.005C211.967 29.1312 212.359 31.282 213.336 33.1852C214.313 35.0884 215.832 36.6585 217.701 37.6966C219.569 38.7348 221.703 39.1945 223.833 39.0174C225.321 38.9018 226.77 38.4804 228.089 37.7793C229.407 37.0783 230.567 36.1127 231.497 34.9427C232.37 33.8871 233.024 32.6673 233.42 31.355C233.816 30.0427 233.946 28.6644 233.802 27.3011C233.586 24.561 232.336 22.0063 230.306 20.156C228.277 18.3056 225.62 17.2986 222.876 17.3394H222.842Z" fill="#EDEBFF"/>
<path d="M0.457808 41.294C0.642208 40.7515 0.826614 40.1397 1.02254 39.6433C1.12626 39.3663 1.22999 39.0777 1.35677 38.8007C1.41662 38.6253 1.5357 38.4762 1.69349 38.3793C1.85127 38.2824 2.03788 38.2436 2.22114 38.2697C2.67062 38.2697 3.10856 38.4082 3.54651 38.489C3.78231 38.5361 4.02106 38.5669 4.26106 38.5814C4.4388 38.5791 4.61164 38.5227 4.75664 38.4198C5.27526 37.9349 5.75931 37.427 6.24336 36.9076C6.32178 36.8103 6.37621 36.6958 6.40224 36.5735C6.42827 36.4511 6.42517 36.3244 6.39318 36.2035C6.27793 35.6725 6.15116 35.13 6.03591 34.599C6.00127 34.3849 6.00127 34.1666 6.03591 33.9526C6.0414 33.8747 6.06262 33.7987 6.09828 33.7293C6.13394 33.6598 6.18329 33.5983 6.24336 33.5485C7.06843 33.0331 7.96576 32.644 8.90564 32.3942C9.04523 32.3508 9.1952 32.3543 9.33258 32.4043C9.46997 32.4544 9.58719 32.5481 9.66629 32.6713C10.0005 33.133 10.3578 33.5832 10.6805 34.068C10.7917 34.2426 10.9477 34.384 11.1322 34.4774C11.3168 34.5709 11.523 34.6128 11.7293 34.599C12.317 34.599 12.8818 34.599 13.4926 34.5182C13.6007 34.5122 13.7057 34.4796 13.7982 34.4232C13.8907 34.3668 13.9678 34.2884 14.0227 34.195C14.2417 33.8833 14.4376 33.5601 14.6451 33.2484C14.8525 32.9368 14.9908 32.7059 15.1752 32.452C15.2551 32.3142 15.3813 32.2095 15.5313 32.1567C15.6813 32.1038 15.8451 32.1061 15.9935 32.1634L18.4253 33.0407C18.5791 33.102 18.7069 33.215 18.7868 33.3603C18.8667 33.5056 18.8937 33.6741 18.8632 33.8371C18.8632 34.2873 18.7249 34.7375 18.6443 35.1877C18.6443 35.3955 18.6443 35.6032 18.5636 35.8225C18.547 35.9606 18.5635 36.1007 18.6115 36.2311C18.6596 36.3616 18.738 36.4787 18.8402 36.5729C19.2666 36.9769 19.7046 37.3809 20.1195 37.7964C20.2378 37.923 20.388 38.0156 20.5542 38.0643C20.7204 38.113 20.8966 38.1162 21.0645 38.0735L22.8163 37.6695C23.0074 37.6065 23.2156 37.6207 23.3964 37.7091C23.5772 37.7975 23.7164 37.9531 23.7844 38.1427C24.1186 38.8353 24.4413 39.5394 24.7525 40.2436C24.8086 40.339 24.8453 40.4447 24.8606 40.5544C24.8759 40.6641 24.8695 40.7757 24.8417 40.883C24.8138 40.9902 24.7652 41.0908 24.6985 41.1792C24.6317 41.2676 24.5483 41.3419 24.4529 41.3979C24.1532 41.6287 23.8305 41.8365 23.5193 42.0674C23.2082 42.2983 23.0814 42.4021 22.8739 42.5868C22.7844 42.6578 22.7135 42.7495 22.6673 42.8541C22.6211 42.9587 22.6011 43.073 22.6089 43.1871C22.6089 43.7989 22.6089 44.4106 22.6089 45.0224C22.6155 45.1883 22.6645 45.3498 22.7513 45.4913C22.8381 45.6327 22.9597 45.7495 23.1044 45.8305C23.4271 46.0267 23.7729 46.2229 24.0956 46.4307C24.3059 46.5507 24.5098 46.6817 24.7064 46.8232C24.8444 46.9167 24.946 47.055 24.9943 47.2147C25.0426 47.3745 25.0345 47.5459 24.9715 47.7004C24.7064 48.4392 24.4298 49.178 24.1532 49.9052C24.1056 50.0167 24.0436 50.1215 23.9688 50.2168C23.9035 50.3352 23.8027 50.43 23.6807 50.488C23.5588 50.546 23.4217 50.5642 23.2888 50.54L21.6984 50.2746H21.5831C21.3715 50.2283 21.151 50.2428 20.9472 50.3163C20.7434 50.3898 20.5643 50.5194 20.4306 50.6901C20.131 51.048 19.7852 51.3712 19.4741 51.7059C19.3239 51.8528 19.2167 52.0379 19.1639 52.2413C19.111 52.4447 19.1147 52.6587 19.1744 52.8602C19.3012 53.3797 19.428 53.8876 19.5317 54.407C19.6354 54.9265 19.5317 55.1919 19.0361 55.4343C18.3216 55.7806 17.5955 56.1039 16.8579 56.4271C16.6954 56.511 16.5075 56.5315 16.3308 56.4846C16.154 56.4377 16.001 56.3267 15.9013 56.1731C15.6132 55.8153 15.3596 55.4343 15.0946 55.0188C14.5183 54.2223 14.38 54.1415 13.4004 54.1992H12.2479C12.065 54.2026 11.8862 54.2532 11.7287 54.3463C11.5712 54.4393 11.4403 54.5716 11.3489 54.7302C11.1184 55.1111 10.8879 55.5036 10.6459 55.8845C10.5163 56.078 10.3697 56.2596 10.208 56.4271C10.1366 56.5123 10.0409 56.5734 9.93371 56.6023C9.82652 56.6313 9.71305 56.6265 9.60866 56.5887L7.30366 55.7229C7.19994 55.7229 7.10773 55.6075 7.00401 55.5498C6.88585 55.4843 6.79116 55.3834 6.73328 55.2612C6.67539 55.1391 6.65721 55.0018 6.68131 54.8687C6.76198 54.3377 6.85419 53.8183 6.93486 53.2989C6.94617 53.1375 6.94617 52.9755 6.93486 52.8141C6.95419 52.6838 6.93998 52.5507 6.8936 52.4275C6.84721 52.3043 6.77017 52.195 6.66978 52.1099L5.42509 50.9556C5.3079 50.8389 5.16157 50.756 5.0014 50.7154C4.84122 50.6747 4.6731 50.678 4.51461 50.7247L2.90111 51.1057H2.84348C2.16351 51.2211 1.94453 51.1057 1.69098 50.517C1.43743 49.9283 1.06864 49.1202 0.780515 48.4161C0.732264 48.335 0.701089 48.2448 0.68892 48.1511C0.67675 48.0575 0.683834 47.9623 0.709741 47.8715C0.735648 47.7807 0.779831 47.6961 0.839568 47.623C0.899305 47.5499 0.973339 47.4899 1.05711 47.4465C1.47201 47.1348 1.88691 46.8232 2.32486 46.5461C2.53584 46.4282 2.70676 46.2498 2.81562 46.0338C2.92448 45.8178 2.96629 45.5741 2.93568 45.3341C2.93568 44.78 2.93569 44.1798 2.86654 43.6834C2.86308 43.5683 2.83194 43.4557 2.77576 43.3553C2.71958 43.2548 2.64002 43.1694 2.54384 43.1063C2.08284 42.8062 1.62184 42.5291 1.17236 42.229C0.85019 42.0716 0.593279 41.8061 0.446289 41.4787L0.457808 41.294ZM17.8836 44.3645C17.8836 43.6749 17.7475 42.9921 17.4829 42.3554C17.2184 41.7187 16.8307 41.1407 16.3423 40.6547C15.8538 40.1687 15.2742 39.7842 14.6368 39.5235C13.9993 39.2627 13.3167 39.1309 12.6282 39.1354C11.2653 39.18 9.97224 39.75 9.01881 40.7264C8.06538 41.7028 7.52524 43.0103 7.51111 44.376C7.46374 45.0873 7.56272 45.8007 7.80191 46.4721C8.0411 47.1435 8.41541 47.7585 8.90164 48.2791C9.38787 48.7996 9.97565 49.2146 10.6286 49.4983C11.2815 49.7821 11.9856 49.9285 12.6974 49.9285C13.4091 49.9285 14.1132 49.7821 14.7661 49.4983C15.4191 49.2146 16.0069 48.7996 16.4931 48.2791C16.9793 47.7585 17.3536 47.1435 17.5928 46.4721C17.832 45.8007 17.931 45.0873 17.8836 44.376V44.3645Z" fill="#EDEBFF"/>
<path d="M9.74689 57.2349C9.6083 57.2362 9.47095 57.2087 9.34351 57.1541L7.03851 56.2884C6.90847 56.2373 6.78472 56.1715 6.66971 56.0921C6.45094 55.965 6.27559 55.7746 6.16661 55.546C6.05762 55.3174 6.02008 55.0612 6.05889 54.8108L6.31244 53.241C6.3243 53.0989 6.3243 52.956 6.31244 52.8139C6.31244 52.6638 6.31244 52.6061 6.24329 52.5715L5.17146 51.5788L4.98706 51.3941C4.93906 51.344 4.87713 51.3095 4.80931 51.2951C4.74149 51.2807 4.67092 51.287 4.60674 51.3133L3.45424 51.5788L3.02781 51.6711C2.00209 51.8558 1.52956 51.6711 1.13771 50.7823C0.745865 49.8935 0.503837 49.3625 0.215712 48.6468C0.0707055 48.366 0.0376558 48.0405 0.123246 47.7361C0.208836 47.4318 0.406673 47.1714 0.676713 47.0077C1.10314 46.6845 1.52956 46.3728 1.97903 46.0842C2.1022 46.0193 2.20251 45.9181 2.2664 45.7942C2.3303 45.6704 2.3547 45.5298 2.33632 45.3916C2.33632 45.0454 2.33632 44.6875 2.33632 44.3412V43.7294C2.34392 43.7112 2.34783 43.6915 2.34783 43.6717C2.34783 43.6519 2.34392 43.6323 2.33632 43.614L0.953311 42.7367C0.52015 42.5092 0.184292 42.1318 0.00826135 41.6748C-0.00264 41.6176 -0.00264 41.5588 0.00826135 41.5016V41.2938C-0.00275378 41.2328 -0.00275378 41.1702 0.00826135 41.1091L0.146564 40.6936C0.284864 40.278 0.423168 39.8625 0.572993 39.4585C0.722818 39.0545 0.791962 38.8698 0.918737 38.5812C1.02593 38.2888 1.22919 38.0415 1.49515 37.88C1.7611 37.7185 2.07397 37.6524 2.38242 37.6924C2.68207 37.6924 2.98171 37.7847 3.29288 37.8424L3.91524 37.9463H4.34166C4.39104 37.9569 4.4421 37.9569 4.49149 37.9463C4.95249 37.4961 5.43654 36.9998 5.90906 36.4919C5.90906 36.4919 5.90906 36.3765 5.90906 36.2957L5.74771 35.6031C5.67856 35.2914 5.62094 34.9913 5.55179 34.6912C5.49357 34.426 5.47032 34.1544 5.48264 33.8831C5.49727 33.7159 5.54817 33.5538 5.63177 33.4083C5.71537 33.2628 5.82967 33.1372 5.96669 33.0405C6.79941 32.4913 7.70802 32.0674 8.66354 31.7823C8.91393 31.7071 9.18171 31.7135 9.42823 31.8006C9.67474 31.8878 9.88723 32.0511 10.035 32.2671L10.3923 32.7404C10.6228 33.052 10.8533 33.3637 11.0607 33.6869C11.111 33.7812 11.1885 33.858 11.2831 33.9074C11.3777 33.9569 11.4849 33.9766 11.5909 33.9639C11.9827 33.9639 12.3746 33.9639 12.7434 33.9639H13.3657C13.5224 33.7639 13.6686 33.5559 13.8037 33.3406L14.161 32.7865C14.3108 32.5672 14.4491 32.3479 14.6104 32.1286C14.7631 31.8932 14.9913 31.717 15.2573 31.6289C15.5234 31.5407 15.8114 31.546 16.0741 31.6438C16.8924 31.9324 17.7222 32.2209 18.5289 32.5326C18.7985 32.6367 19.025 32.8291 19.1715 33.0785C19.318 33.3279 19.3758 33.6197 19.3357 33.9062C19.3357 34.2294 19.2435 34.5411 19.1859 34.8528L19.1167 35.303C19.0785 35.4975 19.0516 35.694 19.036 35.8917C19.0241 35.9418 19.0264 35.9944 19.0427 36.0433C19.059 36.0923 19.0886 36.1357 19.1282 36.1687L19.4509 36.4803C19.7736 36.7805 20.1079 37.0921 20.419 37.4153C20.4712 37.474 20.5393 37.5162 20.6151 37.5367C20.6908 37.5572 20.7709 37.5552 20.8455 37.5308L21.6868 37.3345L22.5857 37.1268C22.9056 37.0386 23.2465 37.0696 23.5452 37.2139C23.844 37.3583 24.0805 37.6062 24.2108 37.9117C24.545 38.6158 24.8677 39.32 25.1673 40.0356C25.3407 40.3442 25.3896 40.7075 25.3038 41.051C25.2181 41.3945 25.0043 41.692 24.7063 41.8825C24.5219 42.0326 24.326 42.1596 24.1301 42.2981L23.7613 42.5636L23.1505 43.0484C23.1234 43.0646 23.1022 43.089 23.0898 43.118C23.0774 43.147 23.0744 43.1792 23.0813 43.21V43.6025C23.0813 44.0757 23.0813 44.549 23.0813 45.0223C23.0813 45.0934 23.1006 45.1632 23.1371 45.2242C23.1737 45.2852 23.2261 45.3351 23.2888 45.3686L23.7267 45.6225L24.303 45.9688C24.5219 46.1073 24.7409 46.2458 24.9484 46.4075C25.1865 46.5741 25.3615 46.8163 25.4451 47.0949C25.5288 47.3735 25.5162 47.6722 25.4094 47.9427C25.1443 48.6699 24.8677 49.4087 24.5796 50.1474C24.5237 50.2871 24.4501 50.419 24.3606 50.5399C24.237 50.7615 24.047 50.9387 23.8175 51.0464C23.5879 51.1541 23.3304 51.1869 23.0813 51.1401L21.5024 50.8862H21.341C21.2234 50.8542 21.0986 50.8605 20.9847 50.904C20.8708 50.9476 20.7736 51.0262 20.7072 51.1286C20.4882 51.3825 20.2462 51.625 20.0041 51.8674L19.7275 52.1559C19.6464 52.2327 19.5883 52.3307 19.5598 52.4388C19.5313 52.5469 19.5335 52.6608 19.5662 52.7677C19.7045 53.2872 19.8313 53.8181 19.935 54.3376C20.0491 54.6667 20.0283 55.0277 19.8771 55.3415C19.7258 55.6553 19.4565 55.8962 19.1282 56.0113C18.4022 56.3576 17.6646 56.6808 16.927 56.9925C16.6481 57.1324 16.3284 57.1673 16.0259 57.0911C15.7235 57.0148 15.4584 56.8324 15.2789 56.5769C15.0484 56.2653 14.8179 55.9536 14.5989 55.6304L14.4606 55.4457C14.0227 54.8224 14.0227 54.8224 13.3081 54.8686H12.1556C12.0675 54.8643 11.9801 54.8861 11.9042 54.9313C11.8284 54.9764 11.7675 55.0429 11.7292 55.1225L11.4872 55.5034C11.3373 55.7689 11.176 56.0344 11.0146 56.2884C10.8672 56.5164 10.6973 56.7291 10.5075 56.9232C10.3008 57.1172 10.0301 57.2282 9.74689 57.2349ZM4.76809 50.1359C5.15136 50.1334 5.52006 50.2828 5.79382 50.5514L5.98974 50.7361L7.03851 51.7173C7.19996 51.8598 7.32502 52.039 7.40321 52.2398C7.48141 52.4406 7.51048 52.6572 7.48799 52.8716C7.48799 53.0448 7.48799 53.2294 7.48799 53.4026L7.23444 54.984C7.23444 54.984 7.23444 54.984 7.30359 55.0879L7.48799 55.2033L9.79299 56.0691C9.91977 55.9075 10.0465 55.7574 10.1503 55.5958C10.254 55.4342 10.4614 55.0994 10.5997 54.8455L10.8418 54.453C10.9818 54.2142 11.18 54.0149 11.4178 53.8736C11.6557 53.7323 11.9253 53.6536 12.2017 53.645H13.3542C13.7854 53.5446 14.238 53.5952 14.6364 53.7885C15.0349 53.9817 15.3552 54.3059 15.544 54.707L15.6823 54.9032C15.9012 55.2033 16.1087 55.5034 16.3392 55.7805C16.5697 56.0575 16.4775 55.9305 16.6273 55.8613C17.3534 55.5612 18.0679 55.2379 18.7825 54.8917C18.8571 54.8589 18.9268 54.8162 18.9899 54.7647C19.0043 54.6768 19.0043 54.5871 18.9899 54.4992C18.8862 53.9913 18.771 53.4834 18.6442 52.987C18.5574 52.6909 18.5522 52.3769 18.6294 52.0781C18.7065 51.7793 18.8629 51.5071 19.0821 51.2902L19.3703 50.9901C19.5933 50.7743 19.8049 50.547 20.0041 50.309C20.2087 50.0422 20.4873 49.8419 20.8051 49.733C21.1229 49.6242 21.4657 49.6117 21.7905 49.6972L23.4616 49.9743C23.4616 49.9743 23.4616 49.9743 23.5769 49.8935C23.6225 49.8326 23.6612 49.7668 23.6921 49.6972C23.9687 48.97 24.2453 48.2428 24.5104 47.504C24.5104 47.4348 24.5104 47.3886 24.4297 47.2847C24.2545 47.1484 24.0696 47.025 23.8765 46.9153L23.3233 46.5921L22.8854 46.3266C22.6589 46.196 22.4693 46.0099 22.3343 45.7858C22.1992 45.5617 22.1232 45.3069 22.1132 45.0454C22.1132 44.5605 22.1132 44.0757 22.1132 43.6025V43.1985C22.1055 42.9987 22.1442 42.7999 22.2262 42.6176C22.3082 42.4353 22.4313 42.2746 22.5857 42.148C22.7982 41.9547 23.0213 41.7736 23.2542 41.6055L23.6576 41.3169L24.1762 40.9475C24.4182 40.7398 24.4182 40.7167 24.303 40.4627C23.9918 39.7586 23.6806 39.066 23.3464 38.3734C23.2657 38.2118 23.2311 38.1772 23.0122 38.2234L22.1247 38.4311L21.2719 38.6158C21.0085 38.683 20.732 38.6789 20.4708 38.6039C20.2095 38.5288 19.9729 38.3855 19.7852 38.1887C19.474 37.8771 19.1628 37.5769 18.8401 37.2884L18.5174 36.9767C18.3623 36.8293 18.2415 36.6494 18.1638 36.4499C18.0861 36.2503 18.0534 36.0361 18.0679 35.8224C18.0679 35.5915 18.0679 35.3607 18.1601 35.1413L18.2408 34.6681C18.2991 34.3898 18.3414 34.1085 18.3676 33.8254C18.3676 33.6638 18.3676 33.6407 18.2984 33.6292C17.5032 33.3175 16.6965 33.0405 15.8897 32.7519C15.8321 32.7519 15.7975 32.7519 15.7284 32.8327C15.6592 32.9135 15.4518 33.2367 15.3135 33.4445L14.9562 33.987L14.5874 34.5642C14.4795 34.7295 14.335 34.8676 14.1651 34.9677C13.9951 35.0678 13.8044 35.1273 13.6078 35.1413H12.9739C12.5936 35.1413 12.2248 35.1413 11.8214 35.1413C11.5129 35.1714 11.2021 35.1137 10.9249 34.9748C10.6476 34.836 10.4151 34.6216 10.254 34.3564C10.0465 34.0563 9.82756 33.7562 9.59706 33.4561L9.23979 32.9712C9.23979 32.902 9.17064 32.8904 9.08997 32.9712C8.20734 33.2295 7.36825 33.6186 6.60056 34.1255C6.64695 34.2726 6.68164 34.4232 6.70429 34.5757C6.76192 34.8643 6.83106 35.1644 6.90021 35.4646L7.06156 36.1802C7.10407 36.3827 7.09913 36.5924 7.04714 36.7927C6.99515 36.9929 6.89752 37.1784 6.76191 37.3345C6.27786 37.8655 5.78229 38.3734 5.26367 38.8698C5.01251 39.0743 4.6999 39.1882 4.37624 39.193C4.15568 39.1811 3.9362 39.1541 3.71931 39.1122L3.09696 39.0083C2.82036 39.0083 2.54376 38.9044 2.26716 38.8813C1.99056 38.8582 2.07124 38.8813 1.99056 39.066C1.90989 39.2507 1.76006 39.597 1.66786 39.874L1.25296 41.0976L1.13771 41.4208C1.25754 41.5766 1.41127 41.7029 1.58719 41.7902L2.90104 42.679C3.07352 42.7901 3.21622 42.9419 3.31667 43.1209C3.41712 43.3 3.47226 43.501 3.47729 43.7064V44.3297C3.47729 44.6644 3.47729 45.0107 3.47729 45.3455C3.51542 45.6897 3.45295 46.0377 3.29747 46.3471C3.14198 46.6565 2.90017 46.9141 2.60139 47.0885C2.17496 47.3655 1.77159 47.6541 1.36821 47.9658C1.3174 48.0026 1.271 48.0453 1.22992 48.0927V48.2544C1.51804 48.9469 1.80617 49.6395 2.12887 50.3206C2.24412 50.5745 2.30174 50.6207 2.31326 50.6207C2.43898 50.6439 2.56787 50.6439 2.69359 50.6207L3.15459 50.5168L4.30709 50.2629C4.45409 50.1992 4.60926 50.1565 4.76809 50.1359ZM12.7203 50.1359C11.5835 50.1311 10.4734 49.7896 9.52985 49.1544C8.58631 48.5191 7.85146 47.6186 7.41778 46.566C6.9841 45.5134 6.87098 44.3558 7.09266 43.239C7.31433 42.1222 7.86088 41.096 8.66354 40.2896C9.72102 39.2204 11.1491 38.6003 12.6512 38.5581C13.4137 38.5489 14.1705 38.6915 14.8776 38.9774C15.5848 39.2634 16.2282 39.687 16.7707 40.2239C17.3131 40.7607 17.7438 41.4001 18.0377 42.1049C18.3316 42.8097 18.4829 43.5659 18.4828 44.3297C18.5005 45.0637 18.372 45.7939 18.1049 46.4776C17.8377 47.1614 17.4373 47.785 16.927 48.3121C16.3887 48.8902 15.7375 49.3515 15.0139 49.6672C14.2903 49.9829 13.5096 50.1464 12.7203 50.1474V50.1359ZM12.6512 39.7471C11.4553 39.7896 10.3211 40.2894 9.48181 41.1438C9.05176 41.5719 8.71028 42.0809 8.47692 42.6414C8.24355 43.202 8.1229 43.8032 8.12186 44.4105C8.12186 45.6351 8.60756 46.8095 9.4721 47.6754C10.3366 48.5413 11.5092 49.0277 12.7319 49.0277C13.3653 49.0333 13.9931 48.9081 14.5761 48.6598C15.1591 48.4115 15.6847 48.0456 16.1202 47.5848C16.9323 46.7389 17.3794 45.607 17.3649 44.4336C17.365 43.8213 17.2435 43.2152 17.0075 42.6505C16.7715 42.0857 16.4257 41.5736 15.9903 41.1439C15.5549 40.7143 15.0385 40.3756 14.4712 40.1477C13.9039 39.9198 13.2969 39.8071 12.6858 39.8163L12.6512 39.7471Z" fill="#EDEBFF"/>
<path d="M192.549 166.561C192.802 165.557 193.044 164.541 193.309 163.537C193.436 163.006 193.598 162.498 193.759 161.979C193.843 161.656 194.036 161.372 194.304 161.174C194.573 160.976 194.901 160.877 195.234 160.894C196.041 160.894 196.836 161.009 197.643 161.067C198.072 161.107 198.504 161.107 198.934 161.067C199.25 161.045 199.55 160.92 199.787 160.709C200.628 159.762 201.412 158.781 202.195 157.788C202.328 157.606 202.412 157.393 202.44 157.169C202.469 156.945 202.44 156.717 202.357 156.507C202.068 155.561 201.757 154.626 201.481 153.691C201.357 153.318 201.291 152.929 201.285 152.536C201.282 152.396 201.307 152.256 201.358 152.125C201.41 151.995 201.487 151.875 201.584 151.775C202.982 150.688 204.537 149.82 206.194 149.2C206.434 149.094 206.703 149.072 206.957 149.14C207.21 149.207 207.433 149.358 207.589 149.57C208.269 150.355 208.972 151.105 209.629 151.878C209.843 152.183 210.142 152.419 210.488 152.556C210.834 152.693 211.212 152.727 211.577 152.652C212.614 152.49 213.674 152.386 214.711 152.236C214.905 152.215 215.091 152.144 215.25 152.031C215.409 151.918 215.537 151.766 215.622 151.59C215.945 151.001 216.244 150.436 216.567 149.801C216.89 149.166 217.109 148.785 217.408 148.289C217.525 148.029 217.733 147.823 217.992 147.708C218.252 147.593 218.544 147.578 218.814 147.665C220.313 148.046 221.811 148.439 223.286 148.819C223.57 148.902 223.816 149.08 223.982 149.325C224.148 149.569 224.224 149.864 224.197 150.159C224.197 150.967 224.07 151.786 224.012 152.594C224.012 152.975 224.012 153.367 224.012 153.748C224.003 153.996 224.053 154.242 224.157 154.467C224.261 154.692 224.417 154.888 224.611 155.041C225.441 155.699 226.283 156.346 227.078 157.038C227.312 157.248 227.599 157.39 227.907 157.449C228.216 157.508 228.535 157.482 228.83 157.373C229.844 157.061 230.858 156.715 231.884 156.403C232.214 156.258 232.589 156.247 232.927 156.375C233.265 156.502 233.54 156.757 233.693 157.084C234.4 158.269 235.08 159.47 235.733 160.686C235.853 160.847 235.94 161.031 235.987 161.227C236.034 161.423 236.041 161.626 236.008 161.824C235.975 162.023 235.901 162.213 235.793 162.382C235.684 162.551 235.542 162.697 235.376 162.81C234.869 163.283 234.327 163.699 233.82 164.16C233.313 164.622 233.094 164.818 232.748 165.176C232.595 165.323 232.48 165.505 232.412 165.706C232.344 165.906 232.325 166.121 232.356 166.33C232.471 167.415 232.587 168.512 232.725 169.597C232.76 169.892 232.87 170.172 233.046 170.411C233.222 170.65 233.457 170.839 233.728 170.959L235.606 171.871C236.003 172.059 236.388 172.271 236.759 172.506C237.022 172.646 237.229 172.874 237.342 173.15C237.456 173.426 237.47 173.733 237.381 174.018C237.012 175.38 236.632 176.731 236.229 178.081C236.158 178.287 236.065 178.484 235.952 178.67C235.855 178.89 235.691 179.073 235.485 179.195C235.278 179.317 235.038 179.372 234.799 179.351L231.93 179.12H231.711C231.307 179.05 230.891 179.103 230.517 179.271C230.143 179.44 229.828 179.717 229.613 180.067C229.141 180.748 228.588 181.371 228.069 182.018C227.822 182.301 227.658 182.647 227.595 183.018C227.532 183.388 227.572 183.769 227.712 184.118C228.023 185.007 228.334 185.908 228.599 186.819C228.688 186.991 228.74 187.18 228.751 187.373C228.763 187.566 228.733 187.759 228.664 187.94C228.596 188.121 228.49 188.286 228.353 188.423C228.217 188.56 228.053 188.666 227.873 188.736C226.64 189.463 225.395 190.155 224.127 190.825C223.851 191.008 223.515 191.078 223.189 191.02C222.863 190.962 222.572 190.78 222.376 190.513C221.811 189.925 221.292 189.29 220.762 188.666C219.61 187.327 219.356 187.223 217.616 187.512L215.587 187.801C215.262 187.831 214.951 187.946 214.684 188.134C214.417 188.322 214.204 188.578 214.066 188.874C213.709 189.601 213.375 190.329 212.994 191.044C212.795 191.413 212.559 191.761 212.291 192.083C212.178 192.248 212.015 192.372 211.827 192.439C211.638 192.505 211.434 192.51 211.242 192.453L206.978 191.298C206.785 191.235 206.599 191.15 206.425 191.044C206.206 190.947 206.022 190.783 205.901 190.576C205.779 190.369 205.724 190.129 205.745 189.89L205.952 187.05C205.97 186.762 205.97 186.473 205.952 186.185C205.96 185.95 205.911 185.716 205.811 185.504C205.711 185.291 205.562 185.105 205.376 184.961C204.558 184.338 203.763 183.703 202.956 183.068C202.73 182.88 202.458 182.756 202.168 182.709C201.878 182.662 201.581 182.695 201.308 182.802C200.409 183.114 199.498 183.391 198.599 183.68C198.565 183.685 198.53 183.685 198.496 183.68C197.343 184.003 196.905 183.888 196.294 182.826C195.684 181.764 194.969 180.425 194.347 179.201C194.25 179.063 194.182 178.908 194.147 178.743C194.113 178.579 194.111 178.409 194.144 178.244C194.176 178.079 194.241 177.922 194.335 177.783C194.43 177.644 194.551 177.526 194.692 177.435C195.384 176.812 196.087 176.211 196.813 175.646C197.176 175.395 197.457 175.041 197.619 174.63C197.781 174.219 197.818 173.769 197.724 173.337C197.574 172.367 197.47 171.386 197.332 170.405C197.313 170.2 197.243 170.002 197.128 169.831C197.013 169.659 196.857 169.52 196.675 169.424L194.082 168.073C193.486 167.845 192.991 167.411 192.687 166.85L192.549 166.561ZM224.197 169.355C224.094 168.123 223.748 166.925 223.18 165.828C222.611 164.732 221.831 163.759 220.884 162.967C219.938 162.174 218.844 161.578 217.665 161.212C216.487 160.847 215.248 160.719 214.02 160.836C211.591 161.121 209.367 162.334 207.81 164.222C206.253 166.111 205.484 168.528 205.664 170.971C205.887 173.421 207.064 175.685 208.941 177.272C210.817 178.86 213.242 179.644 215.691 179.455C216.917 179.365 218.113 179.031 219.208 178.472C220.303 177.913 221.275 177.14 222.067 176.199C222.86 175.258 223.456 174.167 223.822 172.992C224.188 171.817 224.315 170.58 224.197 169.355V169.355Z" fill="#EDEBFF"/>
<path d="M211.393 193.134C211.249 193.131 211.106 193.111 210.966 193.076L209.814 192.753L206.714 191.887C206.503 191.82 206.302 191.727 206.114 191.61C205.778 191.464 205.497 191.216 205.308 190.902C205.12 190.587 205.035 190.221 205.066 189.855L205.158 188.62C205.158 188.089 205.238 187.547 205.273 187.016C205.29 186.747 205.29 186.477 205.273 186.208C205.283 186.058 205.255 185.907 205.193 185.77C205.131 185.633 205.035 185.514 204.916 185.423C204.147 184.853 203.41 184.276 202.703 183.691L202.496 183.53C202.34 183.393 202.148 183.305 201.943 183.276C201.739 183.248 201.53 183.28 201.343 183.368L199.418 183.992L198.623 184.246H198.508C198.246 184.373 197.96 184.445 197.669 184.455C197.378 184.465 197.088 184.414 196.817 184.306C196.547 184.197 196.302 184.033 196.099 183.824C195.896 183.614 195.739 183.365 195.638 183.091C194.878 181.775 194.198 180.459 193.679 179.444C193.428 179.05 193.338 178.575 193.428 178.117C193.518 177.659 193.782 177.253 194.163 176.985C194.97 176.258 195.65 175.669 196.307 175.161C196.583 174.978 196.797 174.716 196.923 174.41C197.048 174.103 197.078 173.765 197.01 173.441C196.917 172.829 196.837 172.229 196.756 171.617L196.618 170.463C196.609 170.348 196.57 170.238 196.506 170.142C196.441 170.047 196.353 169.971 196.249 169.92L195.212 169.366L193.667 168.57C192.948 168.28 192.359 167.738 192.008 167.046C191.997 166.989 191.997 166.93 192.008 166.873V166.515C192.002 166.45 192.002 166.384 192.008 166.319L192.238 165.396C192.411 164.691 192.584 163.987 192.768 163.283C192.953 162.579 193.068 162.221 193.241 161.702C193.366 161.263 193.633 160.879 194.001 160.609C194.368 160.34 194.814 160.2 195.269 160.213C195.811 160.213 196.353 160.213 196.883 160.317L197.701 160.386H198.035C198.323 160.414 198.612 160.414 198.9 160.386C199.072 160.373 199.238 160.318 199.384 160.224C200.26 159.22 201.078 158.193 201.769 157.327C201.841 157.215 201.884 157.086 201.894 156.953C201.904 156.82 201.881 156.687 201.827 156.565C201.712 156.161 201.574 155.745 201.447 155.341C201.32 154.937 201.113 154.279 200.951 153.749C200.814 153.327 200.74 152.887 200.732 152.444C200.73 152.216 200.776 151.99 200.868 151.781C200.959 151.572 201.094 151.385 201.262 151.232C202.691 150.115 204.281 149.22 205.976 148.577C206.326 148.435 206.713 148.41 207.078 148.505C207.444 148.601 207.769 148.812 208.004 149.108C208.235 149.385 208.489 149.662 208.731 149.928C209.18 150.436 209.618 150.944 210.044 151.463C210.194 151.692 210.41 151.869 210.664 151.972C210.917 152.076 211.195 152.099 211.462 152.04C212.138 151.932 212.818 151.84 213.502 151.763L214.654 151.625C214.756 151.607 214.852 151.565 214.934 151.503C215.016 151.441 215.082 151.36 215.127 151.267L215.68 150.228L216.233 149.189C216.452 148.773 216.683 148.358 216.925 147.954C217.111 147.594 217.416 147.308 217.787 147.147C218.159 146.985 218.575 146.956 218.965 147.065C220.74 147.504 222.169 147.885 223.46 148.219C223.864 148.335 224.216 148.586 224.457 148.931C224.699 149.275 224.814 149.693 224.785 150.112C224.775 150.668 224.737 151.223 224.67 151.775L224.601 152.594C224.601 152.964 224.601 153.333 224.601 153.749C224.593 153.909 224.623 154.069 224.689 154.216C224.755 154.362 224.855 154.491 224.981 154.591L225.522 155.018C226.179 155.538 226.836 156.057 227.47 156.6C227.625 156.736 227.814 156.829 228.017 156.867C228.219 156.906 228.429 156.889 228.623 156.819L230.109 156.346L231.677 155.849C232.132 155.672 232.637 155.669 233.094 155.842C233.552 156.014 233.929 156.35 234.155 156.784C234.862 157.985 235.542 159.197 236.195 160.42C236.497 160.858 236.618 161.397 236.532 161.922C236.446 162.447 236.16 162.919 235.734 163.237C235.434 163.514 235.123 163.78 234.8 164.045L234.166 164.588C233.809 164.911 233.463 165.234 233.129 165.58C233.041 165.661 232.974 165.762 232.934 165.875C232.894 165.988 232.882 166.108 232.898 166.227L232.968 166.931C233.06 167.773 233.152 168.628 233.267 169.482C233.288 169.684 233.363 169.877 233.482 170.041C233.601 170.205 233.762 170.335 233.947 170.417L234.719 170.786L235.872 171.317C236.268 171.519 236.653 171.742 237.024 171.987C237.39 172.194 237.674 172.519 237.831 172.909C237.988 173.299 238.009 173.731 237.889 174.134C237.52 175.496 237.14 176.846 236.736 178.208C236.662 178.435 236.561 178.652 236.437 178.855C236.287 179.187 236.038 179.464 235.724 179.649C235.411 179.833 235.047 179.914 234.685 179.882L231.815 179.663H231.562C231.263 179.603 230.953 179.639 230.676 179.766C230.399 179.892 230.168 180.102 230.017 180.367C229.671 180.863 229.291 181.314 228.865 181.775L228.404 182.341C228.218 182.548 228.096 182.803 228.051 183.077C228.006 183.351 228.041 183.632 228.15 183.888C228.461 184.8 228.761 185.7 229.038 186.623C229.146 186.857 229.207 187.11 229.215 187.367C229.224 187.625 229.181 187.881 229.088 188.121C228.996 188.362 228.856 188.581 228.677 188.766C228.498 188.951 228.283 189.097 228.046 189.198C226.894 189.879 225.672 190.56 224.289 191.298C223.899 191.539 223.435 191.629 222.984 191.553C222.532 191.476 222.124 191.238 221.834 190.883C221.373 190.386 220.936 189.879 220.509 189.359L220.209 189.013C219.195 187.858 219.126 187.789 217.582 187.997L215.553 188.297C215.323 188.316 215.101 188.395 214.911 188.526C214.721 188.658 214.569 188.838 214.47 189.047L214.113 189.763C213.882 190.259 213.64 190.756 213.387 191.229C213.174 191.64 212.919 192.027 212.626 192.383C212.495 192.598 212.314 192.777 212.1 192.908C211.886 193.038 211.643 193.116 211.393 193.134V193.134ZM201.839 182.122C202.341 182.126 202.826 182.305 203.21 182.629L203.418 182.791L205.619 184.511C205.873 184.706 206.078 184.958 206.218 185.247C206.358 185.535 206.429 185.852 206.426 186.173C206.443 186.481 206.443 186.789 206.426 187.097C206.426 187.639 206.345 188.17 206.31 188.713L206.207 189.936C206.193 190.069 206.225 190.202 206.296 190.315C206.367 190.428 206.473 190.514 206.598 190.56C206.735 190.647 206.882 190.717 207.036 190.767C208.062 191.067 209.088 191.345 210.125 191.633L211.278 191.956C211.404 191.956 211.543 192.014 211.727 191.783C211.975 191.487 212.191 191.166 212.372 190.825C212.614 190.363 212.845 189.879 213.076 189.405L213.433 188.678C213.613 188.298 213.888 187.971 214.231 187.728C214.574 187.486 214.974 187.336 215.392 187.293L217.42 186.993C219.368 186.727 219.818 186.9 221.085 188.401L221.385 188.747C221.811 189.255 222.226 189.752 222.676 190.225C222.731 190.311 222.804 190.385 222.889 190.441C222.974 190.498 223.07 190.536 223.171 190.553C223.272 190.571 223.375 190.567 223.474 190.542C223.574 190.517 223.667 190.472 223.748 190.41C225.108 189.694 226.329 189.013 227.459 188.343C228.081 187.974 228.139 187.812 227.931 187.085C227.666 186.185 227.366 185.296 227.055 184.407C226.885 183.965 226.836 183.485 226.915 183.018C226.994 182.55 227.198 182.113 227.505 181.752L227.977 181.175C228.346 180.736 228.703 180.309 229.038 179.836C229.316 179.403 229.717 179.062 230.188 178.857C230.66 178.651 231.182 178.59 231.688 178.682H231.861L234.731 178.913C234.862 178.926 234.994 178.897 235.107 178.828C235.219 178.759 235.306 178.655 235.353 178.532C235.442 178.38 235.519 178.222 235.584 178.058C235.964 176.708 236.344 175.357 236.736 174.007C236.796 173.841 236.791 173.659 236.722 173.496C236.654 173.334 236.527 173.203 236.368 173.129C236.019 172.907 235.657 172.707 235.284 172.529L234.212 171.998L233.417 171.617C233.063 171.452 232.756 171.198 232.526 170.881C232.296 170.564 232.151 170.194 232.103 169.805C231.988 168.951 231.896 168.085 231.804 167.219L231.723 166.527C231.688 166.238 231.719 165.946 231.815 165.671C231.911 165.397 232.069 165.149 232.276 164.945C232.633 164.576 233.002 164.23 233.429 163.895L234.086 163.329C234.385 163.087 234.685 162.833 234.961 162.567C235.515 162.048 235.561 161.794 235.215 161.136C234.558 159.982 233.878 158.735 233.187 157.546C233.141 157.441 233.074 157.346 232.99 157.267C232.907 157.189 232.808 157.128 232.7 157.089C232.592 157.05 232.477 157.034 232.363 157.041C232.248 157.048 232.136 157.079 232.034 157.131C231.515 157.281 231.008 157.454 230.49 157.615L228.992 158.1C228.602 158.239 228.183 158.27 227.777 158.191C227.372 158.112 226.995 157.925 226.687 157.65C226.064 157.119 225.419 156.611 224.773 156.103L224.232 155.665C223.969 155.458 223.759 155.193 223.616 154.89C223.474 154.588 223.405 154.256 223.413 153.922C223.413 153.529 223.413 153.125 223.413 152.767C223.413 152.41 223.413 152.202 223.494 151.913C223.494 151.394 223.598 150.874 223.598 150.355C223.62 150.19 223.583 150.022 223.495 149.881C223.406 149.74 223.272 149.634 223.114 149.581C221.834 149.212 220.417 148.831 218.654 148.427C218.504 148.377 218.34 148.387 218.197 148.453C218.054 148.52 217.941 148.638 217.881 148.785C217.639 149.177 217.432 149.57 217.213 149.939L216.66 150.978C216.475 151.324 216.291 151.682 216.095 152.029C215.966 152.281 215.779 152.499 215.548 152.664C215.317 152.829 215.05 152.936 214.77 152.975L213.617 153.114C212.949 153.206 212.28 153.287 211.623 153.391C211.157 153.48 210.675 153.434 210.234 153.258C209.793 153.083 209.411 152.784 209.134 152.398C208.719 151.89 208.281 151.405 207.843 150.909L207.106 150.078C207.025 149.957 206.904 149.869 206.764 149.831C206.624 149.793 206.475 149.807 206.345 149.87C204.755 150.47 203.266 151.311 201.931 152.363C201.892 152.459 201.868 152.56 201.862 152.663C201.868 152.99 201.926 153.314 202.035 153.622L202.519 155.203C202.657 155.607 202.784 156.023 202.91 156.438C203.02 156.738 203.053 157.061 203.007 157.378C202.96 157.694 202.836 157.994 202.645 158.25C201.954 159.128 201.124 160.167 200.225 161.194C199.888 161.512 199.453 161.707 198.992 161.748C198.632 161.783 198.269 161.783 197.909 161.748H197.597L196.756 161.679C196.249 161.679 195.73 161.586 195.223 161.575C195.016 161.566 194.813 161.629 194.647 161.753C194.481 161.877 194.363 162.055 194.313 162.256C194.151 162.764 193.99 163.272 193.863 163.78C193.679 164.484 193.506 165.176 193.333 165.88L193.126 166.711V166.873C193.39 167.266 193.768 167.568 194.209 167.739L195.765 168.558L196.814 169.101C197.078 169.239 197.304 169.439 197.473 169.684C197.641 169.93 197.748 170.213 197.782 170.509C197.782 170.89 197.874 171.259 197.932 171.663C198.001 172.264 198.081 172.818 198.174 173.453C198.271 173.983 198.214 174.531 198.01 175.03C197.806 175.53 197.462 175.96 197.021 176.269C196.387 176.766 195.719 177.331 194.935 178.035C194.486 178.439 194.451 178.612 194.716 179.12C195.212 180.113 195.869 181.429 196.641 182.71C197.113 183.518 197.229 183.564 198.197 183.299L199.061 183.022C199.695 182.814 200.34 182.618 200.963 182.399C201.237 182.258 201.533 182.164 201.839 182.122V182.122ZM214.908 180.09C212.983 180.092 211.099 179.533 209.487 178.48C207.874 177.427 206.602 175.927 205.826 174.163C205.051 172.398 204.805 170.446 205.119 168.544C205.433 166.642 206.293 164.872 207.594 163.452C208.896 162.031 210.582 161.021 212.447 160.544C214.312 160.067 216.275 160.145 218.097 160.767C219.919 161.39 221.521 162.53 222.706 164.049C223.892 165.568 224.61 167.399 224.773 169.32C224.916 170.569 224.807 171.833 224.453 173.039C224.098 174.245 223.506 175.367 222.71 176.338C221.869 177.412 220.816 178.299 219.616 178.944C218.416 179.59 217.095 179.98 215.738 180.09C215.461 180.09 215.185 180.09 214.908 180.09ZM214.839 161.402H214.067C212.629 161.548 211.25 162.049 210.053 162.859C208.855 163.669 207.877 164.763 207.204 166.044C206.531 167.324 206.185 168.752 206.196 170.199C206.208 171.646 206.576 173.068 207.27 174.338C207.963 175.608 208.959 176.686 210.169 177.477C211.379 178.268 212.766 178.746 214.206 178.87C215.645 178.994 217.093 178.759 218.42 178.186C219.747 177.614 220.912 176.721 221.811 175.588C222.509 174.736 223.029 173.752 223.342 172.696C223.654 171.639 223.753 170.531 223.632 169.436V169.436C223.463 167.225 222.459 165.162 220.826 163.666C219.193 162.169 217.052 161.351 214.839 161.379V161.402Z" fill="#EDEBFF"/>
</svg>
