<svg width="105" height="152" viewBox="0 0 105 152" fill="none" xmlns="http://www.w3.org/2000/svg">
<path d="M74.1528 117.423C70.2459 118.716 66.2813 119.859 62.4665 121.359C56.1047 123.864 50.9415 122.133 47.484 116.592C42.0672 108.016 34.5414 102.036 26.1627 96.5532C13.8656 88.473 5.41774 77.0684 2.07549 62.6626C-4.72426 33.6547 12.1483 9.05626 41.9635 2.17655C85.9544 -7.94678 112.796 32.1887 100.741 70.2811C97.4794 80.5891 94.4253 90.5854 95.2321 101.54C95.6815 107.635 92.3623 111.548 86.427 113.302C82.301 114.561 78.2442 116.05 74.1528 117.423Z" fill="#EDEBFF"/>
<path d="M57.0724 123.068C53.0041 123.068 49.5811 120.99 47.0111 116.904C41.2486 107.842 33.1119 101.782 25.8512 97.0381C13.5804 89.2545 4.84561 76.9626 1.5219 62.8011C-1.69358 49.0532 0.208052 35.9979 7.01933 25.0435C14.2225 13.5004 26.6118 5.13161 41.8479 1.62249C61.1407 -2.82161 78.4052 1.93416 90.4603 15.0241C103.495 29.1644 107.644 50.4269 101.305 70.5004C98.2051 80.3121 95.0012 90.4585 95.8194 101.54C96.2689 107.715 93.088 111.929 86.5994 113.903C83.7758 114.734 80.9292 115.715 78.1747 116.661L74.3253 117.966L70.7526 119.12C68.0788 119.974 65.3128 120.863 62.6851 121.902C60.903 122.637 58.9994 123.033 57.0724 123.068ZM55.5626 1.14922C51.03 1.17139 46.5144 1.70575 42.1014 2.74217C27.1189 6.20511 15.0407 14.2853 7.99895 25.6553C1.34902 36.3442 -0.506502 49.0994 2.63982 62.5356C5.93597 76.5952 13.9574 87.9305 26.485 96.0684C33.8495 100.882 42.159 107.046 47.9792 116.292C51.379 121.683 56.1734 123.218 62.2471 120.828C64.9324 119.778 67.71 118.889 70.4068 118.023L73.968 116.869L77.8059 115.565C80.5603 114.618 83.4186 113.626 86.2768 112.794C92.1776 111.051 95.0703 107.196 94.6669 101.632C93.8256 90.32 97.0757 80.0696 100.199 70.1541C106.422 50.5308 102.366 29.6492 89.619 15.809C85.303 11.0887 80.035 7.34081 74.1637 4.8135C68.2925 2.28619 61.9521 1.03719 55.5626 1.14922V1.14922Z" fill="#DFDDED"/>
<path d="M89.8223 112.25L58.3054 122.787C55.4859 123.73 53.9632 126.784 54.9044 129.608L55.4518 131.25C56.393 134.074 59.4417 135.599 62.2613 134.656L93.7782 124.119C96.5977 123.176 98.1204 120.123 97.1792 117.299L96.6318 115.656C95.6906 112.832 92.6419 111.307 89.8223 112.25Z" fill="#EDEBFF"/>
<path d="M60.5765 135.5C59.3264 135.504 58.1068 135.113 57.0924 134.381C56.078 133.649 55.3209 132.614 54.9293 131.425L54.3761 129.774C53.8794 128.273 53.9972 126.635 54.7035 125.22C55.4099 123.805 56.6473 122.728 58.1448 122.225L89.6541 111.686C91.155 111.188 92.7917 111.306 94.2062 112.013C95.6208 112.721 96.6982 113.96 97.203 115.461L97.7447 117.1C98.2449 118.603 98.1289 120.244 97.4223 121.661C96.7157 123.079 95.4762 124.158 93.976 124.661L62.4666 135.177C61.8582 135.386 61.2199 135.495 60.5765 135.5ZM91.5442 112.541C91.0276 112.541 90.5142 112.623 90.0229 112.783L58.4675 123.322C57.2693 123.737 56.2827 124.608 55.7218 125.747C55.1608 126.886 55.0707 128.2 55.471 129.405L56.0242 131.044C56.2203 131.645 56.5344 132.201 56.9481 132.679C57.3617 133.156 57.8666 133.547 58.4329 133.826C58.9979 134.111 59.6136 134.281 60.2446 134.327C60.8756 134.372 61.5094 134.292 62.1094 134.092L93.6187 123.553C94.2174 123.352 94.7707 123.035 95.2471 122.62C95.7234 122.205 96.1135 121.7 96.395 121.134C96.6765 120.568 96.8438 119.952 96.8876 119.321C96.9313 118.691 96.8505 118.057 96.6498 117.458L96.1081 115.819C95.7852 114.863 95.1712 114.033 94.3525 113.445C93.5338 112.857 92.5517 112.54 91.5442 112.541V112.541Z" fill="#DFDDED"/>
<path d="M93.7881 124.129L62.2712 134.667C59.4517 135.609 57.929 138.663 58.8702 141.487L59.4176 143.129C60.3589 145.953 63.4076 147.478 66.2271 146.536L97.744 135.998C100.564 135.055 102.086 132.002 101.145 129.178L100.598 127.536C99.6564 124.712 96.6077 123.187 93.7881 124.129Z" fill="#EDEBFF"/>
<path d="M64.5296 147.378C63.2805 147.371 62.0648 146.973 61.0523 146.241C60.0398 145.508 59.2811 144.477 58.8824 143.291L58.3407 141.652C58.0815 140.9 57.9765 140.104 58.032 139.311C58.0874 138.517 58.3022 137.743 58.6634 137.035C59.0058 136.327 59.4892 135.696 60.0838 135.182C60.6783 134.668 61.3716 134.281 62.1209 134.045L93.6302 123.506C95.128 123.022 96.7563 123.153 98.1583 123.869C99.5604 124.585 100.622 125.829 101.11 127.327L101.652 128.978C101.903 129.721 102.004 130.506 101.951 131.288C101.898 132.07 101.691 132.834 101.341 133.536C100.992 134.237 100.508 134.863 99.9164 135.376C99.3248 135.89 98.6376 136.281 97.8945 136.527V136.527L66.3851 147.066C65.7867 147.266 65.1606 147.372 64.5296 147.378V147.378ZM95.5088 124.407C94.9874 124.406 94.4693 124.492 93.976 124.661L62.4667 135.177C61.2574 135.585 60.2588 136.457 59.6891 137.601C59.4037 138.164 59.2342 138.78 59.1906 139.41C59.1471 140.041 59.2304 140.674 59.4356 141.271L59.9772 142.91C60.1752 143.512 60.4899 144.068 60.9035 144.548C61.317 145.027 61.821 145.419 62.3867 145.703C62.9523 145.986 63.5682 146.154 64.1991 146.198C64.8299 146.242 65.4632 146.16 66.0624 145.958L97.5718 135.419C98.1714 135.22 98.7257 134.903 99.2028 134.489C99.68 134.074 100.071 133.569 100.352 133.003C100.634 132.436 100.801 131.82 100.844 131.188C100.887 130.557 100.805 129.924 100.603 129.324L100.061 127.685C99.8628 127.085 99.5478 126.53 99.1344 126.053C98.721 125.576 98.2173 125.185 97.6525 124.903C96.9854 124.575 96.2519 124.405 95.5088 124.407Z" fill="#DFDDED"/>
<path d="M98.1825 135.835C99.6692 140.313 93.5725 146.362 84.6983 149.352C75.824 152.341 67.307 151.129 65.8203 146.662L98.1825 135.835Z" fill="#DED9FF"/>
<path d="M75.2823 151.568C74.3146 151.574 73.3477 151.509 72.3896 151.372C68.5979 150.829 66.0623 149.225 65.2671 146.847C65.2225 146.7 65.2359 146.541 65.3045 146.404C65.3731 146.266 65.4917 146.16 65.6359 146.108L97.9981 135.292C98.1418 135.244 98.2986 135.255 98.4344 135.322C98.5703 135.389 98.6744 135.507 98.7242 135.65C99.5194 138.039 98.4707 140.844 95.7623 143.557C92.6601 146.465 88.9405 148.632 84.8827 149.894C81.7922 150.962 78.5511 151.527 75.2823 151.568ZM66.5925 147.008C67.4338 148.671 69.5199 149.802 72.5509 150.229C76.595 150.57 80.6661 150.083 84.5161 148.797C88.3661 147.511 91.9141 145.453 94.944 142.749C97.0992 140.579 98.0903 138.42 97.7676 136.585L66.5925 147.008Z" fill="#DFDDED"/>
<path d="M64.8523 114.468C64.7236 114.465 64.5993 114.421 64.4975 114.342C64.3958 114.263 64.3222 114.154 64.2876 114.03L63.9995 112.875C61.6945 103.144 59.2281 93.148 54.9408 84.0174C48.7342 85.2024 42.3298 84.8054 36.3164 82.8631C32.7999 81.8778 29.6144 79.9595 27.0964 77.3108C25.8235 75.9539 24.9189 74.293 24.469 72.4864C24.019 70.6799 24.0388 68.788 24.5264 66.9912C25.0526 65.6851 25.8407 64.5009 26.8421 63.512C27.8435 62.5232 29.0368 61.7506 30.3483 61.242C31.6597 60.7335 33.0613 60.4999 34.4665 60.5556C35.8717 60.6113 37.2505 60.9552 38.5177 61.566C42.6667 63.9669 47.1038 68.8151 51.7253 75.9718C53.1348 78.1577 54.4089 80.4283 55.5401 82.7707C60.6355 81.7332 65.4666 79.6673 69.7389 76.699C69.6467 76.2835 69.5545 75.8795 69.4739 75.4639L69.2664 74.4481C67.6068 66.5757 65.5554 56.7756 68.9552 49.0532C69.4969 47.8066 71.5368 43.7087 74.7984 43.0277C75.5771 42.8817 76.38 42.9342 77.1332 43.1802C77.8864 43.4263 78.5658 43.8581 79.1088 44.436C80.9005 46.2002 82.2477 48.3658 83.0392 50.7542C83.8307 53.1425 84.0439 55.6852 83.6611 58.1723C82.8601 63.0862 80.6589 67.6637 77.3224 71.3546C75.4569 73.5178 73.345 75.4549 71.0297 77.1261C73.5414 87.704 77.3546 97.9286 82.3819 107.565C82.4175 107.633 82.4392 107.708 82.4458 107.784C82.4523 107.861 82.4435 107.938 82.4199 108.011C82.3963 108.084 82.3583 108.152 82.3082 108.21C82.2582 108.268 82.197 108.316 82.1283 108.35C81.9917 108.416 81.8352 108.426 81.6913 108.379C81.5475 108.331 81.4274 108.23 81.3561 108.096C76.3578 98.5126 72.5493 88.3523 70.0155 77.8418C65.8199 80.69 61.117 82.7042 56.1625 83.775C60.4152 92.9056 62.8355 102.856 65.175 112.552L65.4747 113.706C65.5093 113.855 65.4839 114.011 65.4041 114.141C65.3242 114.27 65.1963 114.363 65.0483 114.399L64.8523 114.468ZM34.265 61.5775C33.0811 61.5853 31.9089 61.8123 30.8075 62.247C29.6308 62.6549 28.5582 63.3173 27.6659 64.1871C26.7735 65.0569 26.0833 66.1128 25.6443 67.2798C25.221 68.8889 25.2104 70.5791 25.6134 72.1934C26.0163 73.8077 26.8198 75.294 27.9493 76.5143C30.3159 78.9983 33.3051 80.8002 36.6046 81.7318C42.3296 83.5987 48.4266 84.019 54.353 82.9554C53.2748 80.7558 52.0704 78.6206 50.7457 76.5605C46.2279 69.5654 41.9176 64.8442 37.9299 62.5241C36.8105 61.8966 35.5478 61.5705 34.265 61.5775ZM75.755 44.0666C75.5425 44.0691 75.3305 44.0884 75.1211 44.1243C72.9659 44.586 71.1104 47.1948 70.0962 49.4919C66.8577 56.8448 68.863 66.4372 70.4765 74.1595L70.6955 75.1638C70.6955 75.4177 70.7992 75.6602 70.8453 75.9141C72.935 74.3538 74.8446 72.5651 76.5387 70.5812C79.7313 67.0609 81.8405 62.6917 82.6123 57.9992C82.9646 55.7022 82.7691 53.3544 82.042 51.1476C81.3149 48.9407 80.0768 46.9375 78.4288 45.3017C77.7261 44.5654 76.7704 44.1239 75.755 44.0666V44.0666Z" fill="#6D5DE7"/>
</svg>
