<svg id="Layer_1" data-name="Layer 1" xmlns="http://www.w3.org/2000/svg" xmlns:xlink="http://www.w3.org/1999/xlink" viewBox="0 0 150 150"><defs><style>.cls-1{fill:#6c5ce7;}.cls-2{fill:url(#linear-gradient);}</style><linearGradient id="linear-gradient" x1="4.76" y1="122.12" x2="73.8" y2="26.17" gradientUnits="userSpaceOnUse"><stop offset="0" stop-color="#6c5ce7"/><stop offset="0.41" stop-color="#6c5ce7"/><stop offset="0.47" stop-color="#6c5ce7"/><stop offset="0.53" stop-color="#695ae1"/><stop offset="0.6" stop-color="#6253d1"/><stop offset="0.67" stop-color="#5548b6"/><stop offset="0.76" stop-color="#433990"/><stop offset="0.85" stop-color="#2d265f"/><stop offset="0.95" stop-color="#110f25"/><stop offset="1"/></linearGradient></defs><title>Favicon</title><path class="cls-1" d="M150,24.75l-34.9,97.34a12.18,12.18,0,0,1-3.31,4.92,12,12,0,0,1-8,3H92.55a6.64,6.64,0,0,1-6.1-8.9l10.91-30,21-57.9a12.88,12.88,0,0,1,12.11-8.49Z"/><path class="cls-2" d="M67.67,32.69a5.75,5.75,0,0,1-.27,1L56,65.15,35.45,121.58a12.88,12.88,0,0,1-12.11,8.48H3.86L35.54,41.72l3.22-9a12,12,0,0,1,11.1-8A41.33,41.33,0,0,1,67.67,32.69Z"/><path class="cls-1" d="M111.79,127a12,12,0,0,1-8,3H103c-3.44,0-6.88,0-10.32,0h-.14a13.49,13.49,0,0,1-12.75-8.79c-2-5.42-4.42-11.72-7.19-18.69C65.56,84.91,60.2,73.17,56,65.15,49.71,53.36,45.88,49.62,42.64,46.93a85.31,85.31,0,0,0-7.1-5.21,168.23,168.23,0,0,0-16-9.17A164.05,164.05,0,0,0,0,24.08H42.38a42.12,42.12,0,0,1,7.48.67A41.55,41.55,0,0,1,80.84,50l16.52,41.1Z"/></svg>