<svg id="Layer_1" data-name="Layer 1" xmlns="http://www.w3.org/2000/svg" xmlns:xlink="http://www.w3.org/1999/xlink" viewBox="0 0 284.65 63.63"><defs><style>.cls-1{fill:#6c5ce7;}.cls-2{fill:url(#linear-gradient);}</style><linearGradient id="linear-gradient" x1="2.52" y1="55.77" x2="39.1" y2="4.93" gradientUnits="userSpaceOnUse"><stop offset="0" stop-color="#6c5ce7"/><stop offset="0.41" stop-color="#6c5ce7"/><stop offset="0.47" stop-color="#6c5ce7"/><stop offset="0.53" stop-color="#695ae1"/><stop offset="0.6" stop-color="#6253d1"/><stop offset="0.67" stop-color="#5548b6"/><stop offset="0.76" stop-color="#433990"/><stop offset="0.85" stop-color="#2d265f"/><stop offset="0.95" stop-color="#110f25"/><stop offset="1"/></linearGradient></defs><title>Nortale-Logo-Purple</title><path class="cls-1" d="M79.48,4.18,61,55.75A6.38,6.38,0,0,1,55,60H49a3.52,3.52,0,0,1-3.23-4.72l5.78-15.9L62.74,8.68a6.82,6.82,0,0,1,6.42-4.5Z"/><path class="cls-2" d="M35.86,8.38a2.55,2.55,0,0,1-.15.52L29.65,25.58,18.78,55.48A6.82,6.82,0,0,1,12.37,60H2L18.83,13.17,20.54,8.4a6.38,6.38,0,0,1,5.88-4.22A22,22,0,0,1,35.86,8.38Z"/><path class="cls-1" d="M59.23,58.36A6.36,6.36,0,0,1,55,60h-.41c-1.82,0-3.64,0-5.47,0H49a7.16,7.16,0,0,1-6.76-4.66c-1.06-2.87-2.34-6.21-3.81-9.9a210.16,210.16,0,0,0-8.82-19.84c-3.31-6.24-5.34-8.22-7.06-9.65a43.82,43.82,0,0,0-3.76-2.76,88.58,88.58,0,0,0-8.48-4.86A88.08,88.08,0,0,0,0,3.82H22.46a21.69,21.69,0,0,1,4,.36,21.94,21.94,0,0,1,16.41,13.4l8.76,21.78Z"/><path class="cls-1" d="M73.9,43.27A24.5,24.5,0,0,1,98.22,22.92q8.4,0,12.58,4.74t2.79,12.69a23.47,23.47,0,0,1-8.45,14.49A24.61,24.61,0,0,1,89,60.53q-8.22,0-12.33-4.71T73.9,43.27ZM96.21,33a9.31,9.31,0,0,0-6.66,3,13.49,13.49,0,0,0-3.81,7.4,6.25,6.25,0,0,0,.93,5.14,5.44,5.44,0,0,0,4.55,1.9,9.47,9.47,0,0,0,6.84-2.93,13.43,13.43,0,0,0,3.81-7.5,6.2,6.2,0,0,0-1-5.15A5.7,5.7,0,0,0,96.21,33Z"/><path class="cls-1" d="M113.35,60.11l11.72-35h11.86l-1.92,6A15.7,15.7,0,0,1,140.27,26,13.34,13.34,0,0,1,147,24.27c.25,0,.54,0,.86.05s.81.11,1.48.23l-4.4,11c-.77-.19-1.48-.33-2.11-.42a13.13,13.13,0,0,0-1.85-.14,8.6,8.6,0,0,0-6,2.24,16.22,16.22,0,0,0-4,6.91l-5.31,16Z"/><path class="cls-1" d="M148.23,60,157,33.91h-5.83l3-8.95H160l3.35-10.15h12.34L172.23,25h6.27l-3,8.95h-6.27L160.54,60Z"/><path class="cls-1" d="M201.07,54.11a22.71,22.71,0,0,1-6.42,4.46,16.91,16.91,0,0,1-6.94,1.5q-6,0-9.1-4.54t-1.79-11.78a26.57,26.57,0,0,1,7.9-15.08,20,20,0,0,1,14.12-6,12.3,12.3,0,0,1,6.26,1.51,11.84,11.84,0,0,1,4.37,4.66l1.69-5.06h11.72l-11.72,35H199.65ZM189.48,42.53a6.42,6.42,0,0,0,1.09,5.41A6.16,6.16,0,0,0,195.62,50a9.34,9.34,0,0,0,6.63-2.86A12.81,12.81,0,0,0,206,40a6.2,6.2,0,0,0-1.11-5.29,6.13,6.13,0,0,0-5-2,9.44,9.44,0,0,0-6.69,2.81A12.49,12.49,0,0,0,189.48,42.53Z"/><path class="cls-1" d="M236.12,5.79h12.44L230.49,59.52H218.08Z"/><path class="cls-1" d="M253.43,43.87l-.14.8c-.39,2.22-.13,3.91.8,5.06s2.48,1.74,4.65,1.74a11.13,11.13,0,0,0,4.49-1,23.06,23.06,0,0,0,4.89-3.07l5.47,6.73A24.58,24.58,0,0,1,266,58.43a27.47,27.47,0,0,1-9,1.42q-8.56,0-12.49-4.55T242,42.52a23.94,23.94,0,0,1,8.2-14.59,23.31,23.31,0,0,1,15.57-5.62q8.11,0,12.18,5t2.62,13.14c-.08.48-.31,1.36-.67,2.63-.11.39-.2.67-.25.83Zm16.23-7.1a5.65,5.65,0,0,0-1.12-4.51,5.34,5.34,0,0,0-4.28-1.66,8.33,8.33,0,0,0-4.88,1.63,12.8,12.8,0,0,0-3.87,4.54Z"/></svg>