<svg width="32" height="32" viewBox="0 0 32 32" fill="none" xmlns="http://www.w3.org/2000/svg">
<path d="M12.11 5.09003C13.509 3.51403 15.411 3.76503 16.629 5.09003L17.371 5.95003C17.629 6.22903 18.001 6.37403 18.379 6.34203L19.699 5.94903C21.499 5.56303 23.133 6.90603 23.133 8.99103V9.77603C23.172 10.205 23.546 10.496 23.933 10.684L25.126 11.183C26.851 12.025 27.282 14.024 26.026 15.703L25.668 16.173C25.348 16.606 25.414 17.175 25.733 17.609L26.09 18.109C27.389 19.708 26.656 21.902 24.82 22.669L23.794 23.097C23.407 23.259 23.256 23.537 23.184 23.949L23.112 25.291C23.0684 25.6658 22.9507 26.0281 22.7657 26.3569C22.5806 26.6857 22.332 26.9744 22.0342 27.206C21.7364 27.4377 21.3955 27.6078 21.0313 27.7063C20.6671 27.8049 20.287 27.8299 19.913 27.78L18.35 27.362C17.974 27.309 17.507 27.433 17.257 27.826L16.693 28.597C15.293 30.175 13.405 29.913 12.452 28.99L11.412 27.73C11.139 27.466 10.795 27.24 10.384 27.396L8.81099 27.826C7.51099 28.01 5.98099 27.011 5.73599 25.722L5.55499 23.856C5.51856 23.6647 5.43718 23.4848 5.31757 23.3311C5.19795 23.1774 5.04351 23.0543 4.86699 22.972L3.76299 22.592C2.10299 21.819 1.54599 19.946 2.49999 18.382L3.12199 17.522C3.24443 17.3211 3.30667 17.0893 3.30136 16.8541C3.29604 16.6189 3.22338 16.3902 3.09199 16.195L2.62699 15.538C1.314 13.668 2.22199 11.576 4.16899 10.95L4.59799 10.811C5.07199 10.659 5.52999 10.265 5.56899 9.76903L5.66499 8.56403C5.81999 6.61003 7.60499 5.48603 9.47999 6.05703L10.088 6.24203C10.673 6.47003 11.132 6.27603 11.451 5.92703L12.108 5.08903L12.11 5.09003Z" fill="url(#paint0_linear_1348_429)"/>
<path d="M12.11 5.09003C13.509 3.51403 15.411 3.76503 16.629 5.09003L17.371 5.95003C17.629 6.22903 18.001 6.37403 18.379 6.34203L19.699 5.94903C21.499 5.56303 23.133 6.90603 23.133 8.99103V9.77603C23.172 10.205 23.546 10.496 23.933 10.684L25.126 11.183C26.851 12.025 27.282 14.024 26.026 15.703L25.668 16.173C25.348 16.606 25.414 17.175 25.733 17.609L26.09 18.109C27.389 19.708 26.656 21.902 24.82 22.669L23.794 23.097C23.407 23.259 23.256 23.537 23.184 23.949L23.112 25.291C23.0684 25.6658 22.9507 26.0281 22.7657 26.3569C22.5806 26.6857 22.332 26.9744 22.0342 27.206C21.7364 27.4377 21.3955 27.6078 21.0313 27.7063C20.6671 27.8049 20.287 27.8299 19.913 27.78L18.35 27.362C17.974 27.309 17.507 27.433 17.257 27.826L16.693 28.597C15.293 30.175 13.405 29.913 12.452 28.99L11.412 27.73C11.139 27.466 10.795 27.24 10.384 27.396L8.81099 27.826C7.51099 28.01 5.98099 27.011 5.73599 25.722L5.55499 23.856C5.51856 23.6647 5.43718 23.4848 5.31757 23.3311C5.19795 23.1774 5.04351 23.0543 4.86699 22.972L3.76299 22.592C2.10299 21.819 1.54599 19.946 2.49999 18.382L3.12199 17.522C3.24443 17.3211 3.30667 17.0893 3.30136 16.8541C3.29604 16.6189 3.22338 16.3902 3.09199 16.195L2.62699 15.538C1.314 13.668 2.22199 11.576 4.16899 10.95L4.59799 10.811C5.07199 10.659 5.52999 10.265 5.56899 9.76903L5.66499 8.56403C5.81999 6.61003 7.60499 5.48603 9.47999 6.05703L10.088 6.24203C10.673 6.47003 11.132 6.27603 11.451 5.92703L12.108 5.08903L12.11 5.09003Z" fill="url(#paint1_radial_1348_429)"/>
<path d="M12.11 5.09003C13.509 3.51403 15.411 3.76503 16.629 5.09003L17.371 5.95003C17.629 6.22903 18.001 6.37403 18.379 6.34203L19.699 5.94903C21.499 5.56303 23.133 6.90603 23.133 8.99103V9.77603C23.172 10.205 23.546 10.496 23.933 10.684L25.126 11.183C26.851 12.025 27.282 14.024 26.026 15.703L25.668 16.173C25.348 16.606 25.414 17.175 25.733 17.609L26.09 18.109C27.389 19.708 26.656 21.902 24.82 22.669L23.794 23.097C23.407 23.259 23.256 23.537 23.184 23.949L23.112 25.291C23.0684 25.6658 22.9507 26.0281 22.7657 26.3569C22.5806 26.6857 22.332 26.9744 22.0342 27.206C21.7364 27.4377 21.3955 27.6078 21.0313 27.7063C20.6671 27.8049 20.287 27.8299 19.913 27.78L18.35 27.362C17.974 27.309 17.507 27.433 17.257 27.826L16.693 28.597C15.293 30.175 13.405 29.913 12.452 28.99L11.412 27.73C11.139 27.466 10.795 27.24 10.384 27.396L8.81099 27.826C7.51099 28.01 5.98099 27.011 5.73599 25.722L5.55499 23.856C5.51856 23.6647 5.43718 23.4848 5.31757 23.3311C5.19795 23.1774 5.04351 23.0543 4.86699 22.972L3.76299 22.592C2.10299 21.819 1.54599 19.946 2.49999 18.382L3.12199 17.522C3.24443 17.3211 3.30667 17.0893 3.30136 16.8541C3.29604 16.6189 3.22338 16.3902 3.09199 16.195L2.62699 15.538C1.314 13.668 2.22199 11.576 4.16899 10.95L4.59799 10.811C5.07199 10.659 5.52999 10.265 5.56899 9.76903L5.66499 8.56403C5.81999 6.61003 7.60499 5.48603 9.47999 6.05703L10.088 6.24203C10.673 6.47003 11.132 6.27603 11.451 5.92703L12.108 5.08903L12.11 5.09003Z" fill="url(#paint2_radial_1348_429)"/>
<path d="M12.11 5.09003C13.509 3.51403 15.411 3.76503 16.629 5.09003L17.371 5.95003C17.629 6.22903 18.001 6.37403 18.379 6.34203L19.699 5.94903C21.499 5.56303 23.133 6.90603 23.133 8.99103V9.77603C23.172 10.205 23.546 10.496 23.933 10.684L25.126 11.183C26.851 12.025 27.282 14.024 26.026 15.703L25.668 16.173C25.348 16.606 25.414 17.175 25.733 17.609L26.09 18.109C27.389 19.708 26.656 21.902 24.82 22.669L23.794 23.097C23.407 23.259 23.256 23.537 23.184 23.949L23.112 25.291C23.0684 25.6658 22.9507 26.0281 22.7657 26.3569C22.5806 26.6857 22.332 26.9744 22.0342 27.206C21.7364 27.4377 21.3955 27.6078 21.0313 27.7063C20.6671 27.8049 20.287 27.8299 19.913 27.78L18.35 27.362C17.974 27.309 17.507 27.433 17.257 27.826L16.693 28.597C15.293 30.175 13.405 29.913 12.452 28.99L11.412 27.73C11.139 27.466 10.795 27.24 10.384 27.396L8.81099 27.826C7.51099 28.01 5.98099 27.011 5.73599 25.722L5.55499 23.856C5.51856 23.6647 5.43718 23.4848 5.31757 23.3311C5.19795 23.1774 5.04351 23.0543 4.86699 22.972L3.76299 22.592C2.10299 21.819 1.54599 19.946 2.49999 18.382L3.12199 17.522C3.24443 17.3211 3.30667 17.0893 3.30136 16.8541C3.29604 16.6189 3.22338 16.3902 3.09199 16.195L2.62699 15.538C1.314 13.668 2.22199 11.576 4.16899 10.95L4.59799 10.811C5.07199 10.659 5.52999 10.265 5.56899 9.76903L5.66499 8.56403C5.81999 6.61003 7.60499 5.48603 9.47999 6.05703L10.088 6.24203C10.673 6.47003 11.132 6.27603 11.451 5.92703L12.108 5.08903L12.11 5.09003Z" fill="url(#paint3_radial_1348_429)"/>
<path d="M12.11 5.09003C13.509 3.51403 15.411 3.76503 16.629 5.09003L17.371 5.95003C17.629 6.22903 18.001 6.37403 18.379 6.34203L19.699 5.94903C21.499 5.56303 23.133 6.90603 23.133 8.99103V9.77603C23.172 10.205 23.546 10.496 23.933 10.684L25.126 11.183C26.851 12.025 27.282 14.024 26.026 15.703L25.668 16.173C25.348 16.606 25.414 17.175 25.733 17.609L26.09 18.109C27.389 19.708 26.656 21.902 24.82 22.669L23.794 23.097C23.407 23.259 23.256 23.537 23.184 23.949L23.112 25.291C23.0684 25.6658 22.9507 26.0281 22.7657 26.3569C22.5806 26.6857 22.332 26.9744 22.0342 27.206C21.7364 27.4377 21.3955 27.6078 21.0313 27.7063C20.6671 27.8049 20.287 27.8299 19.913 27.78L18.35 27.362C17.974 27.309 17.507 27.433 17.257 27.826L16.693 28.597C15.293 30.175 13.405 29.913 12.452 28.99L11.412 27.73C11.139 27.466 10.795 27.24 10.384 27.396L8.81099 27.826C7.51099 28.01 5.98099 27.011 5.73599 25.722L5.55499 23.856C5.51856 23.6647 5.43718 23.4848 5.31757 23.3311C5.19795 23.1774 5.04351 23.0543 4.86699 22.972L3.76299 22.592C2.10299 21.819 1.54599 19.946 2.49999 18.382L3.12199 17.522C3.24443 17.3211 3.30667 17.0893 3.30136 16.8541C3.29604 16.6189 3.22338 16.3902 3.09199 16.195L2.62699 15.538C1.314 13.668 2.22199 11.576 4.16899 10.95L4.59799 10.811C5.07199 10.659 5.52999 10.265 5.56899 9.76903L5.66499 8.56403C5.81999 6.61003 7.60499 5.48603 9.47999 6.05703L10.088 6.24203C10.673 6.47003 11.132 6.27603 11.451 5.92703L12.108 5.08903L12.11 5.09003Z" fill="url(#paint4_radial_1348_429)"/>
<path d="M12.11 5.09003C13.509 3.51403 15.411 3.76503 16.629 5.09003L17.371 5.95003C17.629 6.22903 18.001 6.37403 18.379 6.34203L19.699 5.94903C21.499 5.56303 23.133 6.90603 23.133 8.99103V9.77603C23.172 10.205 23.546 10.496 23.933 10.684L25.126 11.183C26.851 12.025 27.282 14.024 26.026 15.703L25.668 16.173C25.348 16.606 25.414 17.175 25.733 17.609L26.09 18.109C27.389 19.708 26.656 21.902 24.82 22.669L23.794 23.097C23.407 23.259 23.256 23.537 23.184 23.949L23.112 25.291C23.0684 25.6658 22.9507 26.0281 22.7657 26.3569C22.5806 26.6857 22.332 26.9744 22.0342 27.206C21.7364 27.4377 21.3955 27.6078 21.0313 27.7063C20.6671 27.8049 20.287 27.8299 19.913 27.78L18.35 27.362C17.974 27.309 17.507 27.433 17.257 27.826L16.693 28.597C15.293 30.175 13.405 29.913 12.452 28.99L11.412 27.73C11.139 27.466 10.795 27.24 10.384 27.396L8.81099 27.826C7.51099 28.01 5.98099 27.011 5.73599 25.722L5.55499 23.856C5.51856 23.6647 5.43718 23.4848 5.31757 23.3311C5.19795 23.1774 5.04351 23.0543 4.86699 22.972L3.76299 22.592C2.10299 21.819 1.54599 19.946 2.49999 18.382L3.12199 17.522C3.24443 17.3211 3.30667 17.0893 3.30136 16.8541C3.29604 16.6189 3.22338 16.3902 3.09199 16.195L2.62699 15.538C1.314 13.668 2.22199 11.576 4.16899 10.95L4.59799 10.811C5.07199 10.659 5.52999 10.265 5.56899 9.76903L5.66499 8.56403C5.81999 6.61003 7.60499 5.48603 9.47999 6.05703L10.088 6.24203C10.673 6.47003 11.132 6.27603 11.451 5.92703L12.108 5.08903L12.11 5.09003Z" fill="url(#paint5_radial_1348_429)"/>
<path d="M12.11 5.09003C13.509 3.51403 15.411 3.76503 16.629 5.09003L17.371 5.95003C17.629 6.22903 18.001 6.37403 18.379 6.34203L19.699 5.94903C21.499 5.56303 23.133 6.90603 23.133 8.99103V9.77603C23.172 10.205 23.546 10.496 23.933 10.684L25.126 11.183C26.851 12.025 27.282 14.024 26.026 15.703L25.668 16.173C25.348 16.606 25.414 17.175 25.733 17.609L26.09 18.109C27.389 19.708 26.656 21.902 24.82 22.669L23.794 23.097C23.407 23.259 23.256 23.537 23.184 23.949L23.112 25.291C23.0684 25.6658 22.9507 26.0281 22.7657 26.3569C22.5806 26.6857 22.332 26.9744 22.0342 27.206C21.7364 27.4377 21.3955 27.6078 21.0313 27.7063C20.6671 27.8049 20.287 27.8299 19.913 27.78L18.35 27.362C17.974 27.309 17.507 27.433 17.257 27.826L16.693 28.597C15.293 30.175 13.405 29.913 12.452 28.99L11.412 27.73C11.139 27.466 10.795 27.24 10.384 27.396L8.81099 27.826C7.51099 28.01 5.98099 27.011 5.73599 25.722L5.55499 23.856C5.51856 23.6647 5.43718 23.4848 5.31757 23.3311C5.19795 23.1774 5.04351 23.0543 4.86699 22.972L3.76299 22.592C2.10299 21.819 1.54599 19.946 2.49999 18.382L3.12199 17.522C3.24443 17.3211 3.30667 17.0893 3.30136 16.8541C3.29604 16.6189 3.22338 16.3902 3.09199 16.195L2.62699 15.538C1.314 13.668 2.22199 11.576 4.16899 10.95L4.59799 10.811C5.07199 10.659 5.52999 10.265 5.56899 9.76903L5.66499 8.56403C5.81999 6.61003 7.60499 5.48603 9.47999 6.05703L10.088 6.24203C10.673 6.47003 11.132 6.27603 11.451 5.92703L12.108 5.08903L12.11 5.09003Z" fill="url(#paint6_radial_1348_429)"/>
<path d="M12.11 5.09003C13.509 3.51403 15.411 3.76503 16.629 5.09003L17.371 5.95003C17.629 6.22903 18.001 6.37403 18.379 6.34203L19.699 5.94903C21.499 5.56303 23.133 6.90603 23.133 8.99103V9.77603C23.172 10.205 23.546 10.496 23.933 10.684L25.126 11.183C26.851 12.025 27.282 14.024 26.026 15.703L25.668 16.173C25.348 16.606 25.414 17.175 25.733 17.609L26.09 18.109C27.389 19.708 26.656 21.902 24.82 22.669L23.794 23.097C23.407 23.259 23.256 23.537 23.184 23.949L23.112 25.291C23.0684 25.6658 22.9507 26.0281 22.7657 26.3569C22.5806 26.6857 22.332 26.9744 22.0342 27.206C21.7364 27.4377 21.3955 27.6078 21.0313 27.7063C20.6671 27.8049 20.287 27.8299 19.913 27.78L18.35 27.362C17.974 27.309 17.507 27.433 17.257 27.826L16.693 28.597C15.293 30.175 13.405 29.913 12.452 28.99L11.412 27.73C11.139 27.466 10.795 27.24 10.384 27.396L8.81099 27.826C7.51099 28.01 5.98099 27.011 5.73599 25.722L5.55499 23.856C5.51856 23.6647 5.43718 23.4848 5.31757 23.3311C5.19795 23.1774 5.04351 23.0543 4.86699 22.972L3.76299 22.592C2.10299 21.819 1.54599 19.946 2.49999 18.382L3.12199 17.522C3.24443 17.3211 3.30667 17.0893 3.30136 16.8541C3.29604 16.6189 3.22338 16.3902 3.09199 16.195L2.62699 15.538C1.314 13.668 2.22199 11.576 4.16899 10.95L4.59799 10.811C5.07199 10.659 5.52999 10.265 5.56899 9.76903L5.66499 8.56403C5.81999 6.61003 7.60499 5.48603 9.47999 6.05703L10.088 6.24203C10.673 6.47003 11.132 6.27603 11.451 5.92703L12.108 5.08903L12.11 5.09003Z" fill="url(#paint7_radial_1348_429)"/>
<path d="M12.11 5.09003C13.509 3.51403 15.411 3.76503 16.629 5.09003L17.371 5.95003C17.629 6.22903 18.001 6.37403 18.379 6.34203L19.699 5.94903C21.499 5.56303 23.133 6.90603 23.133 8.99103V9.77603C23.172 10.205 23.546 10.496 23.933 10.684L25.126 11.183C26.851 12.025 27.282 14.024 26.026 15.703L25.668 16.173C25.348 16.606 25.414 17.175 25.733 17.609L26.09 18.109C27.389 19.708 26.656 21.902 24.82 22.669L23.794 23.097C23.407 23.259 23.256 23.537 23.184 23.949L23.112 25.291C23.0684 25.6658 22.9507 26.0281 22.7657 26.3569C22.5806 26.6857 22.332 26.9744 22.0342 27.206C21.7364 27.4377 21.3955 27.6078 21.0313 27.7063C20.6671 27.8049 20.287 27.8299 19.913 27.78L18.35 27.362C17.974 27.309 17.507 27.433 17.257 27.826L16.693 28.597C15.293 30.175 13.405 29.913 12.452 28.99L11.412 27.73C11.139 27.466 10.795 27.24 10.384 27.396L8.81099 27.826C7.51099 28.01 5.98099 27.011 5.73599 25.722L5.55499 23.856C5.51856 23.6647 5.43718 23.4848 5.31757 23.3311C5.19795 23.1774 5.04351 23.0543 4.86699 22.972L3.76299 22.592C2.10299 21.819 1.54599 19.946 2.49999 18.382L3.12199 17.522C3.24443 17.3211 3.30667 17.0893 3.30136 16.8541C3.29604 16.6189 3.22338 16.3902 3.09199 16.195L2.62699 15.538C1.314 13.668 2.22199 11.576 4.16899 10.95L4.59799 10.811C5.07199 10.659 5.52999 10.265 5.56899 9.76903L5.66499 8.56403C5.81999 6.61003 7.60499 5.48603 9.47999 6.05703L10.088 6.24203C10.673 6.47003 11.132 6.27603 11.451 5.92703L12.108 5.08903L12.11 5.09003Z" fill="url(#paint8_radial_1348_429)"/>
<path d="M12.11 5.09003C13.509 3.51403 15.411 3.76503 16.629 5.09003L17.371 5.95003C17.629 6.22903 18.001 6.37403 18.379 6.34203L19.699 5.94903C21.499 5.56303 23.133 6.90603 23.133 8.99103V9.77603C23.172 10.205 23.546 10.496 23.933 10.684L25.126 11.183C26.851 12.025 27.282 14.024 26.026 15.703L25.668 16.173C25.348 16.606 25.414 17.175 25.733 17.609L26.09 18.109C27.389 19.708 26.656 21.902 24.82 22.669L23.794 23.097C23.407 23.259 23.256 23.537 23.184 23.949L23.112 25.291C23.0684 25.6658 22.9507 26.0281 22.7657 26.3569C22.5806 26.6857 22.332 26.9744 22.0342 27.206C21.7364 27.4377 21.3955 27.6078 21.0313 27.7063C20.6671 27.8049 20.287 27.8299 19.913 27.78L18.35 27.362C17.974 27.309 17.507 27.433 17.257 27.826L16.693 28.597C15.293 30.175 13.405 29.913 12.452 28.99L11.412 27.73C11.139 27.466 10.795 27.24 10.384 27.396L8.81099 27.826C7.51099 28.01 5.98099 27.011 5.73599 25.722L5.55499 23.856C5.51856 23.6647 5.43718 23.4848 5.31757 23.3311C5.19795 23.1774 5.04351 23.0543 4.86699 22.972L3.76299 22.592C2.10299 21.819 1.54599 19.946 2.49999 18.382L3.12199 17.522C3.24443 17.3211 3.30667 17.0893 3.30136 16.8541C3.29604 16.6189 3.22338 16.3902 3.09199 16.195L2.62699 15.538C1.314 13.668 2.22199 11.576 4.16899 10.95L4.59799 10.811C5.07199 10.659 5.52999 10.265 5.56899 9.76903L5.66499 8.56403C5.81999 6.61003 7.60499 5.48603 9.47999 6.05703L10.088 6.24203C10.673 6.47003 11.132 6.27603 11.451 5.92703L12.108 5.08903L12.11 5.09003Z" fill="url(#paint9_radial_1348_429)"/>
<g filter="url(#filter0_i_1348_429)">
<path d="M14.38 26.66C19.802 26.66 24.198 22.265 24.198 16.843C24.198 11.42 19.802 7.02405 14.379 7.02405C8.95704 7.02405 4.56104 11.42 4.56104 16.843C4.56104 22.265 8.95704 26.661 14.379 26.661L14.38 26.66Z" fill="url(#paint10_radial_1348_429)"/>
<path d="M14.38 26.66C19.802 26.66 24.198 22.265 24.198 16.843C24.198 11.42 19.802 7.02405 14.379 7.02405C8.95704 7.02405 4.56104 11.42 4.56104 16.843C4.56104 22.265 8.95704 26.661 14.379 26.661L14.38 26.66Z" fill="url(#paint11_radial_1348_429)"/>
<path d="M14.38 26.66C19.802 26.66 24.198 22.265 24.198 16.843C24.198 11.42 19.802 7.02405 14.379 7.02405C8.95704 7.02405 4.56104 11.42 4.56104 16.843C4.56104 22.265 8.95704 26.661 14.379 26.661L14.38 26.66Z" fill="url(#paint12_radial_1348_429)"/>
</g>
<path d="M16.6899 24.852C17.4938 24.852 18.2648 24.5327 18.8332 23.9643C19.4016 23.3959 19.7209 22.6249 19.7209 21.821C19.7209 21.0172 19.4016 20.2462 18.8332 19.6778C18.2648 19.1094 17.4938 18.79 16.6899 18.79C15.8861 18.79 15.1151 19.1094 14.5467 19.6778C13.9783 20.2462 13.6589 21.0172 13.6589 21.821C13.6589 22.6249 13.9783 23.3959 14.5467 23.9643C15.1151 24.5327 15.8861 24.852 16.6899 24.852Z" fill="url(#paint13_radial_1348_429)"/>
<path d="M16.6899 24.852C17.4938 24.852 18.2648 24.5327 18.8332 23.9643C19.4016 23.3959 19.7209 22.6249 19.7209 21.821C19.7209 21.0172 19.4016 20.2462 18.8332 19.6778C18.2648 19.1094 17.4938 18.79 16.6899 18.79C15.8861 18.79 15.1151 19.1094 14.5467 19.6778C13.9783 20.2462 13.6589 21.0172 13.6589 21.821C13.6589 22.6249 13.9783 23.3959 14.5467 23.9643C15.1151 24.5327 15.8861 24.852 16.6899 24.852Z" fill="url(#paint14_radial_1348_429)"/>
<g filter="url(#filter1_i_1348_429)">
<path d="M27.967 18.786C25.299 16.186 21.029 16.23 18.427 18.899C17.7766 19.563 17.2709 20.3547 16.942 21.224C16.9271 21.2615 16.9041 21.2953 16.8747 21.3229C16.8453 21.3505 16.8101 21.3713 16.7717 21.3838C16.7334 21.3963 16.6927 21.4002 16.6527 21.3952C16.6126 21.3902 16.5742 21.3765 16.54 21.355C16.3275 21.2197 16.104 21.1023 15.872 21.004C14.8792 20.5477 13.7614 20.4397 12.6995 20.6976C11.6377 20.9555 10.6939 21.564 10.0209 22.4249C9.34787 23.2858 8.98502 24.3485 8.99104 25.4412C8.99706 26.5339 9.37159 27.5926 10.054 28.446C10.5091 29.0451 11.0969 29.5306 11.7711 29.8644C12.4453 30.1982 13.1877 30.3713 13.94 30.37H23.48C24.4849 30.3709 25.4753 30.1311 26.3685 29.6708C27.2617 29.2105 28.0317 28.5429 28.614 27.724C30.658 25.048 30.44 21.199 27.967 18.786Z" fill="#D5D4DA"/>
<path d="M27.967 18.786C25.299 16.186 21.029 16.23 18.427 18.899C17.7766 19.563 17.2709 20.3547 16.942 21.224C16.9271 21.2615 16.9041 21.2953 16.8747 21.3229C16.8453 21.3505 16.8101 21.3713 16.7717 21.3838C16.7334 21.3963 16.6927 21.4002 16.6527 21.3952C16.6126 21.3902 16.5742 21.3765 16.54 21.355C16.3275 21.2197 16.104 21.1023 15.872 21.004C14.8792 20.5477 13.7614 20.4397 12.6995 20.6976C11.6377 20.9555 10.6939 21.564 10.0209 22.4249C9.34787 23.2858 8.98502 24.3485 8.99104 25.4412C8.99706 26.5339 9.37159 27.5926 10.054 28.446C10.5091 29.0451 11.0969 29.5306 11.7711 29.8644C12.4453 30.1982 13.1877 30.3713 13.94 30.37H23.48C24.4849 30.3709 25.4753 30.1311 26.3685 29.6708C27.2617 29.2105 28.0317 28.5429 28.614 27.724C30.658 25.048 30.44 21.199 27.967 18.786Z" fill="url(#paint15_linear_1348_429)"/>
</g>
<path d="M27.967 18.786C25.299 16.186 21.029 16.23 18.427 18.899C17.7766 19.563 17.2709 20.3547 16.942 21.224C16.9271 21.2615 16.9041 21.2953 16.8747 21.3229C16.8453 21.3505 16.8101 21.3713 16.7717 21.3838C16.7334 21.3963 16.6927 21.4002 16.6527 21.3952C16.6126 21.3902 16.5742 21.3765 16.54 21.355C16.3275 21.2197 16.104 21.1023 15.872 21.004C14.8792 20.5477 13.7614 20.4397 12.6995 20.6976C11.6377 20.9555 10.6939 21.564 10.0209 22.4249C9.34787 23.2858 8.98502 24.3485 8.99104 25.4412C8.99706 26.5339 9.37159 27.5926 10.054 28.446C10.5091 29.0451 11.0969 29.5306 11.7711 29.8644C12.4453 30.1982 13.1877 30.3713 13.94 30.37H23.48C24.4849 30.3709 25.4753 30.1311 26.3685 29.6708C27.2617 29.2105 28.0317 28.5429 28.614 27.724C30.658 25.048 30.44 21.199 27.967 18.786Z" fill="url(#paint16_radial_1348_429)"/>
<path d="M27.967 18.786C25.299 16.186 21.029 16.23 18.427 18.899C17.7766 19.563 17.2709 20.3547 16.942 21.224C16.9271 21.2615 16.9041 21.2953 16.8747 21.3229C16.8453 21.3505 16.8101 21.3713 16.7717 21.3838C16.7334 21.3963 16.6927 21.4002 16.6527 21.3952C16.6126 21.3902 16.5742 21.3765 16.54 21.355C16.3275 21.2197 16.104 21.1023 15.872 21.004C14.8792 20.5477 13.7614 20.4397 12.6995 20.6976C11.6377 20.9555 10.6939 21.564 10.0209 22.4249C9.34787 23.2858 8.98502 24.3485 8.99104 25.4412C8.99706 26.5339 9.37159 27.5926 10.054 28.446C10.5091 29.0451 11.0969 29.5306 11.7711 29.8644C12.4453 30.1982 13.1877 30.3713 13.94 30.37H23.48C24.4849 30.3709 25.4753 30.1311 26.3685 29.6708C27.2617 29.2105 28.0317 28.5429 28.614 27.724C30.658 25.048 30.44 21.199 27.967 18.786Z" fill="url(#paint17_radial_1348_429)"/>
<path d="M27.967 18.786C25.299 16.186 21.029 16.23 18.427 18.899C17.7766 19.563 17.2709 20.3547 16.942 21.224C16.9271 21.2615 16.9041 21.2953 16.8747 21.3229C16.8453 21.3505 16.8101 21.3713 16.7717 21.3838C16.7334 21.3963 16.6927 21.4002 16.6527 21.3952C16.6126 21.3902 16.5742 21.3765 16.54 21.355C16.3275 21.2197 16.104 21.1023 15.872 21.004C14.8792 20.5477 13.7614 20.4397 12.6995 20.6976C11.6377 20.9555 10.6939 21.564 10.0209 22.4249C9.34787 23.2858 8.98502 24.3485 8.99104 25.4412C8.99706 26.5339 9.37159 27.5926 10.054 28.446C10.5091 29.0451 11.0969 29.5306 11.7711 29.8644C12.4453 30.1982 13.1877 30.3713 13.94 30.37H23.48C24.4849 30.3709 25.4753 30.1311 26.3685 29.6708C27.2617 29.2105 28.0317 28.5429 28.614 27.724C30.658 25.048 30.44 21.199 27.967 18.786Z" fill="url(#paint18_radial_1348_429)"/>
<path d="M27.967 18.786C25.299 16.186 21.029 16.23 18.427 18.899C17.7766 19.563 17.2709 20.3547 16.942 21.224C16.9271 21.2615 16.9041 21.2953 16.8747 21.3229C16.8453 21.3505 16.8101 21.3713 16.7717 21.3838C16.7334 21.3963 16.6927 21.4002 16.6527 21.3952C16.6126 21.3902 16.5742 21.3765 16.54 21.355C16.3275 21.2197 16.104 21.1023 15.872 21.004C14.8792 20.5477 13.7614 20.4397 12.6995 20.6976C11.6377 20.9555 10.6939 21.564 10.0209 22.4249C9.34787 23.2858 8.98502 24.3485 8.99104 25.4412C8.99706 26.5339 9.37159 27.5926 10.054 28.446C10.5091 29.0451 11.0969 29.5306 11.7711 29.8644C12.4453 30.1982 13.1877 30.3713 13.94 30.37H23.48C24.4849 30.3709 25.4753 30.1311 26.3685 29.6708C27.2617 29.2105 28.0317 28.5429 28.614 27.724C30.658 25.048 30.44 21.199 27.967 18.786Z" fill="url(#paint19_radial_1348_429)"/>
<defs>
<filter id="filter0_i_1348_429" x="4.26104" y="7.02405" width="19.937" height="19.937" filterUnits="userSpaceOnUse" color-interpolation-filters="sRGB">
<feFlood flood-opacity="0" result="BackgroundImageFix"/>
<feBlend mode="normal" in="SourceGraphic" in2="BackgroundImageFix" result="shape"/>
<feColorMatrix in="SourceAlpha" type="matrix" values="0 0 0 0 0 0 0 0 0 0 0 0 0 0 0 0 0 0 127 0" result="hardAlpha"/>
<feOffset dx="-0.3" dy="0.3"/>
<feGaussianBlur stdDeviation="0.15"/>
<feComposite in2="hardAlpha" operator="arithmetic" k2="-1" k3="1"/>
<feColorMatrix type="matrix" values="0 0 0 0 0.921569 0 0 0 0 0.47451 0 0 0 0 0.133333 0 0 0 1 0"/>
<feBlend mode="normal" in2="shape" result="effect1_innerShadow_1348_429"/>
</filter>
<filter id="filter1_i_1348_429" x="8.99097" y="15.8662" width="21.0089" height="14.5038" filterUnits="userSpaceOnUse" color-interpolation-filters="sRGB">
<feFlood flood-opacity="0" result="BackgroundImageFix"/>
<feBlend mode="normal" in="SourceGraphic" in2="BackgroundImageFix" result="shape"/>
<feColorMatrix in="SourceAlpha" type="matrix" values="0 0 0 0 0 0 0 0 0 0 0 0 0 0 0 0 0 0 127 0" result="hardAlpha"/>
<feOffset dy="-1"/>
<feGaussianBlur stdDeviation="1"/>
<feComposite in2="hardAlpha" operator="arithmetic" k2="-1" k3="1"/>
<feColorMatrix type="matrix" values="0 0 0 0 0.815686 0 0 0 0 0.784314 0 0 0 0 0.956863 0 0 0 1 0"/>
<feBlend mode="normal" in2="shape" result="effect1_innerShadow_1348_429"/>
</filter>
<linearGradient id="paint0_linear_1348_429" x1="22.005" y1="8.32103" x2="7.976" y2="26.22" gradientUnits="userSpaceOnUse">
<stop stop-color="#FC8B23"/>
<stop offset="1" stop-color="#E67639"/>
</linearGradient>
<radialGradient id="paint1_radial_1348_429" cx="0" cy="0" r="1" gradientUnits="userSpaceOnUse" gradientTransform="translate(16.741 5.18703) rotate(138.155) scale(3.4534 3.04696)">
<stop offset="0.3" stop-color="#FFA13A"/>
<stop offset="1" stop-color="#FFA13A" stop-opacity="0"/>
</radialGradient>
<radialGradient id="paint2_radial_1348_429" cx="0" cy="0" r="1" gradientUnits="userSpaceOnUse" gradientTransform="translate(7.75556 4.09692) rotate(67.811) scale(5.49009 4.84396)">
<stop offset="0.3" stop-color="#FF942A"/>
<stop offset="1" stop-color="#FF942A" stop-opacity="0"/>
</radialGradient>
<radialGradient id="paint3_radial_1348_429" cx="0" cy="0" r="1" gradientUnits="userSpaceOnUse" gradientTransform="translate(22.5 9.21803) rotate(-164.745) scale(2.18897 3.03092)">
<stop offset="0.3" stop-color="#FFA13D"/>
<stop offset="1" stop-color="#FFA13D" stop-opacity="0"/>
</radialGradient>
<radialGradient id="paint4_radial_1348_429" cx="0" cy="0" r="1" gradientUnits="userSpaceOnUse" gradientTransform="translate(26.916 12.4062) rotate(154.195) scale(3.88115 2.86651)">
<stop offset="0.3" stop-color="#FFA13D"/>
<stop offset="1" stop-color="#FFA13D" stop-opacity="0"/>
</radialGradient>
<radialGradient id="paint5_radial_1348_429" cx="0" cy="0" r="1" gradientUnits="userSpaceOnUse" gradientTransform="translate(27.761 18.971) rotate(-173.379) scale(4.32935 2.43974)">
<stop offset="0.3" stop-color="#FFA13D"/>
<stop offset="1" stop-color="#FFA13D" stop-opacity="0"/>
</radialGradient>
<radialGradient id="paint6_radial_1348_429" cx="0" cy="0" r="1" gradientUnits="userSpaceOnUse" gradientTransform="translate(23.8834 24.0011) rotate(-43.964) scale(3.92708 3.78328)">
<stop stop-color="#E0762A"/>
<stop offset="1" stop-color="#E0762A" stop-opacity="0"/>
</radialGradient>
<radialGradient id="paint7_radial_1348_429" cx="0" cy="0" r="1" gradientUnits="userSpaceOnUse" gradientTransform="translate(5.683 23.08) rotate(-127.747) scale(3.01069 2.90045)">
<stop stop-color="#E0762A"/>
<stop offset="1" stop-color="#E0762A" stop-opacity="0"/>
</radialGradient>
<radialGradient id="paint8_radial_1348_429" cx="0" cy="0" r="1" gradientUnits="userSpaceOnUse" gradientTransform="translate(1.574 12.905) rotate(25.2776) scale(3.05734 3.69523)">
<stop stop-color="#F0851D"/>
<stop offset="1" stop-color="#F0851D" stop-opacity="0"/>
</radialGradient>
<radialGradient id="paint9_radial_1348_429" cx="0" cy="0" r="1" gradientUnits="userSpaceOnUse" gradientTransform="translate(19.824 28.362) rotate(-142.487) scale(3.56453 3.36283)">
<stop offset="0.337" stop-color="#E3745B"/>
<stop offset="1" stop-color="#E3745B" stop-opacity="0"/>
</radialGradient>
<radialGradient id="paint10_radial_1348_429" cx="0" cy="0" r="1" gradientUnits="userSpaceOnUse" gradientTransform="translate(19.9509 11.1544) rotate(117.739) scale(17.5199 21.6353)">
<stop offset="0.172" stop-color="#FFD13D"/>
<stop offset="1" stop-color="#D89A29"/>
</radialGradient>
<radialGradient id="paint11_radial_1348_429" cx="0" cy="0" r="1" gradientUnits="userSpaceOnUse" gradientTransform="translate(10.89 22.496) rotate(-140.631) scale(6.11177 5.16011)">
<stop offset="0.341" stop-color="#DCA225"/>
<stop offset="1" stop-color="#DCA225" stop-opacity="0"/>
</radialGradient>
<radialGradient id="paint12_radial_1348_429" cx="0" cy="0" r="1" gradientUnits="userSpaceOnUse" gradientTransform="translate(22.3979 15.165) rotate(168.299) scale(20.9088 17.6531)">
<stop offset="0.62" stop-color="#DCA225" stop-opacity="0"/>
<stop offset="1" stop-color="#DCA225"/>
</radialGradient>
<radialGradient id="paint13_radial_1348_429" cx="0" cy="0" r="1" gradientUnits="userSpaceOnUse" gradientTransform="translate(17.7828 20.6954) rotate(-172.463) scale(4.15963 4.15963)">
<stop offset="0.309" stop-color="#E8E8E9"/>
<stop offset="1" stop-color="#D2D2D2"/>
</radialGradient>
<radialGradient id="paint14_radial_1348_429" cx="0" cy="0" r="1" gradientUnits="userSpaceOnUse" gradientTransform="translate(17.0149 21.564) rotate(-141.242) scale(2.25813 2.06896)">
<stop stop-color="#CDCDCE"/>
<stop offset="1" stop-color="#CDCDCE" stop-opacity="0"/>
</radialGradient>
<linearGradient id="paint15_linear_1348_429" x1="21.643" y1="29.644" x2="21.643" y2="24.008" gradientUnits="userSpaceOnUse">
<stop stop-color="#DED7FA"/>
<stop offset="1" stop-color="#DED7FA" stop-opacity="0"/>
</linearGradient>
<radialGradient id="paint16_radial_1348_429" cx="0" cy="0" r="1" gradientUnits="userSpaceOnUse" gradientTransform="translate(27.2803 21.4063) rotate(136.5) scale(8.36814 8.97651)">
<stop offset="0.179" stop-color="#FCFBFE"/>
<stop offset="1" stop-color="#FCFBFE" stop-opacity="0"/>
</radialGradient>
<radialGradient id="paint17_radial_1348_429" cx="0" cy="0" r="1" gradientUnits="userSpaceOnUse" gradientTransform="translate(13.9885 24.6147) rotate(144.444) scale(5.1338 5.37944)">
<stop stop-color="#FCFBFE"/>
<stop offset="1" stop-color="#FCFBFE" stop-opacity="0"/>
</radialGradient>
<radialGradient id="paint18_radial_1348_429" cx="0" cy="0" r="1" gradientUnits="userSpaceOnUse" gradientTransform="translate(26.409 23.218) rotate(166.654) scale(17.8988 14.0959)">
<stop offset="0.815" stop-color="#CECCD7" stop-opacity="0"/>
<stop offset="1" stop-color="#CECCD7"/>
</radialGradient>
<radialGradient id="paint19_radial_1348_429" cx="0" cy="0" r="1" gradientUnits="userSpaceOnUse" gradientTransform="translate(11.728 31.1342) rotate(-46.79) scale(4.8491 6.69189)">
<stop stop-color="#D0C9EE"/>
<stop offset="1" stop-color="#D0C9EE" stop-opacity="0"/>
</radialGradient>
</defs>
</svg>
