<svg width="36" height="71" viewBox="0 0 36 71" fill="none" xmlns="http://www.w3.org/2000/svg">
<path d="M34.8554 0.598825C34.8554 0.598825 6.34258 -0.820981 0.580078 18.0174V55.7289C0.580078 55.7289 22.7426 38.2525 34.8554 44.0818V0.598825Z" fill="#EDEBFF"/>
<path d="M0.580413 56.306C0.496644 56.322 0.410631 56.322 0.326862 56.306C0.229877 56.2584 0.1482 56.1845 0.0911426 56.0927C0.0340855 56.0008 0.00394731 55.8948 0.00416345 55.7866V18.0175C-0.00138782 17.9637 -0.00138782 17.9096 0.00416345 17.8559C5.83581 -1.19032 34.5792 -0.00137605 34.8673 0.0217102C35.0161 0.0276763 35.1568 0.0911051 35.2599 0.198703C35.3631 0.306301 35.4206 0.449713 35.4205 0.598867V44.0819C35.4211 44.1815 35.3959 44.2795 35.3474 44.3665C35.299 44.4535 35.2288 44.5264 35.1439 44.5782C35.0598 44.6268 34.9644 44.6525 34.8673 44.6525C34.7702 44.6525 34.6748 44.6268 34.5907 44.5782C22.9389 38.9452 1.16819 55.9828 0.914639 56.1214C0.830725 56.2232 0.711213 56.2893 0.580413 56.306ZM1.15666 18.1098V54.563C5.46701 51.3425 23.1925 38.8759 34.291 43.2046V1.15294C30.3495 1.07214 6.34291 1.41843 1.15666 18.1098Z" fill="#DFDDED"/>
<path d="M0.580078 18.0175C0.580078 18.0175 2.53933 33.4045 12.1051 36.7058V70.1809C12.1051 70.1809 4.90195 66.9373 0.580078 55.7635V18.0175Z" fill="#EDEBFF"/>
<path d="M12.1054 70.7235C12.0255 70.74 11.9432 70.74 11.8633 70.7235C11.5637 70.585 4.39514 67.2605 0.0502179 55.9829C0.0340419 55.9146 0.0340419 55.8434 0.0502179 55.7751V18.0175C0.0500964 17.8714 0.106419 17.731 0.207391 17.6255C0.308362 17.5201 0.446151 17.4579 0.591894 17.4519C0.664611 17.4439 0.73818 17.4505 0.808357 17.4711C0.878534 17.4918 0.943921 17.5262 1.00073 17.5724C1.05754 17.6186 1.10464 17.6756 1.13931 17.7401C1.17398 17.8046 1.19553 17.8754 1.20272 17.9483C1.20272 18.0983 3.21959 33.0236 12.3359 36.1633C12.4485 36.2032 12.5463 36.2764 12.6163 36.3734C12.6863 36.4703 12.7252 36.5863 12.7277 36.7059V70.181C12.7276 70.2775 12.7032 70.3725 12.6569 70.4572C12.6106 70.5419 12.5438 70.6136 12.4626 70.6658C12.3543 70.7274 12.2275 70.7478 12.1054 70.7235V70.7235ZM1.15662 55.6251C4.48734 64.1554 9.55834 67.9647 11.5291 69.1652V37.0983C5.55917 34.7897 2.57419 28.0947 1.15662 23.2466V55.6251Z" fill="#DFDDED"/>
</svg>
