<svg width="61" height="87" viewBox="0 0 61 87" fill="none" xmlns="http://www.w3.org/2000/svg">
<path d="M60.4024 0.578369C53.7179 7.95443 36.6264 22.0832 1.54427 22.5911L0.576172 85.1896C0.576172 85.1896 34.1139 90.3494 60.4024 66.986V0.578369Z" fill="#EDEBFF"/>
<path d="M8.62098 86.2169C5.90158 86.2422 3.18348 86.0879 0.48433 85.7552C0.346925 85.7354 0.221621 85.6656 0.132334 85.5591C0.0430463 85.4527 -0.00398297 85.317 0.000264525 85.178L0.96836 22.5796C0.971309 22.4305 1.03177 22.2883 1.13704 22.1829C1.24232 22.0775 1.38426 22.0169 1.53311 22.014C35.5895 21.5176 52.7733 8.16221 59.9764 0.197447C60.0532 0.109336 60.155 0.0466943 60.2682 0.0178337C60.3814 -0.0110269 60.5007 -0.0047423 60.6102 0.0358434C60.7185 0.079387 60.8115 0.154232 60.8772 0.250851C60.9428 0.347469 60.9783 0.461479 60.979 0.578363V66.986C60.9796 67.0673 60.9624 67.1476 60.9285 67.2214C60.8947 67.2952 60.8451 67.3607 60.7831 67.4131C42.4123 83.7467 20.2958 86.2169 8.62098 86.2169ZM1.15276 84.6817C5.39396 85.178 35.8084 87.9137 59.8265 66.7205V2.07898C52.0126 10.1592 34.7597 22.5796 2.10936 23.1914L1.15276 84.6817Z" fill="#DFDDED"/>
<path d="M9.23166 77.825C9.08274 77.8251 8.93954 77.7675 8.83211 77.6642C8.72468 77.5609 8.66136 77.42 8.65541 77.2709C8.65216 77.1186 8.70799 76.971 8.81115 76.8591C8.91431 76.7471 9.05679 76.6796 9.20862 76.6707C20.6129 76.4555 31.8229 73.6742 42.0088 68.5328C45.8274 66.6089 49.3673 64.1741 52.5311 61.2952V18.4586C52.5311 18.3056 52.5918 18.1588 52.6998 18.0505C52.8079 17.9423 52.9545 17.8815 53.1073 17.8815C53.2602 17.8815 53.4067 17.9423 53.5148 18.0505C53.6229 18.1588 53.6836 18.3056 53.6836 18.4586V61.5376C53.6838 61.6105 53.6696 61.6826 53.6419 61.7499C53.6142 61.8173 53.5736 61.8785 53.5222 61.9301C53.3724 62.0801 38.92 76.8207 9.25469 77.825H9.23166Z" fill="#EDEBFF"/>
<path d="M12.9083 37.6665C12.7555 37.6665 12.6089 37.6057 12.5008 37.4974C12.3928 37.3892 12.332 37.2424 12.332 37.0893C12.332 36.9362 12.3928 36.7894 12.5008 36.6812C12.6089 36.573 12.7555 36.5121 12.9083 36.5121C12.989 36.5121 21.6558 35.9119 26.3119 32.7029C26.3736 32.6595 26.4433 32.6289 26.5171 32.6129C26.5908 32.5969 26.667 32.5959 26.7411 32.6099C26.8152 32.6239 26.8858 32.6526 26.9486 32.6943C27.0115 32.7361 27.0654 32.79 27.1071 32.853C27.1928 32.9774 27.2263 33.1306 27.2004 33.2795C27.1745 33.4285 27.0914 33.5613 26.9688 33.6495C22.0476 37.0431 13.3462 37.6434 12.9774 37.6665H12.9083Z" fill="#EDEBFF"/>
<path d="M12.9078 32.2758C12.7578 32.273 12.6146 32.2128 12.5075 32.1077C12.4003 32.0025 12.3374 31.8603 12.3315 31.7102C12.3284 31.634 12.3407 31.558 12.3677 31.4867C12.3947 31.4154 12.4358 31.3502 12.4886 31.2953C12.5413 31.2403 12.6046 31.1965 12.6747 31.1667C12.7447 31.1368 12.8201 31.1214 12.8962 31.1215C12.9769 31.1215 21.0905 30.8445 26.2768 27.3007C26.3396 27.2583 26.4101 27.2287 26.4844 27.2135C26.5586 27.1984 26.6351 27.198 26.7095 27.2125C26.7839 27.227 26.8547 27.256 26.9179 27.2978C26.981 27.3397 27.0354 27.3937 27.0777 27.4566C27.1201 27.5195 27.1497 27.5901 27.1648 27.6645C27.1799 27.7389 27.1803 27.8155 27.1658 27.89C27.1514 27.9645 27.1224 28.0354 27.0806 28.0987C27.0388 28.1619 26.985 28.2164 26.9222 28.2588C21.4593 31.9988 13.2651 32.2643 12.9193 32.2758H12.9078Z" fill="#EDEBFF"/>
<path d="M10.7756 70.3104C10.6325 70.309 10.4958 70.2509 10.3953 70.1488C10.3402 70.097 10.2962 70.0344 10.2662 69.9649C10.2362 69.8954 10.2207 69.8205 10.2207 69.7448C10.2207 69.6691 10.2362 69.5942 10.2662 69.5247C10.2962 69.4552 10.3402 69.3926 10.3953 69.3408C10.4991 69.2138 21.5285 57.209 26.15 49.7175C26.1952 49.6417 26.2571 49.5773 26.331 49.5293C26.405 49.4813 26.4889 49.4509 26.5764 49.4404C26.6629 49.434 26.7498 49.4462 26.8313 49.476C26.9128 49.5059 26.987 49.5528 27.0489 49.6136L35.9923 58.8481C37.675 55.5237 44.6937 41.4179 46.1228 33.0953L41.9854 35.5887C41.9203 35.6281 41.8481 35.6543 41.7729 35.6657C41.6977 35.6772 41.621 35.6737 41.5472 35.6555C41.4733 35.6373 41.4038 35.6047 41.3425 35.5595C41.2812 35.5144 41.2295 35.4576 41.1901 35.3924C41.1508 35.3272 41.1246 35.2549 41.1132 35.1796C41.1017 35.1043 41.1052 35.0275 41.1234 34.9535C41.1416 34.8796 41.1742 34.8099 41.2192 34.7486C41.2643 34.6872 41.321 34.6354 41.386 34.596L46.5608 31.4793C46.6536 31.4256 46.759 31.3973 46.8662 31.3973C46.9734 31.3973 47.0788 31.4256 47.1716 31.4793C47.2615 31.5392 47.3336 31.6223 47.3803 31.7198C47.4269 31.8173 47.4464 31.9257 47.4367 32.0334C46.3994 41.3602 37.0642 59.3214 36.6377 60.0832C36.5968 60.1645 36.5364 60.2344 36.462 60.2867C36.3877 60.3391 36.3015 60.3722 36.2113 60.3833C36.1219 60.3955 36.0309 60.3873 35.9451 60.3593C35.8593 60.3313 35.7809 60.2843 35.7158 60.2217L26.7378 50.8949C21.8512 58.5018 11.3519 69.941 11.2366 70.068C11.1829 70.1405 11.1136 70.2 11.0338 70.242C10.954 70.284 10.8657 70.3073 10.7756 70.3104V70.3104Z" fill="#6D5DE7"/>
<path d="M48.5545 37.6664C48.4327 37.6679 48.3136 37.6308 48.2142 37.5603C48.1148 37.4898 48.0403 37.3895 48.0013 37.2739L46.2841 32.2065C46.2489 32.1329 46.2297 32.0528 46.2277 31.9712C46.2257 31.8897 46.241 31.8087 46.2726 31.7335C46.3041 31.6583 46.3513 31.5907 46.4108 31.5351C46.4704 31.4794 46.541 31.4371 46.6181 31.4108C46.6952 31.3845 46.777 31.3749 46.858 31.3826C46.9391 31.3902 47.0176 31.415 47.0884 31.4553C47.1592 31.4956 47.2207 31.5504 47.2688 31.6163C47.3169 31.6821 47.3505 31.7574 47.3674 31.8371L49.0962 36.9046C49.1444 37.0501 49.134 37.2086 49.0673 37.3466C49.0006 37.4846 48.8828 37.591 48.7389 37.6433L48.5545 37.6664Z" fill="#EDEBFF"/>
</svg>
