<svg width="169" height="284" viewBox="0 0 169 284" fill="none" xmlns="http://www.w3.org/2000/svg">
<path d="M62.0579 27.7059C62.0579 29.7039 60.6865 31.1862 59.1515 31.1862C57.6166 31.1862 56.2451 29.7039 56.2451 27.7059C56.2451 25.7078 57.6166 24.2255 59.1515 24.2255C60.6865 24.2255 62.0579 25.7078 62.0579 27.7059Z" stroke="#271A8A"/>
<path d="M130.845 54.8377C130.499 54.8377 114.71 99.6251 114.71 99.6251H157.537L166.503 52.8062L130.845 54.8377Z" fill="#EDEBFF"/>
<path d="M157.538 100.202H114.757C114.666 100.202 114.577 100.18 114.497 100.137C114.417 100.095 114.348 100.034 114.296 99.9599C114.24 99.8845 114.204 99.7968 114.19 99.7043C114.176 99.6118 114.185 99.5173 114.215 99.4289C129.901 54.7916 130.27 54.2721 130.823 54.2721L166.481 52.2405C166.568 52.2364 166.654 52.2519 166.734 52.2859C166.814 52.3198 166.885 52.3714 166.942 52.4368C166.998 52.5035 167.039 52.581 167.062 52.6645C167.086 52.748 167.092 52.8356 167.08 52.9216L158.114 99.729C158.092 99.8645 158.021 99.9872 157.915 100.074C157.809 100.161 157.675 100.207 157.538 100.202V100.202ZM115.575 99.0479H157.065L165.801 53.4295L131.226 55.3918C130.016 58.1852 121.441 82.3681 115.575 99.0479Z" fill="#DFDDED"/>
<path d="M123.285 85.3462C123.197 85.3476 123.109 85.3285 123.029 85.2905C122.949 85.2524 122.879 85.1965 122.824 85.1269C122.767 85.0504 122.729 84.9612 122.713 84.8668C122.697 84.7725 122.703 84.6756 122.732 84.5844L127.942 68.9319C127.973 68.827 128.034 68.7338 128.118 68.664C128.203 68.5941 128.305 68.5508 128.414 68.5394L135.052 67.7314C135.147 67.7176 135.243 67.7284 135.332 67.7628C135.421 67.7972 135.499 67.854 135.56 67.9276C135.623 68.0011 135.666 68.0893 135.687 68.1841C135.707 68.2789 135.703 68.3773 135.675 68.4702L130.846 84.4805C130.812 84.5936 130.744 84.6934 130.651 84.7658C130.558 84.8382 130.445 84.8797 130.327 84.8845L123.32 85.3462H123.285ZM128.921 69.636L124.092 84.1342L129.855 83.7648L134.315 68.9896L128.921 69.636Z" fill="#EDEBFF"/>
<path d="M153.17 95.2387H130.846C130.756 95.2406 130.667 95.2206 130.587 95.1804C130.506 95.1401 130.437 95.0809 130.385 95.0079C130.328 94.9376 130.29 94.8543 130.274 94.7656C130.258 94.6769 130.264 94.5856 130.292 94.5L141.207 57.8851C141.243 57.7737 141.312 57.6758 141.404 57.6038C141.497 57.5318 141.608 57.4891 141.725 57.4811L162.47 55.9805C162.56 55.9751 162.649 55.9911 162.732 56.0272C162.814 56.0633 162.886 56.1186 162.943 56.1883C163.004 56.2559 163.048 56.3377 163.07 56.4263C163.092 56.5149 163.092 56.6076 163.07 56.6962L153.757 94.7886C153.726 94.9197 153.65 95.036 153.543 95.1179C153.436 95.1999 153.304 95.2425 153.17 95.2387V95.2387ZM131.618 94.0844H152.72L161.733 57.1464L142.198 58.5547L131.618 94.0844Z" fill="#EDEBFF"/>
<path d="M99.1514 80.8213C99.1514 80.8213 104.107 76.6542 106.401 74.7611C108.694 72.8681 110.907 67.6736 112.981 67.6967C115.056 67.7198 111.345 73.8954 111.345 73.8954C111.345 73.8954 119.055 67.9738 121.452 67.8006C123.849 67.6275 125.198 71.6791 124.599 72.9373C123.999 74.1955 117.465 77.266 115.044 79.6901C112.624 82.1141 104.672 87.5394 104.672 87.5394" fill="#EDEBFF"/>
<path d="M104.718 88.0589C104.593 88.0611 104.47 88.0223 104.369 87.9485C104.267 87.8747 104.193 87.7699 104.156 87.6498C104.12 87.5298 104.123 87.4011 104.167 87.2833C104.21 87.1655 104.29 87.0649 104.395 86.9969C104.476 86.9969 112.29 81.5832 114.641 79.2168C116.385 77.713 118.277 76.3904 120.288 75.2691C121.657 74.5557 122.928 73.6672 124.068 72.6257C124.156 72.0655 124.132 71.4933 123.998 70.9424C123.863 70.3916 123.621 69.873 123.285 69.4167C123.122 69.0784 122.869 68.7917 122.553 68.588C122.238 68.3844 121.873 68.2717 121.498 68.2624C119.862 68.3778 114.745 71.8985 111.702 74.2302C111.598 74.3166 111.468 74.3639 111.333 74.3639C111.198 74.3639 111.068 74.3166 110.964 74.2302C110.863 74.1412 110.798 74.019 110.779 73.8857C110.76 73.7524 110.789 73.6167 110.861 73.503C112.255 71.1943 113.281 68.6433 113.004 68.1816C112.036 68.1816 110.699 70.04 109.547 71.6445C108.75 72.9095 107.801 74.0724 106.723 75.1075C104.418 77.0005 99.4855 81.1676 99.4855 81.1676L98.7363 80.2903C98.7363 80.2903 103.704 76.1117 105.986 74.2186C106.982 73.2529 107.86 72.1718 108.602 70.9981C110.031 68.955 111.391 67.0273 112.924 67.0273C113.132 67.0202 113.339 67.0702 113.522 67.1719C113.705 67.2735 113.856 67.4231 113.961 67.6044C114.422 68.4586 113.8 70.2016 113.05 71.7599C115.574 69.9477 119.597 67.2466 121.36 67.1427C121.931 67.1316 122.495 67.2747 122.991 67.557C123.488 67.8393 123.9 68.2504 124.184 68.7472C124.639 69.3641 124.953 70.0737 125.104 70.8256C125.256 71.5775 125.24 72.3536 125.059 73.0989C124.702 73.8377 123.296 74.7265 120.841 76.2271C118.93 77.3168 117.131 78.5928 115.471 80.0364C113.039 82.472 105.386 87.7356 105.098 87.955C104.989 88.0362 104.853 88.0733 104.718 88.0589V88.0589Z" fill="#271A8A"/>
<path d="M102.321 47.6348C104.743 45.9316 107.349 44.5067 110.089 43.3869C113.235 42.348 117.223 41.6439 116.324 40.3049C115.425 38.9659 107.957 40.9051 107.957 40.9051C107.957 40.9051 112.313 34.2216 114.757 32.8942C117.2 31.5667 120.704 31.6706 118.975 30.4009C117.246 29.1311 112.06 28.9349 110.204 29.8699C108.349 30.8049 97.9071 42.3018 97.377 42.9136C96.8468 43.5254 102.321 47.6348 102.321 47.6348Z" fill="#EDEBFF"/>
<path d="M102.321 48.2119C102.196 48.2128 102.074 48.1722 101.975 48.0965C99.6701 46.365 96.8696 44.0795 96.7659 43.1099C96.7526 43.0069 96.7611 42.9023 96.7909 42.8028C96.8207 42.7034 96.871 42.6114 96.9387 42.5327C97.0425 42.4173 107.922 30.3893 109.939 29.362C111.956 28.3347 117.35 28.4963 119.32 29.9392C119.539 30.1008 120.115 30.5279 120 31.0935C119.885 31.6591 119.055 32.0169 117.811 32.3517C116.845 32.5761 115.909 32.9131 115.021 33.3559C113.466 34.1986 110.826 37.7077 109.259 39.9355C111.944 39.3353 115.943 38.6773 116.785 39.9355C116.898 40.0875 116.971 40.2649 116.999 40.4521C117.027 40.6393 117.009 40.8306 116.946 41.009C116.6 41.9786 115.045 42.475 112.336 43.3177C111.645 43.5139 110.93 43.7217 110.25 43.941C107.57 45.0525 105.02 46.4536 102.644 48.1196C102.547 48.1805 102.435 48.2126 102.321 48.2119V48.2119ZM97.9875 43.0983C99.3058 44.5208 100.766 45.8049 102.344 46.9307C104.7 45.2803 107.236 43.9054 109.904 42.8328C110.596 42.6135 111.322 42.3942 112.036 42.198C113.408 41.794 115.713 41.1245 115.874 40.6627C115.425 40.1087 111.806 40.5011 108.106 41.4592C107.994 41.4883 107.876 41.483 107.767 41.4438C107.658 41.4047 107.564 41.3337 107.496 41.2399C107.43 41.1427 107.395 41.0281 107.395 40.9109C107.395 40.7937 107.43 40.6791 107.496 40.5819C107.68 40.3049 111.956 33.7599 114.503 32.3863C115.466 31.8877 116.483 31.5004 117.534 31.232C117.926 31.1281 118.433 30.9896 118.686 30.8742L118.629 30.8164C117.038 29.6621 112.06 29.5121 110.458 30.3316C108.856 31.1512 99.5664 41.3207 97.9875 43.0983Z" fill="#271A8A"/>
<path d="M48.8684 57.1925C48.8684 57.1925 76.1481 61.0825 80.2741 60.0436L96.4091 41.9209L105.871 48.0965C105.871 48.0965 100.892 62.9871 94.0695 71.5868C87.2467 80.1864 42.6104 82.0448 42.6104 82.0448L48.8684 57.1925Z" fill="#6D5DE7"/>
<path d="M107.991 215.033C107.991 215.033 104.845 221.844 105.56 224.556C106.274 227.269 118.456 245.276 120.219 243.245C121.983 241.213 119.321 223.621 119.321 223.621L107.991 215.033Z" fill="#271A8A"/>
<path d="M119.851 243.984H119.528C116.151 243.187 105.583 226.934 105.006 224.741C104.269 221.901 107.139 215.507 107.473 214.826C107.509 214.749 107.562 214.681 107.628 214.627C107.694 214.573 107.771 214.535 107.853 214.514C107.936 214.492 108.022 214.488 108.106 214.504C108.19 214.52 108.269 214.555 108.337 214.606L119.666 223.148C119.726 223.192 119.776 223.247 119.814 223.31C119.851 223.374 119.876 223.444 119.885 223.518C120.335 226.507 122.49 241.536 120.646 243.66C120.545 243.769 120.421 243.854 120.284 243.91C120.147 243.966 119.999 243.991 119.851 243.984V243.984ZM108.222 215.876C107.265 218.092 105.629 222.513 106.113 224.372C106.92 227.431 117.903 242.783 119.828 242.783C120.842 241.629 119.828 231.055 118.767 223.841L108.222 215.876Z" fill="#271A8A"/>
<path d="M114.411 200.893L107.991 215.033L119.32 223.575L127.814 207.034L114.411 200.893Z" fill="#EDEBFF"/>
<path d="M119.32 224.152C119.196 224.149 119.075 224.109 118.974 224.037L107.645 215.495C107.54 215.415 107.465 215.303 107.431 215.175C107.398 215.047 107.408 214.912 107.461 214.791L113.88 200.651C113.95 200.512 114.069 200.404 114.214 200.351C114.355 200.293 114.512 200.293 114.652 200.351L128.056 206.491C128.128 206.524 128.192 206.57 128.245 206.627C128.299 206.685 128.34 206.752 128.367 206.826C128.424 206.971 128.424 207.132 128.367 207.276L119.873 223.818C119.836 223.895 119.782 223.963 119.713 224.015C119.645 224.067 119.566 224.102 119.481 224.118L119.32 224.152ZM108.706 214.849L119.078 222.698L126.996 207.3L114.664 201.655L108.706 214.849Z" fill="#271A8A"/>
<path d="M80.7811 121.026C80.7811 121.026 128.16 133.066 137.461 140.649C146.762 148.233 139.616 202.775 128.345 212.817L110.619 203.479C110.619 203.479 120.07 161.693 116.601 158.253C113.132 154.813 74.039 149.769 74.039 149.769L48.4766 121.13L80.7811 121.026Z" fill="#271A8A"/>
<path d="M128.344 213.394C128.251 213.395 128.16 213.371 128.079 213.325L110.354 203.987C110.241 203.929 110.151 203.835 110.096 203.72C110.042 203.605 110.027 203.476 110.054 203.352C113.684 187.318 118.559 161 116.197 158.657C113.454 155.944 84.7797 151.731 73.9693 150.334C73.8309 150.321 73.703 150.255 73.612 150.149L48.0495 121.511C47.9746 121.43 47.9248 121.329 47.9064 121.221C47.888 121.112 47.9017 121 47.9458 120.899C47.992 120.797 48.0664 120.71 48.1604 120.648C48.2543 120.587 48.3638 120.554 48.4759 120.553L80.7459 120.449H80.8958C82.832 120.945 128.506 132.615 137.806 140.188C141.264 142.993 142.14 151.119 142.278 157.445C142.704 176.86 136.746 206.064 128.701 213.233C128.607 213.33 128.48 213.388 128.344 213.394V213.394ZM111.276 203.179L128.252 212.136C135.928 204.714 141.563 176.422 141.148 157.502C140.964 148.903 139.523 143.074 137.103 141.1C128.171 133.816 82.7859 122.146 80.7114 121.603L49.7552 121.719L74.3265 149.238C79.2362 149.872 113.512 154.432 116.969 157.86C117.983 158.865 118.94 162.478 115.436 182.262C113.788 191.786 111.737 201.089 111.276 203.179Z" fill="#271A8A"/>
<path d="M76.2055 238.281L74.7188 251.313L87.281 257.339L90.1392 239.355L76.2055 238.281Z" fill="#EDEBFF"/>
<path d="M87.2804 257.916C87.1966 257.932 87.1106 257.932 87.0269 257.916L74.4646 251.891C74.3573 251.837 74.2689 251.752 74.2112 251.647C74.1535 251.542 74.1294 251.421 74.1419 251.302L75.6286 238.27C75.6343 238.195 75.6551 238.122 75.6899 238.055C75.7246 237.988 75.7726 237.929 75.8308 237.882C75.8891 237.834 75.9563 237.799 76.0286 237.779C76.1008 237.758 76.1765 237.752 76.251 237.762L90.1847 238.835C90.2637 238.841 90.3406 238.863 90.4102 238.901C90.4798 238.939 90.5404 238.991 90.5881 239.055C90.6401 239.116 90.6775 239.188 90.6975 239.266C90.7174 239.344 90.7194 239.426 90.7033 239.505L87.8106 257.431C87.7977 257.52 87.7638 257.604 87.7116 257.676C87.6594 257.748 87.5906 257.807 87.5109 257.847C87.4404 257.887 87.3615 257.911 87.2804 257.916V257.916ZM75.329 250.99L86.854 256.508L89.4932 239.897L76.735 238.916L75.329 250.99Z" fill="#271A8A"/>
<path d="M34.4268 133.227C34.4268 133.227 77.4496 164.763 78.0258 179.504C78.6021 194.244 72.9203 240.821 72.9203 240.821L94.5412 246.004C94.5412 246.004 110.158 184.109 104.914 168.33C99.6698 152.55 69.3706 119.629 69.3706 119.629L34.4268 133.227Z" fill="#271A8A"/>
<path d="M94.542 246.581H94.4037L72.8289 241.375C72.6914 241.344 72.5703 241.263 72.4893 241.148C72.4083 241.033 72.3732 240.891 72.3909 240.751C72.3909 240.29 78.0612 194.036 77.485 179.515C76.9318 165.225 34.5428 134.001 34.1164 133.689C34.0354 133.625 33.9719 133.542 33.9316 133.447C33.8913 133.352 33.8756 133.249 33.8859 133.146C33.9023 133.044 33.9449 132.948 34.0096 132.867C34.0742 132.786 34.1586 132.723 34.2547 132.685L69.187 119.098C69.294 119.053 69.4123 119.043 69.5257 119.067C69.6392 119.092 69.7422 119.151 69.8208 119.237C71.054 120.587 100.189 152.435 105.445 168.145C110.7 183.855 95.7751 243.614 95.0721 246.142C95.0426 246.263 94.975 246.37 94.8795 246.449C94.784 246.528 94.6657 246.574 94.542 246.581ZM73.5549 240.382L94.1155 245.311C95.6484 239.135 109.236 183.174 104.327 168.515C99.417 153.855 72.195 123.589 69.1985 120.31L35.6031 133.377C41.8036 137.994 78.0612 165.606 78.6029 179.48C79.1446 193.355 74.1658 235.257 73.5549 240.382Z" fill="#271A8A"/>
<path d="M34.0584 42.3827C32.3691 42.1695 30.7581 41.5432 29.3677 40.5588C26.7515 38.6427 25.4031 35.4683 24.2391 32.4786C23.3231 30.4496 22.8066 28.2626 22.7178 26.0376C22.7984 22.1129 25.4031 18.7308 28.0769 15.8681C30.0822 13.721 32.3642 10.9853 31.4076 8.20342C31.1203 7.6269 30.9147 7.01304 30.7968 6.3796C30.7276 4.79819 32.8482 3.87474 34.3234 4.47498C35.7301 5.24695 36.8409 6.46504 37.4813 7.93793C37.9916 7.40265 38.3635 6.75044 38.5643 6.03818C38.7652 5.32592 38.7891 4.57526 38.6338 3.85165C38.507 3.26295 38.265 2.62808 38.5646 2.12018C38.826 1.77306 39.209 1.53797 39.6365 1.46222C41.6525 1.01491 43.7631 1.36584 45.5267 2.44158C47.2903 3.51732 48.5702 5.23449 49.0985 7.23379C49.4813 6.5814 49.7205 5.85459 49.8 5.10206C49.8795 4.34954 49.7975 3.58868 49.5595 2.87049C53.043 4.07745 55.9914 6.4738 57.8879 9.63958C59.7844 12.8054 60.508 16.5386 59.932 20.1852C59.5694 22.8717 58.8685 25.5014 57.846 28.0114C57.3457 28.8574 56.6697 29.5857 55.8637 30.1469C50.493 34.6372 48.0728 40.3049 40.812 41.9556C38.6038 42.4973 36.3171 42.6419 34.0584 42.3827V42.3827Z" fill="#EDEBFF"/>
<path d="M36.1441 43.0984C35.4196 43.1001 34.6958 43.0538 33.9774 42.9598C32.1937 42.7361 30.4942 42.0695 29.0332 41.0206C26.3248 39.0352 24.9187 35.7916 23.7086 32.6403C22.746 30.5466 22.2055 28.2832 22.1182 25.9799C22.2104 21.8013 24.9533 18.3037 27.6386 15.4295C29.7708 13.1208 31.6493 10.6852 30.8426 8.35352C30.7734 8.16883 30.7043 7.99567 30.6236 7.82253C30.3913 7.36484 30.2466 6.8676 30.1972 6.35655C30.1872 5.94986 30.2815 5.54739 30.4712 5.18765C30.6609 4.82791 30.9396 4.52293 31.2805 4.30187C31.7456 3.97819 32.2816 3.77144 32.8433 3.6991C33.405 3.62677 33.9759 3.69099 34.5075 3.88632C35.803 4.51942 36.8585 5.55633 37.5156 6.84136C38.048 5.9631 38.2253 4.91426 38.0111 3.90941L37.942 3.65546C37.8233 3.35041 37.7672 3.02452 37.7771 2.69727C37.787 2.37002 37.8627 2.04813 37.9996 1.75084C38.3372 1.26992 38.8509 0.942142 39.4287 0.83893C40.4973 0.580144 41.6069 0.538751 42.6917 0.717199C43.7765 0.895647 44.8146 1.29031 45.7444 1.87781C47.1842 2.73595 48.3389 4.00089 49.0636 5.5139C49.2632 4.67328 49.2233 3.79343 48.9484 2.97441C48.9142 2.87198 48.9095 2.76201 48.9347 2.657C48.9598 2.552 49.0139 2.45617 49.0907 2.38042C49.1676 2.30467 49.2641 2.25202 49.3693 2.22847C49.4745 2.20492 49.5842 2.21141 49.686 2.24719C51.8817 3.03123 53.8863 4.2732 55.5671 5.89098C57.2479 7.50876 58.5666 9.46549 59.4361 11.6318C60.5107 14.3426 60.8371 17.293 60.3812 20.1737C60.0596 22.9429 59.3817 25.6589 58.3643 28.2539C57.8642 29.126 57.1845 29.8815 56.3705 30.4702L56.2322 30.5856C54.6426 31.9719 53.1486 33.4643 51.7605 35.0528C48.8216 38.2849 45.998 41.3438 40.9385 42.5097C39.3664 42.8794 37.7588 43.0768 36.1441 43.0984V43.0984ZM33.3435 4.82131C32.8554 4.82084 32.3781 4.96547 31.972 5.23687C31.7888 5.34948 31.6374 5.50732 31.5325 5.69528C31.4276 5.88324 31.3726 6.09503 31.3727 6.31038C31.42 6.67785 31.5332 7.03373 31.707 7.3608C31.7876 7.56858 31.8798 7.76481 31.949 7.97259C33.1015 11.2855 30.105 14.4945 28.4915 16.2144C25.956 18.927 23.3629 22.2168 23.2822 26.003C23.3685 28.1541 23.8735 30.2676 24.7689 32.2247C25.9214 35.3414 27.2468 38.2964 29.7016 40.0971C31.0119 41.0286 32.5326 41.6196 34.1272 41.8171V41.8171C36.321 42.0691 38.5422 41.9245 40.6849 41.39C45.4448 40.3049 48.107 37.3845 50.9191 34.2794C52.3488 32.6368 53.8891 31.0941 55.5291 29.6621L55.6674 29.5467C56.3489 29.0591 56.9252 28.4388 57.3616 27.7229C58.3042 25.2231 58.9427 22.6187 59.2632 19.9659C59.6835 17.2878 59.3811 14.5459 58.3873 12.0242C56.8866 8.29848 53.9915 5.30769 50.3198 3.69009C50.4875 4.98592 50.2112 6.30039 49.5361 7.41852C49.4758 7.51487 49.3884 7.59123 49.2848 7.63798C49.1813 7.68473 49.0663 7.6998 48.9543 7.6813C48.8422 7.6628 48.7381 7.61156 48.655 7.534C48.572 7.45644 48.5136 7.35603 48.4874 7.24537C47.9923 5.40189 46.8072 3.82033 45.1781 2.82933C43.5491 1.83833 41.6014 1.51408 39.7399 1.92399C39.4594 1.95756 39.2011 2.09311 39.0138 2.30491C38.8755 2.53577 39.0138 2.9167 39.083 3.33225L39.1521 3.60928C39.3366 4.42308 39.3186 5.26983 39.0995 6.07498C38.8805 6.88014 38.4671 7.61901 37.8959 8.22654C37.8372 8.29504 37.7617 8.34704 37.6768 8.3774C37.5919 8.40776 37.5006 8.41544 37.4118 8.39968C37.3221 8.39185 37.2355 8.36262 37.1593 8.31443C37.0831 8.26623 37.0195 8.20048 36.9739 8.12265C36.3988 6.76698 35.389 5.6419 34.1042 4.9252C33.8593 4.84348 33.6013 4.80824 33.3435 4.82131V4.82131Z" fill="#271A8A"/>
<path d="M58.8023 30.8511C58.8023 30.8511 62.8245 38.2733 61.7412 39.6469C60.6578 41.0206 57.5576 39.7739 57.5576 39.7739" fill="#EDEBFF"/>
<path d="M60.036 40.8705C59.1125 40.8379 58.2009 40.6507 57.3392 40.3164C57.199 40.2577 57.0877 40.1459 57.0294 40.0054C56.9712 39.8649 56.9706 39.707 57.028 39.5661C57.0547 39.496 57.0951 39.4319 57.1468 39.3776C57.1986 39.3233 57.2605 39.2799 57.3292 39.2498C57.3978 39.2197 57.4718 39.2036 57.5467 39.2024C57.6216 39.2012 57.696 39.215 57.7656 39.2429C58.4686 39.52 60.6238 40.1317 61.2922 39.2429C61.7417 38.6658 60.3472 34.8565 58.2957 31.0819C58.2576 31.0157 58.2333 30.9423 58.2243 30.8664C58.2153 30.7904 58.2218 30.7134 58.2434 30.6401C58.2649 30.5667 58.3011 30.4985 58.3497 30.4395C58.3983 30.3805 58.4584 30.3321 58.5262 30.297C58.6613 30.2262 58.8185 30.2107 58.9647 30.2538C59.1109 30.2969 59.2347 30.3951 59.3099 30.5279C60.5662 32.8365 63.3898 38.4464 62.1912 39.9586C61.9267 40.267 61.5945 40.5098 61.2205 40.668C60.8466 40.8263 60.4412 40.8956 60.036 40.8705V40.8705Z" fill="#271A8A"/>
<path d="M58.6063 21.4896C61.3493 24.1561 60.0585 29.1773 59.7588 32.4902C59.3209 37.1536 58.7754 41.8017 58.1223 46.4343C57.7074 49.3778 50.0548 48.743 48.787 47.7849L48.6257 57.6196C48.6257 57.6196 46.3207 62.8602 40.4429 59.4781C34.5652 56.0959 33.4473 51.9635 33.4473 51.9635L35.1184 38.5273C35.1184 38.5273 40.1548 39.0005 43.6584 33.229C47.162 27.4574 47.842 18.2229 47.842 18.2229C47.842 18.2229 55.9325 18.8809 58.6063 21.4896Z" fill="#EDEBFF"/>
<path d="M44.1661 61.198C42.7536 61.1425 41.3797 60.7209 40.1785 59.9745C34.1279 56.5115 32.9408 52.3329 32.8947 52.1597C32.8775 52.0876 32.8775 52.0125 32.8947 51.9404L34.5658 38.4927C34.5886 38.3469 34.6651 38.2149 34.7804 38.123C34.8957 38.0311 35.0412 37.9859 35.1882 37.9963C35.3841 37.9963 39.9365 38.3426 43.2557 32.9751C46.644 27.3997 47.3355 18.2922 47.347 18.1998C47.3529 18.124 47.3736 18.05 47.4081 17.9822C47.4426 17.9143 47.4901 17.854 47.5479 17.8047C47.6058 17.7553 47.6728 17.7179 47.7451 17.6946C47.8174 17.6713 47.8937 17.6625 47.9694 17.6689C48.3036 17.6689 56.2904 18.3499 59.091 21.1318C61.5804 23.5443 61.0387 27.5729 60.6123 30.8165C60.5316 31.4398 60.451 32.0516 60.3933 32.6057C59.9669 37.2229 59.4137 41.9556 58.7683 46.5729C58.6728 47.064 58.4436 47.519 58.1059 47.8878C57.7683 48.2565 57.3354 48.5245 56.8552 48.6622C54.4362 49.4055 51.8539 49.4295 49.4215 48.7314L49.3063 57.6889C49.317 57.7616 49.317 57.8355 49.3063 57.9082C48.6342 59.3314 47.4355 60.4367 45.964 60.9903C45.3805 61.1594 44.7728 61.2296 44.1661 61.198ZM34.0357 51.9635C34.2546 52.5868 35.6376 56.0613 40.7547 58.9817C41.4329 59.4506 42.2027 59.7702 43.0132 59.9194C43.8237 60.0687 44.6566 60.0441 45.4569 59.8475C46.5822 59.4254 47.5133 58.6037 48.0731 57.5389L48.1999 47.8311C48.2042 47.724 48.2375 47.62 48.2964 47.5305C48.3553 47.441 48.4375 47.3693 48.5341 47.3232C48.6239 47.2669 48.7278 47.237 48.8338 47.237C48.9397 47.237 49.0436 47.2669 49.1334 47.3232C49.8249 47.8773 54.0431 48.4775 56.3481 47.531C57.0741 47.2424 57.5006 46.8384 57.5006 46.3766C58.146 41.7594 58.6531 37.1421 59.1256 32.4556C59.1256 31.89 59.2639 31.3013 59.3446 30.6318C59.7364 27.6421 60.232 23.9368 58.1921 21.9167C56.1521 19.8967 50.2052 19.1002 48.3497 18.8924C48.1423 21.051 47.1972 28.554 44.1431 33.5984C41.089 38.6427 37.0898 39.1275 35.6146 39.1737L34.0357 51.9635Z" fill="#271A8A"/>
<path d="M60.287 35.098L58.5838 32.8235L55.7451 39.647H59.7193L60.8547 38.5098L60.287 35.098Z" fill="#EDEBFF"/>
<path d="M58.2951 42.9483C58.2951 42.9483 54.5033 44.8645 52.9014 40.9629Z" fill="#EDEBFF"/>
<path d="M56.2323 43.9987C55.7408 44.0014 55.2528 43.9154 54.7917 43.7448C54.2299 43.5118 53.7231 43.1634 53.3043 42.722C52.8854 42.2805 52.5637 41.756 52.3599 41.1822C52.3028 41.0382 52.3046 40.8775 52.365 40.7349C52.4254 40.5923 52.5395 40.4793 52.6826 40.4203C52.753 40.3922 52.8282 40.3783 52.9039 40.3793C52.9797 40.3804 53.0545 40.3963 53.1241 40.4264C53.1937 40.4564 53.2566 40.4998 53.3094 40.5543C53.3622 40.6087 53.4038 40.673 53.4317 40.7436C53.5755 41.1687 53.8067 41.5589 54.1104 41.889C54.4142 42.219 54.7837 42.4816 55.195 42.6597C56.1401 42.9352 57.1533 42.853 58.0417 42.4289C58.1098 42.3954 58.1838 42.3757 58.2595 42.3709C58.3352 42.3661 58.4111 42.3764 58.4828 42.401C58.5546 42.4257 58.6208 42.4643 58.6776 42.5146C58.7344 42.565 58.7807 42.626 58.8139 42.6943C58.8792 42.8312 58.8893 42.9879 58.8421 43.132C58.7948 43.2761 58.6939 43.3963 58.5603 43.4677C57.8298 43.8056 57.0368 43.9865 56.2323 43.9987Z" fill="#271A8A"/>
<path d="M49.6173 33.0674C49.585 31.8881 49.2259 30.7411 48.58 29.7545C48.1979 28.9147 47.6929 28.1367 47.0818 27.4459C46.7709 27.1135 46.391 26.8533 45.9688 26.6838C45.5467 26.5143 45.0926 26.4395 44.6385 26.4647C44.2387 26.5277 43.857 26.6757 43.5191 26.8986C43.1811 27.1216 42.8948 27.4145 42.6792 27.7576C42.2445 28.4557 41.9799 29.2466 41.9071 30.0662C41.6818 31.8074 41.9178 33.5772 42.5915 35.1981C43.2651 36.819 44.3527 38.2339 45.7449 39.3007L45.5144 39.0006" fill="#EDEBFF"/>
<path d="M45.7451 39.9125C45.6237 39.9144 45.5054 39.8735 45.4109 39.797C43.9347 38.6608 42.7812 37.1572 42.0655 35.4358C41.3497 33.7144 41.0965 31.8352 41.3311 29.9854C41.4328 29.0954 41.732 28.2395 42.207 27.4805C42.4637 27.0772 42.801 26.7316 43.1978 26.4654C43.5945 26.1992 44.0419 26.0181 44.512 25.9337C45.0537 25.8905 45.5981 25.9721 46.1035 26.1722C46.6089 26.3723 47.0619 26.6856 47.4278 27.088C48.0842 27.7993 48.6248 28.6095 49.0298 29.489C49.7295 30.5692 50.1091 31.826 50.1246 33.1136C50.1074 33.2625 50.0352 33.3996 49.9221 33.4978C49.8091 33.5961 49.6634 33.6484 49.5138 33.6445C49.4386 33.6402 49.3649 33.6208 49.2973 33.5875C49.2297 33.5542 49.1693 33.5076 49.1199 33.4506C49.0705 33.3936 49.033 33.3273 49.0096 33.2555C48.9862 33.1837 48.9774 33.108 48.9837 33.0328C48.9454 31.9617 48.6102 30.9225 48.0156 30.0315C47.656 29.2569 47.182 28.5409 46.6095 27.9076C46.3661 27.6315 46.0633 27.4143 45.7239 27.2723C45.3845 27.1304 45.0175 27.0674 44.6503 27.088C44.3349 27.1442 44.0347 27.2656 43.7688 27.4445C43.5029 27.6234 43.2771 27.8558 43.1059 28.1269C42.7262 28.7394 42.4898 29.43 42.4144 30.147C42.2147 31.7548 42.4274 33.387 43.0323 34.8896C43.6373 36.3923 44.6146 37.7157 45.8719 38.7351H45.9295L46.1716 39.0352C46.2392 39.1208 46.2811 39.224 46.2926 39.3325C46.304 39.4411 46.2844 39.5507 46.2362 39.6486C46.1879 39.7466 46.1129 39.8287 46.0199 39.8856C45.9268 39.9426 45.8196 39.9719 45.7106 39.9702L45.7451 39.9125Z" fill="#271A8A"/>
<path d="M48.7762 47.7849C48.7762 47.7849 44.9269 46.2035 43.3134 43.3292C43.3134 43.3292 42.9676 50.4513 48.8684 53.0255L48.7762 47.7849Z" fill="#271A8A"/>
<path d="M48.868 53.6026C48.7882 53.6191 48.7058 53.6191 48.626 53.6026C42.4371 50.9015 42.7367 43.4216 42.7367 43.3408C42.7437 43.2153 42.7914 43.0956 42.8725 42.9997C42.9536 42.9039 43.0638 42.8372 43.1862 42.8098C43.3075 42.7829 43.4342 42.7953 43.5481 42.845C43.662 42.8948 43.7572 42.9794 43.8201 43.0868C45.3068 45.7533 48.9602 47.277 48.9948 47.2885C49.1 47.3318 49.1901 47.4053 49.2537 47.4998C49.3173 47.5943 49.3515 47.7056 49.3521 47.8195L49.4443 53.0716C49.4441 53.1682 49.4197 53.2632 49.3734 53.3479C49.3271 53.4326 49.2603 53.5043 49.1792 53.5564C49.0827 53.6037 48.974 53.6198 48.868 53.6026V53.6026ZM44.016 45.2107C44.1515 46.6147 44.6062 47.9689 45.3454 49.1695C46.0846 50.37 47.0886 51.385 48.2802 52.1366L48.2226 48.212C46.6525 47.4716 45.2277 46.4551 44.016 45.2107V45.2107Z" fill="#271A8A"/>
<path d="M57.4373 29.0897C57.6681 28.1931 57.5698 27.3925 57.2179 27.3017C56.866 27.2108 56.3936 27.8641 56.1629 28.7607C55.9322 29.6574 56.0304 30.4579 56.3823 30.5488C56.7343 30.6396 57.2066 29.9864 57.4373 29.0897Z" fill="#271A8A"/>
<path d="M28.4109 48.5005C28.4109 48.5005 45.4564 49.297 52.3022 58.4738C59.1481 67.6506 64.657 102.753 68.0108 105.062C71.3646 107.37 80.8957 120.368 80.7805 121.026C80.6652 121.684 31.9721 137.186 31.9721 137.186C31.9721 137.186 29.1139 125.932 23.7433 111.353C18.3726 96.7739 14.2121 49.4932 28.4109 48.5005Z" fill="#6D5DE7"/>
<path d="M72.5976 110.279C72.5113 110.277 72.4265 110.257 72.3489 110.219C72.2713 110.181 72.2028 110.127 72.1481 110.06C66.6059 102.672 62.8145 94.1185 61.061 85.0462C58.5486 70.8712 53.8464 62.26 53.8003 62.1792C53.7256 62.046 53.7068 61.8885 53.7478 61.7414C53.7889 61.5943 53.8865 61.4694 54.0193 61.3943C54.0858 61.3577 54.1589 61.3347 54.2344 61.3265C54.3099 61.3183 54.3862 61.3251 54.459 61.3466C54.5318 61.368 54.5997 61.4037 54.6587 61.4515C54.7178 61.4993 54.7668 61.5583 54.803 61.6251C54.803 61.7059 59.6435 70.4672 62.1905 84.8384C63.9112 93.7211 67.6234 102.097 73.047 109.333C73.1426 109.451 73.1877 109.602 73.1726 109.754C73.1575 109.905 73.0834 110.044 72.9664 110.141C72.863 110.228 72.7327 110.277 72.5976 110.279V110.279Z" fill="#271A8A"/>
<path d="M42.3101 62.7795C42.702 63.2643 61.9718 94.0498 61.9718 94.0498L100.292 75.5808L109.651 86.3852C109.651 86.3852 77.3576 110.834 64.7608 114.978C52.164 119.122 23.2708 74.0571 23.5935 69.1051C23.9162 64.1531 36.7781 55.9113 42.3101 62.7795Z" fill="#6D5DE7"/>
<path d="M61.9721 94.6731C61.8739 94.6738 61.7771 94.6499 61.6906 94.6035C61.604 94.5572 61.5304 94.4898 61.4765 94.4076C61.4765 94.4076 44.2812 66.9696 44.0161 66.5771C43.943 66.4488 43.9219 66.2972 43.957 66.1537C43.9922 66.0101 44.0809 65.8856 44.2051 65.8057C44.3292 65.7257 44.4792 65.6966 44.6242 65.7241C44.7691 65.7517 44.898 65.8339 44.9842 65.9538C45.2032 66.2885 59.9091 89.7327 62.1334 93.2879L82.4405 82.6567C82.5752 82.5874 82.7317 82.574 82.8762 82.6193C83.0207 82.6647 83.1416 82.7652 83.2127 82.8991C83.2487 82.9665 83.2711 83.0403 83.2784 83.1164C83.2858 83.1925 83.278 83.2692 83.2555 83.3422C83.2329 83.4153 83.1962 83.4831 83.1473 83.5418C83.0984 83.6004 83.0383 83.6488 82.9706 83.6841L62.2256 94.5577C62.1521 94.6168 62.0649 94.6564 61.9721 94.6731Z" fill="#271A8A"/>
<path d="M63.9077 115.001C55.8402 115.001 47.1734 108.179 38.0226 94.6615C37.9792 94.5997 37.9487 94.5298 37.9327 94.456C37.9168 94.3822 37.9157 94.3059 37.9297 94.2316C37.9436 94.1574 37.9723 94.0867 38.014 94.0237C38.0557 93.9608 38.1096 93.9068 38.1724 93.8651C38.2999 93.7798 38.4555 93.7477 38.6063 93.7758C38.757 93.8038 38.8908 93.8897 38.9792 94.0151C48.9598 108.767 58.2605 115.347 66.6392 113.569C75.0178 111.792 91.7637 98.5631 91.925 98.4708C91.9835 98.4226 92.0511 98.3866 92.1238 98.3651C92.1964 98.3436 92.2727 98.337 92.3479 98.3456C92.4232 98.3542 92.496 98.3779 92.5619 98.4153C92.6279 98.4526 92.6856 98.5029 92.7318 98.5631C92.7799 98.6217 92.8158 98.6894 92.8372 98.7622C92.8587 98.835 92.8653 98.9113 92.8567 98.9867C92.8481 99.0621 92.8245 99.135 92.7872 99.201C92.7498 99.2671 92.6997 99.3249 92.6396 99.3711C91.9481 99.9252 75.5826 112.842 66.8697 114.689C65.8964 114.899 64.9034 115.004 63.9077 115.001V115.001Z" fill="#271A8A"/>
<path d="M49.2137 56.1421L48.3033 58.8894L50.5506 61.8213C50.5506 61.8213 46.0789 84.6767 12.0917 66.4386L1.16602 70.4325L7.65458 79.2861C7.65458 79.2861 48.5453 95.0425 51.7262 62.133L52.3024 58.4623L49.2137 56.1421Z" fill="#271A8A"/>
<path d="M27.7429 83.5917C25.146 83.5783 22.5535 83.3739 19.9866 82.9799C15.7146 82.3224 11.5156 81.2555 7.44737 79.794C7.34261 79.7602 7.25293 79.6908 7.19382 79.5978L0.705237 70.7442C0.651132 70.673 0.614659 70.59 0.598808 70.502C0.582956 70.4139 0.588183 70.3234 0.614055 70.2378C0.639927 70.1521 0.685705 70.0739 0.747636 70.0094C0.809567 69.9449 0.885875 69.8961 0.970307 69.8669L11.9075 65.9307C11.9796 65.8968 12.0583 65.8791 12.138 65.8791C12.2177 65.8791 12.2964 65.8968 12.3685 65.9307C25.1959 72.8566 35.2341 74.6112 42.1837 71.3214C44.0652 70.3906 45.7283 69.0709 47.0633 67.4493C48.3983 65.8277 49.3748 63.941 49.9285 61.9137L47.854 59.1895C47.7967 59.1152 47.7583 59.028 47.7422 58.9355C47.7262 58.8429 47.7329 58.7479 47.7618 58.6585L48.6723 55.9228C48.7012 55.837 48.7496 55.759 48.8135 55.6949C48.8775 55.6308 48.9554 55.5824 49.0411 55.5534C49.1285 55.5255 49.2214 55.5193 49.3118 55.5353C49.4022 55.5514 49.4873 55.5893 49.5597 55.6458L52.6369 57.9544C52.7214 58.0149 52.7876 58.0975 52.8283 58.1932C52.869 58.2889 52.8825 58.394 52.8674 58.4969L52.2911 62.1677C51.4959 70.4672 48.2113 76.4696 42.564 79.9787C38.1384 82.7375 32.7563 83.5917 27.7429 83.5917ZM8.01208 78.7782C9.97133 79.4939 29.9096 86.4891 41.9532 79.0206C47.2893 75.7193 50.3895 70.0054 51.1732 62.0522L51.7034 58.6932L49.5367 57.0771L48.9719 58.774L51.0234 61.4635C51.0736 61.528 51.109 61.6029 51.127 61.6827C51.1449 61.7626 51.1449 61.8454 51.1271 61.9253C50.5867 64.1842 49.5515 66.2944 48.0963 68.1032C46.6412 69.912 44.8027 71.374 42.7139 72.3833C35.4531 75.8463 25.1498 74.0455 12.0689 67.0966L2.09977 70.6865L8.01208 78.7782Z" fill="#271A8A"/>
<path d="M74.7187 251.313C74.7187 251.313 71.653 262.857 72.0679 263.861C72.4828 264.865 91.3838 288.817 93.1587 281.406C94.9335 273.996 87.2809 257.339 87.2809 257.339L74.7187 251.313Z" fill="#271A8A"/>
<path d="M91.6261 283.403C86.1748 283.403 71.9645 265.096 71.5381 264.08C71.1116 263.064 73.0017 255.538 74.1658 251.163C74.1847 251.082 74.2229 251.005 74.2769 250.941C74.331 250.877 74.3996 250.827 74.4769 250.794C74.553 250.76 74.6355 250.742 74.7189 250.742C74.8024 250.742 74.8849 250.76 74.961 250.794L87.5232 256.82C87.6467 256.874 87.7453 256.973 87.7998 257.097C88.1225 257.778 95.51 274.019 93.7121 281.533C93.6624 282.017 93.4448 282.468 93.0974 282.808C92.7499 283.147 92.2945 283.354 91.8105 283.392L91.6261 283.403ZM75.1338 252.133C73.7739 257.339 72.5062 262.926 72.656 263.676C73.4973 265.281 87.6385 282.757 91.8105 282.249C92.0986 282.249 92.4559 282.064 92.6403 281.268C94.2538 274.55 87.7191 259.613 86.8778 257.766L75.1338 252.133Z" fill="#271A8A"/>
<path d="M95.0485 151.685C94.9605 151.686 94.8736 151.665 94.7953 151.625C94.7169 151.585 94.6496 151.526 94.599 151.454L78.2335 130.618C78.1817 130.559 78.1426 130.49 78.1185 130.415C78.0944 130.34 78.0859 130.261 78.0935 130.182C78.1012 130.104 78.1247 130.028 78.1628 129.959C78.2009 129.89 78.2526 129.829 78.3149 129.781C78.3771 129.733 78.4486 129.698 78.5248 129.679C78.6011 129.659 78.6805 129.656 78.7581 129.668C78.8358 129.681 78.9101 129.709 78.9765 129.751C79.0429 129.794 79.0999 129.849 79.144 129.914L95.498 150.75C95.5922 150.869 95.6354 151.021 95.6181 151.173C95.6008 151.324 95.5245 151.462 95.4058 151.558C95.304 151.638 95.1783 151.683 95.0485 151.685V151.685Z" fill="#EDEBFF"/>
<path d="M157.537 99.6251L157.998 71.9909L167.426 27.7806L166.504 52.8062L157.537 99.6251Z" fill="#EDEBFF"/>
<path d="M157.537 100.202H157.48C157.336 100.185 157.204 100.116 157.108 100.007C157.012 99.8985 156.96 99.7584 156.961 99.6136L157.422 71.9793L166.861 27.6536C166.894 27.5142 166.976 27.3916 167.093 27.3087C167.21 27.2258 167.353 27.1884 167.495 27.2035C167.639 27.2208 167.772 27.2924 167.866 27.4037C167.96 27.5151 168.009 27.658 168.002 27.8037L167.08 52.8292L158.113 99.729C158.091 99.8645 158.02 99.9873 157.914 100.074C157.808 100.161 157.674 100.207 157.537 100.202V100.202ZM166.607 34.4064L158.54 72.1524L158.206 93.0224L165.916 52.7369L166.607 34.4064Z" fill="#DFDDED"/>
<path d="M59.7878 28.8431C59.7878 31.4511 57.9238 33.4608 55.746 33.4608C53.5681 33.4608 51.7041 31.4511 51.7041 28.8431C51.7041 26.2351 53.5681 24.2255 55.746 24.2255C57.9238 24.2255 59.7878 26.2351 59.7878 28.8431Z" stroke="#271A8A"/>
</svg>
