<svg width="169" height="183" viewBox="0 0 169 183" fill="none" xmlns="http://www.w3.org/2000/svg">
<rect y="23" width="169" height="160" rx="80" fill="#DFDEEC"/>
<mask id="mask0_145_224" style="mask-type:alpha" maskUnits="userSpaceOnUse" x="0" y="0" width="169" height="183">
<path fill-rule="evenodd" clip-rule="evenodd" d="M117 0H34V37.5395C13.4356 52.017 0 75.9395 0 103C0 147.183 35.8172 183 80 183H89C133.183 183 169 147.183 169 103C169 68.6678 147.373 39.3867 117 28.0369V0Z" fill="#D9D9D9"/>
</mask>
<g mask="url(#mask0_145_224)">
<path d="M59.2474 77.4464C57.0528 103.19 52.0118 128.612 44.2166 153.247C42.0372 160.158 39.6198 167.382 41.0727 174.532C41.1507 175.19 41.4257 175.81 41.8619 176.31C43.5152 177.887 45.9202 175.421 46.8721 173.33C55.1516 154.386 63.3559 135.179 66.9131 114.821C68.6041 105.092 68.9798 94.2742 63.2807 86.2109" fill="#EDEBFF"/>
<path d="M43.0766 177.412C42.4603 177.407 41.8707 177.159 41.4357 176.723C40.8938 176.139 40.5517 175.398 40.4587 174.607C39.0182 167.595 41.2478 160.571 43.4022 153.785L43.6277 153.059C51.4158 128.465 56.4567 103.086 58.6584 77.3838C58.6629 77.2981 58.6851 77.2142 58.7234 77.1374C58.7617 77.0606 58.8155 76.9924 58.8812 76.9372C58.947 76.8821 59.0235 76.841 59.1058 76.8166C59.1882 76.7922 59.2747 76.7849 59.3599 76.7954C59.5293 76.8143 59.6849 76.8977 59.7945 77.0282C59.9041 77.1588 59.9593 77.3264 59.9486 77.4965C57.7477 103.289 52.707 128.76 44.9178 153.447L44.6798 154.173C42.5881 160.809 40.4086 167.67 41.7739 174.344C41.8298 174.874 42.0436 175.376 42.3876 175.784C42.5068 175.919 42.6612 176.019 42.8337 176.072C43.0061 176.125 43.1899 176.129 43.3646 176.084C44.0386 175.798 44.6479 175.379 45.1559 174.852C45.6638 174.325 46.06 173.701 46.3207 173.017C53.9739 155.488 62.604 135.618 66.2991 114.658C68.5036 101.987 67.3888 93.0472 62.7794 86.5239C62.681 86.384 62.6416 86.2111 62.6697 86.0424C62.6978 85.8737 62.7912 85.7229 62.9297 85.6224C62.9992 85.5727 63.0779 85.5375 63.1613 85.5187C63.2446 85.4999 63.3309 85.4981 63.415 85.5133C63.4991 85.5285 63.5793 85.5603 63.6508 85.6071C63.7224 85.6538 63.7838 85.7143 63.8315 85.7852C68.6539 92.609 69.8438 101.849 67.5892 114.883C63.9192 135.993 55.2014 155.939 47.5482 173.53C46.8217 175.195 45.256 177.036 43.6527 177.361C43.4626 177.395 43.2697 177.412 43.0766 177.412Z" fill="#271A8A"/>
<path d="M56.4664 17.9356C57.7262 15.6582 59.5563 13.7469 61.7773 12.3889C63.8194 11.173 66.1709 10.5766 68.5459 10.6722C70.9209 10.7678 73.2169 11.5513 75.1546 12.9273C75.692 12.3378 76.3579 11.8798 77.1007 11.5889C77.8436 11.298 78.6435 11.1818 79.4384 11.2496C84.862 11.4875 88.745 16.1451 91.2501 20.5274C94.1185 25.5357 95.0078 31.3202 97.5129 36.5038C97.9263 37.3802 105.579 47.1338 107.108 45.2056C105.003 47.86 102.811 50.4518 100.544 52.9559C98.5789 55.3243 96.2237 57.3398 93.5798 58.9158C90.445 60.4081 87.0305 61.223 83.5593 61.3072C71.517 62.1485 59.4459 60.141 48.3247 55.4475C48.9932 47.2044 50.338 39.0302 52.3455 31.0072C53.4728 26.3996 54.2869 21.7544 56.4664 17.9356Z" fill="#EDEBFF"/>
<path d="M78.1606 62.1211C67.8337 62.1117 57.6128 60.0386 48.0991 56.0236C47.9788 55.9716 47.8778 55.8833 47.8104 55.771C47.743 55.6587 47.7126 55.5281 47.7233 55.3975C48.3743 47.1244 49.6938 38.9174 51.6689 30.857C51.8818 30.0306 52.0697 29.2043 52.2701 28.3529C52.9552 24.6147 54.1699 20.9932 55.8775 17.5976C57.1973 15.2309 59.1038 13.2433 61.4138 11.8256C63.4794 10.5897 65.8504 9.95791 68.2574 10.0022C70.6643 10.0464 73.0105 10.765 75.0292 12.076C75.6288 11.5527 76.3257 11.1529 77.0802 10.8994C77.8346 10.6459 78.6317 10.5436 79.4257 10.5986C84.0852 10.7989 88.1936 14.0292 91.7509 20.2019C93.2708 23.0658 94.4922 26.0782 95.3959 29.1918C96.1193 31.5819 96.9936 33.9238 98.0137 36.2033C98.6901 37.5556 105.329 45.381 106.544 44.7925C106.651 44.6654 106.803 44.5842 106.968 44.5656C107.134 44.547 107.3 44.5923 107.433 44.6924C107.562 44.7956 107.645 44.9457 107.664 45.1099C107.683 45.2741 107.636 45.4391 107.533 45.5688C105.441 48.2232 103.212 50.84 100.945 53.3567C98.9322 55.7751 96.522 57.8329 93.8176 59.4417C90.6007 60.9805 87.0986 61.8333 83.5341 61.9458C81.7304 62.0585 79.9643 62.1211 78.1606 62.1211ZM48.9508 55.047C59.8685 59.5783 71.6915 61.5073 83.484 60.6813C86.8696 60.5905 90.1999 59.8019 93.2665 58.3649C95.8437 56.8234 98.136 54.8497 100.043 52.5303C101.997 50.3893 103.901 48.1606 105.73 45.8943C102.711 44.6423 97.1996 37.3552 96.9616 36.7668C95.9074 34.4398 95.0037 32.0476 94.256 29.6049C93.3772 26.5719 92.1938 23.6355 90.7238 20.8405C87.417 15.081 83.6218 12.076 79.4507 11.8757C78.7544 11.807 78.0516 11.9026 77.399 12.1549C76.7464 12.4071 76.162 12.809 75.693 13.3281C75.5905 13.4493 75.4464 13.5281 75.289 13.5489C75.1315 13.5698 74.9719 13.5312 74.8413 13.4407C73.0072 12.1278 70.8295 11.3787 68.5756 11.2853C66.3216 11.1919 64.0894 11.7583 62.1528 12.9149C60.0272 14.2303 58.2726 16.0662 57.0549 18.2487C55.4109 21.5405 54.2387 25.0474 53.5728 28.6659C53.3849 29.4923 53.1845 30.3311 52.9715 31.17C51.0021 39.0103 49.6576 46.9943 48.9508 55.047Z" fill="#271A8A"/>
<path d="M102.186 65.5518C102.186 65.5518 124.732 87.0122 126.511 93.0973C128.289 99.1823 123.479 98.1807 123.479 98.1807C123.479 98.1807 136.894 123.81 128.665 138.497C120.436 153.184 99.2422 143.581 98.378 140.763C97.5137 137.946 98.1525 81.7911 99.4551 74.6293C100.758 67.4675 102.186 65.5518 102.186 65.5518Z" fill="#271A8A"/>
<path d="M114.36 147.061C113.452 147.057 112.545 147.007 111.642 146.911C104.765 146.172 98.3269 142.754 97.7508 140.901C96.7237 137.533 97.6255 81.0398 98.8155 74.4665C100.131 67.242 101.609 65.2387 101.671 65.1511C101.727 65.0799 101.797 65.021 101.877 64.978C101.957 64.9349 102.044 64.9086 102.135 64.9007C102.314 64.8932 102.489 64.9561 102.623 65.076C103.55 65.9649 125.37 86.7367 127.123 92.8719C127.787 95.1506 127.637 96.8159 126.698 97.8801C126.124 98.467 125.35 98.8158 124.531 98.8568C126.664 103.292 128.42 107.899 129.779 112.629C132.91 123.735 132.735 132.537 129.228 138.785C125.57 145.371 119.52 147.061 114.36 147.061ZM102.348 66.6411C101.259 69.2404 100.502 71.9662 100.093 74.7545C98.7528 82.1291 98.2518 138.172 98.9908 140.576C99.2914 141.565 104.728 144.92 111.779 145.672C117.003 146.235 124.08 145.384 128.063 138.159C136.029 123.936 123.053 98.7065 122.865 98.4561C122.809 98.347 122.786 98.2246 122.797 98.1028C122.808 97.981 122.853 97.8648 122.927 97.7675C122.998 97.6691 123.097 97.594 123.211 97.5517C123.324 97.5094 123.448 97.5016 123.566 97.5296C123.941 97.6004 124.326 97.5889 124.696 97.496C125.066 97.403 125.411 97.2307 125.708 96.9912C126.309 96.3276 126.359 95.0379 125.846 93.235C124.38 87.9262 105.943 70.0592 102.348 66.6411Z" fill="#271A8A"/>
<path d="M58.5584 117.35C58.5584 117.35 36.7012 193.275 36.7012 203.818C36.7012 214.36 66.6124 255.703 66.6124 255.703L80.6787 250.144C80.6787 250.144 63.5311 209.827 64.8338 206.81C66.1365 203.793 77.7728 172.04 77.7728 172.04C77.7728 172.04 79.6391 212.845 80.6787 218.867C81.7183 224.89 80.6787 256.918 80.6787 256.918C80.6787 256.918 96.4234 261.45 100.72 256.918C100.72 256.918 107.521 141.252 103.037 127.692C98.5528 114.132 98.7657 117.513 98.7657 117.513L58.5584 117.35Z" fill="#271A8A"/>
<path d="M93.5553 259.597C89.1305 259.451 84.7396 258.77 80.4786 257.569C80.3386 257.532 80.2153 257.449 80.1288 257.333C80.0423 257.217 79.9978 257.075 80.0026 256.93C80.0026 256.843 80.0777 254.526 80.1654 251.058L66.8256 256.329C66.6913 256.382 66.5434 256.388 66.4051 256.347C66.2668 256.306 66.146 256.221 66.0615 256.104C64.809 254.414 36 214.46 36 203.818C36 193.175 56.993 120.267 57.8823 117.175C57.9186 117.037 58 116.915 58.1135 116.829C58.227 116.743 58.366 116.697 58.5086 116.699L98.2399 116.887C98.2921 116.796 98.3624 116.717 98.4464 116.654C98.5305 116.592 98.6264 116.547 98.7284 116.523C99.4299 116.386 99.981 116.298 103.638 127.504C108.11 141.039 101.622 252.26 101.346 256.993C101.339 257.143 101.277 257.286 101.171 257.394C99.6302 259.046 96.7619 259.597 93.5553 259.597ZM81.3428 256.467C85.8896 257.719 96.7118 259.785 100.131 256.667C100.482 250.645 106.77 140.901 102.474 127.917C101.479 124.6 100.282 121.347 98.8913 118.176H98.8161L59.0347 117.976C57.2059 124.386 37.3403 193.889 37.3403 203.793C37.3403 213.471 63.7443 250.595 66.8507 254.914L79.8272 249.781C76.4328 241.805 62.9301 209.577 64.2328 206.56C65.5355 203.542 77.0465 172.14 77.1593 171.815C77.2123 171.674 77.3123 171.556 77.4424 171.481C77.5726 171.405 77.7248 171.377 77.8732 171.402C78.0205 171.425 78.155 171.499 78.2534 171.611C78.3518 171.723 78.4078 171.866 78.4118 172.015C78.4118 172.416 80.3032 212.845 81.3178 218.755C82.2823 224.464 81.4681 252.198 81.3428 256.467ZM77.272 175.296C74.3285 183.321 66.4874 204.619 65.4228 207.086C64.6963 209.239 73.7648 232.127 80.2781 247.565C80.5036 237.636 80.6915 222.837 80.0401 219.005C79.226 213.934 77.748 185.087 77.272 175.296Z" fill="#271A8A"/>
<path d="M60.6129 66.4283C58.8535 69.4476 57.5851 72.7271 56.8552 76.1443C56.0889 79.054 55.8179 82.0719 56.0535 85.0716C56.6548 90.7685 59.8112 95.7642 63.5689 99.9086C62.7156 95.9202 62.167 91.8727 61.9281 87.8011C61.763 82.1888 62.7964 76.6058 64.9592 71.424C65.9937 68.8581 67.3085 66.4143 68.8798 64.137C69.6188 63.0978 70.8714 62.1712 69.7441 61.0444C69.3707 60.6654 68.9065 60.3882 68.3956 60.2391C67.8848 60.0901 67.3443 60.0742 66.8256 60.193C64.3079 60.9567 61.9782 64.2246 60.6129 66.4283Z" fill="#271A8A"/>
<path d="M63.5187 100.56C63.429 100.559 63.3404 100.539 63.2585 100.503C63.1766 100.466 63.1031 100.413 63.0427 100.347C58.4207 95.1381 55.9031 90.1674 55.377 85.1341C55.1216 82.0632 55.397 78.9714 56.1912 75.994C56.9414 72.5065 58.2482 69.1624 60.0616 66.0901C62.3538 62.3339 64.5708 60.2054 66.6501 59.6169C67.2802 59.4649 67.9389 59.4785 68.5622 59.6562C69.1856 59.8339 69.7523 60.1697 70.2074 60.6311C71.5226 61.9583 70.508 63.1352 69.8441 63.9992L69.4057 64.5626C67.8271 66.7705 66.4995 69.1474 65.4476 71.6493C63.3285 76.7458 62.3166 82.2341 62.4791 87.7509C62.7114 91.7934 63.2558 95.812 64.1074 99.7707C64.131 99.9097 64.1097 100.053 64.0467 100.179C63.9836 100.305 63.882 100.407 63.7567 100.472C63.683 100.515 63.6025 100.544 63.5187 100.56ZM61.1639 66.7537C59.4077 69.7075 58.1389 72.9248 57.4062 76.2819C56.6421 79.1365 56.3793 82.102 56.6296 85.0464C57.068 89.2158 58.9594 93.3601 62.4039 97.6798C61.7402 94.4481 61.3215 91.1708 61.1514 87.8761C60.9846 82.1708 62.0306 76.495 64.2201 71.2236C65.2956 68.6331 66.6523 66.1685 68.2659 63.874C68.4162 63.6486 68.5916 63.4357 68.7544 63.2354C69.5686 62.2588 69.6187 61.9833 69.1928 61.5952C68.8998 61.3003 68.538 61.083 68.1401 60.9628C67.7421 60.8426 67.3205 60.8232 66.9132 60.9066C65.1846 61.4074 63.1555 63.4107 61.0762 66.8163L61.1639 66.7537Z" fill="#271A8A"/>
<path d="M64.3953 65.1636C63.8065 65.8397 60.0739 69.3079 58.5583 80.1884C57.0427 91.0689 62.4538 103.164 58.5583 117.3L95.8221 119.366C95.8221 119.366 107.17 73.5274 101.471 63.8614C95.772 54.1955 71.3219 57.2505 64.3953 65.1636Z" fill="#6D5DE7"/>
<path d="M94.6574 103.777C94.6574 103.777 77.9732 96.9911 79.3636 81.8912C80.9042 65.5517 87.9311 61.5326 93.9685 58.2772C97.5007 59.5293 97.9767 60.5184 97.9767 60.5184C97.9767 60.5184 85.451 64.2746 85.2506 73.5399C85.0502 82.8052 82.8332 95.4386 94.6574 103.777Z" fill="#271A8A"/>
<path d="M94.6573 104.416C94.579 104.434 94.4977 104.434 94.4194 104.416C94.244 104.416 77.2592 97.2791 78.7122 81.8787C80.3155 64.9382 87.7181 60.9567 93.6553 57.7639C93.7379 57.7266 93.8276 57.7072 93.9183 57.7072C94.009 57.7072 94.0987 57.7266 94.1814 57.7639C97.6885 59.016 98.415 60.0427 98.5528 60.268C98.5931 60.3543 98.614 60.4483 98.614 60.5435C98.614 60.6387 98.5931 60.7327 98.5528 60.8189C98.5139 60.9055 98.4568 60.9827 98.3855 61.0453C98.3142 61.1079 98.2303 61.1546 98.1395 61.182C98.0142 61.182 86.1148 64.9382 85.8769 73.6025C85.8769 74.6543 85.8017 75.7561 85.7391 76.8955C85.3257 85.4721 84.8122 96.1398 95.0081 103.277C95.1185 103.357 95.2008 103.47 95.2432 103.6C95.2857 103.73 95.2862 103.87 95.2446 104C95.203 104.131 95.1215 104.244 95.0116 104.326C94.9017 104.407 94.769 104.452 94.6323 104.453L94.6573 104.416ZM94.006 58.9909C88.382 62.0209 81.4804 65.9524 80.0023 81.9413C79.1506 90.9938 85.1504 96.9661 89.7974 100.259C83.6849 93.1223 84.1233 84.2076 84.474 76.7953C84.474 75.6685 84.5867 74.5792 84.6118 73.5274C84.8247 65.4391 93.5801 61.445 96.7115 60.268C95.8539 59.7543 94.9477 59.3265 94.006 58.9909Z" fill="#271A8A"/>
<path d="M86.252 89.8419C86.9033 90.7809 86.6904 110 86.252 110.751C83.3962 115.76 80.6656 120.768 77.8223 125.776C75.7931 129.307 73.7514 132.838 71.6221 136.306C67.8644 142.404 61.5014 146.147 56.8919 151.606C57.917 151.861 58.9821 151.911 60.0266 151.755C61.0711 151.598 62.0745 151.237 62.9794 150.692L56.9546 159.457C55.7771 161.172 54.5371 163.213 55.1258 165.204C55.6394 166.907 64.0441 161.911 65.0085 160.959C68.7662 157.203 70.8205 151.832 74.3903 147.875C77.3338 144.62 80.6531 141.702 83.5841 138.284C88.7446 132.199 95.8968 125.225 98.8027 117.625C101.408 110.839 104.001 85.5974 104.001 85.5974" fill="#EDEBFF"/>
<path d="M55.7527 166.105C55.6156 166.125 55.4764 166.125 55.3393 166.105C55.146 166.068 54.9667 165.978 54.8209 165.845C54.6752 165.713 54.5685 165.543 54.5126 165.354C53.8362 163.088 55.1389 160.909 56.4165 159.094L61.1762 152.207C59.7203 152.602 58.1856 152.602 56.7297 152.207C56.6241 152.177 56.5277 152.122 56.449 152.045C56.3703 151.969 56.3118 151.874 56.2787 151.769C56.2439 151.665 56.2371 151.553 56.2591 151.446C56.2811 151.338 56.3311 151.238 56.404 151.156C58.371 148.922 60.4931 146.83 62.7545 144.895C65.9567 142.327 68.7596 139.297 71.0715 135.906C73.2008 132.437 75.2175 128.957 77.2592 125.388C78.6704 122.884 80.0649 120.409 81.4427 117.963C82.8456 115.459 84.261 112.955 85.6889 110.451C86.0271 109.287 86.2526 91.67 85.6889 90.155C85.6424 90.0871 85.6099 90.0107 85.5936 89.9301C85.5772 89.8495 85.5772 89.7664 85.5935 89.6859C85.6099 89.6053 85.6423 89.5288 85.6888 89.461C85.7353 89.3931 85.795 89.3353 85.8643 89.291C86.015 89.1994 86.1952 89.1691 86.3677 89.2064C86.5401 89.2437 86.6917 89.3457 86.7912 89.4914C87.693 90.806 87.2672 110.313 86.7912 111.09C85.3507 113.594 83.9479 116.098 82.545 118.602C81.1421 121.106 79.7768 123.61 78.3489 126.052C76.3072 129.62 74.2906 133.113 72.1487 136.607C69.7628 140.098 66.876 143.22 63.5812 145.872C61.6686 147.527 59.8417 149.278 58.1075 151.118C59.6818 151.268 61.2625 150.908 62.6167 150.091C62.7421 150.009 62.8926 149.973 63.0418 149.99C63.191 150.008 63.3293 150.077 63.4324 150.186C63.5356 150.295 63.597 150.437 63.6059 150.587C63.6148 150.737 63.5705 150.885 63.481 151.005L57.4561 159.77C56.3789 161.348 55.2516 163.163 55.69 164.853C56.9426 165.079 63.506 161.448 64.458 160.434C66.3551 158.375 68.0109 156.107 69.3931 153.672C70.6776 151.458 72.1573 149.363 73.8146 147.412C75.1298 145.96 76.5452 144.557 77.898 143.205C79.6265 141.49 81.4051 139.724 83.0084 137.834C84.0481 136.582 85.1628 135.33 86.3027 134.077C90.7743 129.069 95.8347 123.335 98.1143 117.375C100.619 110.739 103.237 85.7602 103.262 85.5098C103.281 85.339 103.367 85.1827 103.501 85.0748C103.634 84.9669 103.805 84.9163 103.976 84.9338C104.06 84.9417 104.142 84.9661 104.217 85.0056C104.291 85.0452 104.357 85.0991 104.411 85.1643C104.464 85.2295 104.504 85.3047 104.529 85.3855C104.553 85.4663 104.561 85.5511 104.553 85.635C104.452 86.6742 101.922 111.052 99.3168 117.826C96.9495 124.011 91.8015 129.808 87.2672 134.929C86.1273 136.181 85.0251 137.433 83.998 138.685C82.3571 140.613 80.5534 142.441 78.8124 144.132C77.4596 145.471 76.0692 146.861 74.7791 148.288C73.1742 150.198 71.7367 152.242 70.4828 154.399C69.0622 156.922 67.3467 159.267 65.3723 161.385C64.696 162.086 58.2954 166.105 55.7527 166.105Z" fill="#271A8A"/>
<path d="M101.471 63.9115C101.471 63.9115 90.5115 60.1553 86.1776 70.9356C81.8437 81.7159 82.9836 94.0488 82.9836 94.0488L108.035 95.3009C108.035 95.3009 111.868 67.8931 101.471 63.9115Z" fill="#6D5DE7"/>
<path d="M68.8049 51.729L68.9677 62.7597C68.9677 62.7597 69.7694 68.7196 77.0593 66.8665C84.3492 65.0134 85.2511 59.7673 85.2511 59.7673L84.9254 39.0956C84.9254 39.0956 78.9883 35.5899 77.7482 22.7061C77.7482 22.7061 72.8256 28.5908 61.9283 27.3387C61.9283 27.3387 59.9117 38.3694 60.6758 44.0538C61.4398 49.7382 68.7047 51.6163 68.8049 51.729Z" fill="#EDEBFF"/>
<path d="M74.4408 67.8932C73.1672 67.9285 71.9132 67.5747 70.846 66.879C69.5222 65.9248 68.6234 64.4917 68.3409 62.8849L68.178 52.2048C65.3096 51.1531 60.6626 48.7866 60.0739 44.2041C59.2848 38.4821 61.2263 27.7519 61.3265 27.2886C61.357 27.1337 61.4449 26.996 61.5727 26.9031C61.7004 26.8102 61.8586 26.7691 62.0154 26.7878C72.4117 28.0399 77.2341 22.4181 77.2842 22.368C77.3617 22.2716 77.4666 22.2009 77.5851 22.1652C77.7036 22.1294 77.8301 22.1303 77.948 22.1677C78.0653 22.2056 78.169 22.2766 78.2468 22.3721C78.3246 22.4677 78.3731 22.5836 78.3864 22.7061C79.5763 35.0515 85.2004 38.5948 85.263 38.6199C85.3553 38.676 85.4315 38.7551 85.4842 38.8495C85.5369 38.9438 85.5642 39.0502 85.5636 39.1583L85.8893 59.7923C85.8893 60.1429 84.8371 65.5769 77.2341 67.5176C76.3221 67.7574 75.3838 67.8836 74.4408 67.8932ZM69.5934 62.7848C69.8404 64.0178 70.5424 65.1129 71.56 65.8523C72.3699 66.2985 73.2647 66.5692 74.1862 66.6468C75.1077 66.7245 76.0352 66.6074 76.9084 66.3031C83.6848 64.5752 84.5992 59.8925 84.6367 59.7047L84.3111 39.4963C83.0585 38.6073 78.5994 34.6758 77.2716 24.1084C75.3677 25.7486 70.5829 28.8537 62.4538 28.09C62.053 30.4063 60.6501 39.2459 61.314 44.0288C61.8651 48.0855 66.2616 50.2015 68.8294 51.103C68.9568 51.1374 69.0761 51.197 69.1801 51.2783C69.2544 51.3333 69.3146 51.4051 69.3559 51.4877C69.3973 51.5704 69.4186 51.6616 69.4181 51.754L69.5809 62.7848H69.5934Z" fill="#271A8A"/>
<path d="M80.6284 38.8201C80.8667 37.8115 81.4247 36.9068 82.2192 36.2409C82.9782 35.6862 83.825 35.263 84.7243 34.9888C85.208 34.7719 85.7351 34.6691 86.265 34.6883C86.6317 34.7411 86.9848 34.8644 87.3046 35.0514C88.1011 35.427 88.7366 36.0756 89.0958 36.8794C89.3065 37.556 89.3495 38.2736 89.221 38.9704C89.1367 39.7372 88.9557 40.4902 88.6824 41.2116C88.3868 41.9187 87.9543 42.5604 87.4096 43.0997C86.8649 43.6389 86.2188 44.0652 85.5086 44.3538C84.7984 44.6424 84.0381 44.7877 83.2715 44.7814C82.5049 44.775 81.7471 44.6171 81.0418 44.3167" fill="#EDEBFF"/>
<path d="M83.372 45.3559C82.5106 45.3588 81.6578 45.1841 80.8669 44.8426C80.7204 44.7737 80.6063 44.6508 80.5485 44.4996C80.4907 44.3484 80.4937 44.1807 80.5569 44.0317C80.6201 43.8827 80.7385 43.764 80.8874 43.7004C81.0363 43.6368 81.204 43.6333 81.3554 43.6907C81.9839 43.9617 82.66 44.105 83.3444 44.1124C84.0289 44.1197 84.7079 43.9909 85.342 43.7333C85.9761 43.4758 86.5527 43.0948 87.0381 42.6124C87.5235 42.13 87.9081 41.556 88.1694 40.9236C88.4284 40.2562 88.5969 39.5572 88.6704 38.8452C88.7809 38.2496 88.7508 37.6366 88.5827 37.0547C88.2737 36.3973 87.7472 35.8666 87.0922 35.5522C86.8373 35.4049 86.5568 35.3072 86.2655 35.2642C85.8333 35.2547 85.4047 35.3447 85.0129 35.5272C84.1591 35.8089 83.3589 36.2321 82.6456 36.7792C81.9545 37.3512 81.4704 38.1342 81.2677 39.0079C81.2501 39.0884 81.2165 39.1645 81.1688 39.2317C81.1212 39.2989 81.0604 39.3558 80.9903 39.399C80.9202 39.4422 80.8421 39.4709 80.7606 39.4833C80.6792 39.4957 80.596 39.4916 80.5162 39.4712C80.4354 39.4534 80.359 39.4199 80.2912 39.3724C80.2235 39.325 80.1659 39.2646 80.1216 39.1947C80.0773 39.1249 80.0474 39.047 80.0334 38.9655C80.0194 38.884 80.0217 38.8005 80.0402 38.7199C80.3181 37.585 80.9497 36.5677 81.8439 35.8152C82.6676 35.1824 83.5961 34.6993 84.587 34.3878C85.158 34.1357 85.7798 34.02 86.4033 34.0497C86.8429 34.1229 87.2666 34.2711 87.6558 34.488C88.5749 34.9228 89.3112 35.6676 89.7351 36.5914C89.9831 37.3594 90.0348 38.1773 89.8854 38.9704C89.8015 39.7938 89.6077 40.6023 89.3092 41.3743C88.9815 42.1596 88.5019 42.8724 87.8979 43.4719C87.2939 44.0714 86.5774 44.5457 85.7895 44.8676C85.023 45.1858 84.2019 45.3517 83.372 45.3559Z" fill="#271A8A"/>
<path d="M71.2219 34.2626C71.2219 34.2626 67.2513 39.8969 68.1406 40.9111C69.0299 41.9253 71.5977 41.3368 71.5977 41.3368" fill="#EDEBFF"/>
<path d="M70.0443 42.1381C69.613 42.1728 69.1792 42.1184 68.7698 41.9784C68.3604 41.8384 67.9841 41.6158 67.6644 41.3243C66.6749 40.1849 68.7667 36.6541 70.7082 33.9121C70.753 33.8399 70.812 33.7776 70.8817 33.7289C70.9513 33.6803 71.0302 33.6463 71.1134 33.6291C71.1966 33.6119 71.2825 33.6118 71.3657 33.6288C71.449 33.6459 71.528 33.6797 71.5977 33.7281C71.6675 33.7766 71.7267 33.8388 71.7717 33.9109C71.8166 33.983 71.8465 34.0634 71.8593 34.1474C71.8722 34.2314 71.8678 34.3171 71.8465 34.3993C71.8252 34.4816 71.7873 34.5586 71.7352 34.6257C69.919 37.205 68.4786 39.9846 68.6414 40.5605C69.0547 40.9988 70.5704 40.9236 71.4472 40.7233C71.6133 40.6851 71.7877 40.7144 71.9322 40.8048C72.0767 40.8952 72.1793 41.0393 72.2175 41.2053C72.2557 41.3714 72.2263 41.5458 72.1359 41.6902C72.0455 41.8346 71.9013 41.9372 71.7352 41.9754C71.1795 42.0928 70.6123 42.1474 70.0443 42.1381Z" fill="#271A8A"/>
<path d="M77.1419 33.5749C77.1887 32.8365 76.8012 32.211 76.2765 32.1778C75.7518 32.1446 75.2886 32.7163 75.2418 33.4547C75.1951 34.1932 75.5826 34.8186 76.1073 34.8518C76.632 34.885 77.0952 34.3133 77.1419 33.5749Z" fill="#271A8A"/>
<path d="M68.083 33.9222C68.1349 33.1841 67.7518 32.5559 67.2274 32.519C66.7029 32.4822 66.2357 33.0507 66.1838 33.7887C66.1319 34.5268 66.515 35.155 67.0395 35.1918C67.5639 35.2287 68.0311 34.6602 68.083 33.9222Z" fill="#271A8A"/>
<path d="M71.3661 44.3922C72.9982 44.8164 74.5097 45.5574 75.7557 46.5443C75.8035 46.5794 75.8429 46.6211 75.8714 46.667C75.8999 46.7129 75.9169 46.7619 75.9214 46.8111C75.9258 46.8604 75.9177 46.9087 75.8974 46.9533C75.8771 46.9979 75.8451 47.0377 75.8034 47.0703C75.7617 47.103 75.7111 47.1278 75.6547 47.1433C75.5983 47.1588 75.5373 47.1645 75.4754 47.1603C75.4135 47.156 75.352 47.1418 75.2947 47.1185C75.2374 47.0952 75.1854 47.0633 75.1419 47.0248C75.1419 47.0248 72.399 44.8374 69.7817 44.9605C69.0675 45.0304 68.4022 45.2361 67.8401 45.5608C67.278 45.8856 66.835 46.3202 66.5472 46.8292C66.5192 46.8696 66.4807 46.9042 66.434 46.931C66.3873 46.9579 66.3333 46.9764 66.2751 46.9855C66.2169 46.9946 66.1558 46.9941 66.0953 46.984C66.0349 46.974 65.9763 46.9546 65.923 46.927C65.818 46.8724 65.7401 46.7893 65.7059 46.6955C65.6718 46.6018 65.6842 46.505 65.7406 46.4261C66.0868 45.8217 66.6195 45.3076 67.2943 44.9269C67.9692 44.5461 68.7664 44.3097 69.6197 44.2373C70.198 44.2081 70.789 44.2605 71.3661 44.3922Z" fill="#271A8A"/>
<path d="M68.8047 51.7289C68.8047 51.7289 74.0905 52.981 78.1739 50.7022C78.1739 50.7022 75.4308 61.1194 68.93 60.1428L68.8047 51.7289Z" fill="#271A8A"/>
<path d="M69.794 60.8441C69.4711 60.843 69.1488 60.8179 68.8296 60.7689C68.6835 60.7453 68.5506 60.6707 68.4543 60.5584C68.358 60.4461 68.3045 60.3033 68.3035 60.1554L68.1782 51.729C68.1777 51.6348 68.199 51.5418 68.2402 51.4571C68.2815 51.3724 68.3417 51.2984 68.4162 51.2407C68.4909 51.1808 68.578 51.1385 68.6713 51.1168C68.7645 51.0951 68.8614 51.0947 68.9548 51.1155C68.9548 51.1155 74.0528 52.3676 77.8731 50.1639C77.9754 50.0966 78.0951 50.0607 78.2175 50.0607C78.34 50.0607 78.4597 50.0966 78.562 50.1639C78.6602 50.2405 78.7339 50.3441 78.7739 50.462C78.814 50.5799 78.8187 50.707 78.7874 50.8275C78.6747 51.2908 76.0819 60.8441 69.794 60.8441ZM69.5435 59.592H69.7565C73.8398 59.592 76.2197 54.421 77.1341 51.9043C74.6632 52.7544 72.0164 52.9612 69.4433 52.5053L69.5435 59.592Z" fill="#271A8A"/>
<path d="M123.479 98.7566C123.377 98.7568 123.277 98.7318 123.187 98.6837C123.098 98.6356 123.022 98.566 122.965 98.4812C122.878 98.3685 114.648 86.3737 109.45 81.4781C109.392 81.4209 109.346 81.3528 109.314 81.2775C109.282 81.2023 109.266 81.1215 109.266 81.0398C109.266 80.9582 109.282 80.8774 109.314 80.8022C109.346 80.7269 109.392 80.6588 109.45 80.6016C109.509 80.543 109.578 80.4964 109.654 80.4646C109.73 80.4328 109.812 80.4164 109.895 80.4164C109.978 80.4164 110.059 80.4328 110.136 80.4646C110.212 80.4964 110.281 80.543 110.34 80.6016C115.638 85.6099 123.679 97.3042 124.018 97.805C124.11 97.9415 124.144 98.1087 124.113 98.2704C124.083 98.432 123.99 98.5752 123.855 98.669C123.742 98.7378 123.61 98.7685 123.479 98.7566Z" fill="#6D5DE7"/>
<path d="M104.628 141.001C104.494 140.998 104.363 140.954 104.254 140.876C104.145 140.798 104.061 140.689 104.014 140.563C103.92 140.051 103.883 139.531 103.901 139.011C103.801 135.254 103.513 125.513 99.6175 119.766C99.5262 119.63 99.4927 119.463 99.5244 119.302C99.5561 119.142 99.6504 119 99.7866 118.909C99.9228 118.817 100.09 118.784 100.251 118.816C100.412 118.847 100.553 118.942 100.645 119.078C104.753 125.125 105.041 135.192 105.154 138.973C105.154 139.524 105.154 140.075 105.154 140.225C105.179 140.3 105.19 140.379 105.185 140.458C105.18 140.537 105.159 140.614 105.125 140.685C105.09 140.756 105.041 140.819 104.982 140.871C104.922 140.924 104.853 140.963 104.778 140.989L104.628 141.001Z" fill="#6D5DE7"/>
<path d="M77.7723 172.691C77.6255 172.693 77.4828 172.643 77.3702 172.548C77.2576 172.454 77.1825 172.323 77.1586 172.178L74.215 154.949C74.1868 154.783 74.2257 154.613 74.3232 154.476C74.4207 154.338 74.5688 154.245 74.7349 154.217C74.901 154.189 75.0715 154.228 75.2089 154.325C75.3463 154.423 75.4394 154.571 75.4676 154.737L78.4487 171.965C78.4741 172.128 78.4344 172.294 78.3383 172.427C78.2422 172.561 78.0974 172.651 77.9352 172.679L77.7723 172.691Z" fill="#6D5DE7"/>
</g>
</svg>
