<svg width="239" height="163" viewBox="0 0 239 163" fill="none" xmlns="http://www.w3.org/2000/svg">
<path d="M217.117 0.982147H26.0464V115.753H217.117V0.982147Z" fill="white"/>
<path d="M217.117 116.124H26.0464C25.9476 116.124 25.8528 116.085 25.783 116.016C25.7131 115.946 25.6739 115.851 25.6739 115.753V0.98214C25.6739 0.883568 25.7131 0.789033 25.783 0.719332C25.8528 0.649631 25.9476 0.610474 26.0464 0.610474H217.117C217.215 0.610474 217.31 0.649631 217.38 0.719332C217.45 0.789033 217.489 0.883568 217.489 0.98214V115.753C217.489 115.851 217.45 115.946 217.38 116.016C217.31 116.085 217.215 116.124 217.117 116.124ZM26.3965 115.381H216.744V1.35381H26.4189L26.3965 115.381Z" fill="#A8A2D7"/>
<path d="M196.92 23.5497H180.299V40.1335H196.92V23.5497Z" fill="white"/>
<path d="M196.92 40.5052H180.299C180.2 40.5052 180.105 40.466 180.035 40.3963C179.965 40.3266 179.926 40.2321 179.926 40.1335V23.52C179.926 23.4214 179.965 23.3269 180.035 23.2572C180.105 23.1875 180.2 23.1483 180.299 23.1483H196.92C197.018 23.1502 197.111 23.19 197.181 23.2593C197.25 23.3286 197.29 23.422 197.292 23.52V40.1335C197.292 40.2321 197.253 40.3266 197.183 40.3963C197.113 40.466 197.018 40.5052 196.92 40.5052ZM180.671 39.7618H196.547V23.9214H180.671V39.7618Z" fill="#A8A2D7"/>
<path d="M193.887 27.482H183.323C183.225 27.4801 183.131 27.4403 183.062 27.371C182.993 27.3017 182.953 27.2083 182.951 27.1103C182.951 27.0117 182.99 26.9172 183.06 26.8475C183.13 26.7778 183.225 26.7386 183.323 26.7386H193.887C193.986 26.7386 194.081 26.7778 194.151 26.8475C194.221 26.9172 194.26 27.0117 194.26 27.1103C194.26 27.2089 194.221 27.3034 194.151 27.3731C194.081 27.4428 193.986 27.482 193.887 27.482Z" fill="#A8A2D7"/>
<path d="M193.887 30.5742H183.323C183.225 30.5742 183.13 30.5351 183.06 30.4654C182.99 30.3957 182.951 30.3011 182.951 30.2026C182.953 30.1046 182.993 30.0112 183.062 29.9419C183.131 29.8726 183.225 29.8328 183.323 29.8309H193.887C193.986 29.8309 194.081 29.8701 194.151 29.9398C194.221 30.0095 194.26 30.104 194.26 30.2026C194.26 30.3011 194.221 30.3957 194.151 30.4654C194.081 30.5351 193.986 30.5742 193.887 30.5742Z" fill="#A8A2D7"/>
<path d="M193.887 33.6739H183.323C183.225 33.6739 183.13 33.6348 183.06 33.5651C182.99 33.4954 182.951 33.4008 182.951 33.3023C182.953 33.2043 182.993 33.1109 183.062 33.0416C183.131 32.9723 183.225 32.9325 183.323 32.9306H193.887C193.986 32.9306 194.081 32.9698 194.151 33.0395C194.221 33.1092 194.26 33.2037 194.26 33.3023C194.26 33.4008 194.221 33.4954 194.151 33.5651C194.081 33.6348 193.986 33.6739 193.887 33.6739Z" fill="#A8A2D7"/>
<path d="M189.775 36.7736H183.361C183.262 36.7736 183.167 36.7345 183.097 36.6648C183.027 36.5951 182.988 36.5005 182.988 36.402C182.99 36.304 183.03 36.2106 183.099 36.1413C183.169 36.072 183.262 36.0322 183.361 36.0303H189.775C189.873 36.0322 189.967 36.072 190.036 36.1413C190.106 36.2106 190.146 36.304 190.147 36.402C190.147 36.5005 190.108 36.5951 190.038 36.6648C189.969 36.7345 189.874 36.7736 189.775 36.7736Z" fill="#A8A2D7"/>
<path d="M50.3557 25.3709H33.7347V41.9547H50.3557V25.3709Z" fill="white"/>
<path d="M50.3557 42.3263H33.7347C33.636 42.3263 33.5412 42.2872 33.4713 42.2175C33.4015 42.1478 33.3622 42.0532 33.3622 41.9547V25.3709C33.3622 25.2723 33.4015 25.1778 33.4713 25.1081C33.5412 25.0384 33.636 24.9992 33.7347 24.9992H50.3557C50.4545 24.9992 50.5492 25.0384 50.6191 25.1081C50.6889 25.1778 50.7282 25.2723 50.7282 25.3709V41.9547C50.7263 42.0526 50.6864 42.1461 50.617 42.2154C50.5475 42.2847 50.4539 42.3244 50.3557 42.3263V42.3263ZM34.1072 41.583H49.9832V25.75H34.1072V41.583Z" fill="#A8A2D7"/>
<path d="M47.3236 29.2957H36.7595C36.6607 29.2957 36.5659 29.2565 36.4961 29.1868C36.4262 29.1171 36.387 29.0226 36.387 28.924C36.387 28.8255 36.4262 28.7309 36.4961 28.6612C36.5659 28.5915 36.6607 28.5524 36.7595 28.5524H47.3236C47.4224 28.5524 47.5171 28.5915 47.587 28.6612C47.6568 28.7309 47.6961 28.8255 47.6961 28.924C47.6961 29.0226 47.6568 29.1171 47.587 29.1868C47.5171 29.2565 47.4224 29.2957 47.3236 29.2957Z" fill="#A8A2D7"/>
<path d="M47.3236 32.3954H36.7595C36.6607 32.3954 36.5659 32.3562 36.4961 32.2865C36.4262 32.2168 36.387 32.1223 36.387 32.0237C36.387 31.9252 36.4262 31.8306 36.4961 31.7609C36.5659 31.6912 36.6607 31.6521 36.7595 31.6521H47.3236C47.4224 31.6521 47.5171 31.6912 47.587 31.7609C47.6568 31.8306 47.6961 31.9252 47.6961 32.0237C47.6961 32.1223 47.6568 32.2168 47.587 32.2865C47.5171 32.3562 47.4224 32.3954 47.3236 32.3954Z" fill="#A8A2D7"/>
<path d="M47.3236 35.4951H36.7595C36.6607 35.4951 36.5659 35.4559 36.4961 35.3862C36.4262 35.3165 36.387 35.222 36.387 35.1234C36.387 35.0249 36.4262 34.9303 36.4961 34.8606C36.5659 34.7909 36.6607 34.7518 36.7595 34.7518H47.3236C47.4224 34.7518 47.5171 34.7909 47.587 34.8606C47.6568 34.9303 47.6961 35.0249 47.6961 35.1234C47.6961 35.222 47.6568 35.3165 47.587 35.3862C47.5171 35.4559 47.4224 35.4951 47.3236 35.4951Z" fill="#A8A2D7"/>
<path d="M43.1739 38.5948H36.7595C36.6607 38.5948 36.5659 38.5556 36.4961 38.4859C36.4262 38.4162 36.387 38.3217 36.387 38.2231C36.387 38.1246 36.4262 38.03 36.4961 37.9603C36.5659 37.8906 36.6607 37.8515 36.7595 37.8515H43.1739C43.2727 37.8515 43.3675 37.8906 43.4373 37.9603C43.5072 38.03 43.5464 38.1246 43.5464 38.2231C43.5445 38.3211 43.5046 38.4145 43.4352 38.4838C43.3657 38.5531 43.2721 38.5929 43.1739 38.5948V38.5948Z" fill="#A8A2D7"/>
<path d="M68.1538 52.5249H51.5328V69.1086H68.1538V52.5249Z" fill="#A8A2D7"/>
<path d="M65.1216 56.97H54.5575C54.4587 56.97 54.364 56.9309 54.2941 56.8612C54.2242 56.7915 54.185 56.6969 54.185 56.5984C54.1869 56.5004 54.2268 56.4069 54.2962 56.3376C54.3657 56.2684 54.4593 56.2286 54.5575 56.2267H65.1216C65.2204 56.2267 65.3151 56.2658 65.385 56.3355C65.4549 56.4052 65.4941 56.4998 65.4941 56.5984C65.4941 56.6969 65.4549 56.7915 65.385 56.8612C65.3151 56.9309 65.2204 56.97 65.1216 56.97Z" fill="white"/>
<path d="M65.1216 61.3557H54.5575C54.4587 61.3557 54.364 61.3165 54.2941 61.2468C54.2242 61.1771 54.185 61.0826 54.185 60.984C54.1869 60.886 54.2268 60.7926 54.2962 60.7233C54.3657 60.654 54.4593 60.6142 54.5575 60.6123H65.1216C65.2204 60.6123 65.3151 60.6515 65.385 60.7212C65.4549 60.7909 65.4941 60.8854 65.4941 60.984C65.4941 61.0826 65.4549 61.1771 65.385 61.2468C65.3151 61.3165 65.2204 61.3557 65.1216 61.3557Z" fill="white"/>
<path d="M60.9719 65.7488H54.5575C54.4587 65.7488 54.364 65.7096 54.2941 65.6399C54.2242 65.5702 54.185 65.4757 54.185 65.3771C54.1869 65.2791 54.2268 65.1857 54.2962 65.1164C54.3657 65.0471 54.4593 65.0073 54.5575 65.0054H60.9719C61.0701 65.0073 61.1638 65.0471 61.2332 65.1164C61.3027 65.1857 61.3425 65.2791 61.3444 65.3771C61.3444 65.4757 61.3052 65.5702 61.2353 65.6399C61.1655 65.7096 61.0707 65.7488 60.9719 65.7488Z" fill="white"/>
<path d="M71.8415 108.476C71.7427 108.476 71.648 108.436 71.5781 108.367C71.5082 108.297 71.469 108.202 71.469 108.104V4.47582C71.4709 4.37785 71.5108 4.28441 71.5802 4.21512C71.6497 4.14583 71.7433 4.10606 71.8415 4.10416C71.9403 4.10416 72.035 4.14331 72.1049 4.21301C72.1748 4.28272 72.214 4.37725 72.214 4.47582V108.104C72.214 108.202 72.1748 108.297 72.1049 108.367C72.035 108.436 71.9403 108.476 71.8415 108.476Z" fill="#A8A2D7"/>
<path d="M121.585 108.476C121.486 108.476 121.392 108.436 121.322 108.367C121.252 108.297 121.213 108.202 121.213 108.104V4.47582C121.213 4.37725 121.252 4.28272 121.322 4.21301C121.392 4.14331 121.486 4.10416 121.585 4.10416C121.683 4.10606 121.777 4.14583 121.846 4.21512C121.916 4.28441 121.956 4.37785 121.958 4.47582V108.104C121.958 108.202 121.918 108.297 121.849 108.367C121.779 108.436 121.684 108.476 121.585 108.476Z" fill="#A8A2D7"/>
<path d="M171.321 108.476C171.223 108.476 171.128 108.436 171.058 108.367C170.988 108.297 170.949 108.202 170.949 108.104V4.47582C170.951 4.37785 170.991 4.28441 171.06 4.21512C171.13 4.14583 171.223 4.10606 171.321 4.10416C171.42 4.10416 171.515 4.14331 171.585 4.21301C171.655 4.28272 171.694 4.37725 171.694 4.47582V108.104C171.694 108.202 171.655 108.297 171.585 108.367C171.515 108.436 171.42 108.476 171.321 108.476Z" fill="#A8A2D7"/>
<path d="M180.462 134.76C180.462 134.76 171.94 130.449 167.619 132.604C163.298 134.76 160.75 134.76 160.914 136.321C161.078 137.882 163.074 137.889 163.074 137.889C163.074 137.889 160.519 139.041 162.091 140.119C163.005 140.768 164.115 141.083 165.235 141.011C165.235 141.011 161.107 142.386 163.074 143.561C165.041 144.735 169.228 144.393 170.666 144.661C172.104 144.929 184.865 149.047 184.865 149.047L180.462 134.76Z" fill="white"/>
<path d="M184.895 149.433C184.856 149.441 184.815 149.441 184.776 149.433C184.649 149.396 172.022 145.323 170.621 145.062C169.986 144.981 169.347 144.937 168.706 144.929C166.762 144.862 164.348 144.78 162.903 143.918C162.262 143.531 162.158 143.1 162.195 142.81C162.262 142.193 163.007 141.665 163.737 141.324C163.08 141.165 162.459 140.885 161.905 140.498C161.695 140.388 161.52 140.22 161.402 140.015C161.283 139.81 161.225 139.576 161.234 139.339C161.285 139.095 161.385 138.863 161.527 138.657C161.669 138.452 161.851 138.277 162.061 138.142C161.673 138.032 161.326 137.812 161.061 137.508C160.797 137.205 160.626 136.831 160.571 136.432C160.415 135.146 161.577 134.715 163.499 134.002C164.839 133.498 166.15 132.92 167.425 132.27C171.858 130.04 180.246 134.247 180.597 134.425C180.685 134.473 180.752 134.553 180.783 134.648L185.216 148.95C185.237 149.014 185.24 149.083 185.224 149.149C185.208 149.214 185.174 149.274 185.126 149.322C185.064 149.384 184.983 149.423 184.895 149.433V149.433ZM165.265 140.655C165.348 140.654 165.43 140.683 165.495 140.736C165.56 140.789 165.605 140.862 165.622 140.944C165.644 141.035 165.63 141.13 165.585 141.211C165.539 141.293 165.465 141.354 165.376 141.383C164.244 141.762 162.992 142.446 162.948 142.87C162.948 143.018 163.186 143.189 163.298 143.256C164.572 144 167.023 144.104 168.744 144.17C169.419 144.171 170.094 144.218 170.763 144.312C172.029 144.55 181.632 147.62 184.322 148.482L180.15 135.02C179.04 134.485 171.59 131.036 167.783 132.939C166.474 133.58 165.131 134.148 163.76 134.641C161.845 135.347 161.234 135.637 161.316 136.284C161.465 137.503 163.037 137.525 163.104 137.525C163.188 137.526 163.269 137.556 163.334 137.609C163.399 137.662 163.444 137.735 163.462 137.816C163.48 137.898 163.47 137.984 163.433 138.059C163.397 138.134 163.336 138.195 163.26 138.231C162.746 138.462 162.016 138.975 161.987 139.346C161.987 139.495 162.091 139.658 162.337 139.829C163.178 140.419 164.193 140.712 165.22 140.662L165.265 140.655Z" fill="#271A8A"/>
<path d="M171.016 147.099L166.307 128.033L149.418 131.69L153.128 151.403L171.016 147.099Z" fill="white"/>
<path d="M153.128 151.775C153.057 151.778 152.986 151.757 152.927 151.715C152.883 151.69 152.845 151.654 152.817 151.612C152.788 151.569 152.77 151.521 152.763 151.47L149.038 131.757C149.021 131.661 149.041 131.563 149.096 131.482C149.15 131.402 149.234 131.345 149.329 131.326L166.211 127.668C166.305 127.648 166.404 127.666 166.486 127.717C166.568 127.768 166.627 127.85 166.65 127.943L171.359 147.01C171.373 147.057 171.377 147.106 171.37 147.155C171.364 147.204 171.347 147.251 171.321 147.292C171.269 147.375 171.186 147.434 171.09 147.456L153.21 151.767L153.128 151.775ZM149.858 131.98L153.419 150.95L170.554 146.824L166.024 128.479L149.858 131.98Z" fill="#A8A2D7"/>
<path d="M170.792 133.66C170.792 133.66 161.212 134.5 162.165 136.291C163.119 138.083 169.221 137.696 169.221 137.696C169.221 137.696 169.325 141.658 172.558 141.13" fill="white"/>
<path d="M171.992 141.554C171.343 141.569 170.711 141.35 170.211 140.937C169.435 140.181 168.961 139.169 168.878 138.09C167.432 138.149 162.761 138.209 161.837 136.47C161.764 136.342 161.726 136.197 161.726 136.05C161.726 135.902 161.764 135.758 161.837 135.63C162.679 134.069 169.422 133.4 170.777 133.288C170.876 133.279 170.975 133.31 171.051 133.373C171.127 133.437 171.175 133.528 171.184 133.626C171.192 133.725 171.162 133.823 171.098 133.899C171.035 133.975 170.943 134.023 170.845 134.031C167.671 134.314 162.985 135.102 162.508 135.986C162.492 136.006 162.483 136.031 162.483 136.057C162.483 136.083 162.492 136.108 162.508 136.128C163.119 137.28 166.941 137.48 169.213 137.332C169.314 137.328 169.413 137.362 169.489 137.428C169.526 137.463 169.555 137.504 169.576 137.55C169.596 137.596 169.607 137.646 169.608 137.696C169.608 137.696 169.667 139.525 170.703 140.372C170.956 140.568 171.25 140.706 171.563 140.776C171.876 140.845 172.201 140.844 172.513 140.773C172.562 140.766 172.612 140.768 172.66 140.779C172.709 140.79 172.754 140.811 172.794 140.84C172.834 140.869 172.868 140.906 172.894 140.948C172.92 140.99 172.938 141.037 172.945 141.086C172.953 141.134 172.951 141.184 172.94 141.232C172.928 141.28 172.908 141.326 172.878 141.366C172.849 141.406 172.813 141.44 172.771 141.466C172.728 141.492 172.681 141.509 172.633 141.517C172.42 141.544 172.206 141.556 171.992 141.554V141.554Z" fill="#271A8A"/>
<path d="M231.547 112.898C231.547 112.898 242.975 144.022 234.818 147.174C226.66 150.325 195.191 140.179 195.191 140.179L198.223 125.23L231.547 112.898Z" fill="#EDEBFF"/>
<path d="M230.37 148.155C218.852 148.155 196.189 140.892 195.079 140.536C194.993 140.507 194.921 140.448 194.874 140.37C194.828 140.293 194.811 140.201 194.826 140.112L197.858 125.163C197.872 125.102 197.901 125.044 197.943 124.996C197.985 124.948 198.037 124.911 198.097 124.888L231.42 112.549C231.511 112.512 231.613 112.512 231.704 112.549C231.793 112.591 231.862 112.665 231.897 112.757C232.374 114.043 243.355 144.267 234.952 147.515C233.474 147.993 231.923 148.21 230.37 148.155V148.155ZM195.623 139.926C198.946 140.974 227.167 149.731 234.676 146.832C237.82 145.613 238.237 139.398 235.883 128.94C234.652 123.671 233.13 118.475 231.324 113.374L198.544 125.513L195.623 139.926Z" fill="#271A8A"/>
<path d="M220.782 83.2245C220.782 83.2245 226.213 86.1979 235.481 118.555L218.755 124.613L220.782 83.2245Z" fill="#6D5DE7"/>
<path d="M155.527 61.0658H138.906V77.6495H155.527V61.0658Z" fill="white"/>
<path d="M155.505 78.0212H138.906C138.808 78.0212 138.713 77.982 138.643 77.9123C138.573 77.8426 138.534 77.7481 138.534 77.6495V61.0658C138.534 60.9672 138.573 60.8727 138.643 60.803C138.713 60.7332 138.808 60.6941 138.906 60.6941H155.505C155.604 60.6941 155.699 60.7332 155.768 60.803C155.838 60.8727 155.878 60.9672 155.878 61.0658V77.6495C155.878 77.7481 155.838 77.8426 155.768 77.9123C155.699 77.982 155.604 78.0212 155.505 78.0212ZM139.257 77.2779H155.133V61.43H139.279L139.257 77.2779Z" fill="#A8A2D7"/>
<path d="M152.525 64.9906H141.931C141.833 64.9887 141.739 64.9489 141.67 64.8796C141.6 64.8103 141.561 64.7169 141.559 64.6189C141.559 64.5203 141.598 64.4258 141.668 64.3561C141.738 64.2864 141.832 64.2473 141.931 64.2473H152.525C152.624 64.2473 152.719 64.2864 152.788 64.3561C152.858 64.4258 152.897 64.5203 152.897 64.6189C152.896 64.7169 152.856 64.8103 152.786 64.8796C152.717 64.9489 152.623 64.9887 152.525 64.9906V64.9906Z" fill="#A8A2D7"/>
<path d="M152.525 68.12H141.931C141.833 68.1181 141.739 68.0783 141.67 68.009C141.6 67.9398 141.561 67.8463 141.559 67.7483C141.559 67.6498 141.598 67.5552 141.668 67.4855C141.738 67.4158 141.832 67.3767 141.931 67.3767H152.525C152.624 67.3767 152.719 67.4158 152.788 67.4855C152.858 67.5552 152.897 67.6498 152.897 67.7483C152.896 67.8463 152.856 67.9398 152.786 68.009C152.717 68.0783 152.623 68.1181 152.525 68.12V68.12Z" fill="#A8A2D7"/>
<path d="M152.525 71.19H141.931C141.833 71.1881 141.739 71.1483 141.67 71.079C141.6 71.0097 141.561 70.9163 141.559 70.8183C141.559 70.7197 141.598 70.6252 141.668 70.5555C141.738 70.4858 141.832 70.4467 141.931 70.4467H152.525C152.624 70.4467 152.719 70.4858 152.788 70.5555C152.858 70.6252 152.897 70.7197 152.897 70.8183C152.896 70.9163 152.856 71.0097 152.786 71.079C152.717 71.1483 152.623 71.1881 152.525 71.19V71.19Z" fill="#A8A2D7"/>
<path d="M148.346 74.2897H141.931C141.833 74.2878 141.739 74.248 141.67 74.1787C141.6 74.1094 141.561 74.016 141.559 73.918C141.559 73.8194 141.598 73.7249 141.668 73.6552C141.738 73.5855 141.832 73.5463 141.931 73.5463H148.346C148.444 73.5463 148.539 73.5855 148.609 73.6552C148.679 73.7249 148.718 73.8194 148.718 73.918C148.716 74.016 148.676 74.1094 148.607 74.1787C148.537 74.248 148.444 74.2878 148.346 74.2897V74.2897Z" fill="#A8A2D7"/>
<path d="M178.95 110.668C178.95 110.668 163.938 122.629 156.25 120.428C148.562 118.228 142.84 90.4497 137.625 80.214C131.971 69.064 136.277 64.8419 138.37 63.4221C139.86 62.4261 141.141 69.8817 142.542 71.5616C143.019 69.3837 142.222 67.5328 144.077 68.8187C145.395 69.733 146.096 79.0767 146.096 79.0767C146.096 79.0767 163.909 101.563 164.721 101.644L171.426 96.7755" fill="#EDEBFF"/>
<path d="M158.366 121.068C157.626 121.075 156.889 120.98 156.175 120.785C150.916 119.299 146.803 106.944 142.833 95.0287C140.91 89.2604 139.108 83.8118 137.357 80.385C131.881 69.6141 135.532 64.946 138.199 63.1174C138.304 63.0383 138.426 62.9861 138.556 62.9654C138.686 62.9446 138.819 62.956 138.944 62.9984C139.778 63.2735 140.374 64.8865 141.261 67.503C141.626 68.5809 142.006 69.6736 142.363 70.4764C142.363 70.2013 142.4 69.9337 142.408 69.6959C142.408 68.9005 142.46 68.3281 142.907 68.1051C143.354 67.8821 143.846 68.1869 144.337 68.5288C145.701 69.4729 146.364 77.1292 146.505 78.9355C153.158 87.3352 163.201 99.8009 164.78 101.191L171.239 96.4782C171.32 96.4217 171.419 96.3987 171.517 96.4139C171.614 96.4292 171.702 96.4815 171.761 96.5599C171.79 96.5994 171.811 96.6442 171.822 96.6918C171.834 96.7394 171.836 96.7887 171.828 96.8371C171.821 96.8854 171.804 96.9318 171.778 96.9735C171.752 97.0153 171.719 97.0515 171.679 97.0803L165.011 101.942C164.938 101.995 164.848 102.022 164.758 102.016C163.931 101.934 154.015 89.6246 145.85 79.3072C145.801 79.2481 145.773 79.1753 145.768 79.099C145.485 75.3006 144.717 69.6884 143.913 69.1235C143.391 68.7667 143.235 68.7593 143.22 68.7667C143.179 69.0798 143.157 69.395 143.153 69.7107C143.145 70.3601 143.075 71.0072 142.944 71.6434C142.93 71.7115 142.896 71.7742 142.847 71.8241C142.798 71.8741 142.737 71.9093 142.669 71.9259C142.601 71.9416 142.53 71.9381 142.464 71.9158C142.398 71.8934 142.34 71.8532 142.296 71.7995C141.685 71.0562 141.141 69.4506 140.56 67.7409C139.979 66.0312 139.249 63.883 138.705 63.7046C138.705 63.7046 138.705 63.7046 138.631 63.7046C136.165 65.392 132.805 69.7628 138.027 80.0579C139.793 83.5367 141.618 88.9779 143.548 94.7982C147.273 105.985 151.504 118.674 156.392 120.072C163.767 122.19 178.578 110.497 178.742 110.408C178.819 110.357 178.914 110.336 179.006 110.351C179.098 110.365 179.181 110.414 179.239 110.486C179.297 110.559 179.326 110.651 179.319 110.744C179.313 110.837 179.271 110.924 179.203 110.988C178.6 111.412 166.389 121.068 158.366 121.068Z" fill="#271A8A"/>
<path d="M191.168 58.3377C191.168 58.3377 186.974 64.4554 187.801 65.7711C188.628 67.0868 191.459 66.2617 191.459 66.2617" fill="white"/>
<path d="M189.686 66.8712C189.272 66.9156 188.853 66.8551 188.469 66.6953C188.085 66.5355 187.748 66.2815 187.488 65.9569C186.594 64.5594 189.85 59.6088 190.863 58.1296C190.89 58.0888 190.926 58.0539 190.967 58.0269C191.008 58 191.055 57.9815 191.103 57.9725C191.152 57.9635 191.202 57.9642 191.25 57.9746C191.298 57.985 191.344 58.0048 191.384 58.033C191.463 58.0898 191.517 58.1747 191.535 58.2701C191.553 58.3656 191.534 58.4643 191.481 58.5459C189.529 61.3928 187.689 64.8865 188.114 65.5555C188.672 66.4252 190.647 66.0907 191.354 65.89C191.453 65.8624 191.559 65.8751 191.648 65.9253C191.738 65.9755 191.804 66.059 191.831 66.1576C191.859 66.2562 191.846 66.3617 191.796 66.4509C191.746 66.5401 191.662 66.6057 191.563 66.6333C190.95 66.7906 190.319 66.8705 189.686 66.8712V66.8712Z" fill="#271A8A"/>
<path d="M192.174 50.176C189.537 52.2573 190.222 56.7619 190.192 59.6832C190.162 63.7913 190.225 67.8995 190.378 72.0077C190.475 74.6168 197.232 74.7803 198.439 74.0221L197.225 84.295L211.514 79.0916L211.253 67.1983C211.253 67.1983 206.783 67.1983 204.228 61.8091C201.673 56.42 201.919 48.3028 201.919 48.3028C201.919 48.3028 194.759 48.1392 192.174 50.176Z" fill="#EDEBFF"/>
<path d="M197.225 84.6666C197.141 84.6656 197.06 84.6368 196.994 84.5848C196.944 84.5458 196.904 84.4946 196.88 84.436C196.855 84.3775 196.846 84.3135 196.853 84.2503L198.007 74.587C196.45 74.9661 193.21 74.8472 191.422 73.9106C191.035 73.7587 190.698 73.5023 190.449 73.1701C190.201 72.8379 190.05 72.443 190.013 72.0299C189.857 67.9416 189.797 63.7864 189.827 59.6906C189.827 59.2 189.827 58.6648 189.827 58.1073C189.738 55.2678 189.634 51.737 191.98 49.9307C194.632 47.8345 201.665 47.9757 201.948 47.9757C202.048 47.9796 202.142 48.0222 202.21 48.0945C202.278 48.1668 202.315 48.2629 202.313 48.3622C202.313 48.444 202.105 56.4943 204.548 61.6976C206.977 66.7746 211.201 66.901 211.253 66.901C211.35 66.9028 211.443 66.9415 211.512 67.0092C211.581 67.0769 211.622 67.1685 211.626 67.2652L211.887 79.1585C211.887 79.2359 211.864 79.3116 211.82 79.3754C211.776 79.4392 211.713 79.488 211.641 79.5153L197.352 84.7187C197.307 84.7091 197.264 84.6915 197.225 84.6666ZM198.447 73.6504C198.519 73.6483 198.589 73.6691 198.648 73.7099C198.707 73.7479 198.754 73.8013 198.784 73.8642C198.814 73.9272 198.827 73.9972 198.819 74.0667L197.665 83.73L211.134 78.8166L210.888 67.5328C209.734 67.4064 206.12 66.6259 203.893 61.9652C201.613 57.193 201.524 50.3618 201.539 48.667C200.049 48.667 194.536 48.7933 192.412 50.4584C190.364 52.0789 190.468 55.4016 190.55 58.0702C190.55 58.6351 190.55 59.1852 190.55 59.6832C190.55 63.7641 190.55 67.9045 190.736 71.9928C190.736 72.476 191.094 72.8922 191.749 73.2416C193.664 74.2451 197.441 74.193 198.223 73.7024C198.287 73.6611 198.364 73.6427 198.439 73.6504H198.447Z" fill="#271A8A"/>
<path d="M225.93 162.018L225.945 141.145L178.496 140.892L173.616 162.018H225.93Z" fill="#271A8A"/>
<path d="M225.93 162.39H173.616C173.56 162.388 173.506 162.375 173.456 162.351C173.406 162.326 173.362 162.291 173.327 162.248C173.292 162.205 173.268 162.154 173.254 162.1C173.241 162.047 173.24 161.99 173.251 161.936L178.131 140.803C178.151 140.722 178.198 140.65 178.264 140.599C178.33 140.547 178.412 140.52 178.496 140.521L225.945 140.773C226.043 140.775 226.137 140.815 226.206 140.884C226.276 140.954 226.315 141.047 226.317 141.145V162.018C226.317 162.068 226.307 162.118 226.288 162.164C226.268 162.21 226.239 162.251 226.203 162.286C226.167 162.321 226.124 162.348 226.077 162.366C226.03 162.383 225.98 162.392 225.93 162.39ZM174.085 161.646H225.535V141.517L178.756 141.264L174.085 161.646Z" fill="#271A8A"/>
<path d="M189.35 81.7453C196.093 75.9399 217.906 74.9512 220.782 83.232C223.658 91.5127 227.926 143.011 227.926 143.011C211.976 148.415 175.568 143.107 175.568 143.107L180.679 118.25C180.679 118.25 182.079 88.0116 189.35 81.7453Z" fill="#6D5DE7"/>
<path d="M198.439 74.0221C198.439 74.0221 201.911 73.9106 203.58 71.5393C203.58 71.5393 203.364 75.6797 197.963 77.4042L198.439 74.0221Z" fill="#271A8A"/>
<path d="M197.97 77.7833C197.884 77.7834 197.8 77.7546 197.732 77.7016C197.682 77.6606 197.644 77.6077 197.62 77.5479C197.597 77.4881 197.589 77.4233 197.597 77.3596L198.074 73.9775C198.088 73.8913 198.131 73.8124 198.196 73.7541C198.261 73.6959 198.344 73.6619 198.432 73.6578C198.469 73.6578 201.74 73.524 203.282 71.3386C203.327 71.2714 203.393 71.221 203.47 71.1955C203.547 71.1699 203.63 71.1706 203.706 71.1974C203.783 71.2243 203.849 71.2749 203.894 71.3417C203.94 71.4086 203.963 71.4883 203.96 71.5691C203.96 71.7475 203.662 75.9845 198.082 77.7685C198.046 77.7806 198.008 77.7857 197.97 77.7833V77.7833ZM198.775 74.3789L198.424 76.8616C199.417 76.5495 200.33 76.0274 201.101 75.3308C201.873 74.6341 202.484 73.7795 202.894 72.8253C201.688 73.7106 200.259 74.2457 198.767 74.3714L198.775 74.3789Z" fill="#271A8A"/>
<path d="M192.683 57.8314C193.004 57.8141 193.228 57.1421 193.184 56.3304C193.14 55.5188 192.844 54.8748 192.524 54.8921C192.203 54.9095 191.979 55.5815 192.023 56.3931C192.067 57.2048 192.363 57.8487 192.683 57.8314Z" fill="#271A8A"/>
<path d="M189.35 81.7453L165.175 97.2066L174.406 122.101L192.725 114.712L189.35 81.7453Z" fill="#6D5DE7"/>
<path d="M180.09 119.901C180.024 119.901 179.959 119.884 179.901 119.851C179.844 119.819 179.796 119.772 179.762 119.715C179.713 119.63 179.7 119.529 179.725 119.435C179.75 119.34 179.812 119.259 179.896 119.209C180.015 119.142 191.198 112.623 196.517 106.573C196.549 106.536 196.587 106.505 196.631 106.483C196.674 106.461 196.722 106.448 196.77 106.444C196.819 106.441 196.868 106.447 196.914 106.463C196.96 106.478 197.002 106.503 197.039 106.535C197.113 106.601 197.158 106.693 197.165 106.792C197.172 106.89 197.14 106.988 197.076 107.063C191.682 113.24 180.388 119.819 180.276 119.886C180.216 119.904 180.152 119.91 180.09 119.901Z" fill="#271A8A"/>
<path d="M226.779 130.441C226.686 130.443 226.596 130.41 226.526 130.348C226.457 130.285 226.414 130.199 226.407 130.107C225.662 121.536 222.965 98.8197 222.935 98.5892C222.926 98.4912 222.955 98.3936 223.016 98.3163C223.077 98.239 223.165 98.1877 223.263 98.1729C223.361 98.1624 223.46 98.1907 223.538 98.2518C223.616 98.3129 223.667 98.402 223.68 98.5C223.68 98.7304 226.377 121.462 227.152 130.04C227.158 130.138 227.126 130.235 227.062 130.31C226.998 130.384 226.907 130.432 226.809 130.441H226.779Z" fill="#271A8A"/>
<path d="M190.252 67.9193C190.252 67.9193 195.631 67.7186 195.631 67.9193C195.024 69.1594 193.954 70.1124 192.651 70.573C192.162 70.6996 191.643 70.6316 191.204 70.3833C190.764 70.1349 190.439 69.7258 190.297 69.2424L190.252 67.9193Z" fill="#271A8A"/>
<path d="M192.07 71.0116C191.582 70.9918 191.114 70.8196 190.73 70.5195C190.346 70.2193 190.067 69.8064 189.931 69.3391C189.928 69.307 189.928 69.2745 189.931 69.2424L189.894 67.9342C189.892 67.8361 189.928 67.741 189.995 67.6689C190.062 67.5969 190.154 67.5534 190.252 67.5476C195.608 67.3469 195.765 67.4956 195.899 67.622C195.974 67.6971 196.017 67.7984 196.018 67.9044C195.725 68.613 195.282 69.2497 194.719 69.7707C194.155 70.2917 193.485 70.6847 192.755 70.9224C192.531 70.9805 192.301 71.0105 192.07 71.0116V71.0116ZM190.662 69.1607C190.713 69.3549 190.803 69.5368 190.927 69.6953C191.05 69.8538 191.205 69.9857 191.381 70.083C191.557 70.1802 191.751 70.2409 191.952 70.2612C192.152 70.2816 192.354 70.2612 192.546 70.2013C193.585 69.8351 194.469 69.1307 195.057 68.2018C194.223 68.2018 192.39 68.2018 190.639 68.2761L190.662 69.1607Z" fill="#271A8A"/>
<path d="M219.933 44.378C224.73 49.336 226.317 56.5463 226.891 63.4147C227.465 70.2831 227.263 77.3225 229.342 83.901C231.182 89.751 234.833 95.5267 233.618 101.54C232.873 105.079 230.512 108.126 227.561 110.215C224.536 112.213 221.159 113.623 217.608 114.37C213.079 115.478 205.793 116.816 201.725 113.627C200.293 112.431 199.182 110.898 198.492 109.167C196.316 104.187 196.324 98.448 197.65 93.1778C199.289 86.6811 203.505 81.4777 205.45 75.1817C205.942 73.5761 206.344 71.8441 205.904 70.2237C205.465 68.6032 204.116 67.1686 203.058 65.7637C199.862 61.3929 199.602 56.3828 200.607 51.2835C197.858 51.0977 190.609 51.9377 191.429 47.0391C191.697 45.4484 192.919 44.1921 194.156 43.1812C194.841 42.6341 195.566 42.1372 196.324 41.6945C203.602 37.3386 213.973 38.2232 219.933 44.378Z" fill="white"/>
<path d="M208.959 115.991C206.247 115.991 203.49 115.5 201.509 113.947C200.022 112.715 198.874 111.126 198.171 109.33C196.145 104.692 195.839 98.9237 197.307 93.1034C198.186 89.5949 199.832 86.4134 201.427 83.3583C202.9 80.7164 204.132 77.9474 205.107 75.085C205.702 73.5755 205.859 71.9296 205.562 70.3351C205.126 69.0924 204.445 67.9498 203.557 66.9753C203.289 66.6408 203.029 66.3063 202.775 65.9643C199.959 62.1139 199.11 57.416 200.175 51.6106H199.065C196.584 51.6106 193.18 51.5585 191.712 49.8117C191.398 49.4155 191.177 48.9539 191.066 48.4611C190.956 47.9682 190.957 47.4568 191.071 46.9647C191.384 45.1138 192.859 43.7461 193.94 42.8838C194.647 42.3187 195.394 41.8045 196.175 41.3451C203.788 36.8405 214.36 38.0596 220.245 44.1326C224.313 48.3399 226.556 54.4575 227.308 63.3998C227.457 65.1615 227.554 66.9604 227.651 68.6998C227.926 73.7396 228.21 78.9504 229.737 83.8043C230.236 85.3728 230.869 86.9635 231.487 88.5096C233.186 92.7466 234.937 97.1323 234.028 101.629C233.146 105.269 230.909 108.437 227.77 110.49C225.185 112.319 221.981 113.657 217.69 114.705C214.84 115.471 211.909 115.903 208.959 115.991ZM206.366 39.353C202.895 39.3257 199.481 40.2293 196.48 41.9695C195.738 42.4144 195.028 42.9112 194.357 43.4562C192.792 44.7124 191.973 45.8646 191.764 47.0837C191.67 47.4667 191.664 47.8659 191.745 48.2518C191.826 48.6377 191.993 49.0006 192.233 49.3137C193.485 50.8003 196.823 50.8003 199.02 50.8524C199.631 50.8524 200.168 50.8524 200.6 50.8524C200.654 50.8552 200.707 50.87 200.754 50.8957C200.802 50.9214 200.843 50.9574 200.875 51.001C200.907 51.0433 200.929 51.0915 200.94 51.1427C200.952 51.1939 200.953 51.2469 200.942 51.2984C199.803 57.0815 200.577 61.705 203.334 65.4886C203.58 65.8231 203.833 66.1502 204.079 66.4772C205.032 67.5285 205.759 68.7629 206.217 70.1047C206.56 71.8355 206.4 73.628 205.755 75.2709C204.77 78.1749 203.524 80.9839 202.03 83.6631C200.466 86.6885 198.834 89.8253 197.977 93.2521C196.547 98.9163 196.838 104.514 198.797 108.996C199.455 110.676 200.526 112.164 201.911 113.322C206.269 116.704 214.71 114.653 217.482 113.976C221.676 112.95 224.797 111.65 227.308 109.873C230.269 107.897 232.377 104.883 233.216 101.429C234.08 97.1472 232.367 92.873 230.713 88.7326C230.094 87.1791 229.446 85.566 228.947 83.9753C227.39 79.0321 227.099 73.7768 226.824 68.6924C226.727 66.953 226.63 65.1615 226.481 63.4073C225.736 54.6508 223.568 48.6744 219.627 44.6009C217.874 42.8953 215.799 41.5533 213.523 40.6525C211.247 39.7517 208.814 39.31 206.366 39.353V39.353Z" fill="#271A8A"/>
<path d="M199.013 60.8205C199.144 59.7933 199.56 58.823 200.212 58.0181C200.613 57.3322 201.115 56.7106 201.702 56.1746C202.005 55.9103 202.362 55.7159 202.748 55.6054C203.135 55.4949 203.541 55.471 203.937 55.5354C204.28 55.6274 204.6 55.7909 204.874 56.0152C205.149 56.2394 205.373 56.5192 205.532 56.8362C205.845 57.4753 206.01 58.1764 206.016 58.8878C206.06 60.4309 205.697 61.9586 204.964 63.3178C204.23 64.6771 203.152 65.8204 201.836 66.6333L202.067 66.388" fill="white"/>
<path d="M201.837 67.0124C201.763 67.0129 201.691 66.9916 201.629 66.9512C201.568 66.9109 201.52 66.8533 201.491 66.7857C201.463 66.7182 201.455 66.6436 201.468 66.5715C201.482 66.4995 201.517 66.433 201.568 66.3806L201.799 66.1428C201.836 66.1015 201.883 66.0698 201.934 66.0504C201.986 66.031 202.042 66.0244 202.097 66.0313C203.23 65.2242 204.148 64.1525 204.77 62.9098C205.392 61.6671 205.7 60.2913 205.666 58.9027C205.664 58.2483 205.514 57.6029 205.226 57.0146C205.094 56.7438 204.905 56.5042 204.673 56.3119C204.44 56.1197 204.169 55.9791 203.878 55.8996C203.537 55.848 203.188 55.8719 202.857 55.9695C202.527 56.0672 202.221 56.2362 201.963 56.4646C201.399 56.9792 200.912 57.5725 200.518 58.2263C199.912 58.9786 199.521 59.8799 199.385 60.8354C199.385 60.8845 199.374 60.9329 199.354 60.9778C199.333 61.0226 199.304 61.0629 199.268 61.0962C199.232 61.1296 199.189 61.1553 199.143 61.1717C199.096 61.1882 199.047 61.1952 198.998 61.1922C198.949 61.1902 198.901 61.1787 198.857 61.1583C198.812 61.1378 198.772 61.1088 198.739 61.0729C198.706 61.037 198.68 60.9949 198.663 60.949C198.646 60.9032 198.638 60.8544 198.64 60.8056C198.777 59.7176 199.213 58.6886 199.899 57.8323C200.332 57.117 200.869 56.4705 201.494 55.9145C201.835 55.6068 202.241 55.3802 202.682 55.2514C203.124 55.1227 203.588 55.0953 204.042 55.1712C204.439 55.2694 204.809 55.4535 205.127 55.7104C205.445 55.9672 205.703 56.2907 205.882 56.6578C206.228 57.3507 206.409 58.1138 206.411 58.8878C206.451 60.4999 206.068 62.0945 205.299 63.5132C204.531 64.9319 203.404 66.1254 202.03 66.9753C201.97 67.0056 201.903 67.0184 201.837 67.0124Z" fill="#271A8A"/>
<path d="M107.326 61.207H91.1743V77.3225H107.326V61.207Z" fill="white"/>
<path d="M107.326 77.6941H91.1743C91.0755 77.6941 90.9807 77.655 90.9109 77.5853C90.841 77.5156 90.8018 77.421 90.8018 77.3225V61.207C90.8018 61.1084 90.841 61.0139 90.9109 60.9442C90.9807 60.8745 91.0755 60.8353 91.1743 60.8353H107.326C107.425 60.8353 107.519 60.8745 107.589 60.9442C107.659 61.0139 107.698 61.1084 107.698 61.207V77.3225C107.698 77.421 107.659 77.5156 107.589 77.5853C107.519 77.655 107.425 77.6941 107.326 77.6941ZM91.5468 76.9508H106.953V61.5787H91.5468V76.9508Z" fill="#A8A2D7"/>
<path d="M104.383 65.0277H94.117C94.0182 65.0277 93.9235 64.9886 93.8536 64.9189C93.7837 64.8492 93.7445 64.7546 93.7445 64.6561C93.7445 64.5575 93.7837 64.463 93.8536 64.3933C93.9235 64.3236 94.0182 64.2844 94.117 64.2844H104.383C104.482 64.2844 104.577 64.3236 104.646 64.3933C104.716 64.463 104.756 64.5575 104.756 64.6561C104.756 64.7546 104.716 64.8492 104.646 64.9189C104.577 64.9886 104.482 65.0277 104.383 65.0277Z" fill="#A8A2D7"/>
<path d="M104.383 68.0383H94.117C94.0182 68.0383 93.9235 67.9991 93.8536 67.9294C93.7837 67.8597 93.7445 67.7652 93.7445 67.6666C93.7445 67.568 93.7837 67.4735 93.8536 67.4038C93.9235 67.3341 94.0182 67.2949 94.117 67.2949H104.383C104.482 67.2949 104.577 67.3341 104.646 67.4038C104.716 67.4735 104.756 67.568 104.756 67.6666C104.756 67.7652 104.716 67.8597 104.646 67.9294C104.577 67.9991 104.482 68.0383 104.383 68.0383Z" fill="#A8A2D7"/>
<path d="M104.383 71.0933H94.117C94.0182 71.0933 93.9235 71.0542 93.8536 70.9845C93.7837 70.9148 93.7445 70.8202 93.7445 70.7217C93.7445 70.6231 93.7837 70.5286 93.8536 70.4589C93.9235 70.3892 94.0182 70.35 94.117 70.35H104.383C104.482 70.35 104.577 70.3892 104.646 70.4589C104.716 70.5286 104.756 70.6231 104.756 70.7217C104.756 70.8202 104.716 70.9148 104.646 70.9845C104.577 71.0542 104.482 71.0933 104.383 71.0933Z" fill="#A8A2D7"/>
<path d="M100.375 74.0667H94.117C94.0182 74.0667 93.9235 74.0275 93.8536 73.9578C93.7837 73.8881 93.7445 73.7936 93.7445 73.695C93.7445 73.5964 93.7837 73.5019 93.8536 73.4322C93.9235 73.3625 94.0182 73.3233 94.117 73.3233H100.375C100.474 73.3233 100.569 73.3625 100.638 73.4322C100.708 73.5019 100.748 73.5964 100.748 73.695C100.748 73.7936 100.708 73.8881 100.638 73.9578C100.569 74.0275 100.474 74.0667 100.375 74.0667Z" fill="#A8A2D7"/>
<path d="M115.491 86.354H98.8701V102.938H115.491V86.354Z" fill="white"/>
<path d="M115.491 103.309H98.885C98.7862 103.309 98.6914 103.27 98.6216 103.201C98.5517 103.131 98.5125 103.036 98.5125 102.938V86.354C98.5125 86.2554 98.5517 86.1609 98.6216 86.0912C98.6914 86.0215 98.7862 85.9823 98.885 85.9823H115.506C115.605 85.9823 115.699 86.0215 115.769 86.0912C115.839 86.1609 115.878 86.2554 115.878 86.354V102.938C115.878 102.988 115.868 103.037 115.849 103.083C115.829 103.13 115.8 103.171 115.764 103.206C115.728 103.241 115.685 103.268 115.638 103.285C115.591 103.303 115.541 103.311 115.491 103.309ZM99.2425 102.566H115.118V86.7033H99.2425V102.566Z" fill="#A8A2D7"/>
<path d="M112.466 90.2788H101.865C101.766 90.2788 101.672 90.2396 101.602 90.1699C101.532 90.1002 101.493 90.0057 101.493 89.9071C101.493 89.8086 101.532 89.714 101.602 89.6443C101.672 89.5746 101.766 89.5355 101.865 89.5355H112.437C112.535 89.5355 112.63 89.5746 112.7 89.6443C112.77 89.714 112.809 89.8086 112.809 89.9071C112.809 90.0057 112.77 90.1002 112.7 90.1699C112.63 90.2396 112.535 90.2788 112.437 90.2788H112.466Z" fill="#A8A2D7"/>
<path d="M112.466 93.3934H101.865C101.766 93.3934 101.672 93.3542 101.602 93.2845C101.532 93.2148 101.493 93.1203 101.493 93.0217C101.493 92.9231 101.532 92.8286 101.602 92.7589C101.672 92.6892 101.766 92.65 101.865 92.65H112.437C112.535 92.65 112.63 92.6892 112.7 92.7589C112.77 92.8286 112.809 92.9231 112.809 93.0217C112.809 93.1203 112.77 93.2148 112.7 93.2845C112.63 93.3542 112.535 93.3934 112.437 93.3934H112.466Z" fill="#A8A2D7"/>
<path d="M112.466 96.4782H101.865C101.766 96.4782 101.672 96.439 101.602 96.3693C101.532 96.2996 101.493 96.2051 101.493 96.1065C101.493 96.008 101.532 95.9134 101.602 95.8437C101.672 95.774 101.766 95.7349 101.865 95.7349H112.437C112.535 95.7349 112.63 95.774 112.7 95.8437C112.77 95.9134 112.809 96.008 112.809 96.1065C112.809 96.2051 112.77 96.2996 112.7 96.3693C112.63 96.439 112.535 96.4782 112.437 96.4782H112.466Z" fill="#A8A2D7"/>
<path d="M108.309 99.5779H101.865C101.766 99.5779 101.672 99.5387 101.602 99.469C101.532 99.3993 101.493 99.3048 101.493 99.2062C101.493 99.1076 101.532 99.0131 101.602 98.9434C101.672 98.8737 101.766 98.8345 101.865 98.8345H108.28C108.378 98.8345 108.473 98.8737 108.543 98.9434C108.613 99.0131 108.652 99.1076 108.652 99.2062C108.652 99.3048 108.613 99.3993 108.543 99.469C108.473 99.5387 108.378 99.5779 108.28 99.5779H108.309Z" fill="#A8A2D7"/>
<path d="M67.3193 123.127C67.3193 123.127 83.158 132.686 87.8366 132.441C92.5152 132.195 97.1119 80.608 97.3428 78.7422C97.5142 77.4191 100.092 72.4611 100.673 71.1528C101.384 69.4199 101.705 67.5521 101.612 65.6819C101.433 63.8161 98.0878 62.4038 97.2311 62.5747C94.5938 63.0951 93.29 67.0868 91.6957 69.2647C91.2189 68.7816 91.2115 66.1725 90.9507 65.5481C87.5833 69.0789 88.5369 74.1113 88.7977 78.4746C88.9318 80.6154 79.4479 108.208 79.4479 108.208L75.045 105.673" fill="#EDEBFF"/>
<path d="M87.6579 132.842C82.7111 132.842 67.7664 123.855 67.1257 123.469C67.0407 123.417 66.9796 123.335 66.9559 123.238C66.9321 123.142 66.9476 123.04 66.999 122.956C67.0504 122.871 67.1334 122.81 67.2298 122.786C67.3262 122.763 67.4281 122.778 67.5131 122.829C67.6695 122.926 83.3294 132.351 87.8143 132.091C88.7307 132.047 92.0981 128.174 96.799 80.4817C96.8959 79.5079 96.9555 78.8909 96.9778 78.7199C97.097 77.7536 98.2741 75.2783 99.5779 72.6097C99.9057 71.9259 100.181 71.3535 100.323 71.0265C101.011 69.3528 101.322 67.5483 101.232 65.7414C101.07 65.0514 100.641 64.453 100.04 64.0763C99.2531 63.4482 98.3008 63.0609 97.2982 62.9613C95.5847 63.2958 94.4523 65.3102 93.3497 67.2652C92.9412 68.0356 92.4859 68.7803 91.9863 69.4952C91.9544 69.5395 91.9132 69.5763 91.8656 69.6033C91.818 69.6302 91.7652 69.6466 91.7107 69.6513C91.6571 69.6538 91.6037 69.6451 91.5537 69.6259C91.5037 69.6067 91.4582 69.5774 91.4201 69.5398C91.0849 69.1979 90.9657 68.4099 90.8167 67.1611C90.8167 66.8935 90.7496 66.6185 90.7124 66.3732C88.4029 69.2647 88.7083 73.0632 88.9989 76.7353C89.0436 77.3299 89.0957 77.9097 89.1255 78.4895C89.2596 80.6452 80.7294 105.539 79.7534 108.372C79.7336 108.422 79.7031 108.469 79.664 108.507C79.6249 108.545 79.5782 108.575 79.5268 108.594C79.4754 108.613 79.4205 108.621 79.3658 108.617C79.3111 108.613 79.2579 108.598 79.2096 108.572L74.8439 106.03C74.7593 105.98 74.6978 105.899 74.6727 105.805C74.6476 105.71 74.6609 105.609 74.7098 105.525C74.7609 105.44 74.8434 105.378 74.9395 105.353C75.0355 105.328 75.1376 105.342 75.2238 105.391L79.2021 107.725C83.0016 96.6194 88.455 80.0134 88.3954 78.5267C88.3607 77.9518 88.316 77.372 88.2613 76.7873C87.9559 72.9071 87.6057 68.514 90.6453 65.3177C90.6879 65.2754 90.7395 65.2435 90.7963 65.2241C90.8531 65.2048 90.9136 65.1987 90.9731 65.2062C91.0323 65.2166 91.0881 65.241 91.136 65.2771C91.184 65.3133 91.2226 65.3603 91.2488 65.4143C91.4272 65.9478 91.5324 66.5029 91.5617 67.0645C91.6064 67.451 91.6809 68.0531 91.7777 68.4917C92.0906 68.0085 92.3961 67.4659 92.709 66.901C93.8339 64.9014 95.1079 62.6342 97.179 62.2328C97.8793 62.0916 99.414 62.6788 100.517 63.4816C100.903 63.7228 101.236 64.0416 101.492 64.4178C101.749 64.7941 101.924 65.2195 102.007 65.667C102.111 67.6035 101.78 69.5388 101.038 71.3312C100.889 71.6657 100.606 72.2381 100.293 72.9294C99.3842 74.7877 97.8718 77.8874 97.7601 78.8092C97.7601 78.9801 97.6781 79.5896 97.5813 80.556C92.4557 132.589 89.0287 132.775 87.8963 132.835L87.6579 132.842Z" fill="#271A8A"/>
<path d="M19.7362 162.018L21.0921 117.73L4.88089 121.187L4.1955 162.018H19.7362Z" fill="#EDEBFF"/>
<path d="M19.7362 162.39H4.1955C4.14664 162.39 4.09821 162.381 4.0533 162.361C4.00839 162.342 3.96801 162.314 3.93475 162.278C3.86344 162.207 3.82324 162.111 3.823 162.01L4.5084 121.179C4.50969 121.096 4.53905 121.015 4.59175 120.951C4.64445 120.886 4.71742 120.841 4.79895 120.822L21.0176 117.366C21.0725 117.355 21.1294 117.356 21.1836 117.37C21.2379 117.384 21.2881 117.411 21.3305 117.448C21.3748 117.481 21.4102 117.525 21.4335 117.576C21.4569 117.627 21.4676 117.682 21.4646 117.738L20.1087 162.025C20.1049 162.122 20.0642 162.214 19.995 162.281C19.9257 162.349 19.8331 162.388 19.7362 162.39ZM4.57545 161.646H19.3786L20.7047 118.191L5.24595 121.491L4.57545 161.646Z" fill="#271A8A"/>
<path d="M15.445 85.6404C15.445 85.6404 7.48096 92.8284 5.42476 99.7637C3.36856 106.699 0.247009 123.127 0.247009 123.127L27.067 125.989L15.445 85.6404Z" fill="#6D5DE7"/>
<path d="M45.0587 60.2704C44.3291 60.2776 43.6127 60.0753 42.995 59.6878C42.3773 59.3002 41.8842 58.7437 41.5744 58.0845C41.2647 57.4253 41.1514 56.6911 41.248 55.9694C41.3445 55.2478 41.647 54.569 42.1192 54.014C42.5914 53.4589 43.2136 53.051 43.9116 52.8387C44.6096 52.6265 45.354 52.6189 46.0562 52.8168C46.7585 53.0147 47.3889 53.4097 47.8724 53.955C48.356 54.5002 48.6723 55.1727 48.7837 55.8922V55.8922C48.8671 56.4305 48.8334 56.9804 48.685 57.5047C48.5366 58.0289 48.277 58.5151 47.9237 58.9304C47.5704 59.3456 47.1317 59.6802 46.6374 59.9114C46.143 60.1427 45.6047 60.2651 45.0587 60.2704ZM45.0587 53.4169C44.9025 53.4058 44.7456 53.4058 44.5894 53.4169C43.9905 53.5077 43.432 53.7737 42.9847 54.1813C42.5374 54.5889 42.2213 55.1197 42.0764 55.7066C41.9315 56.2935 41.9643 56.9101 42.1708 57.4783C42.3772 58.0466 42.7479 58.541 43.236 58.8989C43.7241 59.2569 44.3077 59.4624 44.9128 59.4894C45.518 59.5163 46.1176 59.3636 46.6358 59.0504C47.1539 58.7373 47.5673 58.2779 47.8237 57.7302C48.0801 57.1826 48.1679 56.5714 48.076 55.974V55.974C47.958 55.2616 47.591 54.614 47.0401 54.1459C46.4891 53.6778 45.7898 53.4195 45.0662 53.4169H45.0587Z" fill="#271A8A"/>
<path d="M22.9546 74.8992C21.4125 75.0702 19.8554 75.0405 18.0525 75.1594C16.3837 75.2783 14.1711 74.9884 13.8805 73.3457C13.6347 71.9408 15.1545 70.521 14.5734 69.2127C14.381 68.8687 14.1287 68.5616 13.8284 68.3059C8.70276 63.2735 6.74341 54.3386 10.0587 47.8865C11.4972 45.1114 13.7755 42.859 16.57 41.4492C21.887 38.8746 27.8588 37.9601 33.705 38.8252C38.175 39.4125 43.837 42.0216 44.0679 47.2621C44.1573 49.1502 42.9802 51.1869 41.0879 51.5586C40.9836 57.2228 38.6667 61.4374 35.642 66.0015C33.6211 69.1198 30.8565 71.6892 27.596 73.4795C26.1588 74.2558 24.5809 74.7385 22.9546 74.8992V74.8992Z" fill="white"/>
<path d="M17.382 75.5533C15.147 75.5533 13.7539 74.81 13.5155 73.4051C13.4499 72.6633 13.5972 71.9183 13.9401 71.2569C14.2307 70.5135 14.484 69.9189 14.2307 69.3539C14.079 69.0741 13.8799 68.8226 13.6421 68.6106L13.5751 68.5437C8.15146 63.2214 6.46031 54.0561 9.73831 47.7304C11.2079 44.8838 13.5416 42.5734 16.4061 41.1296C21.791 38.5338 27.8318 37.6069 33.7497 38.4684C38.9125 39.13 44.2169 42.1033 44.4404 47.2472C44.5224 49.1204 43.4496 51.2835 41.4604 51.8484C41.2742 57.7208 38.7561 61.9949 35.9623 66.2096C33.9015 69.3804 31.0861 71.9929 27.7673 73.8139C26.2739 74.6202 24.6361 75.1254 22.9472 75.3006C22.0383 75.3972 21.1294 75.4344 20.1683 75.4641C19.4904 75.4641 18.7826 75.5162 18.0376 75.5608C17.8365 75.5533 17.6055 75.5533 17.382 75.5533ZM29.4063 38.907C25.0187 38.8624 20.6815 39.8424 16.7413 41.7688C14.0227 43.151 11.8058 45.3474 10.4014 48.05C7.26491 54.1379 8.91136 62.9167 14.1264 68.0308L14.1934 68.0977C14.5014 68.3664 14.7543 68.692 14.9384 69.0566C15.064 69.4665 15.1038 69.8978 15.055 70.3237C15.0063 70.7495 14.8703 71.1608 14.6553 71.5319C14.3717 72.0691 14.2379 72.6724 14.2679 73.2787C14.551 74.8918 17.2479 74.8397 18.0525 74.7654C18.8571 74.6911 19.5425 74.6836 20.2056 74.6613C21.1592 74.6613 22.0532 74.5944 22.9323 74.4978C24.5265 74.3478 26.0743 73.8801 27.4842 73.1226C30.6876 71.3585 33.4033 68.8302 35.3887 65.7636C38.7263 60.7313 40.6782 56.7916 40.775 51.5214C40.7738 51.4362 40.8032 51.3534 40.8579 51.288C40.9125 51.2225 40.9888 51.1788 41.073 51.1646C42.8014 50.8152 43.7923 48.8602 43.7178 47.2546C43.4868 41.8803 37.2959 39.6429 33.6752 39.1597C32.2591 38.9851 30.8331 38.9031 29.4063 38.9144V38.907Z" fill="#271A8A"/>
<path d="M43.8444 59.3561C43.8444 59.3561 48.7987 65.2359 48.076 66.6556C47.3534 68.0754 44.351 67.5328 44.351 67.5328" fill="white"/>
<path d="M45.5952 68.0085C45.1581 68.0113 44.7216 67.974 44.2914 67.897C44.2425 67.8882 44.1958 67.8699 44.154 67.8431C44.1121 67.8163 44.076 67.7816 44.0476 67.7408C43.9904 67.6586 43.9682 67.557 43.986 67.4584C44.0037 67.3599 44.06 67.2724 44.1425 67.2152C44.2249 67.1581 44.3267 67.1359 44.4255 67.1537C45.1705 67.2875 47.2565 67.4361 47.7408 66.4698C48.1207 65.7265 45.8634 62.3146 43.5613 59.5791C43.5232 59.5431 43.4931 59.4995 43.4731 59.4511C43.453 59.4028 43.4434 59.3507 43.4449 59.2984C43.4464 59.246 43.459 59.1946 43.4818 59.1475C43.5046 59.1003 43.5372 59.0585 43.5773 59.0248C43.6175 58.9911 43.6643 58.9662 43.7147 58.9518C43.7652 58.9374 43.8181 58.9337 43.8701 58.9412C43.922 58.9486 43.9718 58.9669 44.0161 58.9948C44.0605 59.0228 44.0985 59.0598 44.1275 59.1034C45.327 60.5231 49.1786 65.2879 48.4113 66.8117C47.9121 67.8004 46.6009 68.0085 45.5952 68.0085Z" fill="#271A8A"/>
<path d="M41.9745 51.0233C44.9098 52.904 44.6639 57.6167 44.9545 60.6198C45.4064 64.8568 45.764 69.0987 46.0273 73.3456C46.1912 76.0365 39.2403 76.8913 37.9217 76.2372L40.2684 86.7033L25.0108 82.786L24.6011 73.97C24.6011 73.97 29.3393 73.4571 31.4253 67.6889C33.5113 61.9206 31.7531 50.0942 31.7531 50.0942C31.7531 50.0942 39.1062 49.217 41.9745 51.0233Z" fill="#EDEBFF"/>
<path d="M40.2684 87.0899H40.179L24.9214 83.1725C24.8442 83.1524 24.7753 83.1085 24.7245 83.0472C24.6737 82.9858 24.6435 82.91 24.6383 82.8306L24.2286 74.0072C24.2241 73.9134 24.2555 73.8214 24.3163 73.7496C24.3771 73.6779 24.4629 73.6319 24.5564 73.6207C24.7426 73.6207 29.0934 73.0483 31.0751 67.5848C33.1015 61.9652 31.4029 50.2875 31.388 50.1685C31.3794 50.12 31.3816 50.0702 31.3944 50.0227C31.4073 49.9752 31.4306 49.931 31.4625 49.8935C31.4916 49.8537 31.5283 49.8201 31.5705 49.7945C31.6127 49.769 31.6596 49.7521 31.7084 49.7448C32.0138 49.7448 39.2329 48.8603 42.1384 50.7409C44.7384 52.406 44.9917 56.0483 45.1929 58.977C45.1929 59.5568 45.2674 60.1069 45.3195 60.6124C45.774 64.8271 46.139 69.1161 46.3998 73.3531C46.4024 73.7801 46.2861 74.1995 46.0638 74.5644C45.8414 74.9293 45.5219 75.2253 45.1407 75.4196C43.3974 76.5717 40.0449 77.0177 38.4357 76.7798L40.6186 86.6439C40.632 86.7062 40.6295 86.7708 40.6113 86.8319C40.593 86.893 40.5597 86.9485 40.5143 86.9933C40.4462 87.0532 40.3592 87.0874 40.2684 87.0899V87.0899ZM25.3684 82.511L39.7693 86.2276L37.5864 76.3562C37.5724 76.2879 37.5775 76.2171 37.6011 76.1515C37.6248 76.0859 37.6661 76.0282 37.7205 75.9845C37.7772 75.9441 37.8436 75.9194 37.9129 75.9129C37.9823 75.9063 38.0521 75.9182 38.1154 75.9473C38.9796 76.3785 42.8834 76.044 44.7608 74.81C45.0266 74.6817 45.2529 74.4842 45.4155 74.2382C45.5781 73.9922 45.6711 73.7069 45.6846 73.4126C45.4238 69.183 45.0662 64.9088 44.6118 60.709C44.5522 60.1961 44.5149 59.6312 44.4777 59.0439C44.284 56.2787 44.0456 52.8445 41.7659 51.3802C39.4042 49.8935 33.6901 50.3098 32.1703 50.4584C32.4608 52.5769 33.6603 62.5748 31.768 67.845C29.9353 72.922 26.1507 74.0816 24.981 74.3194L25.3684 82.511Z" fill="#271A8A"/>
<path d="M45.5952 70.2237C45.5952 70.2237 42.5481 72.6172 40.3802 69.4283Z" fill="white"/>
<path d="M43.159 71.4576C42.982 71.4598 42.805 71.4473 42.6301 71.4204C42.1042 71.322 41.6058 71.1117 41.1687 70.8038C40.7316 70.496 40.3661 70.0978 40.0971 69.6364C40.0424 69.5554 40.0219 69.4561 40.0401 69.3601C40.0582 69.2641 40.1135 69.1791 40.1939 69.1235C40.2348 69.0957 40.2809 69.0763 40.3295 69.0665C40.378 69.0567 40.428 69.0566 40.4766 69.0663C40.5251 69.076 40.5712 69.0952 40.6123 69.1229C40.6533 69.1506 40.6883 69.1862 40.7154 69.2276C40.9292 69.6038 41.2202 69.9307 41.5694 70.1869C41.9186 70.4431 42.3181 70.6228 42.7418 70.7142C43.6776 70.7944 44.6104 70.53 45.3642 69.9709C45.4433 69.9115 45.5422 69.8846 45.6405 69.8956C45.7389 69.9067 45.8293 69.9549 45.8932 70.0304C45.9537 70.1095 45.9805 70.2092 45.968 70.308C45.9554 70.4067 45.9045 70.4966 45.8261 70.5581C45.0462 71.1153 44.1178 71.4284 43.159 71.4576Z" fill="#271A8A"/>
<path d="M26.7765 64.2844H26.7318C26.683 64.2789 26.6358 64.2637 26.593 64.2396C26.5502 64.2156 26.5128 64.1831 26.4829 64.1443C26.4529 64.1054 26.4312 64.0609 26.4189 64.0135C26.4067 63.966 26.4041 63.9166 26.4114 63.8681C26.6871 61.6381 27.1117 61.5787 27.2905 61.5415C27.6407 61.4523 41.222 57.6167 48.3517 55.5948C48.4006 55.5812 48.4517 55.5772 48.5022 55.5833C48.5526 55.5893 48.6013 55.6053 48.6456 55.6301C48.6899 55.6549 48.7288 55.6883 48.7602 55.7281C48.7916 55.768 48.8148 55.8136 48.8285 55.8624C48.8422 55.9112 48.8461 55.9623 48.84 56.0126C48.834 56.0629 48.818 56.1115 48.7931 56.1557C48.7682 56.1999 48.7348 56.2387 48.6949 56.27C48.6549 56.3014 48.6092 56.3245 48.5603 56.3382C46.4966 56.918 28.9519 61.8834 27.5438 62.2848C27.3368 62.8399 27.204 63.4197 27.149 64.0094C27.126 64.0898 27.077 64.1604 27.0096 64.2101C26.9422 64.2598 26.8603 64.286 26.7765 64.2844V64.2844Z" fill="#271A8A"/>
<path d="M36.0294 62.9985C35.7989 61.9569 35.283 60.9996 34.5394 60.2333C34.0458 59.5673 33.4528 58.9807 32.7812 58.4939C32.4442 58.2518 32.0574 58.0876 31.649 58.013C31.2405 57.9385 30.8206 57.9555 30.4195 58.0627C30.0814 58.1939 29.7743 58.3937 29.5178 58.6497C29.2613 58.9056 29.0609 59.212 28.9295 59.5494C28.6755 60.238 28.5788 60.9744 28.6464 61.7051C28.7602 63.3042 29.2937 64.8453 30.1934 66.1736C31.0932 67.5019 32.3273 68.5705 33.772 69.2722L33.5038 69.0418" fill="white"/>
<path d="M33.7198 69.6587C33.6658 69.6699 33.61 69.6699 33.5559 69.6587C32.0556 68.9233 30.774 67.8092 29.8383 66.4271C28.9026 65.0449 28.3453 63.4427 28.2217 61.7794C28.1513 60.9927 28.2582 60.2003 28.5346 59.4602C28.6823 59.0623 28.9136 58.7005 29.213 58.3992C29.5124 58.0979 29.873 57.8641 30.2705 57.7133C30.7256 57.5841 31.2042 57.5597 31.6701 57.6421C32.136 57.7245 32.5771 57.9116 32.9599 58.1891C33.6635 58.6974 34.2885 59.306 34.815 59.9954C35.6159 60.8184 36.1706 61.8482 36.4167 62.9687C36.4296 63.0673 36.4026 63.1669 36.3419 63.2457C36.2811 63.3244 36.1914 63.3759 36.0927 63.3887C35.9939 63.4015 35.894 63.3746 35.8151 63.314C35.7361 63.2533 35.6846 63.1639 35.6717 63.0653C35.432 62.0928 34.9355 61.2021 34.2339 60.486C33.7699 59.8466 33.2124 59.2804 32.58 58.806C32.2904 58.5932 31.957 58.4475 31.6039 58.3793C31.2508 58.3112 30.8869 58.3224 30.5387 58.4121C30.246 58.5257 29.9806 58.6997 29.7598 58.9225C29.539 59.1454 29.3678 59.4121 29.2573 59.7055C29.0176 60.3406 28.9283 61.0224 28.9965 61.6976C29.1018 63.1355 29.5598 64.5256 30.3302 65.7453C31.1006 66.9651 32.1597 67.9771 33.4144 68.6924C33.4693 68.6817 33.526 68.6834 33.5802 68.6976C33.6344 68.7118 33.6846 68.7379 33.7273 68.7741L33.988 69.0046C34.0556 69.0634 34.1001 69.1442 34.1138 69.2326C34.1274 69.321 34.1092 69.4114 34.0625 69.4877C34.0246 69.5429 33.9733 69.5876 33.9134 69.6175C33.8534 69.6474 33.7868 69.6616 33.7198 69.6587V69.6587Z" fill="#271A8A"/>
<path d="M42.9472 57.9511C43.2731 57.8953 43.421 57.1746 43.2776 56.3414C43.1342 55.5083 42.7538 54.8781 42.4279 54.9339C42.1021 54.9898 41.9541 55.7105 42.0975 56.5436C42.2409 57.3768 42.6213 58.007 42.9472 57.9511Z" fill="#271A8A"/>
<path d="M22.3661 85.7518L23.0664 80.9425L41.8776 79.8795L44.7086 86.5695C37.3545 88.6001 29.5513 88.3145 22.3661 85.7518V85.7518Z" fill="white"/>
<path d="M34.9938 88.242C30.6522 88.2466 26.3406 87.5229 22.2394 86.1012C22.1583 86.0729 22.0896 86.0174 22.0448 85.9443C22 85.8711 21.9819 85.7847 21.9936 85.6998L22.7013 80.8904C22.7119 80.8043 22.7531 80.7247 22.8173 80.6661C22.8815 80.6075 22.9645 80.5737 23.0515 80.5708L41.8627 79.5079C41.9381 79.5036 42.013 79.5227 42.0771 79.5626C42.1411 79.6026 42.1912 79.6613 42.2203 79.7308L45.0513 86.4208C45.0733 86.4674 45.0846 86.5181 45.0846 86.5695C45.0846 86.6209 45.0733 86.6717 45.0513 86.7182C45.0317 86.7651 45.0023 86.8072 44.965 86.8418C44.9278 86.8764 44.8835 86.9027 44.8353 86.9189C41.638 87.841 38.3217 88.2868 34.9938 88.242ZM22.7758 85.4991C29.6863 87.8554 37.1363 88.1447 44.2095 86.3317L41.6392 80.2586L23.3942 81.2993L22.7758 85.4991Z" fill="#271A8A"/>
<path d="M64.1457 162.018L62.9313 150.251L14.5063 151.18L14.3201 162.018H64.1457Z" fill="#271A8A"/>
<path d="M64.1457 162.39H14.3201C14.2701 162.39 14.2205 162.381 14.1744 162.362C14.1282 162.342 14.0865 162.314 14.0519 162.278C13.9852 162.205 13.9481 162.109 13.9476 162.01L14.1338 151.173C14.1338 151.076 14.1723 150.983 14.2407 150.915C14.3092 150.847 14.4021 150.808 14.4989 150.808L62.9239 149.879C63.017 149.877 63.1075 149.91 63.1767 149.973C63.246 150.035 63.2888 150.121 63.2964 150.214L64.5182 161.981C64.5249 162.031 64.5204 162.083 64.5049 162.132C64.4895 162.181 64.4635 162.226 64.4288 162.263C64.3934 162.303 64.3499 162.335 64.301 162.357C64.2522 162.379 64.1992 162.39 64.1457 162.39ZM14.7 161.646H63.7359L62.5961 150.63L14.8714 151.544L14.7 161.646Z" fill="#271A8A"/>
<path d="M60.6442 92.3378C60.6442 92.3378 58.1857 84.0794 33.0792 82.5258C26.3146 82.1021 19.8107 83.4773 15.4003 85.6404C14.9235 89.528 13.657 132.299 12.6289 152.667C30.2583 153.889 47.9625 153.513 65.5239 151.544C65.5239 151.544 58.8934 96.6045 60.6442 92.3378Z" fill="#6D5DE7"/>
<path d="M57.5226 88.8367C57.5226 88.8367 73.7934 102.745 79.2617 106.149C79.2617 106.149 76.3488 112.839 68.489 128.375C57.2172 120.822 40.6707 108.498 40.6707 108.498L57.5226 88.8367Z" fill="#6D5DE7"/>
<path d="M12.7555 146.913C12.7066 146.91 12.6588 146.896 12.6151 146.874C12.5713 146.852 12.5323 146.821 12.5005 146.784C12.4686 146.747 12.4445 146.703 12.4295 146.657C12.4144 146.61 12.4088 146.561 12.4128 146.512C13.0088 138.774 14.1487 100.21 14.1636 99.8158C14.1693 99.7192 14.2118 99.6284 14.2825 99.562C14.3531 99.4957 14.4465 99.4588 14.5435 99.459C14.5925 99.46 14.6407 99.4705 14.6855 99.4901C14.7304 99.5097 14.7709 99.5379 14.8048 99.5731C14.8387 99.6083 14.8653 99.6498 14.8831 99.6953C14.9009 99.7407 14.9096 99.7893 14.9086 99.8381C14.9086 100.232 13.7538 138.818 13.1578 146.571C13.1541 146.62 13.1407 146.668 13.1184 146.712C13.0961 146.755 13.0654 146.794 13.028 146.826C12.9906 146.858 12.9473 146.882 12.9005 146.897C12.8538 146.912 12.8045 146.917 12.7555 146.913Z" fill="#271A8A"/>
<path d="M68.4964 128.746C68.4201 128.749 68.3448 128.728 68.2804 128.687L45.4908 113.129C45.4222 113.069 45.3779 112.986 45.3663 112.896C45.3548 112.806 45.3768 112.714 45.4282 112.639C45.4796 112.564 45.5569 112.51 45.6453 112.488C45.7337 112.466 45.8272 112.477 45.908 112.519L68.705 128.07C68.7845 128.128 68.8387 128.214 68.8567 128.311C68.8747 128.408 68.8551 128.507 68.8019 128.59C68.7668 128.638 68.7209 128.677 68.6678 128.705C68.6148 128.732 68.5561 128.746 68.4964 128.746V128.746Z" fill="#271A8A"/>
<path d="M37.9589 76.2967C37.9589 76.2967 32.2895 75.085 30.8367 73.5166C31.3136 75.0063 32.3207 76.2702 33.6677 77.0697C35.2138 78.0109 36.8769 78.7457 38.6145 79.2551L37.9589 76.2967Z" fill="#271A8A"/>
<path d="M38.6145 79.5896H38.54C36.7684 79.0693 35.0727 78.3196 33.4964 77.3596C32.0718 76.5089 31.011 75.1647 30.5164 73.5835C30.4923 73.5034 30.4979 73.4173 30.5321 73.3409C30.5662 73.2645 30.6268 73.2029 30.7026 73.1672C30.7746 73.1276 30.8579 73.1133 30.9391 73.1268C31.0202 73.1403 31.0944 73.1807 31.1496 73.2416C32.2746 74.4532 36.5285 75.5756 38.0781 75.9101C38.1477 75.9246 38.2116 75.959 38.2619 76.0092C38.3122 76.0594 38.3467 76.1231 38.3612 76.1926L39.0168 79.1659C39.0283 79.2282 39.0248 79.2924 39.0067 79.3531C38.9886 79.4138 38.9563 79.4694 38.9125 79.5153C38.8705 79.5473 38.8224 79.5704 38.7712 79.5832C38.72 79.596 38.6666 79.5982 38.6145 79.5896V79.5896ZM31.7382 74.5721C32.2621 75.4464 32.9907 76.181 33.8614 76.7129C35.2026 77.5215 36.6292 78.1797 38.1154 78.6753L37.646 76.5717C35.6065 76.133 33.6242 75.4621 31.7382 74.5721V74.5721Z" fill="#271A8A"/>
<path d="M215.761 16.4732H27.4023C27.3041 16.4713 27.2104 16.4315 27.141 16.3622C27.0715 16.2929 27.0317 16.1995 27.0298 16.1015C27.0298 16.003 27.069 15.9084 27.1389 15.8387C27.2087 15.769 27.3035 15.7299 27.4023 15.7299H215.761C215.859 15.7299 215.954 15.769 216.024 15.8387C216.094 15.9084 216.133 16.003 216.133 16.1015C216.133 16.2001 216.094 16.2946 216.024 16.3643C215.954 16.434 215.859 16.4732 215.761 16.4732Z" fill="#A8A2D7"/>
<path d="M111.982 10.4448H81.6234C81.4258 10.4448 81.2363 10.3665 81.0966 10.227C80.9568 10.0876 80.8784 9.89858 80.8784 9.70143C80.8784 9.50429 80.9568 9.31522 81.0966 9.17582C81.2363 9.03641 81.4258 8.9581 81.6234 8.9581H111.982C112.18 8.9581 112.369 9.03641 112.509 9.17582C112.649 9.31522 112.727 9.50429 112.727 9.70143C112.727 9.89858 112.649 10.0876 112.509 10.227C112.369 10.3665 112.18 10.4448 111.982 10.4448Z" fill="#A8A2D7"/>
<path d="M65.5314 10.4448H35.1726C34.975 10.4448 34.7855 10.3665 34.6458 10.227C34.5061 10.0876 34.4276 9.89858 34.4276 9.70143C34.4276 9.50429 34.5061 9.31522 34.6458 9.17582C34.7855 9.03641 34.975 8.9581 35.1726 8.9581H65.5314C65.7289 8.9581 65.9184 9.03641 66.0582 9.17582C66.1979 9.31522 66.2764 9.50429 66.2764 9.70143C66.2764 9.89858 66.1979 10.0876 66.0582 10.227C65.9184 10.3665 65.7289 10.4448 65.5314 10.4448V10.4448Z" fill="#A8A2D7"/>
<path d="M161.688 10.4448H131.33C131.132 10.4448 130.943 10.3665 130.803 10.227C130.663 10.0876 130.585 9.89858 130.585 9.70143C130.585 9.50429 130.663 9.31522 130.803 9.17582C130.943 9.03641 131.132 8.9581 131.33 8.9581H161.688C161.886 8.9581 162.076 9.03641 162.215 9.17582C162.355 9.31522 162.433 9.50429 162.433 9.70143C162.433 9.89858 162.355 10.0876 162.215 10.227C162.076 10.3665 161.886 10.4448 161.688 10.4448Z" fill="#A8A2D7"/>
<path d="M209.592 10.4448H179.233C179.036 10.4448 178.846 10.3665 178.706 10.227C178.567 10.0876 178.488 9.89858 178.488 9.70143C178.488 9.50429 178.567 9.31522 178.706 9.17582C178.846 9.03641 179.036 8.9581 179.233 8.9581H209.592C209.79 8.9581 209.979 9.03641 210.119 9.17582C210.259 9.31522 210.337 9.50429 210.337 9.70143C210.337 9.89858 210.259 10.0876 210.119 10.227C209.979 10.3665 209.79 10.4448 209.592 10.4448Z" fill="#A8A2D7"/>
<path d="M95.1004 33.4807H78.4795V50.0644H95.1004V33.4807Z" fill="white"/>
<path d="M95.1004 50.4361H78.4794C78.3806 50.4361 78.2859 50.3969 78.216 50.3272C78.1462 50.2575 78.1069 50.163 78.1069 50.0644V33.4807C78.1069 33.3821 78.1462 33.2876 78.216 33.2179C78.2859 33.1482 78.3806 33.109 78.4794 33.109H95.1004C95.1992 33.109 95.2939 33.1482 95.3638 33.2179C95.4336 33.2876 95.4729 33.3821 95.4729 33.4807V50.0644C95.4729 50.1132 95.4633 50.1616 95.4445 50.2067C95.4258 50.2518 95.3984 50.2927 95.3638 50.3272C95.3292 50.3618 95.2881 50.3891 95.2429 50.4078C95.1977 50.4265 95.1493 50.4361 95.1004 50.4361V50.4361ZM78.8519 49.6928H94.7279V33.8523H78.8519V49.6928Z" fill="#A8A2D7"/>
<path d="M92.0758 37.4055H81.5042C81.4054 37.4055 81.3107 37.3663 81.2408 37.2966C81.171 37.2269 81.1317 37.1324 81.1317 37.0338C81.1336 36.9358 81.1735 36.8424 81.2429 36.7731C81.3124 36.7038 81.406 36.664 81.5042 36.6621H92.0758C92.174 36.664 92.2676 36.7038 92.3371 36.7731C92.4065 36.8424 92.4464 36.9358 92.4483 37.0338C92.4483 37.1324 92.409 37.2269 92.3392 37.2966C92.2693 37.3663 92.1746 37.4055 92.0758 37.4055Z" fill="#A8A2D7"/>
<path d="M92.0758 40.5052H81.5042C81.4054 40.5052 81.3107 40.466 81.2408 40.3963C81.171 40.3266 81.1317 40.2321 81.1317 40.1335C81.1336 40.0355 81.1735 39.9421 81.2429 39.8728C81.3124 39.8035 81.406 39.7637 81.5042 39.7618H92.0758C92.174 39.7637 92.2676 39.8035 92.3371 39.8728C92.4065 39.9421 92.4464 40.0355 92.4483 40.1335C92.4483 40.2321 92.409 40.3266 92.3392 40.3963C92.2693 40.466 92.1746 40.5052 92.0758 40.5052Z" fill="#A8A2D7"/>
<path d="M92.0758 43.59H81.5042C81.4054 43.59 81.3107 43.5509 81.2408 43.4812C81.171 43.4115 81.1317 43.3169 81.1317 43.2183C81.1336 43.1204 81.1735 43.0269 81.2429 42.9576C81.3124 42.8883 81.406 42.8486 81.5042 42.8467H92.0758C92.174 42.8486 92.2676 42.8883 92.3371 42.9576C92.4065 43.0269 92.4464 43.1204 92.4483 43.2183C92.4483 43.3169 92.409 43.4115 92.3392 43.4812C92.2693 43.5509 92.1746 43.59 92.0758 43.59Z" fill="#A8A2D7"/>
<path d="M87.9187 46.7046H81.5042C81.4054 46.7046 81.3107 46.6654 81.2408 46.5957C81.171 46.526 81.1317 46.4315 81.1317 46.3329C81.1336 46.2349 81.1735 46.1415 81.2429 46.0722C81.3124 46.0029 81.406 45.9631 81.5042 45.9612H87.9187C88.0169 45.9631 88.1105 46.0029 88.18 46.0722C88.2494 46.1415 88.2893 46.2349 88.2912 46.3329C88.2912 46.3817 88.2815 46.43 88.2628 46.4751C88.2441 46.5202 88.2167 46.5612 88.1821 46.5957C88.1475 46.6302 88.1064 46.6576 88.0612 46.6763C88.016 46.695 87.9676 46.7046 87.9187 46.7046Z" fill="#A8A2D7"/>
<path d="M116.616 22.4942H99.9951V39.078H116.616V22.4942Z" fill="#A8A2D7"/>
<path d="M113.591 27.1177H103.027C102.928 27.1177 102.834 27.0786 102.764 27.0089C102.694 26.9392 102.655 26.8446 102.655 26.7461C102.655 26.6475 102.694 26.553 102.764 26.4833C102.834 26.4136 102.928 26.3744 103.027 26.3744H113.591C113.69 26.3744 113.785 26.4136 113.855 26.4833C113.925 26.553 113.964 26.6475 113.964 26.7461C113.964 26.8446 113.925 26.9392 113.855 27.0089C113.785 27.0786 113.69 27.1177 113.591 27.1177Z" fill="white"/>
<path d="M113.591 30.21H103.027C102.928 30.21 102.834 30.1709 102.764 30.1011C102.694 30.0314 102.655 29.9369 102.655 29.8383C102.655 29.7398 102.694 29.6452 102.764 29.5755C102.834 29.5058 102.928 29.4667 103.027 29.4667H113.591C113.69 29.4667 113.785 29.5058 113.855 29.5755C113.925 29.6452 113.964 29.7398 113.964 29.8383C113.964 29.9369 113.925 30.0314 113.855 30.1011C113.785 30.1709 113.69 30.21 113.591 30.21Z" fill="white"/>
<path d="M110.924 33.3171H103.027C102.928 33.3171 102.834 33.278 102.764 33.2083C102.694 33.1386 102.655 33.044 102.655 32.9455C102.655 32.8469 102.694 32.7524 102.764 32.6826C102.834 32.6129 102.928 32.5738 103.027 32.5738H110.924C111.023 32.5738 111.118 32.6129 111.188 32.6826C111.257 32.7524 111.297 32.8469 111.297 32.9455C111.297 33.044 111.257 33.1386 111.188 33.2083C111.118 33.278 111.023 33.3171 110.924 33.3171Z" fill="white"/>
<path d="M146.505 20.6284H129.885V37.2122H146.505V20.6284Z" fill="white"/>
<path d="M146.505 37.5839H129.884C129.786 37.5839 129.691 37.5447 129.621 37.475C129.551 37.4053 129.512 37.3108 129.512 37.2122V20.6284C129.514 20.5305 129.554 20.437 129.623 20.3677C129.693 20.2984 129.786 20.2587 129.884 20.2568H146.505C146.604 20.2568 146.699 20.2959 146.769 20.3656C146.839 20.4353 146.878 20.5299 146.878 20.6284V37.2122C146.878 37.261 146.868 37.3093 146.85 37.3544C146.831 37.3995 146.803 37.4405 146.769 37.475C146.734 37.5095 146.693 37.5369 146.648 37.5556C146.603 37.5743 146.554 37.5839 146.505 37.5839ZM130.257 36.8405H146.133V21.0001H130.257V36.8405Z" fill="#A8A2D7"/>
<path d="M143.481 24.5532H132.917C132.818 24.5532 132.723 24.5141 132.653 24.4444C132.583 24.3747 132.544 24.2801 132.544 24.1816C132.544 24.083 132.583 23.9885 132.653 23.9188C132.723 23.8491 132.818 23.8099 132.917 23.8099H143.481C143.579 23.8099 143.674 23.8491 143.744 23.9188C143.814 23.9885 143.853 24.083 143.853 24.1816C143.853 24.2801 143.814 24.3747 143.744 24.4444C143.674 24.5141 143.579 24.5532 143.481 24.5532Z" fill="#A8A2D7"/>
<path d="M143.481 27.6529H132.917C132.818 27.6529 132.723 27.6138 132.653 27.5441C132.583 27.4744 132.544 27.3798 132.544 27.2813C132.544 27.1827 132.583 27.0882 132.653 27.0185C132.723 26.9488 132.818 26.9096 132.917 26.9096H143.481C143.579 26.9096 143.674 26.9488 143.744 27.0185C143.814 27.0882 143.853 27.1827 143.853 27.2813C143.853 27.3798 143.814 27.4744 143.744 27.5441C143.674 27.6138 143.579 27.6529 143.481 27.6529Z" fill="#A8A2D7"/>
<path d="M143.481 30.7526H132.917C132.818 30.7526 132.723 30.7135 132.653 30.6438C132.583 30.5741 132.544 30.4795 132.544 30.381C132.544 30.2824 132.583 30.1879 132.653 30.1182C132.723 30.0485 132.818 30.0093 132.917 30.0093H143.481C143.579 30.0093 143.674 30.0485 143.744 30.1182C143.814 30.1879 143.853 30.2824 143.853 30.381C143.853 30.4795 143.814 30.5741 143.744 30.6438C143.674 30.7135 143.579 30.7526 143.481 30.7526Z" fill="#A8A2D7"/>
<path d="M139.324 33.8523H132.917C132.818 33.8523 132.723 33.8132 132.653 33.7435C132.583 33.6738 132.544 33.5792 132.544 33.4807C132.544 33.3821 132.583 33.2876 132.653 33.2179C132.723 33.1482 132.818 33.109 132.917 33.109H139.324C139.422 33.109 139.517 33.1482 139.587 33.2179C139.657 33.2876 139.696 33.3821 139.696 33.4807C139.696 33.5792 139.657 33.6738 139.587 33.7435C139.517 33.8132 139.422 33.8523 139.324 33.8523Z" fill="#A8A2D7"/>
<path d="M167.075 34.945H150.454V51.5288H167.075V34.945Z" fill="#A8A2D7"/>
<path d="M164.043 38.8698H153.479C153.38 38.8698 153.285 38.8307 153.215 38.761C153.145 38.6913 153.106 38.5967 153.106 38.4982C153.106 38.3996 153.145 38.3051 153.215 38.2354C153.285 38.1657 153.38 38.1265 153.479 38.1265H164.043C164.141 38.1265 164.236 38.1657 164.306 38.2354C164.376 38.3051 164.415 38.3996 164.415 38.4982C164.415 38.5967 164.376 38.6913 164.306 38.761C164.236 38.8307 164.141 38.8698 164.043 38.8698Z" fill="white"/>
<path d="M164.043 41.9695H153.479C153.38 41.9695 153.285 41.9304 153.215 41.8607C153.145 41.791 153.106 41.6964 153.106 41.5979C153.106 41.4993 153.145 41.4048 153.215 41.3351C153.285 41.2654 153.38 41.2262 153.479 41.2262H164.043C164.141 41.2262 164.236 41.2654 164.306 41.3351C164.376 41.4048 164.415 41.4993 164.415 41.5979C164.415 41.6964 164.376 41.791 164.306 41.8607C164.236 41.9304 164.141 41.9695 164.043 41.9695Z" fill="white"/>
<path d="M164.043 45.0767H153.479C153.38 45.0767 153.285 45.0375 153.215 44.9678C153.145 44.8981 153.106 44.8036 153.106 44.705C153.106 44.6064 153.145 44.5119 153.215 44.4422C153.285 44.3725 153.38 44.3333 153.479 44.3333H164.043C164.141 44.3333 164.236 44.3725 164.306 44.4422C164.376 44.5119 164.415 44.6064 164.415 44.705C164.415 44.8036 164.376 44.8981 164.306 44.9678C164.236 45.0375 164.141 45.0767 164.043 45.0767Z" fill="white"/>
<path d="M159.886 48.1689H153.479C153.38 48.1689 153.285 48.1298 153.215 48.0601C153.145 47.9904 153.106 47.8958 153.106 47.7973C153.106 47.6987 153.145 47.6042 153.215 47.5345C153.285 47.4648 153.38 47.4256 153.479 47.4256H159.886C159.984 47.4256 160.079 47.4648 160.149 47.5345C160.219 47.6042 160.258 47.6987 160.258 47.7973C160.258 47.8958 160.219 47.9904 160.149 48.0601C160.079 48.1298 159.984 48.1689 159.886 48.1689Z" fill="white"/>
</svg>
